%TF.GenerationSoftware,KiCad,Pcbnew,9.0.7*%
%TF.CreationDate,2026-03-29T07:00:43+01:00*%
%TF.ProjectId,RISKYZXSpectrum,5249534b-595a-4585-9370-65637472756d,rev?*%
%TF.SameCoordinates,Original*%
%TF.FileFunction,Legend,Bot*%
%TF.FilePolarity,Positive*%
%FSLAX46Y46*%
G04 Gerber Fmt 4.6, Leading zero omitted, Abs format (unit mm)*
G04 Created by KiCad (PCBNEW 9.0.7) date 2026-03-29 07:00:43*
%MOMM*%
%LPD*%
G01*
G04 APERTURE LIST*
%ADD10C,0.100000*%
%ADD11C,0.150000*%
%ADD12C,0.120000*%
G04 APERTURE END LIST*
D10*
X98541027Y-128889247D02*
X98779122Y-128889247D01*
X98493408Y-128746390D02*
X98660074Y-129246390D01*
X98660074Y-129246390D02*
X98826741Y-128746390D01*
X99255312Y-128746390D02*
X98969598Y-128746390D01*
X99112455Y-128746390D02*
X99112455Y-129246390D01*
X99112455Y-129246390D02*
X99064836Y-129174961D01*
X99064836Y-129174961D02*
X99017217Y-129127342D01*
X99017217Y-129127342D02*
X98969598Y-129103533D01*
X99707692Y-129246390D02*
X99469597Y-129246390D01*
X99469597Y-129246390D02*
X99445788Y-129008295D01*
X99445788Y-129008295D02*
X99469597Y-129032104D01*
X99469597Y-129032104D02*
X99517216Y-129055914D01*
X99517216Y-129055914D02*
X99636264Y-129055914D01*
X99636264Y-129055914D02*
X99683883Y-129032104D01*
X99683883Y-129032104D02*
X99707692Y-129008295D01*
X99707692Y-129008295D02*
X99731502Y-128960676D01*
X99731502Y-128960676D02*
X99731502Y-128841628D01*
X99731502Y-128841628D02*
X99707692Y-128794009D01*
X99707692Y-128794009D02*
X99683883Y-128770200D01*
X99683883Y-128770200D02*
X99636264Y-128746390D01*
X99636264Y-128746390D02*
X99517216Y-128746390D01*
X99517216Y-128746390D02*
X99469597Y-128770200D01*
X99469597Y-128770200D02*
X99445788Y-128794009D01*
X101321027Y-128869247D02*
X101559122Y-128869247D01*
X101273408Y-128726390D02*
X101440074Y-129226390D01*
X101440074Y-129226390D02*
X101606741Y-128726390D01*
X102035312Y-128726390D02*
X101749598Y-128726390D01*
X101892455Y-128726390D02*
X101892455Y-129226390D01*
X101892455Y-129226390D02*
X101844836Y-129154961D01*
X101844836Y-129154961D02*
X101797217Y-129107342D01*
X101797217Y-129107342D02*
X101749598Y-129083533D01*
X102201978Y-129226390D02*
X102511502Y-129226390D01*
X102511502Y-129226390D02*
X102344835Y-129035914D01*
X102344835Y-129035914D02*
X102416264Y-129035914D01*
X102416264Y-129035914D02*
X102463883Y-129012104D01*
X102463883Y-129012104D02*
X102487692Y-128988295D01*
X102487692Y-128988295D02*
X102511502Y-128940676D01*
X102511502Y-128940676D02*
X102511502Y-128821628D01*
X102511502Y-128821628D02*
X102487692Y-128774009D01*
X102487692Y-128774009D02*
X102463883Y-128750200D01*
X102463883Y-128750200D02*
X102416264Y-128726390D01*
X102416264Y-128726390D02*
X102273407Y-128726390D01*
X102273407Y-128726390D02*
X102225788Y-128750200D01*
X102225788Y-128750200D02*
X102201978Y-128774009D01*
X103824836Y-128706390D02*
X103824836Y-129206390D01*
X103824836Y-129206390D02*
X103943884Y-129206390D01*
X103943884Y-129206390D02*
X104015312Y-129182580D01*
X104015312Y-129182580D02*
X104062931Y-129134961D01*
X104062931Y-129134961D02*
X104086741Y-129087342D01*
X104086741Y-129087342D02*
X104110550Y-128992104D01*
X104110550Y-128992104D02*
X104110550Y-128920676D01*
X104110550Y-128920676D02*
X104086741Y-128825438D01*
X104086741Y-128825438D02*
X104062931Y-128777819D01*
X104062931Y-128777819D02*
X104015312Y-128730200D01*
X104015312Y-128730200D02*
X103943884Y-128706390D01*
X103943884Y-128706390D02*
X103824836Y-128706390D01*
X104277217Y-129206390D02*
X104610550Y-129206390D01*
X104610550Y-129206390D02*
X104396265Y-128706390D01*
X106460074Y-129226390D02*
X106555312Y-129226390D01*
X106555312Y-129226390D02*
X106602931Y-129202580D01*
X106602931Y-129202580D02*
X106650550Y-129154961D01*
X106650550Y-129154961D02*
X106674360Y-129059723D01*
X106674360Y-129059723D02*
X106674360Y-128893057D01*
X106674360Y-128893057D02*
X106650550Y-128797819D01*
X106650550Y-128797819D02*
X106602931Y-128750200D01*
X106602931Y-128750200D02*
X106555312Y-128726390D01*
X106555312Y-128726390D02*
X106460074Y-128726390D01*
X106460074Y-128726390D02*
X106412455Y-128750200D01*
X106412455Y-128750200D02*
X106364836Y-128797819D01*
X106364836Y-128797819D02*
X106341027Y-128893057D01*
X106341027Y-128893057D02*
X106341027Y-129059723D01*
X106341027Y-129059723D02*
X106364836Y-129154961D01*
X106364836Y-129154961D02*
X106412455Y-129202580D01*
X106412455Y-129202580D02*
X106460074Y-129226390D01*
X106888646Y-128988295D02*
X107055313Y-128988295D01*
X107126741Y-128726390D02*
X106888646Y-128726390D01*
X106888646Y-128726390D02*
X106888646Y-129226390D01*
X106888646Y-129226390D02*
X107126741Y-129226390D01*
X106295789Y-129365200D02*
X107171980Y-129365200D01*
X111474836Y-128636390D02*
X111474836Y-129136390D01*
X111474836Y-129136390D02*
X111593884Y-129136390D01*
X111593884Y-129136390D02*
X111665312Y-129112580D01*
X111665312Y-129112580D02*
X111712931Y-129064961D01*
X111712931Y-129064961D02*
X111736741Y-129017342D01*
X111736741Y-129017342D02*
X111760550Y-128922104D01*
X111760550Y-128922104D02*
X111760550Y-128850676D01*
X111760550Y-128850676D02*
X111736741Y-128755438D01*
X111736741Y-128755438D02*
X111712931Y-128707819D01*
X111712931Y-128707819D02*
X111665312Y-128660200D01*
X111665312Y-128660200D02*
X111593884Y-128636390D01*
X111593884Y-128636390D02*
X111474836Y-128636390D01*
X112070074Y-129136390D02*
X112117693Y-129136390D01*
X112117693Y-129136390D02*
X112165312Y-129112580D01*
X112165312Y-129112580D02*
X112189122Y-129088771D01*
X112189122Y-129088771D02*
X112212931Y-129041152D01*
X112212931Y-129041152D02*
X112236741Y-128945914D01*
X112236741Y-128945914D02*
X112236741Y-128826866D01*
X112236741Y-128826866D02*
X112212931Y-128731628D01*
X112212931Y-128731628D02*
X112189122Y-128684009D01*
X112189122Y-128684009D02*
X112165312Y-128660200D01*
X112165312Y-128660200D02*
X112117693Y-128636390D01*
X112117693Y-128636390D02*
X112070074Y-128636390D01*
X112070074Y-128636390D02*
X112022455Y-128660200D01*
X112022455Y-128660200D02*
X111998646Y-128684009D01*
X111998646Y-128684009D02*
X111974836Y-128731628D01*
X111974836Y-128731628D02*
X111951027Y-128826866D01*
X111951027Y-128826866D02*
X111951027Y-128945914D01*
X111951027Y-128945914D02*
X111974836Y-129041152D01*
X111974836Y-129041152D02*
X111998646Y-129088771D01*
X111998646Y-129088771D02*
X112022455Y-129112580D01*
X112022455Y-129112580D02*
X112070074Y-129136390D01*
X113864836Y-128606390D02*
X113864836Y-129106390D01*
X113864836Y-129106390D02*
X113983884Y-129106390D01*
X113983884Y-129106390D02*
X114055312Y-129082580D01*
X114055312Y-129082580D02*
X114102931Y-129034961D01*
X114102931Y-129034961D02*
X114126741Y-128987342D01*
X114126741Y-128987342D02*
X114150550Y-128892104D01*
X114150550Y-128892104D02*
X114150550Y-128820676D01*
X114150550Y-128820676D02*
X114126741Y-128725438D01*
X114126741Y-128725438D02*
X114102931Y-128677819D01*
X114102931Y-128677819D02*
X114055312Y-128630200D01*
X114055312Y-128630200D02*
X113983884Y-128606390D01*
X113983884Y-128606390D02*
X113864836Y-128606390D01*
X114626741Y-128606390D02*
X114341027Y-128606390D01*
X114483884Y-128606390D02*
X114483884Y-129106390D01*
X114483884Y-129106390D02*
X114436265Y-129034961D01*
X114436265Y-129034961D02*
X114388646Y-128987342D01*
X114388646Y-128987342D02*
X114341027Y-128963533D01*
X116604836Y-128666390D02*
X116604836Y-129166390D01*
X116604836Y-129166390D02*
X116723884Y-129166390D01*
X116723884Y-129166390D02*
X116795312Y-129142580D01*
X116795312Y-129142580D02*
X116842931Y-129094961D01*
X116842931Y-129094961D02*
X116866741Y-129047342D01*
X116866741Y-129047342D02*
X116890550Y-128952104D01*
X116890550Y-128952104D02*
X116890550Y-128880676D01*
X116890550Y-128880676D02*
X116866741Y-128785438D01*
X116866741Y-128785438D02*
X116842931Y-128737819D01*
X116842931Y-128737819D02*
X116795312Y-128690200D01*
X116795312Y-128690200D02*
X116723884Y-128666390D01*
X116723884Y-128666390D02*
X116604836Y-128666390D01*
X117081027Y-129118771D02*
X117104836Y-129142580D01*
X117104836Y-129142580D02*
X117152455Y-129166390D01*
X117152455Y-129166390D02*
X117271503Y-129166390D01*
X117271503Y-129166390D02*
X117319122Y-129142580D01*
X117319122Y-129142580D02*
X117342931Y-129118771D01*
X117342931Y-129118771D02*
X117366741Y-129071152D01*
X117366741Y-129071152D02*
X117366741Y-129023533D01*
X117366741Y-129023533D02*
X117342931Y-128952104D01*
X117342931Y-128952104D02*
X117057217Y-128666390D01*
X117057217Y-128666390D02*
X117366741Y-128666390D01*
X119084836Y-128656390D02*
X119084836Y-129156390D01*
X119084836Y-129156390D02*
X119203884Y-129156390D01*
X119203884Y-129156390D02*
X119275312Y-129132580D01*
X119275312Y-129132580D02*
X119322931Y-129084961D01*
X119322931Y-129084961D02*
X119346741Y-129037342D01*
X119346741Y-129037342D02*
X119370550Y-128942104D01*
X119370550Y-128942104D02*
X119370550Y-128870676D01*
X119370550Y-128870676D02*
X119346741Y-128775438D01*
X119346741Y-128775438D02*
X119322931Y-128727819D01*
X119322931Y-128727819D02*
X119275312Y-128680200D01*
X119275312Y-128680200D02*
X119203884Y-128656390D01*
X119203884Y-128656390D02*
X119084836Y-128656390D01*
X119799122Y-129156390D02*
X119703884Y-129156390D01*
X119703884Y-129156390D02*
X119656265Y-129132580D01*
X119656265Y-129132580D02*
X119632455Y-129108771D01*
X119632455Y-129108771D02*
X119584836Y-129037342D01*
X119584836Y-129037342D02*
X119561027Y-128942104D01*
X119561027Y-128942104D02*
X119561027Y-128751628D01*
X119561027Y-128751628D02*
X119584836Y-128704009D01*
X119584836Y-128704009D02*
X119608646Y-128680200D01*
X119608646Y-128680200D02*
X119656265Y-128656390D01*
X119656265Y-128656390D02*
X119751503Y-128656390D01*
X119751503Y-128656390D02*
X119799122Y-128680200D01*
X119799122Y-128680200D02*
X119822931Y-128704009D01*
X119822931Y-128704009D02*
X119846741Y-128751628D01*
X119846741Y-128751628D02*
X119846741Y-128870676D01*
X119846741Y-128870676D02*
X119822931Y-128918295D01*
X119822931Y-128918295D02*
X119799122Y-128942104D01*
X119799122Y-128942104D02*
X119751503Y-128965914D01*
X119751503Y-128965914D02*
X119656265Y-128965914D01*
X119656265Y-128965914D02*
X119608646Y-128942104D01*
X119608646Y-128942104D02*
X119584836Y-128918295D01*
X119584836Y-128918295D02*
X119561027Y-128870676D01*
X121614836Y-128606390D02*
X121614836Y-129106390D01*
X121614836Y-129106390D02*
X121733884Y-129106390D01*
X121733884Y-129106390D02*
X121805312Y-129082580D01*
X121805312Y-129082580D02*
X121852931Y-129034961D01*
X121852931Y-129034961D02*
X121876741Y-128987342D01*
X121876741Y-128987342D02*
X121900550Y-128892104D01*
X121900550Y-128892104D02*
X121900550Y-128820676D01*
X121900550Y-128820676D02*
X121876741Y-128725438D01*
X121876741Y-128725438D02*
X121852931Y-128677819D01*
X121852931Y-128677819D02*
X121805312Y-128630200D01*
X121805312Y-128630200D02*
X121733884Y-128606390D01*
X121733884Y-128606390D02*
X121614836Y-128606390D01*
X122352931Y-129106390D02*
X122114836Y-129106390D01*
X122114836Y-129106390D02*
X122091027Y-128868295D01*
X122091027Y-128868295D02*
X122114836Y-128892104D01*
X122114836Y-128892104D02*
X122162455Y-128915914D01*
X122162455Y-128915914D02*
X122281503Y-128915914D01*
X122281503Y-128915914D02*
X122329122Y-128892104D01*
X122329122Y-128892104D02*
X122352931Y-128868295D01*
X122352931Y-128868295D02*
X122376741Y-128820676D01*
X122376741Y-128820676D02*
X122376741Y-128701628D01*
X122376741Y-128701628D02*
X122352931Y-128654009D01*
X122352931Y-128654009D02*
X122329122Y-128630200D01*
X122329122Y-128630200D02*
X122281503Y-128606390D01*
X122281503Y-128606390D02*
X122162455Y-128606390D01*
X122162455Y-128606390D02*
X122114836Y-128630200D01*
X122114836Y-128630200D02*
X122091027Y-128654009D01*
X124014836Y-128546390D02*
X124014836Y-129046390D01*
X124014836Y-129046390D02*
X124133884Y-129046390D01*
X124133884Y-129046390D02*
X124205312Y-129022580D01*
X124205312Y-129022580D02*
X124252931Y-128974961D01*
X124252931Y-128974961D02*
X124276741Y-128927342D01*
X124276741Y-128927342D02*
X124300550Y-128832104D01*
X124300550Y-128832104D02*
X124300550Y-128760676D01*
X124300550Y-128760676D02*
X124276741Y-128665438D01*
X124276741Y-128665438D02*
X124252931Y-128617819D01*
X124252931Y-128617819D02*
X124205312Y-128570200D01*
X124205312Y-128570200D02*
X124133884Y-128546390D01*
X124133884Y-128546390D02*
X124014836Y-128546390D01*
X124467217Y-129046390D02*
X124776741Y-129046390D01*
X124776741Y-129046390D02*
X124610074Y-128855914D01*
X124610074Y-128855914D02*
X124681503Y-128855914D01*
X124681503Y-128855914D02*
X124729122Y-128832104D01*
X124729122Y-128832104D02*
X124752931Y-128808295D01*
X124752931Y-128808295D02*
X124776741Y-128760676D01*
X124776741Y-128760676D02*
X124776741Y-128641628D01*
X124776741Y-128641628D02*
X124752931Y-128594009D01*
X124752931Y-128594009D02*
X124729122Y-128570200D01*
X124729122Y-128570200D02*
X124681503Y-128546390D01*
X124681503Y-128546390D02*
X124538646Y-128546390D01*
X124538646Y-128546390D02*
X124491027Y-128570200D01*
X124491027Y-128570200D02*
X124467217Y-128594009D01*
X126714836Y-128446390D02*
X126714836Y-128946390D01*
X126714836Y-128946390D02*
X126833884Y-128946390D01*
X126833884Y-128946390D02*
X126905312Y-128922580D01*
X126905312Y-128922580D02*
X126952931Y-128874961D01*
X126952931Y-128874961D02*
X126976741Y-128827342D01*
X126976741Y-128827342D02*
X127000550Y-128732104D01*
X127000550Y-128732104D02*
X127000550Y-128660676D01*
X127000550Y-128660676D02*
X126976741Y-128565438D01*
X126976741Y-128565438D02*
X126952931Y-128517819D01*
X126952931Y-128517819D02*
X126905312Y-128470200D01*
X126905312Y-128470200D02*
X126833884Y-128446390D01*
X126833884Y-128446390D02*
X126714836Y-128446390D01*
X127429122Y-128779723D02*
X127429122Y-128446390D01*
X127310074Y-128970200D02*
X127191027Y-128613057D01*
X127191027Y-128613057D02*
X127500550Y-128613057D01*
X129134836Y-128616390D02*
X129134836Y-129116390D01*
X129372931Y-128616390D02*
X129372931Y-129116390D01*
X129372931Y-129116390D02*
X129658645Y-128616390D01*
X129658645Y-128616390D02*
X129658645Y-129116390D01*
X129825313Y-129116390D02*
X130111027Y-129116390D01*
X129968170Y-128616390D02*
X129968170Y-129116390D01*
X129065789Y-129255200D02*
X130108646Y-129255200D01*
X131734836Y-128556390D02*
X131734836Y-129056390D01*
X131734836Y-129056390D02*
X131901503Y-128699247D01*
X131901503Y-128699247D02*
X132068169Y-129056390D01*
X132068169Y-129056390D02*
X132068169Y-128556390D01*
X132306265Y-128556390D02*
X132306265Y-129056390D01*
X132306265Y-129056390D02*
X132591979Y-128556390D01*
X132591979Y-128556390D02*
X132591979Y-129056390D01*
X132830075Y-128556390D02*
X132830075Y-129056390D01*
X131665789Y-129195200D02*
X132899123Y-129195200D01*
X134251027Y-128689247D02*
X134489122Y-128689247D01*
X134203408Y-128546390D02*
X134370074Y-129046390D01*
X134370074Y-129046390D02*
X134536741Y-128546390D01*
X134965312Y-128546390D02*
X134679598Y-128546390D01*
X134822455Y-128546390D02*
X134822455Y-129046390D01*
X134822455Y-129046390D02*
X134774836Y-128974961D01*
X134774836Y-128974961D02*
X134727217Y-128927342D01*
X134727217Y-128927342D02*
X134679598Y-128903533D01*
X135417692Y-129046390D02*
X135179597Y-129046390D01*
X135179597Y-129046390D02*
X135155788Y-128808295D01*
X135155788Y-128808295D02*
X135179597Y-128832104D01*
X135179597Y-128832104D02*
X135227216Y-128855914D01*
X135227216Y-128855914D02*
X135346264Y-128855914D01*
X135346264Y-128855914D02*
X135393883Y-128832104D01*
X135393883Y-128832104D02*
X135417692Y-128808295D01*
X135417692Y-128808295D02*
X135441502Y-128760676D01*
X135441502Y-128760676D02*
X135441502Y-128641628D01*
X135441502Y-128641628D02*
X135417692Y-128594009D01*
X135417692Y-128594009D02*
X135393883Y-128570200D01*
X135393883Y-128570200D02*
X135346264Y-128546390D01*
X135346264Y-128546390D02*
X135227216Y-128546390D01*
X135227216Y-128546390D02*
X135179597Y-128570200D01*
X135179597Y-128570200D02*
X135155788Y-128594009D01*
X136914836Y-128556390D02*
X136914836Y-129056390D01*
X136914836Y-129056390D02*
X137081503Y-128699247D01*
X137081503Y-128699247D02*
X137248169Y-129056390D01*
X137248169Y-129056390D02*
X137248169Y-128556390D01*
X137771979Y-128556390D02*
X137605313Y-128794485D01*
X137486265Y-128556390D02*
X137486265Y-129056390D01*
X137486265Y-129056390D02*
X137676741Y-129056390D01*
X137676741Y-129056390D02*
X137724360Y-129032580D01*
X137724360Y-129032580D02*
X137748170Y-129008771D01*
X137748170Y-129008771D02*
X137771979Y-128961152D01*
X137771979Y-128961152D02*
X137771979Y-128889723D01*
X137771979Y-128889723D02*
X137748170Y-128842104D01*
X137748170Y-128842104D02*
X137724360Y-128818295D01*
X137724360Y-128818295D02*
X137676741Y-128794485D01*
X137676741Y-128794485D02*
X137486265Y-128794485D01*
X137986265Y-128818295D02*
X138152932Y-128818295D01*
X138224360Y-128556390D02*
X137986265Y-128556390D01*
X137986265Y-128556390D02*
X137986265Y-129056390D01*
X137986265Y-129056390D02*
X138224360Y-129056390D01*
X138771979Y-128508771D02*
X138724360Y-128532580D01*
X138724360Y-128532580D02*
X138676741Y-128580200D01*
X138676741Y-128580200D02*
X138605313Y-128651628D01*
X138605313Y-128651628D02*
X138557694Y-128675438D01*
X138557694Y-128675438D02*
X138510075Y-128675438D01*
X138533884Y-128556390D02*
X138486265Y-128580200D01*
X138486265Y-128580200D02*
X138438646Y-128627819D01*
X138438646Y-128627819D02*
X138414837Y-128723057D01*
X138414837Y-128723057D02*
X138414837Y-128889723D01*
X138414837Y-128889723D02*
X138438646Y-128984961D01*
X138438646Y-128984961D02*
X138486265Y-129032580D01*
X138486265Y-129032580D02*
X138533884Y-129056390D01*
X138533884Y-129056390D02*
X138629122Y-129056390D01*
X138629122Y-129056390D02*
X138676741Y-129032580D01*
X138676741Y-129032580D02*
X138724360Y-128984961D01*
X138724360Y-128984961D02*
X138748170Y-128889723D01*
X138748170Y-128889723D02*
X138748170Y-128723057D01*
X138748170Y-128723057D02*
X138724360Y-128627819D01*
X138724360Y-128627819D02*
X138676741Y-128580200D01*
X138676741Y-128580200D02*
X138629122Y-128556390D01*
X138629122Y-128556390D02*
X138533884Y-128556390D01*
X136845789Y-129195200D02*
X138793409Y-129195200D01*
X139024836Y-128516390D02*
X139024836Y-129016390D01*
X139358169Y-129016390D02*
X139453407Y-129016390D01*
X139453407Y-129016390D02*
X139501026Y-128992580D01*
X139501026Y-128992580D02*
X139548645Y-128944961D01*
X139548645Y-128944961D02*
X139572455Y-128849723D01*
X139572455Y-128849723D02*
X139572455Y-128683057D01*
X139572455Y-128683057D02*
X139548645Y-128587819D01*
X139548645Y-128587819D02*
X139501026Y-128540200D01*
X139501026Y-128540200D02*
X139453407Y-128516390D01*
X139453407Y-128516390D02*
X139358169Y-128516390D01*
X139358169Y-128516390D02*
X139310550Y-128540200D01*
X139310550Y-128540200D02*
X139262931Y-128587819D01*
X139262931Y-128587819D02*
X139239122Y-128683057D01*
X139239122Y-128683057D02*
X139239122Y-128849723D01*
X139239122Y-128849723D02*
X139262931Y-128944961D01*
X139262931Y-128944961D02*
X139310550Y-128992580D01*
X139310550Y-128992580D02*
X139358169Y-129016390D01*
X140072455Y-128516390D02*
X139905789Y-128754485D01*
X139786741Y-128516390D02*
X139786741Y-129016390D01*
X139786741Y-129016390D02*
X139977217Y-129016390D01*
X139977217Y-129016390D02*
X140024836Y-128992580D01*
X140024836Y-128992580D02*
X140048646Y-128968771D01*
X140048646Y-128968771D02*
X140072455Y-128921152D01*
X140072455Y-128921152D02*
X140072455Y-128849723D01*
X140072455Y-128849723D02*
X140048646Y-128802104D01*
X140048646Y-128802104D02*
X140024836Y-128778295D01*
X140024836Y-128778295D02*
X139977217Y-128754485D01*
X139977217Y-128754485D02*
X139786741Y-128754485D01*
X140620074Y-128468771D02*
X140572455Y-128492580D01*
X140572455Y-128492580D02*
X140524836Y-128540200D01*
X140524836Y-128540200D02*
X140453408Y-128611628D01*
X140453408Y-128611628D02*
X140405789Y-128635438D01*
X140405789Y-128635438D02*
X140358170Y-128635438D01*
X140381979Y-128516390D02*
X140334360Y-128540200D01*
X140334360Y-128540200D02*
X140286741Y-128587819D01*
X140286741Y-128587819D02*
X140262932Y-128683057D01*
X140262932Y-128683057D02*
X140262932Y-128849723D01*
X140262932Y-128849723D02*
X140286741Y-128944961D01*
X140286741Y-128944961D02*
X140334360Y-128992580D01*
X140334360Y-128992580D02*
X140381979Y-129016390D01*
X140381979Y-129016390D02*
X140477217Y-129016390D01*
X140477217Y-129016390D02*
X140524836Y-128992580D01*
X140524836Y-128992580D02*
X140572455Y-128944961D01*
X140572455Y-128944961D02*
X140596265Y-128849723D01*
X140596265Y-128849723D02*
X140596265Y-128683057D01*
X140596265Y-128683057D02*
X140572455Y-128587819D01*
X140572455Y-128587819D02*
X140524836Y-128540200D01*
X140524836Y-128540200D02*
X140477217Y-128516390D01*
X140477217Y-128516390D02*
X140381979Y-128516390D01*
X138955789Y-129155200D02*
X140641504Y-129155200D01*
X141780550Y-128526390D02*
X141613884Y-128764485D01*
X141494836Y-128526390D02*
X141494836Y-129026390D01*
X141494836Y-129026390D02*
X141685312Y-129026390D01*
X141685312Y-129026390D02*
X141732931Y-129002580D01*
X141732931Y-129002580D02*
X141756741Y-128978771D01*
X141756741Y-128978771D02*
X141780550Y-128931152D01*
X141780550Y-128931152D02*
X141780550Y-128859723D01*
X141780550Y-128859723D02*
X141756741Y-128812104D01*
X141756741Y-128812104D02*
X141732931Y-128788295D01*
X141732931Y-128788295D02*
X141685312Y-128764485D01*
X141685312Y-128764485D02*
X141494836Y-128764485D01*
X141994836Y-128526390D02*
X141994836Y-129026390D01*
X141994836Y-129026390D02*
X142113884Y-129026390D01*
X142113884Y-129026390D02*
X142185312Y-129002580D01*
X142185312Y-129002580D02*
X142232931Y-128954961D01*
X142232931Y-128954961D02*
X142256741Y-128907342D01*
X142256741Y-128907342D02*
X142280550Y-128812104D01*
X142280550Y-128812104D02*
X142280550Y-128740676D01*
X142280550Y-128740676D02*
X142256741Y-128645438D01*
X142256741Y-128645438D02*
X142232931Y-128597819D01*
X142232931Y-128597819D02*
X142185312Y-128550200D01*
X142185312Y-128550200D02*
X142113884Y-128526390D01*
X142113884Y-128526390D02*
X141994836Y-128526390D01*
X141425789Y-129165200D02*
X142325789Y-129165200D01*
X144157217Y-129066390D02*
X144276265Y-128566390D01*
X144276265Y-128566390D02*
X144371503Y-128923533D01*
X144371503Y-128923533D02*
X144466741Y-128566390D01*
X144466741Y-128566390D02*
X144585789Y-129066390D01*
X145061979Y-128566390D02*
X144895313Y-128804485D01*
X144776265Y-128566390D02*
X144776265Y-129066390D01*
X144776265Y-129066390D02*
X144966741Y-129066390D01*
X144966741Y-129066390D02*
X145014360Y-129042580D01*
X145014360Y-129042580D02*
X145038170Y-129018771D01*
X145038170Y-129018771D02*
X145061979Y-128971152D01*
X145061979Y-128971152D02*
X145061979Y-128899723D01*
X145061979Y-128899723D02*
X145038170Y-128852104D01*
X145038170Y-128852104D02*
X145014360Y-128828295D01*
X145014360Y-128828295D02*
X144966741Y-128804485D01*
X144966741Y-128804485D02*
X144776265Y-128804485D01*
X144135789Y-129205200D02*
X145107218Y-129205200D01*
X149417217Y-128996390D02*
X149536265Y-128496390D01*
X149536265Y-128496390D02*
X149631503Y-128853533D01*
X149631503Y-128853533D02*
X149726741Y-128496390D01*
X149726741Y-128496390D02*
X149845789Y-128996390D01*
X150012456Y-128639247D02*
X150250551Y-128639247D01*
X149964837Y-128496390D02*
X150131503Y-128996390D01*
X150131503Y-128996390D02*
X150298170Y-128496390D01*
X150464836Y-128496390D02*
X150464836Y-128996390D01*
X150631503Y-128996390D02*
X150917217Y-128996390D01*
X150774360Y-128496390D02*
X150774360Y-128996390D01*
X149395789Y-129135200D02*
X150914836Y-129135200D01*
X157094836Y-128636390D02*
X157094836Y-129136390D01*
X157094836Y-129136390D02*
X157261503Y-128779247D01*
X157261503Y-128779247D02*
X157428169Y-129136390D01*
X157428169Y-129136390D02*
X157428169Y-128636390D01*
X157928170Y-128636390D02*
X157642456Y-128636390D01*
X157785313Y-128636390D02*
X157785313Y-129136390D01*
X157785313Y-129136390D02*
X157737694Y-129064961D01*
X157737694Y-129064961D02*
X157690075Y-129017342D01*
X157690075Y-129017342D02*
X157642456Y-128993533D01*
X157025789Y-129275200D02*
X157973408Y-129275200D01*
X159960550Y-128736390D02*
X159793884Y-128974485D01*
X159674836Y-128736390D02*
X159674836Y-129236390D01*
X159674836Y-129236390D02*
X159865312Y-129236390D01*
X159865312Y-129236390D02*
X159912931Y-129212580D01*
X159912931Y-129212580D02*
X159936741Y-129188771D01*
X159936741Y-129188771D02*
X159960550Y-129141152D01*
X159960550Y-129141152D02*
X159960550Y-129069723D01*
X159960550Y-129069723D02*
X159936741Y-129022104D01*
X159936741Y-129022104D02*
X159912931Y-128998295D01*
X159912931Y-128998295D02*
X159865312Y-128974485D01*
X159865312Y-128974485D02*
X159674836Y-128974485D01*
X160341503Y-128998295D02*
X160174836Y-128998295D01*
X160174836Y-128736390D02*
X160174836Y-129236390D01*
X160174836Y-129236390D02*
X160412931Y-129236390D01*
X160579598Y-128760200D02*
X160651026Y-128736390D01*
X160651026Y-128736390D02*
X160770074Y-128736390D01*
X160770074Y-128736390D02*
X160817693Y-128760200D01*
X160817693Y-128760200D02*
X160841502Y-128784009D01*
X160841502Y-128784009D02*
X160865312Y-128831628D01*
X160865312Y-128831628D02*
X160865312Y-128879247D01*
X160865312Y-128879247D02*
X160841502Y-128926866D01*
X160841502Y-128926866D02*
X160817693Y-128950676D01*
X160817693Y-128950676D02*
X160770074Y-128974485D01*
X160770074Y-128974485D02*
X160674836Y-128998295D01*
X160674836Y-128998295D02*
X160627217Y-129022104D01*
X160627217Y-129022104D02*
X160603407Y-129045914D01*
X160603407Y-129045914D02*
X160579598Y-129093533D01*
X160579598Y-129093533D02*
X160579598Y-129141152D01*
X160579598Y-129141152D02*
X160603407Y-129188771D01*
X160603407Y-129188771D02*
X160627217Y-129212580D01*
X160627217Y-129212580D02*
X160674836Y-129236390D01*
X160674836Y-129236390D02*
X160793883Y-129236390D01*
X160793883Y-129236390D02*
X160865312Y-129212580D01*
X161079597Y-128736390D02*
X161079597Y-129236390D01*
X161079597Y-128998295D02*
X161365311Y-128998295D01*
X161365311Y-128736390D02*
X161365311Y-129236390D01*
X159605789Y-129375200D02*
X161434360Y-129375200D01*
X162341027Y-128759247D02*
X162579122Y-128759247D01*
X162293408Y-128616390D02*
X162460074Y-129116390D01*
X162460074Y-129116390D02*
X162626741Y-128616390D01*
X162864836Y-128902104D02*
X162817217Y-128925914D01*
X162817217Y-128925914D02*
X162793407Y-128949723D01*
X162793407Y-128949723D02*
X162769598Y-128997342D01*
X162769598Y-128997342D02*
X162769598Y-129021152D01*
X162769598Y-129021152D02*
X162793407Y-129068771D01*
X162793407Y-129068771D02*
X162817217Y-129092580D01*
X162817217Y-129092580D02*
X162864836Y-129116390D01*
X162864836Y-129116390D02*
X162960074Y-129116390D01*
X162960074Y-129116390D02*
X163007693Y-129092580D01*
X163007693Y-129092580D02*
X163031502Y-129068771D01*
X163031502Y-129068771D02*
X163055312Y-129021152D01*
X163055312Y-129021152D02*
X163055312Y-128997342D01*
X163055312Y-128997342D02*
X163031502Y-128949723D01*
X163031502Y-128949723D02*
X163007693Y-128925914D01*
X163007693Y-128925914D02*
X162960074Y-128902104D01*
X162960074Y-128902104D02*
X162864836Y-128902104D01*
X162864836Y-128902104D02*
X162817217Y-128878295D01*
X162817217Y-128878295D02*
X162793407Y-128854485D01*
X162793407Y-128854485D02*
X162769598Y-128806866D01*
X162769598Y-128806866D02*
X162769598Y-128711628D01*
X162769598Y-128711628D02*
X162793407Y-128664009D01*
X162793407Y-128664009D02*
X162817217Y-128640200D01*
X162817217Y-128640200D02*
X162864836Y-128616390D01*
X162864836Y-128616390D02*
X162960074Y-128616390D01*
X162960074Y-128616390D02*
X163007693Y-128640200D01*
X163007693Y-128640200D02*
X163031502Y-128664009D01*
X163031502Y-128664009D02*
X163055312Y-128711628D01*
X163055312Y-128711628D02*
X163055312Y-128806866D01*
X163055312Y-128806866D02*
X163031502Y-128854485D01*
X163031502Y-128854485D02*
X163007693Y-128878295D01*
X163007693Y-128878295D02*
X162960074Y-128902104D01*
X164641027Y-128779247D02*
X164879122Y-128779247D01*
X164593408Y-128636390D02*
X164760074Y-129136390D01*
X164760074Y-129136390D02*
X164926741Y-128636390D01*
X165355312Y-128636390D02*
X165069598Y-128636390D01*
X165212455Y-128636390D02*
X165212455Y-129136390D01*
X165212455Y-129136390D02*
X165164836Y-129064961D01*
X165164836Y-129064961D02*
X165117217Y-129017342D01*
X165117217Y-129017342D02*
X165069598Y-128993533D01*
X165664835Y-129136390D02*
X165712454Y-129136390D01*
X165712454Y-129136390D02*
X165760073Y-129112580D01*
X165760073Y-129112580D02*
X165783883Y-129088771D01*
X165783883Y-129088771D02*
X165807692Y-129041152D01*
X165807692Y-129041152D02*
X165831502Y-128945914D01*
X165831502Y-128945914D02*
X165831502Y-128826866D01*
X165831502Y-128826866D02*
X165807692Y-128731628D01*
X165807692Y-128731628D02*
X165783883Y-128684009D01*
X165783883Y-128684009D02*
X165760073Y-128660200D01*
X165760073Y-128660200D02*
X165712454Y-128636390D01*
X165712454Y-128636390D02*
X165664835Y-128636390D01*
X165664835Y-128636390D02*
X165617216Y-128660200D01*
X165617216Y-128660200D02*
X165593407Y-128684009D01*
X165593407Y-128684009D02*
X165569597Y-128731628D01*
X165569597Y-128731628D02*
X165545788Y-128826866D01*
X165545788Y-128826866D02*
X165545788Y-128945914D01*
X165545788Y-128945914D02*
X165569597Y-129041152D01*
X165569597Y-129041152D02*
X165593407Y-129088771D01*
X165593407Y-129088771D02*
X165617216Y-129112580D01*
X165617216Y-129112580D02*
X165664835Y-129136390D01*
X98711027Y-135159247D02*
X98949122Y-135159247D01*
X98663408Y-135016390D02*
X98830074Y-135516390D01*
X98830074Y-135516390D02*
X98996741Y-135016390D01*
X99425312Y-135016390D02*
X99139598Y-135016390D01*
X99282455Y-135016390D02*
X99282455Y-135516390D01*
X99282455Y-135516390D02*
X99234836Y-135444961D01*
X99234836Y-135444961D02*
X99187217Y-135397342D01*
X99187217Y-135397342D02*
X99139598Y-135373533D01*
X99853883Y-135349723D02*
X99853883Y-135016390D01*
X99734835Y-135540200D02*
X99615788Y-135183057D01*
X99615788Y-135183057D02*
X99925311Y-135183057D01*
X144151503Y-135568295D02*
X144222931Y-135544485D01*
X144222931Y-135544485D02*
X144246741Y-135520676D01*
X144246741Y-135520676D02*
X144270550Y-135473057D01*
X144270550Y-135473057D02*
X144270550Y-135401628D01*
X144270550Y-135401628D02*
X144246741Y-135354009D01*
X144246741Y-135354009D02*
X144222931Y-135330200D01*
X144222931Y-135330200D02*
X144175312Y-135306390D01*
X144175312Y-135306390D02*
X143984836Y-135306390D01*
X143984836Y-135306390D02*
X143984836Y-135806390D01*
X143984836Y-135806390D02*
X144151503Y-135806390D01*
X144151503Y-135806390D02*
X144199122Y-135782580D01*
X144199122Y-135782580D02*
X144222931Y-135758771D01*
X144222931Y-135758771D02*
X144246741Y-135711152D01*
X144246741Y-135711152D02*
X144246741Y-135663533D01*
X144246741Y-135663533D02*
X144222931Y-135615914D01*
X144222931Y-135615914D02*
X144199122Y-135592104D01*
X144199122Y-135592104D02*
X144151503Y-135568295D01*
X144151503Y-135568295D02*
X143984836Y-135568295D01*
X144484836Y-135806390D02*
X144484836Y-135401628D01*
X144484836Y-135401628D02*
X144508646Y-135354009D01*
X144508646Y-135354009D02*
X144532455Y-135330200D01*
X144532455Y-135330200D02*
X144580074Y-135306390D01*
X144580074Y-135306390D02*
X144675312Y-135306390D01*
X144675312Y-135306390D02*
X144722931Y-135330200D01*
X144722931Y-135330200D02*
X144746741Y-135354009D01*
X144746741Y-135354009D02*
X144770550Y-135401628D01*
X144770550Y-135401628D02*
X144770550Y-135806390D01*
X144984837Y-135330200D02*
X145056265Y-135306390D01*
X145056265Y-135306390D02*
X145175313Y-135306390D01*
X145175313Y-135306390D02*
X145222932Y-135330200D01*
X145222932Y-135330200D02*
X145246741Y-135354009D01*
X145246741Y-135354009D02*
X145270551Y-135401628D01*
X145270551Y-135401628D02*
X145270551Y-135449247D01*
X145270551Y-135449247D02*
X145246741Y-135496866D01*
X145246741Y-135496866D02*
X145222932Y-135520676D01*
X145222932Y-135520676D02*
X145175313Y-135544485D01*
X145175313Y-135544485D02*
X145080075Y-135568295D01*
X145080075Y-135568295D02*
X145032456Y-135592104D01*
X145032456Y-135592104D02*
X145008646Y-135615914D01*
X145008646Y-135615914D02*
X144984837Y-135663533D01*
X144984837Y-135663533D02*
X144984837Y-135711152D01*
X144984837Y-135711152D02*
X145008646Y-135758771D01*
X145008646Y-135758771D02*
X145032456Y-135782580D01*
X145032456Y-135782580D02*
X145080075Y-135806390D01*
X145080075Y-135806390D02*
X145199122Y-135806390D01*
X145199122Y-135806390D02*
X145270551Y-135782580D01*
X145770550Y-135306390D02*
X145603884Y-135544485D01*
X145484836Y-135306390D02*
X145484836Y-135806390D01*
X145484836Y-135806390D02*
X145675312Y-135806390D01*
X145675312Y-135806390D02*
X145722931Y-135782580D01*
X145722931Y-135782580D02*
X145746741Y-135758771D01*
X145746741Y-135758771D02*
X145770550Y-135711152D01*
X145770550Y-135711152D02*
X145770550Y-135639723D01*
X145770550Y-135639723D02*
X145746741Y-135592104D01*
X145746741Y-135592104D02*
X145722931Y-135568295D01*
X145722931Y-135568295D02*
X145675312Y-135544485D01*
X145675312Y-135544485D02*
X145484836Y-135544485D01*
X146318169Y-135258771D02*
X146270550Y-135282580D01*
X146270550Y-135282580D02*
X146222931Y-135330200D01*
X146222931Y-135330200D02*
X146151503Y-135401628D01*
X146151503Y-135401628D02*
X146103884Y-135425438D01*
X146103884Y-135425438D02*
X146056265Y-135425438D01*
X146080074Y-135306390D02*
X146032455Y-135330200D01*
X146032455Y-135330200D02*
X145984836Y-135377819D01*
X145984836Y-135377819D02*
X145961027Y-135473057D01*
X145961027Y-135473057D02*
X145961027Y-135639723D01*
X145961027Y-135639723D02*
X145984836Y-135734961D01*
X145984836Y-135734961D02*
X146032455Y-135782580D01*
X146032455Y-135782580D02*
X146080074Y-135806390D01*
X146080074Y-135806390D02*
X146175312Y-135806390D01*
X146175312Y-135806390D02*
X146222931Y-135782580D01*
X146222931Y-135782580D02*
X146270550Y-135734961D01*
X146270550Y-135734961D02*
X146294360Y-135639723D01*
X146294360Y-135639723D02*
X146294360Y-135473057D01*
X146294360Y-135473057D02*
X146270550Y-135377819D01*
X146270550Y-135377819D02*
X146222931Y-135330200D01*
X146222931Y-135330200D02*
X146175312Y-135306390D01*
X146175312Y-135306390D02*
X146080074Y-135306390D01*
X143915789Y-135945200D02*
X146339599Y-135945200D01*
X131681027Y-135199247D02*
X131919122Y-135199247D01*
X131633408Y-135056390D02*
X131800074Y-135556390D01*
X131800074Y-135556390D02*
X131966741Y-135056390D01*
X132395312Y-135056390D02*
X132109598Y-135056390D01*
X132252455Y-135056390D02*
X132252455Y-135556390D01*
X132252455Y-135556390D02*
X132204836Y-135484961D01*
X132204836Y-135484961D02*
X132157217Y-135437342D01*
X132157217Y-135437342D02*
X132109598Y-135413533D01*
X132847692Y-135556390D02*
X132609597Y-135556390D01*
X132609597Y-135556390D02*
X132585788Y-135318295D01*
X132585788Y-135318295D02*
X132609597Y-135342104D01*
X132609597Y-135342104D02*
X132657216Y-135365914D01*
X132657216Y-135365914D02*
X132776264Y-135365914D01*
X132776264Y-135365914D02*
X132823883Y-135342104D01*
X132823883Y-135342104D02*
X132847692Y-135318295D01*
X132847692Y-135318295D02*
X132871502Y-135270676D01*
X132871502Y-135270676D02*
X132871502Y-135151628D01*
X132871502Y-135151628D02*
X132847692Y-135104009D01*
X132847692Y-135104009D02*
X132823883Y-135080200D01*
X132823883Y-135080200D02*
X132776264Y-135056390D01*
X132776264Y-135056390D02*
X132657216Y-135056390D01*
X132657216Y-135056390D02*
X132609597Y-135080200D01*
X132609597Y-135080200D02*
X132585788Y-135104009D01*
X114206741Y-135472580D02*
X114159122Y-135496390D01*
X114159122Y-135496390D02*
X114087693Y-135496390D01*
X114087693Y-135496390D02*
X114016265Y-135472580D01*
X114016265Y-135472580D02*
X113968646Y-135424961D01*
X113968646Y-135424961D02*
X113944836Y-135377342D01*
X113944836Y-135377342D02*
X113921027Y-135282104D01*
X113921027Y-135282104D02*
X113921027Y-135210676D01*
X113921027Y-135210676D02*
X113944836Y-135115438D01*
X113944836Y-135115438D02*
X113968646Y-135067819D01*
X113968646Y-135067819D02*
X114016265Y-135020200D01*
X114016265Y-135020200D02*
X114087693Y-134996390D01*
X114087693Y-134996390D02*
X114135312Y-134996390D01*
X114135312Y-134996390D02*
X114206741Y-135020200D01*
X114206741Y-135020200D02*
X114230550Y-135044009D01*
X114230550Y-135044009D02*
X114230550Y-135210676D01*
X114230550Y-135210676D02*
X114135312Y-135210676D01*
X114444836Y-134996390D02*
X114444836Y-135496390D01*
X114444836Y-135496390D02*
X114730550Y-134996390D01*
X114730550Y-134996390D02*
X114730550Y-135496390D01*
X114968646Y-134996390D02*
X114968646Y-135496390D01*
X114968646Y-135496390D02*
X115087694Y-135496390D01*
X115087694Y-135496390D02*
X115159122Y-135472580D01*
X115159122Y-135472580D02*
X115206741Y-135424961D01*
X115206741Y-135424961D02*
X115230551Y-135377342D01*
X115230551Y-135377342D02*
X115254360Y-135282104D01*
X115254360Y-135282104D02*
X115254360Y-135210676D01*
X115254360Y-135210676D02*
X115230551Y-135115438D01*
X115230551Y-135115438D02*
X115206741Y-135067819D01*
X115206741Y-135067819D02*
X115159122Y-135020200D01*
X115159122Y-135020200D02*
X115087694Y-134996390D01*
X115087694Y-134996390D02*
X114968646Y-134996390D01*
X103794836Y-135296866D02*
X104175789Y-135296866D01*
X103985312Y-135106390D02*
X103985312Y-135487342D01*
X104651979Y-135606390D02*
X104413884Y-135606390D01*
X104413884Y-135606390D02*
X104390075Y-135368295D01*
X104390075Y-135368295D02*
X104413884Y-135392104D01*
X104413884Y-135392104D02*
X104461503Y-135415914D01*
X104461503Y-135415914D02*
X104580551Y-135415914D01*
X104580551Y-135415914D02*
X104628170Y-135392104D01*
X104628170Y-135392104D02*
X104651979Y-135368295D01*
X104651979Y-135368295D02*
X104675789Y-135320676D01*
X104675789Y-135320676D02*
X104675789Y-135201628D01*
X104675789Y-135201628D02*
X104651979Y-135154009D01*
X104651979Y-135154009D02*
X104628170Y-135130200D01*
X104628170Y-135130200D02*
X104580551Y-135106390D01*
X104580551Y-135106390D02*
X104461503Y-135106390D01*
X104461503Y-135106390D02*
X104413884Y-135130200D01*
X104413884Y-135130200D02*
X104390075Y-135154009D01*
X104818646Y-135606390D02*
X104985312Y-135106390D01*
X104985312Y-135106390D02*
X105151979Y-135606390D01*
X167441027Y-135249247D02*
X167679122Y-135249247D01*
X167393408Y-135106390D02*
X167560074Y-135606390D01*
X167560074Y-135606390D02*
X167726741Y-135106390D01*
X168155312Y-135106390D02*
X167869598Y-135106390D01*
X168012455Y-135106390D02*
X168012455Y-135606390D01*
X168012455Y-135606390D02*
X167964836Y-135534961D01*
X167964836Y-135534961D02*
X167917217Y-135487342D01*
X167917217Y-135487342D02*
X167869598Y-135463533D01*
X168631502Y-135106390D02*
X168345788Y-135106390D01*
X168488645Y-135106390D02*
X168488645Y-135606390D01*
X168488645Y-135606390D02*
X168441026Y-135534961D01*
X168441026Y-135534961D02*
X168393407Y-135487342D01*
X168393407Y-135487342D02*
X168345788Y-135463533D01*
X116540550Y-135044009D02*
X116516741Y-135020200D01*
X116516741Y-135020200D02*
X116445312Y-134996390D01*
X116445312Y-134996390D02*
X116397693Y-134996390D01*
X116397693Y-134996390D02*
X116326265Y-135020200D01*
X116326265Y-135020200D02*
X116278646Y-135067819D01*
X116278646Y-135067819D02*
X116254836Y-135115438D01*
X116254836Y-135115438D02*
X116231027Y-135210676D01*
X116231027Y-135210676D02*
X116231027Y-135282104D01*
X116231027Y-135282104D02*
X116254836Y-135377342D01*
X116254836Y-135377342D02*
X116278646Y-135424961D01*
X116278646Y-135424961D02*
X116326265Y-135472580D01*
X116326265Y-135472580D02*
X116397693Y-135496390D01*
X116397693Y-135496390D02*
X116445312Y-135496390D01*
X116445312Y-135496390D02*
X116516741Y-135472580D01*
X116516741Y-135472580D02*
X116540550Y-135448771D01*
X116754836Y-134996390D02*
X116754836Y-135496390D01*
X117040550Y-134996390D02*
X116826265Y-135282104D01*
X117040550Y-135496390D02*
X116754836Y-135210676D01*
X116185789Y-135635200D02*
X117085789Y-135635200D01*
X121521027Y-135179247D02*
X121759122Y-135179247D01*
X121473408Y-135036390D02*
X121640074Y-135536390D01*
X121640074Y-135536390D02*
X121806741Y-135036390D01*
X122235312Y-135036390D02*
X121949598Y-135036390D01*
X122092455Y-135036390D02*
X122092455Y-135536390D01*
X122092455Y-135536390D02*
X122044836Y-135464961D01*
X122044836Y-135464961D02*
X121997217Y-135417342D01*
X121997217Y-135417342D02*
X121949598Y-135393533D01*
X126511027Y-135219247D02*
X126749122Y-135219247D01*
X126463408Y-135076390D02*
X126630074Y-135576390D01*
X126630074Y-135576390D02*
X126796741Y-135076390D01*
X126915788Y-135576390D02*
X127225312Y-135576390D01*
X127225312Y-135576390D02*
X127058645Y-135385914D01*
X127058645Y-135385914D02*
X127130074Y-135385914D01*
X127130074Y-135385914D02*
X127177693Y-135362104D01*
X127177693Y-135362104D02*
X127201502Y-135338295D01*
X127201502Y-135338295D02*
X127225312Y-135290676D01*
X127225312Y-135290676D02*
X127225312Y-135171628D01*
X127225312Y-135171628D02*
X127201502Y-135124009D01*
X127201502Y-135124009D02*
X127177693Y-135100200D01*
X127177693Y-135100200D02*
X127130074Y-135076390D01*
X127130074Y-135076390D02*
X126987217Y-135076390D01*
X126987217Y-135076390D02*
X126939598Y-135100200D01*
X126939598Y-135100200D02*
X126915788Y-135124009D01*
X151961027Y-135249247D02*
X152199122Y-135249247D01*
X151913408Y-135106390D02*
X152080074Y-135606390D01*
X152080074Y-135606390D02*
X152246741Y-135106390D01*
X152627693Y-135606390D02*
X152532455Y-135606390D01*
X152532455Y-135606390D02*
X152484836Y-135582580D01*
X152484836Y-135582580D02*
X152461026Y-135558771D01*
X152461026Y-135558771D02*
X152413407Y-135487342D01*
X152413407Y-135487342D02*
X152389598Y-135392104D01*
X152389598Y-135392104D02*
X152389598Y-135201628D01*
X152389598Y-135201628D02*
X152413407Y-135154009D01*
X152413407Y-135154009D02*
X152437217Y-135130200D01*
X152437217Y-135130200D02*
X152484836Y-135106390D01*
X152484836Y-135106390D02*
X152580074Y-135106390D01*
X152580074Y-135106390D02*
X152627693Y-135130200D01*
X152627693Y-135130200D02*
X152651502Y-135154009D01*
X152651502Y-135154009D02*
X152675312Y-135201628D01*
X152675312Y-135201628D02*
X152675312Y-135320676D01*
X152675312Y-135320676D02*
X152651502Y-135368295D01*
X152651502Y-135368295D02*
X152627693Y-135392104D01*
X152627693Y-135392104D02*
X152580074Y-135415914D01*
X152580074Y-135415914D02*
X152484836Y-135415914D01*
X152484836Y-135415914D02*
X152437217Y-135392104D01*
X152437217Y-135392104D02*
X152413407Y-135368295D01*
X152413407Y-135368295D02*
X152389598Y-135320676D01*
X134340074Y-135506390D02*
X134435312Y-135506390D01*
X134435312Y-135506390D02*
X134482931Y-135482580D01*
X134482931Y-135482580D02*
X134530550Y-135434961D01*
X134530550Y-135434961D02*
X134554360Y-135339723D01*
X134554360Y-135339723D02*
X134554360Y-135173057D01*
X134554360Y-135173057D02*
X134530550Y-135077819D01*
X134530550Y-135077819D02*
X134482931Y-135030200D01*
X134482931Y-135030200D02*
X134435312Y-135006390D01*
X134435312Y-135006390D02*
X134340074Y-135006390D01*
X134340074Y-135006390D02*
X134292455Y-135030200D01*
X134292455Y-135030200D02*
X134244836Y-135077819D01*
X134244836Y-135077819D02*
X134221027Y-135173057D01*
X134221027Y-135173057D02*
X134221027Y-135339723D01*
X134221027Y-135339723D02*
X134244836Y-135434961D01*
X134244836Y-135434961D02*
X134292455Y-135482580D01*
X134292455Y-135482580D02*
X134340074Y-135506390D01*
X134768646Y-135268295D02*
X134935313Y-135268295D01*
X135006741Y-135006390D02*
X134768646Y-135006390D01*
X134768646Y-135006390D02*
X134768646Y-135506390D01*
X134768646Y-135506390D02*
X135006741Y-135506390D01*
X135197218Y-135458771D02*
X135221027Y-135482580D01*
X135221027Y-135482580D02*
X135268646Y-135506390D01*
X135268646Y-135506390D02*
X135387694Y-135506390D01*
X135387694Y-135506390D02*
X135435313Y-135482580D01*
X135435313Y-135482580D02*
X135459122Y-135458771D01*
X135459122Y-135458771D02*
X135482932Y-135411152D01*
X135482932Y-135411152D02*
X135482932Y-135363533D01*
X135482932Y-135363533D02*
X135459122Y-135292104D01*
X135459122Y-135292104D02*
X135173408Y-135006390D01*
X135173408Y-135006390D02*
X135482932Y-135006390D01*
X134175789Y-135645200D02*
X135528170Y-135645200D01*
X119031027Y-135259247D02*
X119269122Y-135259247D01*
X118983408Y-135116390D02*
X119150074Y-135616390D01*
X119150074Y-135616390D02*
X119316741Y-135116390D01*
X119578645Y-135616390D02*
X119626264Y-135616390D01*
X119626264Y-135616390D02*
X119673883Y-135592580D01*
X119673883Y-135592580D02*
X119697693Y-135568771D01*
X119697693Y-135568771D02*
X119721502Y-135521152D01*
X119721502Y-135521152D02*
X119745312Y-135425914D01*
X119745312Y-135425914D02*
X119745312Y-135306866D01*
X119745312Y-135306866D02*
X119721502Y-135211628D01*
X119721502Y-135211628D02*
X119697693Y-135164009D01*
X119697693Y-135164009D02*
X119673883Y-135140200D01*
X119673883Y-135140200D02*
X119626264Y-135116390D01*
X119626264Y-135116390D02*
X119578645Y-135116390D01*
X119578645Y-135116390D02*
X119531026Y-135140200D01*
X119531026Y-135140200D02*
X119507217Y-135164009D01*
X119507217Y-135164009D02*
X119483407Y-135211628D01*
X119483407Y-135211628D02*
X119459598Y-135306866D01*
X119459598Y-135306866D02*
X119459598Y-135425914D01*
X119459598Y-135425914D02*
X119483407Y-135521152D01*
X119483407Y-135521152D02*
X119507217Y-135568771D01*
X119507217Y-135568771D02*
X119531026Y-135592580D01*
X119531026Y-135592580D02*
X119578645Y-135616390D01*
X156971027Y-135299247D02*
X157209122Y-135299247D01*
X156923408Y-135156390D02*
X157090074Y-135656390D01*
X157090074Y-135656390D02*
X157256741Y-135156390D01*
X157637693Y-135489723D02*
X157637693Y-135156390D01*
X157518645Y-135680200D02*
X157399598Y-135323057D01*
X157399598Y-135323057D02*
X157709121Y-135323057D01*
X124031027Y-135219247D02*
X124269122Y-135219247D01*
X123983408Y-135076390D02*
X124150074Y-135576390D01*
X124150074Y-135576390D02*
X124316741Y-135076390D01*
X124459598Y-135528771D02*
X124483407Y-135552580D01*
X124483407Y-135552580D02*
X124531026Y-135576390D01*
X124531026Y-135576390D02*
X124650074Y-135576390D01*
X124650074Y-135576390D02*
X124697693Y-135552580D01*
X124697693Y-135552580D02*
X124721502Y-135528771D01*
X124721502Y-135528771D02*
X124745312Y-135481152D01*
X124745312Y-135481152D02*
X124745312Y-135433533D01*
X124745312Y-135433533D02*
X124721502Y-135362104D01*
X124721502Y-135362104D02*
X124435788Y-135076390D01*
X124435788Y-135076390D02*
X124745312Y-135076390D01*
X101141027Y-135159247D02*
X101379122Y-135159247D01*
X101093408Y-135016390D02*
X101260074Y-135516390D01*
X101260074Y-135516390D02*
X101426741Y-135016390D01*
X101855312Y-135016390D02*
X101569598Y-135016390D01*
X101712455Y-135016390D02*
X101712455Y-135516390D01*
X101712455Y-135516390D02*
X101664836Y-135444961D01*
X101664836Y-135444961D02*
X101617217Y-135397342D01*
X101617217Y-135397342D02*
X101569598Y-135373533D01*
X102045788Y-135468771D02*
X102069597Y-135492580D01*
X102069597Y-135492580D02*
X102117216Y-135516390D01*
X102117216Y-135516390D02*
X102236264Y-135516390D01*
X102236264Y-135516390D02*
X102283883Y-135492580D01*
X102283883Y-135492580D02*
X102307692Y-135468771D01*
X102307692Y-135468771D02*
X102331502Y-135421152D01*
X102331502Y-135421152D02*
X102331502Y-135373533D01*
X102331502Y-135373533D02*
X102307692Y-135302104D01*
X102307692Y-135302104D02*
X102021978Y-135016390D01*
X102021978Y-135016390D02*
X102331502Y-135016390D01*
X111736741Y-135472580D02*
X111689122Y-135496390D01*
X111689122Y-135496390D02*
X111617693Y-135496390D01*
X111617693Y-135496390D02*
X111546265Y-135472580D01*
X111546265Y-135472580D02*
X111498646Y-135424961D01*
X111498646Y-135424961D02*
X111474836Y-135377342D01*
X111474836Y-135377342D02*
X111451027Y-135282104D01*
X111451027Y-135282104D02*
X111451027Y-135210676D01*
X111451027Y-135210676D02*
X111474836Y-135115438D01*
X111474836Y-135115438D02*
X111498646Y-135067819D01*
X111498646Y-135067819D02*
X111546265Y-135020200D01*
X111546265Y-135020200D02*
X111617693Y-134996390D01*
X111617693Y-134996390D02*
X111665312Y-134996390D01*
X111665312Y-134996390D02*
X111736741Y-135020200D01*
X111736741Y-135020200D02*
X111760550Y-135044009D01*
X111760550Y-135044009D02*
X111760550Y-135210676D01*
X111760550Y-135210676D02*
X111665312Y-135210676D01*
X111974836Y-134996390D02*
X111974836Y-135496390D01*
X111974836Y-135496390D02*
X112260550Y-134996390D01*
X112260550Y-134996390D02*
X112260550Y-135496390D01*
X112498646Y-134996390D02*
X112498646Y-135496390D01*
X112498646Y-135496390D02*
X112617694Y-135496390D01*
X112617694Y-135496390D02*
X112689122Y-135472580D01*
X112689122Y-135472580D02*
X112736741Y-135424961D01*
X112736741Y-135424961D02*
X112760551Y-135377342D01*
X112760551Y-135377342D02*
X112784360Y-135282104D01*
X112784360Y-135282104D02*
X112784360Y-135210676D01*
X112784360Y-135210676D02*
X112760551Y-135115438D01*
X112760551Y-135115438D02*
X112736741Y-135067819D01*
X112736741Y-135067819D02*
X112689122Y-135020200D01*
X112689122Y-135020200D02*
X112617694Y-134996390D01*
X112617694Y-134996390D02*
X112498646Y-134996390D01*
X147040550Y-135116390D02*
X146873884Y-135354485D01*
X146754836Y-135116390D02*
X146754836Y-135616390D01*
X146754836Y-135616390D02*
X146945312Y-135616390D01*
X146945312Y-135616390D02*
X146992931Y-135592580D01*
X146992931Y-135592580D02*
X147016741Y-135568771D01*
X147016741Y-135568771D02*
X147040550Y-135521152D01*
X147040550Y-135521152D02*
X147040550Y-135449723D01*
X147040550Y-135449723D02*
X147016741Y-135402104D01*
X147016741Y-135402104D02*
X146992931Y-135378295D01*
X146992931Y-135378295D02*
X146945312Y-135354485D01*
X146945312Y-135354485D02*
X146754836Y-135354485D01*
X147254836Y-135378295D02*
X147421503Y-135378295D01*
X147492931Y-135116390D02*
X147254836Y-135116390D01*
X147254836Y-135116390D02*
X147254836Y-135616390D01*
X147254836Y-135616390D02*
X147492931Y-135616390D01*
X147683408Y-135140200D02*
X147754836Y-135116390D01*
X147754836Y-135116390D02*
X147873884Y-135116390D01*
X147873884Y-135116390D02*
X147921503Y-135140200D01*
X147921503Y-135140200D02*
X147945312Y-135164009D01*
X147945312Y-135164009D02*
X147969122Y-135211628D01*
X147969122Y-135211628D02*
X147969122Y-135259247D01*
X147969122Y-135259247D02*
X147945312Y-135306866D01*
X147945312Y-135306866D02*
X147921503Y-135330676D01*
X147921503Y-135330676D02*
X147873884Y-135354485D01*
X147873884Y-135354485D02*
X147778646Y-135378295D01*
X147778646Y-135378295D02*
X147731027Y-135402104D01*
X147731027Y-135402104D02*
X147707217Y-135425914D01*
X147707217Y-135425914D02*
X147683408Y-135473533D01*
X147683408Y-135473533D02*
X147683408Y-135521152D01*
X147683408Y-135521152D02*
X147707217Y-135568771D01*
X147707217Y-135568771D02*
X147731027Y-135592580D01*
X147731027Y-135592580D02*
X147778646Y-135616390D01*
X147778646Y-135616390D02*
X147897693Y-135616390D01*
X147897693Y-135616390D02*
X147969122Y-135592580D01*
X148183407Y-135378295D02*
X148350074Y-135378295D01*
X148421502Y-135116390D02*
X148183407Y-135116390D01*
X148183407Y-135116390D02*
X148183407Y-135616390D01*
X148183407Y-135616390D02*
X148421502Y-135616390D01*
X148564360Y-135616390D02*
X148850074Y-135616390D01*
X148707217Y-135116390D02*
X148707217Y-135616390D01*
X146685789Y-135755200D02*
X148847693Y-135755200D01*
X162521503Y-135418295D02*
X162592931Y-135394485D01*
X162592931Y-135394485D02*
X162616741Y-135370676D01*
X162616741Y-135370676D02*
X162640550Y-135323057D01*
X162640550Y-135323057D02*
X162640550Y-135251628D01*
X162640550Y-135251628D02*
X162616741Y-135204009D01*
X162616741Y-135204009D02*
X162592931Y-135180200D01*
X162592931Y-135180200D02*
X162545312Y-135156390D01*
X162545312Y-135156390D02*
X162354836Y-135156390D01*
X162354836Y-135156390D02*
X162354836Y-135656390D01*
X162354836Y-135656390D02*
X162521503Y-135656390D01*
X162521503Y-135656390D02*
X162569122Y-135632580D01*
X162569122Y-135632580D02*
X162592931Y-135608771D01*
X162592931Y-135608771D02*
X162616741Y-135561152D01*
X162616741Y-135561152D02*
X162616741Y-135513533D01*
X162616741Y-135513533D02*
X162592931Y-135465914D01*
X162592931Y-135465914D02*
X162569122Y-135442104D01*
X162569122Y-135442104D02*
X162521503Y-135418295D01*
X162521503Y-135418295D02*
X162354836Y-135418295D01*
X162854836Y-135656390D02*
X162854836Y-135251628D01*
X162854836Y-135251628D02*
X162878646Y-135204009D01*
X162878646Y-135204009D02*
X162902455Y-135180200D01*
X162902455Y-135180200D02*
X162950074Y-135156390D01*
X162950074Y-135156390D02*
X163045312Y-135156390D01*
X163045312Y-135156390D02*
X163092931Y-135180200D01*
X163092931Y-135180200D02*
X163116741Y-135204009D01*
X163116741Y-135204009D02*
X163140550Y-135251628D01*
X163140550Y-135251628D02*
X163140550Y-135656390D01*
X163354837Y-135180200D02*
X163426265Y-135156390D01*
X163426265Y-135156390D02*
X163545313Y-135156390D01*
X163545313Y-135156390D02*
X163592932Y-135180200D01*
X163592932Y-135180200D02*
X163616741Y-135204009D01*
X163616741Y-135204009D02*
X163640551Y-135251628D01*
X163640551Y-135251628D02*
X163640551Y-135299247D01*
X163640551Y-135299247D02*
X163616741Y-135346866D01*
X163616741Y-135346866D02*
X163592932Y-135370676D01*
X163592932Y-135370676D02*
X163545313Y-135394485D01*
X163545313Y-135394485D02*
X163450075Y-135418295D01*
X163450075Y-135418295D02*
X163402456Y-135442104D01*
X163402456Y-135442104D02*
X163378646Y-135465914D01*
X163378646Y-135465914D02*
X163354837Y-135513533D01*
X163354837Y-135513533D02*
X163354837Y-135561152D01*
X163354837Y-135561152D02*
X163378646Y-135608771D01*
X163378646Y-135608771D02*
X163402456Y-135632580D01*
X163402456Y-135632580D02*
X163450075Y-135656390D01*
X163450075Y-135656390D02*
X163569122Y-135656390D01*
X163569122Y-135656390D02*
X163640551Y-135632580D01*
X163831027Y-135299247D02*
X164069122Y-135299247D01*
X163783408Y-135156390D02*
X163950074Y-135656390D01*
X163950074Y-135656390D02*
X164116741Y-135156390D01*
X164569121Y-135204009D02*
X164545312Y-135180200D01*
X164545312Y-135180200D02*
X164473883Y-135156390D01*
X164473883Y-135156390D02*
X164426264Y-135156390D01*
X164426264Y-135156390D02*
X164354836Y-135180200D01*
X164354836Y-135180200D02*
X164307217Y-135227819D01*
X164307217Y-135227819D02*
X164283407Y-135275438D01*
X164283407Y-135275438D02*
X164259598Y-135370676D01*
X164259598Y-135370676D02*
X164259598Y-135442104D01*
X164259598Y-135442104D02*
X164283407Y-135537342D01*
X164283407Y-135537342D02*
X164307217Y-135584961D01*
X164307217Y-135584961D02*
X164354836Y-135632580D01*
X164354836Y-135632580D02*
X164426264Y-135656390D01*
X164426264Y-135656390D02*
X164473883Y-135656390D01*
X164473883Y-135656390D02*
X164545312Y-135632580D01*
X164545312Y-135632580D02*
X164569121Y-135608771D01*
X164783407Y-135156390D02*
X164783407Y-135656390D01*
X165069121Y-135156390D02*
X164854836Y-135442104D01*
X165069121Y-135656390D02*
X164783407Y-135370676D01*
X162285789Y-135795200D02*
X165114360Y-135795200D01*
X165411027Y-135374247D02*
X165649122Y-135374247D01*
X165363408Y-135231390D02*
X165530074Y-135731390D01*
X165530074Y-135731390D02*
X165696741Y-135231390D01*
X165887217Y-135231390D02*
X165982455Y-135231390D01*
X165982455Y-135231390D02*
X166030074Y-135255200D01*
X166030074Y-135255200D02*
X166053883Y-135279009D01*
X166053883Y-135279009D02*
X166101502Y-135350438D01*
X166101502Y-135350438D02*
X166125312Y-135445676D01*
X166125312Y-135445676D02*
X166125312Y-135636152D01*
X166125312Y-135636152D02*
X166101502Y-135683771D01*
X166101502Y-135683771D02*
X166077693Y-135707580D01*
X166077693Y-135707580D02*
X166030074Y-135731390D01*
X166030074Y-135731390D02*
X165934836Y-135731390D01*
X165934836Y-135731390D02*
X165887217Y-135707580D01*
X165887217Y-135707580D02*
X165863407Y-135683771D01*
X165863407Y-135683771D02*
X165839598Y-135636152D01*
X165839598Y-135636152D02*
X165839598Y-135517104D01*
X165839598Y-135517104D02*
X165863407Y-135469485D01*
X165863407Y-135469485D02*
X165887217Y-135445676D01*
X165887217Y-135445676D02*
X165934836Y-135421866D01*
X165934836Y-135421866D02*
X166030074Y-135421866D01*
X166030074Y-135421866D02*
X166077693Y-135445676D01*
X166077693Y-135445676D02*
X166101502Y-135469485D01*
X166101502Y-135469485D02*
X166125312Y-135517104D01*
X154381027Y-135289247D02*
X154619122Y-135289247D01*
X154333408Y-135146390D02*
X154500074Y-135646390D01*
X154500074Y-135646390D02*
X154666741Y-135146390D01*
X155071502Y-135646390D02*
X154833407Y-135646390D01*
X154833407Y-135646390D02*
X154809598Y-135408295D01*
X154809598Y-135408295D02*
X154833407Y-135432104D01*
X154833407Y-135432104D02*
X154881026Y-135455914D01*
X154881026Y-135455914D02*
X155000074Y-135455914D01*
X155000074Y-135455914D02*
X155047693Y-135432104D01*
X155047693Y-135432104D02*
X155071502Y-135408295D01*
X155071502Y-135408295D02*
X155095312Y-135360676D01*
X155095312Y-135360676D02*
X155095312Y-135241628D01*
X155095312Y-135241628D02*
X155071502Y-135194009D01*
X155071502Y-135194009D02*
X155047693Y-135170200D01*
X155047693Y-135170200D02*
X155000074Y-135146390D01*
X155000074Y-135146390D02*
X154881026Y-135146390D01*
X154881026Y-135146390D02*
X154833407Y-135170200D01*
X154833407Y-135170200D02*
X154809598Y-135194009D01*
X159880550Y-135126390D02*
X159713884Y-135364485D01*
X159594836Y-135126390D02*
X159594836Y-135626390D01*
X159594836Y-135626390D02*
X159785312Y-135626390D01*
X159785312Y-135626390D02*
X159832931Y-135602580D01*
X159832931Y-135602580D02*
X159856741Y-135578771D01*
X159856741Y-135578771D02*
X159880550Y-135531152D01*
X159880550Y-135531152D02*
X159880550Y-135459723D01*
X159880550Y-135459723D02*
X159856741Y-135412104D01*
X159856741Y-135412104D02*
X159832931Y-135388295D01*
X159832931Y-135388295D02*
X159785312Y-135364485D01*
X159785312Y-135364485D02*
X159594836Y-135364485D01*
X160190074Y-135626390D02*
X160285312Y-135626390D01*
X160285312Y-135626390D02*
X160332931Y-135602580D01*
X160332931Y-135602580D02*
X160380550Y-135554961D01*
X160380550Y-135554961D02*
X160404360Y-135459723D01*
X160404360Y-135459723D02*
X160404360Y-135293057D01*
X160404360Y-135293057D02*
X160380550Y-135197819D01*
X160380550Y-135197819D02*
X160332931Y-135150200D01*
X160332931Y-135150200D02*
X160285312Y-135126390D01*
X160285312Y-135126390D02*
X160190074Y-135126390D01*
X160190074Y-135126390D02*
X160142455Y-135150200D01*
X160142455Y-135150200D02*
X160094836Y-135197819D01*
X160094836Y-135197819D02*
X160071027Y-135293057D01*
X160071027Y-135293057D02*
X160071027Y-135459723D01*
X160071027Y-135459723D02*
X160094836Y-135554961D01*
X160094836Y-135554961D02*
X160142455Y-135602580D01*
X160142455Y-135602580D02*
X160190074Y-135626390D01*
X160618646Y-135126390D02*
X160618646Y-135626390D01*
X160618646Y-135626390D02*
X160785313Y-135269247D01*
X160785313Y-135269247D02*
X160951979Y-135626390D01*
X160951979Y-135626390D02*
X160951979Y-135126390D01*
X161475789Y-135174009D02*
X161451980Y-135150200D01*
X161451980Y-135150200D02*
X161380551Y-135126390D01*
X161380551Y-135126390D02*
X161332932Y-135126390D01*
X161332932Y-135126390D02*
X161261504Y-135150200D01*
X161261504Y-135150200D02*
X161213885Y-135197819D01*
X161213885Y-135197819D02*
X161190075Y-135245438D01*
X161190075Y-135245438D02*
X161166266Y-135340676D01*
X161166266Y-135340676D02*
X161166266Y-135412104D01*
X161166266Y-135412104D02*
X161190075Y-135507342D01*
X161190075Y-135507342D02*
X161213885Y-135554961D01*
X161213885Y-135554961D02*
X161261504Y-135602580D01*
X161261504Y-135602580D02*
X161332932Y-135626390D01*
X161332932Y-135626390D02*
X161380551Y-135626390D01*
X161380551Y-135626390D02*
X161451980Y-135602580D01*
X161451980Y-135602580D02*
X161475789Y-135578771D01*
X161666266Y-135150200D02*
X161737694Y-135126390D01*
X161737694Y-135126390D02*
X161856742Y-135126390D01*
X161856742Y-135126390D02*
X161904361Y-135150200D01*
X161904361Y-135150200D02*
X161928170Y-135174009D01*
X161928170Y-135174009D02*
X161951980Y-135221628D01*
X161951980Y-135221628D02*
X161951980Y-135269247D01*
X161951980Y-135269247D02*
X161928170Y-135316866D01*
X161928170Y-135316866D02*
X161904361Y-135340676D01*
X161904361Y-135340676D02*
X161856742Y-135364485D01*
X161856742Y-135364485D02*
X161761504Y-135388295D01*
X161761504Y-135388295D02*
X161713885Y-135412104D01*
X161713885Y-135412104D02*
X161690075Y-135435914D01*
X161690075Y-135435914D02*
X161666266Y-135483533D01*
X161666266Y-135483533D02*
X161666266Y-135531152D01*
X161666266Y-135531152D02*
X161690075Y-135578771D01*
X161690075Y-135578771D02*
X161713885Y-135602580D01*
X161713885Y-135602580D02*
X161761504Y-135626390D01*
X161761504Y-135626390D02*
X161880551Y-135626390D01*
X161880551Y-135626390D02*
X161951980Y-135602580D01*
X159525789Y-135765200D02*
X161997218Y-135765200D01*
X149341027Y-135209247D02*
X149579122Y-135209247D01*
X149293408Y-135066390D02*
X149460074Y-135566390D01*
X149460074Y-135566390D02*
X149626741Y-135066390D01*
X150055312Y-135066390D02*
X149769598Y-135066390D01*
X149912455Y-135066390D02*
X149912455Y-135566390D01*
X149912455Y-135566390D02*
X149864836Y-135494961D01*
X149864836Y-135494961D02*
X149817217Y-135447342D01*
X149817217Y-135447342D02*
X149769598Y-135423533D01*
X150507692Y-135566390D02*
X150269597Y-135566390D01*
X150269597Y-135566390D02*
X150245788Y-135328295D01*
X150245788Y-135328295D02*
X150269597Y-135352104D01*
X150269597Y-135352104D02*
X150317216Y-135375914D01*
X150317216Y-135375914D02*
X150436264Y-135375914D01*
X150436264Y-135375914D02*
X150483883Y-135352104D01*
X150483883Y-135352104D02*
X150507692Y-135328295D01*
X150507692Y-135328295D02*
X150531502Y-135280676D01*
X150531502Y-135280676D02*
X150531502Y-135161628D01*
X150531502Y-135161628D02*
X150507692Y-135114009D01*
X150507692Y-135114009D02*
X150483883Y-135090200D01*
X150483883Y-135090200D02*
X150436264Y-135066390D01*
X150436264Y-135066390D02*
X150317216Y-135066390D01*
X150317216Y-135066390D02*
X150269597Y-135090200D01*
X150269597Y-135090200D02*
X150245788Y-135114009D01*
D11*
X137906666Y-106744819D02*
X138239999Y-106268628D01*
X138478094Y-106744819D02*
X138478094Y-105744819D01*
X138478094Y-105744819D02*
X138097142Y-105744819D01*
X138097142Y-105744819D02*
X138001904Y-105792438D01*
X138001904Y-105792438D02*
X137954285Y-105840057D01*
X137954285Y-105840057D02*
X137906666Y-105935295D01*
X137906666Y-105935295D02*
X137906666Y-106078152D01*
X137906666Y-106078152D02*
X137954285Y-106173390D01*
X137954285Y-106173390D02*
X138001904Y-106221009D01*
X138001904Y-106221009D02*
X138097142Y-106268628D01*
X138097142Y-106268628D02*
X138478094Y-106268628D01*
X137049523Y-106078152D02*
X137049523Y-106744819D01*
X137287618Y-105697200D02*
X137525713Y-106411485D01*
X137525713Y-106411485D02*
X136906666Y-106411485D01*
X144726666Y-120604819D02*
X145059999Y-120128628D01*
X145298094Y-120604819D02*
X145298094Y-119604819D01*
X145298094Y-119604819D02*
X144917142Y-119604819D01*
X144917142Y-119604819D02*
X144821904Y-119652438D01*
X144821904Y-119652438D02*
X144774285Y-119700057D01*
X144774285Y-119700057D02*
X144726666Y-119795295D01*
X144726666Y-119795295D02*
X144726666Y-119938152D01*
X144726666Y-119938152D02*
X144774285Y-120033390D01*
X144774285Y-120033390D02*
X144821904Y-120081009D01*
X144821904Y-120081009D02*
X144917142Y-120128628D01*
X144917142Y-120128628D02*
X145298094Y-120128628D01*
X143774285Y-120604819D02*
X144345713Y-120604819D01*
X144059999Y-120604819D02*
X144059999Y-119604819D01*
X144059999Y-119604819D02*
X144155237Y-119747676D01*
X144155237Y-119747676D02*
X144250475Y-119842914D01*
X144250475Y-119842914D02*
X144345713Y-119890533D01*
X154549819Y-71083333D02*
X154073628Y-70750000D01*
X154549819Y-70511905D02*
X153549819Y-70511905D01*
X153549819Y-70511905D02*
X153549819Y-70892857D01*
X153549819Y-70892857D02*
X153597438Y-70988095D01*
X153597438Y-70988095D02*
X153645057Y-71035714D01*
X153645057Y-71035714D02*
X153740295Y-71083333D01*
X153740295Y-71083333D02*
X153883152Y-71083333D01*
X153883152Y-71083333D02*
X153978390Y-71035714D01*
X153978390Y-71035714D02*
X154026009Y-70988095D01*
X154026009Y-70988095D02*
X154073628Y-70892857D01*
X154073628Y-70892857D02*
X154073628Y-70511905D01*
X153645057Y-71464286D02*
X153597438Y-71511905D01*
X153597438Y-71511905D02*
X153549819Y-71607143D01*
X153549819Y-71607143D02*
X153549819Y-71845238D01*
X153549819Y-71845238D02*
X153597438Y-71940476D01*
X153597438Y-71940476D02*
X153645057Y-71988095D01*
X153645057Y-71988095D02*
X153740295Y-72035714D01*
X153740295Y-72035714D02*
X153835533Y-72035714D01*
X153835533Y-72035714D02*
X153978390Y-71988095D01*
X153978390Y-71988095D02*
X154549819Y-71416667D01*
X154549819Y-71416667D02*
X154549819Y-72035714D01*
X127380357Y-104114580D02*
X127427976Y-104162200D01*
X127427976Y-104162200D02*
X127570833Y-104209819D01*
X127570833Y-104209819D02*
X127666071Y-104209819D01*
X127666071Y-104209819D02*
X127808928Y-104162200D01*
X127808928Y-104162200D02*
X127904166Y-104066961D01*
X127904166Y-104066961D02*
X127951785Y-103971723D01*
X127951785Y-103971723D02*
X127999404Y-103781247D01*
X127999404Y-103781247D02*
X127999404Y-103638390D01*
X127999404Y-103638390D02*
X127951785Y-103447914D01*
X127951785Y-103447914D02*
X127904166Y-103352676D01*
X127904166Y-103352676D02*
X127808928Y-103257438D01*
X127808928Y-103257438D02*
X127666071Y-103209819D01*
X127666071Y-103209819D02*
X127570833Y-103209819D01*
X127570833Y-103209819D02*
X127427976Y-103257438D01*
X127427976Y-103257438D02*
X127380357Y-103305057D01*
X126427976Y-104209819D02*
X126999404Y-104209819D01*
X126713690Y-104209819D02*
X126713690Y-103209819D01*
X126713690Y-103209819D02*
X126808928Y-103352676D01*
X126808928Y-103352676D02*
X126904166Y-103447914D01*
X126904166Y-103447914D02*
X126999404Y-103495533D01*
X125808928Y-103209819D02*
X125713690Y-103209819D01*
X125713690Y-103209819D02*
X125618452Y-103257438D01*
X125618452Y-103257438D02*
X125570833Y-103305057D01*
X125570833Y-103305057D02*
X125523214Y-103400295D01*
X125523214Y-103400295D02*
X125475595Y-103590771D01*
X125475595Y-103590771D02*
X125475595Y-103828866D01*
X125475595Y-103828866D02*
X125523214Y-104019342D01*
X125523214Y-104019342D02*
X125570833Y-104114580D01*
X125570833Y-104114580D02*
X125618452Y-104162200D01*
X125618452Y-104162200D02*
X125713690Y-104209819D01*
X125713690Y-104209819D02*
X125808928Y-104209819D01*
X125808928Y-104209819D02*
X125904166Y-104162200D01*
X125904166Y-104162200D02*
X125951785Y-104114580D01*
X125951785Y-104114580D02*
X125999404Y-104019342D01*
X125999404Y-104019342D02*
X126047023Y-103828866D01*
X126047023Y-103828866D02*
X126047023Y-103590771D01*
X126047023Y-103590771D02*
X125999404Y-103400295D01*
X125999404Y-103400295D02*
X125951785Y-103305057D01*
X125951785Y-103305057D02*
X125904166Y-103257438D01*
X125904166Y-103257438D02*
X125808928Y-103209819D01*
X134776666Y-104139580D02*
X134824285Y-104187200D01*
X134824285Y-104187200D02*
X134967142Y-104234819D01*
X134967142Y-104234819D02*
X135062380Y-104234819D01*
X135062380Y-104234819D02*
X135205237Y-104187200D01*
X135205237Y-104187200D02*
X135300475Y-104091961D01*
X135300475Y-104091961D02*
X135348094Y-103996723D01*
X135348094Y-103996723D02*
X135395713Y-103806247D01*
X135395713Y-103806247D02*
X135395713Y-103663390D01*
X135395713Y-103663390D02*
X135348094Y-103472914D01*
X135348094Y-103472914D02*
X135300475Y-103377676D01*
X135300475Y-103377676D02*
X135205237Y-103282438D01*
X135205237Y-103282438D02*
X135062380Y-103234819D01*
X135062380Y-103234819D02*
X134967142Y-103234819D01*
X134967142Y-103234819D02*
X134824285Y-103282438D01*
X134824285Y-103282438D02*
X134776666Y-103330057D01*
X134205237Y-103663390D02*
X134300475Y-103615771D01*
X134300475Y-103615771D02*
X134348094Y-103568152D01*
X134348094Y-103568152D02*
X134395713Y-103472914D01*
X134395713Y-103472914D02*
X134395713Y-103425295D01*
X134395713Y-103425295D02*
X134348094Y-103330057D01*
X134348094Y-103330057D02*
X134300475Y-103282438D01*
X134300475Y-103282438D02*
X134205237Y-103234819D01*
X134205237Y-103234819D02*
X134014761Y-103234819D01*
X134014761Y-103234819D02*
X133919523Y-103282438D01*
X133919523Y-103282438D02*
X133871904Y-103330057D01*
X133871904Y-103330057D02*
X133824285Y-103425295D01*
X133824285Y-103425295D02*
X133824285Y-103472914D01*
X133824285Y-103472914D02*
X133871904Y-103568152D01*
X133871904Y-103568152D02*
X133919523Y-103615771D01*
X133919523Y-103615771D02*
X134014761Y-103663390D01*
X134014761Y-103663390D02*
X134205237Y-103663390D01*
X134205237Y-103663390D02*
X134300475Y-103711009D01*
X134300475Y-103711009D02*
X134348094Y-103758628D01*
X134348094Y-103758628D02*
X134395713Y-103853866D01*
X134395713Y-103853866D02*
X134395713Y-104044342D01*
X134395713Y-104044342D02*
X134348094Y-104139580D01*
X134348094Y-104139580D02*
X134300475Y-104187200D01*
X134300475Y-104187200D02*
X134205237Y-104234819D01*
X134205237Y-104234819D02*
X134014761Y-104234819D01*
X134014761Y-104234819D02*
X133919523Y-104187200D01*
X133919523Y-104187200D02*
X133871904Y-104139580D01*
X133871904Y-104139580D02*
X133824285Y-104044342D01*
X133824285Y-104044342D02*
X133824285Y-103853866D01*
X133824285Y-103853866D02*
X133871904Y-103758628D01*
X133871904Y-103758628D02*
X133919523Y-103711009D01*
X133919523Y-103711009D02*
X134014761Y-103663390D01*
X128349580Y-112193333D02*
X128397200Y-112145714D01*
X128397200Y-112145714D02*
X128444819Y-112002857D01*
X128444819Y-112002857D02*
X128444819Y-111907619D01*
X128444819Y-111907619D02*
X128397200Y-111764762D01*
X128397200Y-111764762D02*
X128301961Y-111669524D01*
X128301961Y-111669524D02*
X128206723Y-111621905D01*
X128206723Y-111621905D02*
X128016247Y-111574286D01*
X128016247Y-111574286D02*
X127873390Y-111574286D01*
X127873390Y-111574286D02*
X127682914Y-111621905D01*
X127682914Y-111621905D02*
X127587676Y-111669524D01*
X127587676Y-111669524D02*
X127492438Y-111764762D01*
X127492438Y-111764762D02*
X127444819Y-111907619D01*
X127444819Y-111907619D02*
X127444819Y-112002857D01*
X127444819Y-112002857D02*
X127492438Y-112145714D01*
X127492438Y-112145714D02*
X127540057Y-112193333D01*
X127778152Y-113050476D02*
X128444819Y-113050476D01*
X127397200Y-112812381D02*
X128111485Y-112574286D01*
X128111485Y-112574286D02*
X128111485Y-113193333D01*
X135404580Y-111707142D02*
X135452200Y-111659523D01*
X135452200Y-111659523D02*
X135499819Y-111516666D01*
X135499819Y-111516666D02*
X135499819Y-111421428D01*
X135499819Y-111421428D02*
X135452200Y-111278571D01*
X135452200Y-111278571D02*
X135356961Y-111183333D01*
X135356961Y-111183333D02*
X135261723Y-111135714D01*
X135261723Y-111135714D02*
X135071247Y-111088095D01*
X135071247Y-111088095D02*
X134928390Y-111088095D01*
X134928390Y-111088095D02*
X134737914Y-111135714D01*
X134737914Y-111135714D02*
X134642676Y-111183333D01*
X134642676Y-111183333D02*
X134547438Y-111278571D01*
X134547438Y-111278571D02*
X134499819Y-111421428D01*
X134499819Y-111421428D02*
X134499819Y-111516666D01*
X134499819Y-111516666D02*
X134547438Y-111659523D01*
X134547438Y-111659523D02*
X134595057Y-111707142D01*
X135499819Y-112659523D02*
X135499819Y-112088095D01*
X135499819Y-112373809D02*
X134499819Y-112373809D01*
X134499819Y-112373809D02*
X134642676Y-112278571D01*
X134642676Y-112278571D02*
X134737914Y-112183333D01*
X134737914Y-112183333D02*
X134785533Y-112088095D01*
X135499819Y-113611904D02*
X135499819Y-113040476D01*
X135499819Y-113326190D02*
X134499819Y-113326190D01*
X134499819Y-113326190D02*
X134642676Y-113230952D01*
X134642676Y-113230952D02*
X134737914Y-113135714D01*
X134737914Y-113135714D02*
X134785533Y-113040476D01*
X136006666Y-106599580D02*
X136054285Y-106647200D01*
X136054285Y-106647200D02*
X136197142Y-106694819D01*
X136197142Y-106694819D02*
X136292380Y-106694819D01*
X136292380Y-106694819D02*
X136435237Y-106647200D01*
X136435237Y-106647200D02*
X136530475Y-106551961D01*
X136530475Y-106551961D02*
X136578094Y-106456723D01*
X136578094Y-106456723D02*
X136625713Y-106266247D01*
X136625713Y-106266247D02*
X136625713Y-106123390D01*
X136625713Y-106123390D02*
X136578094Y-105932914D01*
X136578094Y-105932914D02*
X136530475Y-105837676D01*
X136530475Y-105837676D02*
X136435237Y-105742438D01*
X136435237Y-105742438D02*
X136292380Y-105694819D01*
X136292380Y-105694819D02*
X136197142Y-105694819D01*
X136197142Y-105694819D02*
X136054285Y-105742438D01*
X136054285Y-105742438D02*
X136006666Y-105790057D01*
X135530475Y-106694819D02*
X135339999Y-106694819D01*
X135339999Y-106694819D02*
X135244761Y-106647200D01*
X135244761Y-106647200D02*
X135197142Y-106599580D01*
X135197142Y-106599580D02*
X135101904Y-106456723D01*
X135101904Y-106456723D02*
X135054285Y-106266247D01*
X135054285Y-106266247D02*
X135054285Y-105885295D01*
X135054285Y-105885295D02*
X135101904Y-105790057D01*
X135101904Y-105790057D02*
X135149523Y-105742438D01*
X135149523Y-105742438D02*
X135244761Y-105694819D01*
X135244761Y-105694819D02*
X135435237Y-105694819D01*
X135435237Y-105694819D02*
X135530475Y-105742438D01*
X135530475Y-105742438D02*
X135578094Y-105790057D01*
X135578094Y-105790057D02*
X135625713Y-105885295D01*
X135625713Y-105885295D02*
X135625713Y-106123390D01*
X135625713Y-106123390D02*
X135578094Y-106218628D01*
X135578094Y-106218628D02*
X135530475Y-106266247D01*
X135530475Y-106266247D02*
X135435237Y-106313866D01*
X135435237Y-106313866D02*
X135244761Y-106313866D01*
X135244761Y-106313866D02*
X135149523Y-106266247D01*
X135149523Y-106266247D02*
X135101904Y-106218628D01*
X135101904Y-106218628D02*
X135054285Y-106123390D01*
D12*
%TO.C,R4*%
X138182500Y-108714724D02*
X138182500Y-108205276D01*
X137137500Y-108714724D02*
X137137500Y-108205276D01*
%TO.C,R1*%
X144854724Y-119232500D02*
X144345276Y-119232500D01*
X144854724Y-118187500D02*
X144345276Y-118187500D01*
%TO.C,R2*%
X156047500Y-70995276D02*
X156047500Y-71504724D01*
X155002500Y-70995276D02*
X155002500Y-71504724D01*
%TO.C,C10*%
X126591233Y-101815000D02*
X126883767Y-101815000D01*
X126591233Y-102835000D02*
X126883767Y-102835000D01*
%TO.C,C8*%
X136290000Y-103776233D02*
X136290000Y-104068767D01*
X137310000Y-103776233D02*
X137310000Y-104068767D01*
%TO.C,C4*%
X125730000Y-112256267D02*
X125730000Y-111963733D01*
X126750000Y-112256267D02*
X126750000Y-111963733D01*
%TO.C,C11*%
X136985000Y-112203733D02*
X136985000Y-112496267D01*
X135965000Y-112203733D02*
X135965000Y-112496267D01*
%TO.C,C9*%
X135640000Y-108303733D02*
X135640000Y-108596267D01*
X136660000Y-108303733D02*
X136660000Y-108596267D01*
%TD*%
M02*
