%TF.GenerationSoftware,KiCad,Pcbnew,9.0.7*%
%TF.CreationDate,2026-03-29T07:00:42+01:00*%
%TF.ProjectId,RISKYZXSpectrum,5249534b-595a-4585-9370-65637472756d,rev?*%
%TF.SameCoordinates,Original*%
%TF.FileFunction,Copper,L1,Top*%
%TF.FilePolarity,Positive*%
%FSLAX46Y46*%
G04 Gerber Fmt 4.6, Leading zero omitted, Abs format (unit mm)*
G04 Created by KiCad (PCBNEW 9.0.7) date 2026-03-29 07:00:42*
%MOMM*%
%LPD*%
G01*
G04 APERTURE LIST*
G04 Aperture macros list*
%AMRoundRect*
0 Rectangle with rounded corners*
0 $1 Rounding radius*
0 $2 $3 $4 $5 $6 $7 $8 $9 X,Y pos of 4 corners*
0 Add a 4 corners polygon primitive as box body*
4,1,4,$2,$3,$4,$5,$6,$7,$8,$9,$2,$3,0*
0 Add four circle primitives for the rounded corners*
1,1,$1+$1,$2,$3*
1,1,$1+$1,$4,$5*
1,1,$1+$1,$6,$7*
1,1,$1+$1,$8,$9*
0 Add four rect primitives between the rounded corners*
20,1,$1+$1,$2,$3,$4,$5,0*
20,1,$1+$1,$4,$5,$6,$7,0*
20,1,$1+$1,$6,$7,$8,$9,0*
20,1,$1+$1,$8,$9,$2,$3,0*%
G04 Aperture macros list end*
%TA.AperFunction,SMDPad,CuDef*%
%ADD10RoundRect,0.237500X0.300000X0.237500X-0.300000X0.237500X-0.300000X-0.237500X0.300000X-0.237500X0*%
%TD*%
%TA.AperFunction,SMDPad,CuDef*%
%ADD11RoundRect,0.375000X0.375000X-0.625000X0.375000X0.625000X-0.375000X0.625000X-0.375000X-0.625000X0*%
%TD*%
%TA.AperFunction,SMDPad,CuDef*%
%ADD12RoundRect,0.500000X1.400000X-0.500000X1.400000X0.500000X-1.400000X0.500000X-1.400000X-0.500000X0*%
%TD*%
%TA.AperFunction,SMDPad,CuDef*%
%ADD13RoundRect,0.250000X-0.450000X0.325000X-0.450000X-0.325000X0.450000X-0.325000X0.450000X0.325000X0*%
%TD*%
%TA.AperFunction,ComponentPad*%
%ADD14R,1.700000X1.700000*%
%TD*%
%TA.AperFunction,ComponentPad*%
%ADD15C,1.700000*%
%TD*%
%TA.AperFunction,ComponentPad*%
%ADD16C,2.000000*%
%TD*%
%TA.AperFunction,SMDPad,CuDef*%
%ADD17RoundRect,0.237500X-0.300000X-0.237500X0.300000X-0.237500X0.300000X0.237500X-0.300000X0.237500X0*%
%TD*%
%TA.AperFunction,ComponentPad*%
%ADD18RoundRect,0.250000X0.512000X0.512000X-0.512000X0.512000X-0.512000X-0.512000X0.512000X-0.512000X0*%
%TD*%
%TA.AperFunction,ComponentPad*%
%ADD19C,1.524000*%
%TD*%
%TA.AperFunction,ComponentPad*%
%ADD20C,3.500000*%
%TD*%
%TA.AperFunction,SMDPad,CuDef*%
%ADD21RoundRect,0.075000X0.725000X0.075000X-0.725000X0.075000X-0.725000X-0.075000X0.725000X-0.075000X0*%
%TD*%
%TA.AperFunction,SMDPad,CuDef*%
%ADD22RoundRect,0.075000X0.075000X0.725000X-0.075000X0.725000X-0.075000X-0.725000X0.075000X-0.725000X0*%
%TD*%
%TA.AperFunction,SMDPad,CuDef*%
%ADD23RoundRect,0.250000X0.450000X-0.325000X0.450000X0.325000X-0.450000X0.325000X-0.450000X-0.325000X0*%
%TD*%
%TA.AperFunction,SMDPad,CuDef*%
%ADD24RoundRect,0.237500X-0.250000X-0.237500X0.250000X-0.237500X0.250000X0.237500X-0.250000X0.237500X0*%
%TD*%
%TA.AperFunction,SMDPad,CuDef*%
%ADD25RoundRect,0.250000X-0.650000X0.412500X-0.650000X-0.412500X0.650000X-0.412500X0.650000X0.412500X0*%
%TD*%
%TA.AperFunction,SMDPad,CuDef*%
%ADD26RoundRect,0.237500X0.250000X0.237500X-0.250000X0.237500X-0.250000X-0.237500X0.250000X-0.237500X0*%
%TD*%
%TA.AperFunction,SMDPad,CuDef*%
%ADD27RoundRect,0.250001X-0.624999X0.462499X-0.624999X-0.462499X0.624999X-0.462499X0.624999X0.462499X0*%
%TD*%
%TA.AperFunction,SMDPad,CuDef*%
%ADD28RoundRect,0.237500X0.237500X-0.300000X0.237500X0.300000X-0.237500X0.300000X-0.237500X-0.300000X0*%
%TD*%
%TA.AperFunction,SMDPad,CuDef*%
%ADD29RoundRect,0.237500X-0.237500X0.300000X-0.237500X-0.300000X0.237500X-0.300000X0.237500X0.300000X0*%
%TD*%
%TA.AperFunction,ViaPad*%
%ADD30C,0.600000*%
%TD*%
%TA.AperFunction,Conductor*%
%ADD31C,0.150000*%
%TD*%
%TA.AperFunction,Conductor*%
%ADD32C,0.300000*%
%TD*%
G04 APERTURE END LIST*
D10*
%TO.P,C6,2*%
%TO.N,GND*%
X97500000Y-114162500D03*
%TO.P,C6,1*%
%TO.N,+3.3V*%
X97500000Y-112437500D03*
%TD*%
D11*
%TO.P,U2,3,VI*%
%TO.N,+5V*%
X104150000Y-118840000D03*
D12*
%TO.P,U2,2,VO*%
%TO.N,+3.3V*%
X101850000Y-112540000D03*
D11*
X101850000Y-118840000D03*
%TO.P,U2,1,GND*%
%TO.N,GND*%
X99550000Y-118840000D03*
%TD*%
D13*
%TO.P,D1,1,K*%
%TO.N,GND*%
X98130000Y-101755000D03*
%TO.P,D1,2,A*%
%TO.N,Net-(D1-A)*%
X98130000Y-103805000D03*
%TD*%
D14*
%TO.P,J1,1,Pin_1*%
%TO.N,/BOOT0*%
X143275000Y-116775000D03*
D15*
%TO.P,J1,2,Pin_2*%
%TO.N,+3.3V*%
X145815000Y-116775000D03*
%TD*%
D16*
%TO.P,SW1,1,A*%
%TO.N,+3.3V*%
X155475000Y-63425000D03*
X161975000Y-63425000D03*
%TO.P,SW1,2,B*%
%TO.N,/BTN1*%
X155475000Y-67925000D03*
X161975000Y-67925000D03*
%TD*%
D17*
%TO.P,C12,1*%
%TO.N,+5V*%
X139850000Y-77800000D03*
%TO.P,C12,2*%
%TO.N,GND*%
X139850000Y-76075000D03*
%TD*%
D18*
%TO.P,J7,1,VBUS*%
%TO.N,Net-(J7-VBUS)*%
X137775000Y-70882500D03*
D19*
%TO.P,J7,2,D-*%
%TO.N,/USB1_DM*%
X135275000Y-70882500D03*
%TO.P,J7,3,D+*%
%TO.N,/USB1_DP*%
X133275000Y-70882500D03*
%TO.P,J7,4,GND*%
%TO.N,GND*%
X130775000Y-70882500D03*
D20*
%TO.P,J7,5,Shield*%
X140845000Y-68172500D03*
X127705000Y-68172500D03*
%TD*%
D21*
%TO.P,U1,1,PE2(FT)*%
%TO.N,/A2*%
X139400000Y-114050000D03*
%TO.P,U1,2,PE3(FT)*%
%TO.N,/A3*%
X139400000Y-113550000D03*
%TO.P,U1,3,PE4(FT)*%
%TO.N,/A4*%
X139400000Y-113050000D03*
%TO.P,U1,4,PE5(FT)*%
%TO.N,/A5*%
X139400000Y-112550000D03*
%TO.P,U1,5,PE6(FT)*%
%TO.N,/A6*%
X139400000Y-112050000D03*
%TO.P,U1,6,VBAT*%
%TO.N,+3.3V*%
X139400000Y-111550000D03*
%TO.P,U1,7,PC13/TAMPER-RTC*%
%TO.N,unconnected-(U1-PC13{slash}TAMPER-RTC-Pad7)*%
X139400000Y-111050000D03*
%TO.P,U1,8,PC14/OSC32IN*%
%TO.N,unconnected-(U1-PC14{slash}OSC32IN-Pad8)*%
X139400000Y-110550000D03*
%TO.P,U1,9,PC15/OSC32OUT*%
%TO.N,unconnected-(U1-PC15{slash}OSC32OUT-Pad9)*%
X139400000Y-110050000D03*
%TO.P,U1,10,VSS*%
%TO.N,GND*%
X139400000Y-109550000D03*
%TO.P,U1,11,VDD*%
%TO.N,+3.3V*%
X139400000Y-109050000D03*
%TO.P,U1,12,OSC_IN*%
%TO.N,unconnected-(U1-OSC_IN-Pad12)*%
X139400000Y-108550000D03*
%TO.P,U1,13,OSC_OUT*%
%TO.N,unconnected-(U1-OSC_OUT-Pad13)*%
X139400000Y-108050000D03*
%TO.P,U1,14,NRST*%
%TO.N,/NRST*%
X139400000Y-107550000D03*
%TO.P,U1,15,PC0/ADC10*%
%TO.N,unconnected-(U1-PC0{slash}ADC10-Pad15)*%
X139400000Y-107050000D03*
%TO.P,U1,16,PC1/ADC11*%
%TO.N,unconnected-(U1-PC1{slash}ADC11-Pad16)*%
X139400000Y-106550000D03*
%TO.P,U1,17,PC2/ADC12*%
%TO.N,unconnected-(U1-PC2{slash}ADC12-Pad17)*%
X139400000Y-106050000D03*
%TO.P,U1,18,PC3/ADC13*%
%TO.N,unconnected-(U1-PC3{slash}ADC13-Pad18)*%
X139400000Y-105550000D03*
%TO.P,U1,19,VSSA*%
%TO.N,GND*%
X139400000Y-105050000D03*
%TO.P,U1,20,VREF-*%
X139400000Y-104550000D03*
%TO.P,U1,21,VREF+*%
%TO.N,+3.3V*%
X139400000Y-104050000D03*
%TO.P,U1,22,VDDA*%
X139400000Y-103550000D03*
%TO.P,U1,23,PA0/WKUP/ADC0*%
%TO.N,unconnected-(U1-PA0{slash}WKUP{slash}ADC0-Pad23)*%
X139400000Y-103050000D03*
%TO.P,U1,24,PA1/ADC1*%
%TO.N,unconnected-(U1-PA1{slash}ADC1-Pad24)*%
X139400000Y-102550000D03*
%TO.P,U1,25,PA2/ADC2*%
%TO.N,unconnected-(U1-PA2{slash}ADC2-Pad25)*%
X139400000Y-102050000D03*
D22*
%TO.P,U1,26,PA3/ADC3*%
%TO.N,unconnected-(U1-PA3{slash}ADC3-Pad26)*%
X137725000Y-100375000D03*
%TO.P,U1,27,VSS*%
%TO.N,GND*%
X137225000Y-100375000D03*
%TO.P,U1,28,VDD*%
%TO.N,+3.3V*%
X136725000Y-100375000D03*
%TO.P,U1,29,PA4/ADC4/DAC0*%
%TO.N,unconnected-(U1-PA4{slash}ADC4{slash}DAC0-Pad29)*%
X136225000Y-100375000D03*
%TO.P,U1,30,PA5/ADC5/DAC1*%
%TO.N,unconnected-(U1-PA5{slash}ADC5{slash}DAC1-Pad30)*%
X135725000Y-100375000D03*
%TO.P,U1,31,PA6/ADC6*%
%TO.N,/BTN1*%
X135225000Y-100375000D03*
%TO.P,U1,32,PA7/ADC7*%
%TO.N,/BTN2*%
X134725000Y-100375000D03*
%TO.P,U1,33,PC4/ADC14*%
%TO.N,unconnected-(U1-PC4{slash}ADC14-Pad33)*%
X134225000Y-100375000D03*
%TO.P,U1,34,PC5/ADC15*%
%TO.N,unconnected-(U1-PC5{slash}ADC15-Pad34)*%
X133725000Y-100375000D03*
%TO.P,U1,35,PB0/ADC8*%
%TO.N,unconnected-(U1-PB0{slash}ADC8-Pad35)*%
X133225000Y-100375000D03*
%TO.P,U1,36,PB1/ADC9*%
%TO.N,unconnected-(U1-PB1{slash}ADC9-Pad36)*%
X132725000Y-100375000D03*
%TO.P,U1,37,PB2/BOOT1(FT)*%
%TO.N,GND*%
X132225000Y-100375000D03*
%TO.P,U1,38,PE7(FT)*%
%TO.N,/A7*%
X131725000Y-100375000D03*
%TO.P,U1,39,PE8(FT)*%
%TO.N,/A8*%
X131225000Y-100375000D03*
%TO.P,U1,40,PE9(FT)*%
%TO.N,/A9*%
X130725000Y-100375000D03*
%TO.P,U1,41,PE10(FT)*%
%TO.N,/A10*%
X130225000Y-100375000D03*
%TO.P,U1,42,PE11(FT)*%
%TO.N,/A11*%
X129725000Y-100375000D03*
%TO.P,U1,43,PE12(FT)*%
%TO.N,/A12*%
X129225000Y-100375000D03*
%TO.P,U1,44,PE13(FT)*%
%TO.N,/A13*%
X128725000Y-100375000D03*
%TO.P,U1,45,PE14(FT)*%
%TO.N,/A14*%
X128225000Y-100375000D03*
%TO.P,U1,46,PE15(FT)*%
%TO.N,/A15*%
X127725000Y-100375000D03*
%TO.P,U1,47,PB10(FT)*%
%TO.N,/~{MREQ}*%
X127225000Y-100375000D03*
%TO.P,U1,48,PB11(FT)*%
%TO.N,/~{RFSH}*%
X126725000Y-100375000D03*
%TO.P,U1,49,VSS*%
%TO.N,GND*%
X126225000Y-100375000D03*
%TO.P,U1,50,VDD*%
%TO.N,+3.3V*%
X125725000Y-100375000D03*
D21*
%TO.P,U1,51,PB12(FT)*%
%TO.N,/~{INT}*%
X124050000Y-102050000D03*
%TO.P,U1,52,PB13(FT)*%
%TO.N,/~{CK}*%
X124050000Y-102550000D03*
%TO.P,U1,53,PB14(FT)*%
%TO.N,/~{OE}*%
X124050000Y-103050000D03*
%TO.P,U1,54,PB15(FT)*%
%TO.N,/~{OE2}*%
X124050000Y-103550000D03*
%TO.P,U1,55,PD8(FT)*%
%TO.N,unconnected-(U1-PD8(FT)-Pad55)*%
X124050000Y-104050000D03*
%TO.P,U1,56,PD9(FT)*%
%TO.N,unconnected-(U1-PD9(FT)-Pad56)*%
X124050000Y-104550000D03*
%TO.P,U1,57,PD10(FT)*%
%TO.N,unconnected-(U1-PD10(FT)-Pad57)*%
X124050000Y-105050000D03*
%TO.P,U1,58,PD11(FT)*%
%TO.N,unconnected-(U1-PD11(FT)-Pad58)*%
X124050000Y-105550000D03*
%TO.P,U1,59,PD12(FT)*%
%TO.N,unconnected-(U1-PD12(FT)-Pad59)*%
X124050000Y-106050000D03*
%TO.P,U1,60,PD13(FT)*%
%TO.N,unconnected-(U1-PD13(FT)-Pad60)*%
X124050000Y-106550000D03*
%TO.P,U1,61,PD14(FT)*%
%TO.N,unconnected-(U1-PD14(FT)-Pad61)*%
X124050000Y-107050000D03*
%TO.P,U1,62,PD15(FT)*%
%TO.N,unconnected-(U1-PD15(FT)-Pad62)*%
X124050000Y-107550000D03*
%TO.P,U1,63,PC6/RXP(FT)*%
%TO.N,/~{RESET}*%
X124050000Y-108050000D03*
%TO.P,U1,64,PC7/RXN(FT)*%
%TO.N,/~{WAIT}*%
X124050000Y-108550000D03*
%TO.P,U1,65,PC8/TXP(FT)*%
%TO.N,/~{IORQ}*%
X124050000Y-109050000D03*
%TO.P,U1,66,PC9/TXN(FT)*%
%TO.N,/~{NMI}*%
X124050000Y-109550000D03*
%TO.P,U1,67,PA8(FT)*%
%TO.N,/LEDFLASH*%
X124050000Y-110050000D03*
%TO.P,U1,68,PA9(FT)*%
%TO.N,/USART_TX*%
X124050000Y-110550000D03*
%TO.P,U1,69,PA10(FT)*%
%TO.N,/USART_RX*%
X124050000Y-111050000D03*
%TO.P,U1,70,PA11/USB1DM(FT)*%
%TO.N,/USB1_DM*%
X124050000Y-111550000D03*
%TO.P,U1,71,PA12/USB1DP(FT)*%
%TO.N,/USB1_DP*%
X124050000Y-112050000D03*
%TO.P,U1,72,PA13/SWDIO(FT)*%
%TO.N,/SWDIO*%
X124050000Y-112550000D03*
%TO.P,U1,73,NC*%
%TO.N,unconnected-(U1-NC-Pad73)*%
X124050000Y-113050000D03*
%TO.P,U1,74,VSS*%
%TO.N,GND*%
X124050000Y-113550000D03*
%TO.P,U1,75,VDD*%
%TO.N,+3.3V*%
X124050000Y-114050000D03*
D22*
%TO.P,U1,76,PA14/SWCLK(FT)*%
%TO.N,/SWCLK*%
X125725000Y-115725000D03*
%TO.P,U1,77,PA15(FT)*%
%TO.N,unconnected-(U1-PA15(FT)-Pad77)*%
X126225000Y-115725000D03*
%TO.P,U1,78,PC10(FT)*%
%TO.N,unconnected-(U1-PC10(FT)-Pad78)*%
X126725000Y-115725000D03*
%TO.P,U1,79,PC11(FT)*%
%TO.N,unconnected-(U1-PC11(FT)-Pad79)*%
X127225000Y-115725000D03*
%TO.P,U1,80,PC12(FT)*%
%TO.N,unconnected-(U1-PC12(FT)-Pad80)*%
X127725000Y-115725000D03*
%TO.P,U1,81,PD0(FT)*%
%TO.N,/D0*%
X128225000Y-115725000D03*
%TO.P,U1,82,PD1(FT)*%
%TO.N,/D1*%
X128725000Y-115725000D03*
%TO.P,U1,83,PD2(FT)*%
%TO.N,/D2*%
X129225000Y-115725000D03*
%TO.P,U1,84,PD3(FT)*%
%TO.N,/D3*%
X129725000Y-115725000D03*
%TO.P,U1,85,PD4(FT)*%
%TO.N,/D4*%
X130225000Y-115725000D03*
%TO.P,U1,86,PD5(FT)*%
%TO.N,/D5*%
X130725000Y-115725000D03*
%TO.P,U1,87,PD6(FT)*%
%TO.N,/D6*%
X131225000Y-115725000D03*
%TO.P,U1,88,PD7(FT)*%
%TO.N,/D7*%
X131725000Y-115725000D03*
%TO.P,U1,89,PB3(FT)*%
%TO.N,/~{ROMCS}*%
X132225000Y-115725000D03*
%TO.P,U1,90,PB4(FT)*%
%TO.N,/~{WR}*%
X132725000Y-115725000D03*
%TO.P,U1,91,PB5(FT)*%
%TO.N,/~{RD}*%
X133225000Y-115725000D03*
%TO.P,U1,92,PB6/USB2DM(FT)*%
%TO.N,/~{BUSACK}*%
X133725000Y-115725000D03*
%TO.P,U1,93,PB7/USB2DP(FT)*%
%TO.N,/~{BUSRQ}*%
X134225000Y-115725000D03*
%TO.P,U1,94,BOOT0*%
%TO.N,/BOOT0*%
X134725000Y-115725000D03*
%TO.P,U1,95,PB8(FT)*%
%TO.N,/~{HALT}*%
X135225000Y-115725000D03*
%TO.P,U1,96,PB9(FT)*%
%TO.N,/~{M1}*%
X135725000Y-115725000D03*
%TO.P,U1,97,PE0(FT)*%
%TO.N,/A0*%
X136225000Y-115725000D03*
%TO.P,U1,98,PE1(FT)*%
%TO.N,/A1*%
X136725000Y-115725000D03*
%TO.P,U1,99,VSS*%
%TO.N,GND*%
X137225000Y-115725000D03*
%TO.P,U1,100,VDD*%
%TO.N,+3.3V*%
X137725000Y-115725000D03*
%TD*%
D23*
%TO.P,D2,1,K*%
%TO.N,/LEDFLASH*%
X101200000Y-78875000D03*
%TO.P,D2,2,A*%
%TO.N,Net-(D2-A)*%
X101200000Y-76825000D03*
%TD*%
D24*
%TO.P,R7,1*%
%TO.N,+3.3V*%
X98140000Y-107362500D03*
%TO.P,R7,2*%
%TO.N,Net-(D1-A)*%
X98140000Y-105537500D03*
%TD*%
D14*
%TO.P,J8,1,Pin_1*%
%TO.N,/SWCLK*%
X124790000Y-119000000D03*
D15*
%TO.P,J8,2,Pin_2*%
%TO.N,/SWDIO*%
X122250000Y-119000000D03*
%TD*%
D25*
%TO.P,C7,1*%
%TO.N,+5V*%
X101720000Y-122067500D03*
%TO.P,C7,2*%
%TO.N,GND*%
X101720000Y-125192500D03*
%TD*%
D14*
%TO.P,J4,1,Pin_1*%
%TO.N,/A15*%
X99270000Y-131035000D03*
D15*
%TO.P,J4,2,Pin_2*%
%TO.N,/A14*%
X99270000Y-133575000D03*
%TO.P,J4,3,Pin_3*%
%TO.N,/A13*%
X101810000Y-131035000D03*
%TO.P,J4,4,Pin_4*%
%TO.N,/A12*%
X101810000Y-133575000D03*
%TO.P,J4,5,Pin_5*%
%TO.N,/D7*%
X104350000Y-131035000D03*
%TO.P,J4,6,Pin_6*%
%TO.N,+5V*%
X104350000Y-133575000D03*
%TO.P,J4,7,Pin_7*%
%TO.N,/~{OE}*%
X106890000Y-131035000D03*
%TO.P,J4,8,Pin_8*%
%TO.N,unconnected-(J4-Pin_8-Pad8)*%
X106890000Y-133575000D03*
%TO.P,J4,9,Pin_9*%
%TO.N,unconnected-(J4-Pin_9-Pad9)*%
X109430000Y-131035000D03*
%TO.P,J4,10,Pin_10*%
%TO.N,unconnected-(J4-Pin_10-Pad10)*%
X109430000Y-133575000D03*
%TO.P,J4,11,Pin_11*%
%TO.N,/D0*%
X111970000Y-131035000D03*
%TO.P,J4,12,Pin_12*%
%TO.N,GND*%
X111970000Y-133575000D03*
%TO.P,J4,13,Pin_13*%
%TO.N,/D1*%
X114510000Y-131035000D03*
%TO.P,J4,14,Pin_14*%
%TO.N,GND*%
X114510000Y-133575000D03*
%TO.P,J4,15,Pin_15*%
%TO.N,/D2*%
X117050000Y-131035000D03*
%TO.P,J4,16,Pin_16*%
%TO.N,/~{CK}*%
X117050000Y-133575000D03*
%TO.P,J4,17,Pin_17*%
%TO.N,/D6*%
X119590000Y-131035000D03*
%TO.P,J4,18,Pin_18*%
%TO.N,/A0*%
X119590000Y-133575000D03*
%TO.P,J4,19,Pin_19*%
%TO.N,/D5*%
X122130000Y-131035000D03*
%TO.P,J4,20,Pin_20*%
%TO.N,/A1*%
X122130000Y-133575000D03*
%TO.P,J4,21,Pin_21*%
%TO.N,/D3*%
X124670000Y-131035000D03*
%TO.P,J4,22,Pin_22*%
%TO.N,/A2*%
X124670000Y-133575000D03*
%TO.P,J4,23,Pin_23*%
%TO.N,/D4*%
X127210000Y-131035000D03*
%TO.P,J4,24,Pin_24*%
%TO.N,/A3*%
X127210000Y-133575000D03*
%TO.P,J4,25,Pin_25*%
%TO.N,/~{INT}*%
X129750000Y-131035000D03*
%TO.P,J4,26,Pin_26*%
%TO.N,unconnected-(J4-Pin_26-Pad26)*%
X129750000Y-133575000D03*
%TO.P,J4,27,Pin_27*%
%TO.N,/~{NMI}*%
X132290000Y-131035000D03*
%TO.P,J4,28,Pin_28*%
%TO.N,GND*%
X132290000Y-133575000D03*
%TO.P,J4,29,Pin_29*%
%TO.N,/~{HALT}*%
X134830000Y-131035000D03*
%TO.P,J4,30,Pin_30*%
%TO.N,/~{OE2}*%
X134830000Y-133575000D03*
%TO.P,J4,31,Pin_31*%
%TO.N,/~{MREQ}*%
X137370000Y-131035000D03*
%TO.P,J4,32,Pin_32*%
%TO.N,unconnected-(J4-Pin_32-Pad32)*%
X137370000Y-133575000D03*
%TO.P,J4,33,Pin_33*%
%TO.N,/~{IORQ}*%
X139910000Y-131035000D03*
%TO.P,J4,34,Pin_34*%
%TO.N,unconnected-(J4-Pin_34-Pad34)*%
X139910000Y-133575000D03*
%TO.P,J4,35,Pin_35*%
%TO.N,/~{RD}*%
X142450000Y-131035000D03*
%TO.P,J4,36,Pin_36*%
%TO.N,unconnected-(J4-Pin_36-Pad36)*%
X142450000Y-133575000D03*
%TO.P,J4,37,Pin_37*%
%TO.N,/~{WR}*%
X144990000Y-131035000D03*
%TO.P,J4,38,Pin_38*%
%TO.N,/~{BUSRQ}*%
X144990000Y-133575000D03*
%TO.P,J4,39,Pin_39*%
%TO.N,unconnected-(J4-Pin_39-Pad39)*%
X147530000Y-131035000D03*
%TO.P,J4,40,Pin_40*%
%TO.N,/~{RESET}*%
X147530000Y-133575000D03*
%TO.P,J4,41,Pin_41*%
%TO.N,/~{WAIT}*%
X150070000Y-131035000D03*
%TO.P,J4,42,Pin_42*%
%TO.N,/A7*%
X150070000Y-133575000D03*
%TO.P,J4,43,Pin_43*%
%TO.N,unconnected-(J4-Pin_43-Pad43)*%
X152610000Y-131035000D03*
%TO.P,J4,44,Pin_44*%
%TO.N,/A6*%
X152610000Y-133575000D03*
%TO.P,J4,45,Pin_45*%
%TO.N,unconnected-(J4-Pin_45-Pad45)*%
X155150000Y-131035000D03*
%TO.P,J4,46,Pin_46*%
%TO.N,/A5*%
X155150000Y-133575000D03*
%TO.P,J4,47,Pin_47*%
%TO.N,/~{M1}*%
X157690000Y-131035000D03*
%TO.P,J4,48,Pin_48*%
%TO.N,/A4*%
X157690000Y-133575000D03*
%TO.P,J4,49,Pin_49*%
%TO.N,/~{RFSH}*%
X160230000Y-131035000D03*
%TO.P,J4,50,Pin_50*%
%TO.N,/~{ROMCS}*%
X160230000Y-133575000D03*
%TO.P,J4,51,Pin_51*%
%TO.N,/A8*%
X162770000Y-131035000D03*
%TO.P,J4,52,Pin_52*%
%TO.N,/~{BUSACK}*%
X162770000Y-133575000D03*
%TO.P,J4,53,Pin_53*%
%TO.N,/A10*%
X165310000Y-131035000D03*
%TO.P,J4,54,Pin_54*%
%TO.N,/A9*%
X165310000Y-133575000D03*
%TO.P,J4,55,Pin_55*%
%TO.N,unconnected-(J4-Pin_55-Pad55)*%
X167850000Y-131035000D03*
%TO.P,J4,56,Pin_56*%
%TO.N,/A11*%
X167850000Y-133575000D03*
%TD*%
D16*
%TO.P,SW2,1,A*%
%TO.N,+3.3V*%
X113550000Y-62475000D03*
X120050000Y-62475000D03*
%TO.P,SW2,2,B*%
%TO.N,/BTN2*%
X113550000Y-66975000D03*
X120050000Y-66975000D03*
%TD*%
D26*
%TO.P,R6,1*%
%TO.N,/BTN2*%
X113475000Y-69325000D03*
%TO.P,R6,2*%
%TO.N,GND*%
X113475000Y-71150000D03*
%TD*%
D27*
%TO.P,F2,1*%
%TO.N,Net-(J7-VBUS)*%
X137525000Y-75650000D03*
%TO.P,F2,2*%
%TO.N,+5V*%
X137525000Y-78625000D03*
%TD*%
D14*
%TO.P,J3,1,Pin_1*%
%TO.N,/A15*%
X99425000Y-138635000D03*
D15*
%TO.P,J3,2,Pin_2*%
%TO.N,/A14*%
X99425000Y-141175000D03*
%TO.P,J3,3,Pin_3*%
%TO.N,/A13*%
X101965000Y-138635000D03*
%TO.P,J3,4,Pin_4*%
%TO.N,/A12*%
X101965000Y-141175000D03*
%TO.P,J3,5,Pin_5*%
%TO.N,/D7*%
X104505000Y-138635000D03*
%TO.P,J3,6,Pin_6*%
%TO.N,+5V*%
X104505000Y-141175000D03*
%TO.P,J3,7,Pin_7*%
%TO.N,/~{OE}*%
X107045000Y-138635000D03*
%TO.P,J3,8,Pin_8*%
%TO.N,unconnected-(J3-Pin_8-Pad8)*%
X107045000Y-141175000D03*
%TO.P,J3,9,Pin_9*%
%TO.N,unconnected-(J3-Pin_9-Pad9)*%
X109585000Y-138635000D03*
%TO.P,J3,10,Pin_10*%
%TO.N,unconnected-(J3-Pin_10-Pad10)*%
X109585000Y-141175000D03*
%TO.P,J3,11,Pin_11*%
%TO.N,/D0*%
X112125000Y-138635000D03*
%TO.P,J3,12,Pin_12*%
%TO.N,GND*%
X112125000Y-141175000D03*
%TO.P,J3,13,Pin_13*%
%TO.N,/D1*%
X114665000Y-138635000D03*
%TO.P,J3,14,Pin_14*%
%TO.N,GND*%
X114665000Y-141175000D03*
%TO.P,J3,15,Pin_15*%
%TO.N,/D2*%
X117205000Y-138635000D03*
%TO.P,J3,16,Pin_16*%
%TO.N,/~{CK}*%
X117205000Y-141175000D03*
%TO.P,J3,17,Pin_17*%
%TO.N,/D6*%
X119745000Y-138635000D03*
%TO.P,J3,18,Pin_18*%
%TO.N,/A0*%
X119745000Y-141175000D03*
%TO.P,J3,19,Pin_19*%
%TO.N,/D5*%
X122285000Y-138635000D03*
%TO.P,J3,20,Pin_20*%
%TO.N,/A1*%
X122285000Y-141175000D03*
%TO.P,J3,21,Pin_21*%
%TO.N,/D3*%
X124825000Y-138635000D03*
%TO.P,J3,22,Pin_22*%
%TO.N,/A2*%
X124825000Y-141175000D03*
%TO.P,J3,23,Pin_23*%
%TO.N,/D4*%
X127365000Y-138635000D03*
%TO.P,J3,24,Pin_24*%
%TO.N,/A3*%
X127365000Y-141175000D03*
%TO.P,J3,25,Pin_25*%
%TO.N,/~{INT}*%
X129905000Y-138635000D03*
%TO.P,J3,26,Pin_26*%
%TO.N,unconnected-(J3-Pin_26-Pad26)*%
X129905000Y-141175000D03*
%TO.P,J3,27,Pin_27*%
%TO.N,/~{NMI}*%
X132445000Y-138635000D03*
%TO.P,J3,28,Pin_28*%
%TO.N,GND*%
X132445000Y-141175000D03*
%TO.P,J3,29,Pin_29*%
%TO.N,/~{HALT}*%
X134985000Y-138635000D03*
%TO.P,J3,30,Pin_30*%
%TO.N,/~{OE2}*%
X134985000Y-141175000D03*
%TO.P,J3,31,Pin_31*%
%TO.N,/~{MREQ}*%
X137525000Y-138635000D03*
%TO.P,J3,32,Pin_32*%
%TO.N,unconnected-(J3-Pin_32-Pad32)*%
X137525000Y-141175000D03*
%TO.P,J3,33,Pin_33*%
%TO.N,/~{IORQ}*%
X140065000Y-138635000D03*
%TO.P,J3,34,Pin_34*%
%TO.N,unconnected-(J3-Pin_34-Pad34)*%
X140065000Y-141175000D03*
%TO.P,J3,35,Pin_35*%
%TO.N,/~{RD}*%
X142605000Y-138635000D03*
%TO.P,J3,36,Pin_36*%
%TO.N,unconnected-(J3-Pin_36-Pad36)*%
X142605000Y-141175000D03*
%TO.P,J3,37,Pin_37*%
%TO.N,/~{WR}*%
X145145000Y-138635000D03*
%TO.P,J3,38,Pin_38*%
%TO.N,/~{BUSRQ}*%
X145145000Y-141175000D03*
%TO.P,J3,39,Pin_39*%
%TO.N,unconnected-(J3-Pin_39-Pad39)*%
X147685000Y-138635000D03*
%TO.P,J3,40,Pin_40*%
%TO.N,/~{RESET}*%
X147685000Y-141175000D03*
%TO.P,J3,41,Pin_41*%
%TO.N,/~{WAIT}*%
X150225000Y-138635000D03*
%TO.P,J3,42,Pin_42*%
%TO.N,/A7*%
X150225000Y-141175000D03*
%TO.P,J3,43,Pin_43*%
%TO.N,unconnected-(J3-Pin_43-Pad43)*%
X152765000Y-138635000D03*
%TO.P,J3,44,Pin_44*%
%TO.N,/A6*%
X152765000Y-141175000D03*
%TO.P,J3,45,Pin_45*%
%TO.N,unconnected-(J3-Pin_45-Pad45)*%
X155305000Y-138635000D03*
%TO.P,J3,46,Pin_46*%
%TO.N,/A5*%
X155305000Y-141175000D03*
%TO.P,J3,47,Pin_47*%
%TO.N,/~{M1}*%
X157845000Y-138635000D03*
%TO.P,J3,48,Pin_48*%
%TO.N,/A4*%
X157845000Y-141175000D03*
%TO.P,J3,49,Pin_49*%
%TO.N,/~{RFSH}*%
X160385000Y-138635000D03*
%TO.P,J3,50,Pin_50*%
%TO.N,/~{ROMCS}*%
X160385000Y-141175000D03*
%TO.P,J3,51,Pin_51*%
%TO.N,/A8*%
X162925000Y-138635000D03*
%TO.P,J3,52,Pin_52*%
%TO.N,/~{BUSACK}*%
X162925000Y-141175000D03*
%TO.P,J3,53,Pin_53*%
%TO.N,/A10*%
X165465000Y-138635000D03*
%TO.P,J3,54,Pin_54*%
%TO.N,/A9*%
X165465000Y-141175000D03*
%TO.P,J3,55,Pin_55*%
%TO.N,unconnected-(J3-Pin_55-Pad55)*%
X168005000Y-138635000D03*
%TO.P,J3,56,Pin_56*%
%TO.N,/A11*%
X168005000Y-141175000D03*
%TD*%
D28*
%TO.P,C3,1*%
%TO.N,+3.3V*%
X123587500Y-115275000D03*
%TO.P,C3,2*%
%TO.N,GND*%
X121862500Y-115275000D03*
%TD*%
D29*
%TO.P,C2,1*%
%TO.N,+3.3V*%
X137937500Y-98550000D03*
%TO.P,C2,2*%
%TO.N,GND*%
X139662500Y-98550000D03*
%TD*%
D10*
%TO.P,C1,1*%
%TO.N,+5V*%
X104410000Y-121957500D03*
%TO.P,C1,2*%
%TO.N,GND*%
X104410000Y-123682500D03*
%TD*%
D28*
%TO.P,C5,1*%
%TO.N,+3.3V*%
X139625000Y-117600000D03*
%TO.P,C5,2*%
%TO.N,GND*%
X137900000Y-117600000D03*
%TD*%
D14*
%TO.P,J2,1,Pin_1*%
%TO.N,/USART_TX*%
X119250000Y-112200000D03*
D15*
%TO.P,J2,2,Pin_2*%
%TO.N,/USART_RX*%
X119250000Y-114740000D03*
%TD*%
D24*
%TO.P,R5,1*%
%TO.N,Net-(D2-A)*%
X101175000Y-74225000D03*
%TO.P,R5,2*%
%TO.N,+3.3V*%
X101175000Y-72400000D03*
%TD*%
D30*
%TO.N,+3.3V*%
X101175000Y-72400000D03*
%TO.N,GND*%
X136475000Y-113212500D03*
X140900000Y-109520000D03*
X122850000Y-113580000D03*
X98350000Y-119030000D03*
%TO.N,+3.3V*%
X101850000Y-118840000D03*
%TO.N,GND*%
X97500000Y-114162500D03*
%TO.N,/USB1_DP*%
X129710000Y-107540000D03*
X129700000Y-77340000D03*
%TO.N,/USB1_DM*%
X130770000Y-77830000D03*
X130290000Y-102830000D03*
%TO.N,/BTN2*%
X136325000Y-97275000D03*
%TO.N,/BTN1*%
X140750000Y-97290000D03*
%TO.N,/LEDFLASH*%
X121680000Y-110170000D03*
X101200000Y-78875000D03*
%TO.N,GND*%
X114580000Y-134950000D03*
X111870000Y-134950000D03*
X133300000Y-142070000D03*
X132320000Y-135070000D03*
%TO.N,/~{MREQ}*%
X133290000Y-129080000D03*
X111350000Y-122890000D03*
%TO.N,/~{HALT}*%
X136040000Y-128900000D03*
%TO.N,/~{BUSRQ}*%
X136210000Y-121200000D03*
X134540000Y-120840000D03*
%TO.N,/~{IORQ}*%
X138460000Y-124610000D03*
%TO.N,/~{RESET}*%
X148990000Y-126140000D03*
X147750000Y-124160000D03*
X147990000Y-127440000D03*
%TO.N,/~{WAIT}*%
X146690000Y-122910000D03*
%TO.N,/A3*%
X141520000Y-113640000D03*
X131070000Y-124680000D03*
%TO.N,/A2*%
X140640000Y-114170000D03*
X131170000Y-123784000D03*
%TO.N,/A1*%
X138730000Y-120280000D03*
X131240000Y-122390000D03*
%TO.N,GND*%
X101720000Y-125192500D03*
X104410000Y-123682500D03*
%TO.N,+3.3V*%
X101850000Y-112540000D03*
%TO.N,/~{NMI}*%
X118690000Y-123850000D03*
X118810000Y-122620000D03*
X117560000Y-120810000D03*
X121220000Y-123690000D03*
X123190000Y-123690000D03*
X132290000Y-128650000D03*
%TO.N,/~{INT}*%
X129750000Y-127940000D03*
X124090000Y-124210000D03*
X113410000Y-119060000D03*
X120290000Y-125130000D03*
%TO.N,/~{CK}*%
X113410000Y-123130000D03*
X119230000Y-124940000D03*
%TO.N,/~{BUSACK}*%
X135920000Y-124780000D03*
%TO.N,/~{RD}*%
X134690000Y-126420000D03*
X140360000Y-127660000D03*
%TO.N,/~{WR}*%
X142210000Y-127700000D03*
X133840000Y-126210000D03*
%TO.N,/~{ROMCS}*%
X132560000Y-125840000D03*
%TO.N,/D5*%
X122130000Y-128340000D03*
X122990000Y-125270000D03*
%TO.N,/A0*%
X138820000Y-121170000D03*
X120930000Y-128020000D03*
%TO.N,/D4*%
X125800000Y-124920000D03*
X127210000Y-128290000D03*
%TO.N,/D3*%
X124740000Y-124990000D03*
X124670000Y-128340000D03*
%TO.N,/D7*%
X114330000Y-122810000D03*
X131590000Y-121540000D03*
%TO.N,/~{IORQ}*%
X126285984Y-109484016D03*
%TO.N,/~{WAIT}*%
X127328600Y-109501400D03*
%TO.N,/~{RESET}*%
X127130000Y-108380000D03*
%TO.N,/A6*%
X152100000Y-126730000D03*
X159820000Y-126710000D03*
%TO.N,/A5*%
X159480000Y-127440000D03*
X153220000Y-127520000D03*
%TO.N,/A7*%
X148740000Y-123400000D03*
X160810000Y-122860000D03*
%TO.N,GND*%
X121862500Y-115275000D03*
%TO.N,+3.3V*%
X123587500Y-115275000D03*
X98140000Y-107362500D03*
%TO.N,GND*%
X98130000Y-101755000D03*
%TO.N,/~{BUSACK}*%
X163330000Y-124220000D03*
%TO.N,/A9*%
X165195500Y-93514500D03*
X163360000Y-93310000D03*
%TO.N,/D7*%
X106020000Y-127620000D03*
%TO.N,/A12*%
X105770000Y-100200000D03*
%TO.N,GND*%
X132290000Y-99080000D03*
%TO.N,/A13*%
X106250000Y-94200000D03*
%TO.N,/A15*%
X108525000Y-96375000D03*
%TO.N,/A14*%
X105800000Y-95200000D03*
%TO.N,+3.3V*%
X136475000Y-111487500D03*
%TO.N,GND*%
X136150000Y-109312500D03*
X136800000Y-104785000D03*
%TO.N,+3.3V*%
X136800000Y-103060000D03*
X137825000Y-98550000D03*
%TO.N,GND*%
X139662500Y-98550000D03*
X113475000Y-71150000D03*
X155525000Y-72162500D03*
X139850000Y-76075000D03*
X127600000Y-102325000D03*
%TO.N,+3.3V*%
X125875000Y-102325000D03*
%TO.N,GND*%
X126250000Y-110825000D03*
%TO.N,+3.3V*%
X126240000Y-112972500D03*
X139625000Y-117600000D03*
%TO.N,GND*%
X137900000Y-117600000D03*
X145512500Y-118710000D03*
%TO.N,+3.3V*%
X138300000Y-111575000D03*
X138125000Y-109150000D03*
%TO.N,/NRST*%
X138366148Y-107550000D03*
%TO.N,GND*%
X138300000Y-104575000D03*
%TO.N,+3.3V*%
X138325000Y-103550000D03*
%TO.N,/~{ROMCS}*%
X161960000Y-128820000D03*
%TD*%
D31*
%TO.N,/~{OE2}*%
X124050000Y-103550000D02*
X117940000Y-103550000D01*
X116768000Y-104722000D02*
X116768000Y-122188848D01*
X117940000Y-103550000D02*
X116768000Y-104722000D01*
X108856000Y-142996000D02*
X133164000Y-142996000D01*
X116768000Y-122188848D02*
X110635924Y-128320924D01*
X110635924Y-128320924D02*
X110635924Y-131709481D01*
X110635924Y-131709481D02*
X109896405Y-132449000D01*
X109896405Y-132449000D02*
X108963595Y-132449000D01*
X108963595Y-132449000D02*
X108304000Y-133108595D01*
X108304000Y-133108595D02*
X108304000Y-142444000D01*
X108304000Y-142444000D02*
X108856000Y-142996000D01*
X133164000Y-142996000D02*
X134985000Y-141175000D01*
%TO.N,/~{NMI}*%
X117560000Y-120810000D02*
X117220000Y-120470000D01*
X117220000Y-120470000D02*
X117220000Y-110536848D01*
X117220000Y-110536848D02*
X118206848Y-109550000D01*
X118206848Y-109550000D02*
X124050000Y-109550000D01*
%TO.N,/~{HALT}*%
X135356000Y-123300000D02*
X135225000Y-123169000D01*
X135225000Y-123169000D02*
X135225000Y-115725000D01*
%TO.N,/~{IORQ}*%
X138460000Y-124610000D02*
X138460000Y-129585000D01*
X138460000Y-129585000D02*
X139910000Y-131035000D01*
%TO.N,/D1*%
X114876576Y-124866576D02*
X118118000Y-121625152D01*
X114876576Y-124866576D02*
X114510000Y-125233152D01*
X114510000Y-125233152D02*
X114510000Y-131035000D01*
%TO.N,/A1*%
X122130000Y-133575000D02*
X122130000Y-132627405D01*
X122130000Y-132627405D02*
X123256000Y-131501405D01*
X123256000Y-131501405D02*
X123256000Y-128670000D01*
X123256000Y-128670000D02*
X124950000Y-126976000D01*
X124950000Y-126976000D02*
X126654000Y-126976000D01*
X126654000Y-126976000D02*
X131240000Y-122390000D01*
%TO.N,/A2*%
X131170000Y-123784000D02*
X131164000Y-123790000D01*
X131164000Y-123790000D02*
X130923697Y-123790000D01*
X130923697Y-123790000D02*
X125910000Y-128803697D01*
X125910000Y-128803697D02*
X125910000Y-131387405D01*
X125910000Y-131387405D02*
X124670000Y-132627405D01*
X124670000Y-132627405D02*
X124670000Y-133575000D01*
%TO.N,/~{BUSRQ}*%
X134540000Y-120840000D02*
X134225000Y-120525000D01*
X134225000Y-120525000D02*
X134225000Y-115725000D01*
%TO.N,/~{CK}*%
X118390000Y-126540000D02*
X119230000Y-125700000D01*
X119230000Y-125700000D02*
X119230000Y-124940000D01*
%TO.N,/D6*%
X119590000Y-131035000D02*
X119590000Y-127295000D01*
X119590000Y-127295000D02*
X121050000Y-125835000D01*
X121050000Y-125835000D02*
X126675000Y-125835000D01*
X126675000Y-125835000D02*
X131003000Y-121507000D01*
X131003000Y-121507000D02*
X131003000Y-116745468D01*
X131003000Y-116745468D02*
X131225000Y-116523468D01*
X131225000Y-116523468D02*
X131225000Y-115725000D01*
%TO.N,/D5*%
X122990000Y-125270000D02*
X123266000Y-125546000D01*
X123266000Y-125546000D02*
X126314000Y-125546000D01*
X126314000Y-125546000D02*
X126662000Y-125198000D01*
X126662000Y-125198000D02*
X126675151Y-125198000D01*
X126675151Y-125198000D02*
X130725000Y-121148150D01*
X130725000Y-121148150D02*
X130725000Y-115725000D01*
%TO.N,/D4*%
X125800000Y-124920000D02*
X126559999Y-124920000D01*
X126559999Y-124920000D02*
X130225000Y-121254999D01*
X130225000Y-121254999D02*
X130225000Y-115725000D01*
%TO.N,/D3*%
X124740000Y-124990000D02*
X129725000Y-120005000D01*
X129725000Y-120005000D02*
X129725000Y-115725000D01*
%TO.N,/D2*%
X117050000Y-127130000D02*
X117050000Y-126280000D01*
X117050000Y-126280000D02*
X121804000Y-121526000D01*
X121804000Y-121526000D02*
X126060304Y-121526000D01*
X126060304Y-121526000D02*
X128781000Y-118805302D01*
X128781000Y-118805302D02*
X128781000Y-117099000D01*
X128781000Y-117099000D02*
X129225000Y-116655000D01*
X129225000Y-116655000D02*
X129225000Y-115725000D01*
%TO.N,/D1*%
X118118000Y-121605152D02*
X118475152Y-121248000D01*
X125945152Y-121248000D02*
X128503000Y-118690151D01*
X128503000Y-118690151D02*
X128503000Y-116745468D01*
X128651000Y-116597468D02*
X128651000Y-115725000D01*
X118118000Y-121625152D02*
X118118000Y-121605152D01*
X118475152Y-121248000D02*
X125945152Y-121248000D01*
X128503000Y-116745468D02*
X128651000Y-116597468D01*
X128651000Y-115725000D02*
X128725000Y-115725000D01*
%TO.N,/D0*%
X125830000Y-120970000D02*
X128225000Y-118575000D01*
X128225000Y-118575000D02*
X128225000Y-115725000D01*
%TO.N,/D7*%
X131590000Y-121540000D02*
X131590000Y-116659999D01*
X131590000Y-116659999D02*
X131725000Y-116524999D01*
X131725000Y-116524999D02*
X131725000Y-115725000D01*
%TO.N,/~{ROMCS}*%
X132560000Y-125840000D02*
X132447000Y-125727000D01*
X132447000Y-125727000D02*
X132447000Y-121557000D01*
X132447000Y-121557000D02*
X132000000Y-121110000D01*
%TO.N,/A8*%
X150520000Y-95630000D02*
X162770000Y-107880000D01*
X162770000Y-131035000D02*
X162770000Y-107880000D01*
X150520000Y-95630000D02*
X131891494Y-95630000D01*
X131891494Y-95630000D02*
X131225000Y-96296494D01*
X131225000Y-96296494D02*
X131225000Y-100375000D01*
%TO.N,/A11*%
X129725000Y-100375000D02*
X129725000Y-99575001D01*
X129725000Y-99575001D02*
X129850000Y-99450001D01*
X129850000Y-99450001D02*
X129850000Y-95925000D01*
X129850000Y-95925000D02*
X134205000Y-91570000D01*
X168720000Y-91570000D02*
X169001000Y-91851000D01*
X134205000Y-91570000D02*
X168720000Y-91570000D01*
X169001000Y-91851000D02*
X169001000Y-132424000D01*
X169001000Y-132424000D02*
X167850000Y-133575000D01*
%TO.N,/A7*%
X131725000Y-97610000D02*
X132735000Y-96600000D01*
X131725000Y-100375000D02*
X131725000Y-97610000D01*
X160210000Y-107420000D02*
X160210000Y-108400848D01*
X132735000Y-96600000D02*
X149390000Y-96600000D01*
X149390000Y-96600000D02*
X160210000Y-107420000D01*
X160210000Y-108400848D02*
X160376000Y-108566848D01*
X160376000Y-108566848D02*
X160376000Y-122426000D01*
X160376000Y-122426000D02*
X160810000Y-122860000D01*
%TO.N,/BTN1*%
X140750000Y-97290000D02*
X140370000Y-97670000D01*
X137130001Y-97670000D02*
X135225000Y-99575001D01*
X140370000Y-97670000D02*
X137130001Y-97670000D01*
X135225000Y-99575001D02*
X135225000Y-100375000D01*
%TO.N,/A7*%
X160810000Y-122860000D02*
X160810000Y-123010000D01*
%TO.N,/~{RFSH}*%
X160230000Y-131035000D02*
X160434000Y-130831000D01*
X160434000Y-130831000D02*
X160434000Y-123544000D01*
X160434000Y-123544000D02*
X160098000Y-123208000D01*
%TO.N,/A6*%
X153736000Y-129116000D02*
X152100000Y-127480000D01*
X152100000Y-127480000D02*
X152100000Y-126730000D01*
%TO.N,/A7*%
X151196000Y-132449000D02*
X151196000Y-125856000D01*
X151196000Y-125856000D02*
X148740000Y-123400000D01*
%TO.N,/~{RESET}*%
X147530000Y-133575000D02*
X147530000Y-132627405D01*
X147530000Y-132627405D02*
X148656000Y-131501405D01*
X148656000Y-131501405D02*
X148656000Y-128106000D01*
X148656000Y-128106000D02*
X147990000Y-127440000D01*
%TO.N,/~{HALT}*%
X136490000Y-128730000D02*
X136490000Y-124484000D01*
X136040000Y-128900000D02*
X136320000Y-128900000D01*
X135356000Y-123350000D02*
X135356000Y-123300000D01*
X136320000Y-128900000D02*
X136490000Y-128730000D01*
X136490000Y-124484000D02*
X135356000Y-123350000D01*
D32*
%TO.N,Net-(D2-A)*%
X101200000Y-76825000D02*
X101200000Y-74250000D01*
X101200000Y-74250000D02*
X101175000Y-74225000D01*
%TO.N,+3.3V*%
X139400000Y-104050000D02*
X139400000Y-103550000D01*
D31*
%TO.N,GND*%
X137225000Y-116925000D02*
X137225000Y-115725000D01*
D32*
X140870000Y-109550000D02*
X140900000Y-109520000D01*
X139400000Y-109550000D02*
X140870000Y-109550000D01*
X122880000Y-113550000D02*
X122850000Y-113580000D01*
X124050000Y-113550000D02*
X122880000Y-113550000D01*
D31*
%TO.N,/~{IORQ}*%
X126285984Y-109484016D02*
X125851968Y-109050000D01*
X125851968Y-109050000D02*
X124050000Y-109050000D01*
%TO.N,/~{WAIT}*%
X127328600Y-109501400D02*
X126377199Y-108550000D01*
X126377199Y-108550000D02*
X124050000Y-108550000D01*
%TO.N,/A2*%
X140640000Y-114170000D02*
X140520000Y-114050000D01*
X140520000Y-114050000D02*
X139400000Y-114050000D01*
%TO.N,/USB1_DP*%
X129700000Y-77340000D02*
X129710000Y-77340000D01*
X129710000Y-77340000D02*
X133275000Y-73775000D01*
X133275000Y-73775000D02*
X133275000Y-70882500D01*
D32*
%TO.N,+5V*%
X104350000Y-133575000D02*
X104350000Y-132662760D01*
X104767500Y-121957500D02*
X104410000Y-121957500D01*
X104350000Y-132662760D02*
X104776760Y-132236000D01*
X104776760Y-132236000D02*
X104847471Y-132236000D01*
X105551000Y-131532471D02*
X105551000Y-130537529D01*
X105551000Y-130537529D02*
X105220000Y-130206529D01*
X104847471Y-132236000D02*
X105551000Y-131532471D01*
X105220000Y-130206529D02*
X105220000Y-124961134D01*
X105220000Y-124961134D02*
X105640000Y-124541134D01*
X105640000Y-124541134D02*
X105640000Y-122830000D01*
X105640000Y-122830000D02*
X104767500Y-121957500D01*
%TO.N,GND*%
X98540000Y-118840000D02*
X98350000Y-119030000D01*
X99550000Y-118840000D02*
X98540000Y-118840000D01*
D31*
%TO.N,/BTN1*%
X155475000Y-67925000D02*
X161975000Y-67925000D01*
%TO.N,/USB1_DP*%
X129710000Y-107540000D02*
X129660000Y-107540000D01*
X129660000Y-107540000D02*
X129250000Y-107950000D01*
%TO.N,/USB1_DM*%
X130770000Y-77830000D02*
X135275000Y-73325000D01*
X135275000Y-73325000D02*
X135275000Y-70882500D01*
X129100000Y-106625000D02*
X130290000Y-105435000D01*
X130290000Y-105435000D02*
X130290000Y-102830000D01*
%TO.N,/LEDFLASH*%
X121800000Y-110050000D02*
X121680000Y-110170000D01*
X122675000Y-110050000D02*
X121800000Y-110050000D01*
%TO.N,GND*%
X132445000Y-141215000D02*
X133300000Y-142070000D01*
X132445000Y-141175000D02*
X132445000Y-141215000D01*
X132290000Y-135040000D02*
X132320000Y-135070000D01*
X132290000Y-133575000D02*
X132290000Y-135040000D01*
%TO.N,/~{MREQ}*%
X134979000Y-128644000D02*
X133726000Y-128644000D01*
X111350000Y-122890000D02*
X111350000Y-118850000D01*
X133726000Y-128644000D02*
X133290000Y-129080000D01*
X137370000Y-131035000D02*
X134979000Y-128644000D01*
X111350000Y-118850000D02*
X113100000Y-117100000D01*
%TO.N,/~{ROMCS}*%
X132000000Y-119038151D02*
X132003000Y-119035151D01*
X132151000Y-116597468D02*
X132151000Y-115799000D01*
X132000000Y-121110000D02*
X132000000Y-119038151D01*
X132003000Y-119035151D02*
X132003000Y-116745468D01*
X132003000Y-116745468D02*
X132151000Y-116597468D01*
X132151000Y-115799000D02*
X132225000Y-115725000D01*
%TO.N,/~{BUSRQ}*%
X142154000Y-127144000D02*
X136210000Y-121200000D01*
X143514000Y-127144000D02*
X142154000Y-127144000D01*
X143810000Y-127440000D02*
X143514000Y-127144000D01*
%TO.N,/~{RESET}*%
X147750000Y-124160000D02*
X147750000Y-124900000D01*
X147750000Y-124900000D02*
X148990000Y-126140000D01*
%TO.N,/~{WAIT}*%
X146690000Y-124930000D02*
X146690000Y-122910000D01*
X149300000Y-127540000D02*
X146690000Y-124930000D01*
%TO.N,/A3*%
X139400000Y-113550000D02*
X141430000Y-113550000D01*
X141430000Y-113550000D02*
X141520000Y-113640000D01*
%TO.N,/~{WR}*%
X142210000Y-127700000D02*
X142210000Y-128255000D01*
X142210000Y-128255000D02*
X144990000Y-131035000D01*
%TO.N,/~{BUSACK}*%
X135490000Y-124780000D02*
X133725000Y-123015000D01*
X135920000Y-124780000D02*
X135490000Y-124780000D01*
%TO.N,/~{RD}*%
X140360000Y-127660000D02*
X140460000Y-127760000D01*
X140460000Y-127760000D02*
X140460000Y-129045000D01*
X140460000Y-129045000D02*
X142450000Y-131035000D01*
%TO.N,/~{WR}*%
X133840000Y-126210000D02*
X133840000Y-125090000D01*
X133840000Y-125090000D02*
X132725000Y-123975000D01*
X132725000Y-123975000D02*
X132725000Y-115725000D01*
%TO.N,/~{RD}*%
X134640000Y-124800000D02*
X133225000Y-123385000D01*
X133225000Y-123385000D02*
X133225000Y-121400000D01*
X134690000Y-126420000D02*
X134640000Y-126370000D01*
X134640000Y-126370000D02*
X134640000Y-124800000D01*
%TO.N,/A3*%
X128336000Y-127414000D02*
X131070000Y-124680000D01*
X128336000Y-131501405D02*
X128336000Y-128980000D01*
%TO.N,/~{NMI}*%
X132290000Y-128650000D02*
X132290000Y-131035000D01*
%TO.N,/A1*%
X138730000Y-120280000D02*
X136725000Y-118275000D01*
X136725000Y-118275000D02*
X136725000Y-115725000D01*
%TO.N,/~{INT}*%
X129750000Y-127940000D02*
X129750000Y-131035000D01*
%TO.N,/A3*%
X127210000Y-133575000D02*
X127210000Y-132627405D01*
X127210000Y-132627405D02*
X128336000Y-131501405D01*
D32*
%TO.N,+3.3V*%
X97500000Y-112437500D02*
X98062500Y-113000000D01*
X98062500Y-113000000D02*
X99660000Y-113000000D01*
X99660000Y-113000000D02*
X99680000Y-112980000D01*
X99680000Y-112980000D02*
X99870000Y-112980000D01*
X99870000Y-112980000D02*
X100310000Y-112540000D01*
X100310000Y-112540000D02*
X101850000Y-112540000D01*
X102037500Y-113000000D02*
X101960000Y-113000000D01*
D31*
%TO.N,/~{NMI}*%
X118810000Y-123730000D02*
X118690000Y-123850000D01*
X118810000Y-122620000D02*
X118810000Y-123730000D01*
%TO.N,/~{CK}*%
X118390000Y-126540000D02*
X118390000Y-131287405D01*
X118390000Y-131287405D02*
X117050000Y-132627405D01*
X117050000Y-132627405D02*
X117050000Y-133575000D01*
%TO.N,/~{INT}*%
X123960000Y-124340000D02*
X124090000Y-124210000D01*
X121080000Y-124340000D02*
X123960000Y-124340000D01*
X120290000Y-125130000D02*
X121080000Y-124340000D01*
%TO.N,/D0*%
X117840000Y-121510000D02*
X113390000Y-125960000D01*
X125830000Y-120970000D02*
X118360000Y-120970000D01*
X118360000Y-120970000D02*
X117840000Y-121490000D01*
X117840000Y-121490000D02*
X117840000Y-121510000D01*
X113390000Y-125960000D02*
X113390000Y-129615000D01*
X113390000Y-129615000D02*
X111970000Y-131035000D01*
%TO.N,/~{NMI}*%
X121220000Y-123690000D02*
X123190000Y-123690000D01*
%TO.N,/~{INT}*%
X115000000Y-115300000D02*
X115000000Y-117470000D01*
X115000000Y-117470000D02*
X113410000Y-119060000D01*
%TO.N,/~{CK}*%
X113410000Y-120470000D02*
X115850000Y-118030000D01*
X115850000Y-103775000D02*
X117075000Y-102550000D01*
X115850000Y-118030000D02*
X115850000Y-103775000D01*
X113410000Y-123130000D02*
X113410000Y-120470000D01*
X117075000Y-102550000D02*
X124050000Y-102550000D01*
%TO.N,/~{RFSH}*%
X160098000Y-108682000D02*
X153040000Y-101624000D01*
X160098000Y-123208000D02*
X160098000Y-108682000D01*
%TO.N,/~{ROMCS}*%
X161960000Y-129979240D02*
X161381000Y-130558240D01*
X161960000Y-128820000D02*
X161960000Y-129979240D01*
X161381000Y-130558240D02*
X161381000Y-131511760D01*
X161381000Y-131511760D02*
X160230000Y-132662760D01*
X160230000Y-132662760D02*
X160230000Y-133575000D01*
%TO.N,/D5*%
X122130000Y-128340000D02*
X122130000Y-131035000D01*
%TO.N,/A0*%
X120930000Y-128020000D02*
X120930000Y-131310000D01*
X120930000Y-131310000D02*
X119590000Y-132650000D01*
X119590000Y-132650000D02*
X119590000Y-133575000D01*
%TO.N,/D3*%
X124670000Y-131035000D02*
X124670000Y-128340000D01*
%TO.N,/D4*%
X127210000Y-131035000D02*
X127210000Y-128290000D01*
%TO.N,/A0*%
X138820000Y-121170000D02*
X136225000Y-118575000D01*
X136225000Y-118575000D02*
X136225000Y-118225000D01*
%TO.N,/D2*%
X117050000Y-131035000D02*
X117050000Y-127130000D01*
%TO.N,/D7*%
X114330000Y-123020000D02*
X114330000Y-122810000D01*
X114420924Y-123110924D02*
X114330000Y-123020000D01*
X109240000Y-127620000D02*
X109911848Y-127620000D01*
X109911848Y-127620000D02*
X114420924Y-123110924D01*
%TO.N,/~{RESET}*%
X124050000Y-108050000D02*
X126800000Y-108050000D01*
X126800000Y-108050000D02*
X127130000Y-108380000D01*
%TO.N,/A6*%
X159820000Y-119083698D02*
X159820000Y-126710000D01*
X152786302Y-112050000D02*
X159820000Y-119083698D01*
X150530000Y-112050000D02*
X152786302Y-112050000D01*
%TO.N,/A5*%
X152893151Y-112550000D02*
X159214000Y-118870849D01*
X159214000Y-127174000D02*
X159480000Y-127440000D01*
X159214000Y-118870849D02*
X159214000Y-127174000D01*
%TO.N,+3.3V*%
X123587500Y-115275000D02*
X123587500Y-114512500D01*
X123587500Y-114512500D02*
X124050000Y-114050000D01*
%TO.N,Net-(D1-A)*%
X98140000Y-105537500D02*
X98140000Y-103815000D01*
X98140000Y-103815000D02*
X98130000Y-103805000D01*
%TO.N,/~{BUSACK}*%
X162770000Y-133575000D02*
X162770000Y-132627405D01*
X162770000Y-132627405D02*
X163896000Y-131501405D01*
X163896000Y-131501405D02*
X163896000Y-130014152D01*
X163896000Y-130014152D02*
X163330000Y-129448152D01*
X163330000Y-129448152D02*
X163330000Y-124220000D01*
%TO.N,/A5*%
X154024000Y-132449000D02*
X154024000Y-129010303D01*
X153220000Y-128206303D02*
X153220000Y-127520000D01*
X154024000Y-129010303D02*
X153220000Y-128206303D01*
X155150000Y-133575000D02*
X154024000Y-132449000D01*
%TO.N,/A6*%
X153736000Y-132449000D02*
X153736000Y-129116000D01*
X152610000Y-133575000D02*
X153736000Y-132449000D01*
%TO.N,/~{WAIT}*%
X150070000Y-128310000D02*
X149300000Y-127540000D01*
X150070000Y-131035000D02*
X150070000Y-128310000D01*
%TO.N,/A7*%
X150070000Y-133575000D02*
X151196000Y-132449000D01*
%TO.N,/~{BUSRQ}*%
X146116000Y-129746000D02*
X143810000Y-127440000D01*
X146116000Y-132449000D02*
X146116000Y-129746000D01*
X144990000Y-133575000D02*
X146116000Y-132449000D01*
%TO.N,/A9*%
X165195500Y-93514500D02*
X166461000Y-94780000D01*
X166461000Y-94780000D02*
X166461000Y-132424000D01*
X166461000Y-132424000D02*
X165310000Y-133575000D01*
X160700000Y-93250000D02*
X163300000Y-93250000D01*
X163300000Y-93250000D02*
X163360000Y-93310000D01*
%TO.N,/A10*%
X130225000Y-100375000D02*
X130210000Y-100360000D01*
X130210000Y-100360000D02*
X130176000Y-100360000D01*
X130176000Y-100360000D02*
X130176000Y-96220494D01*
X130176000Y-96220494D02*
X134306494Y-92090000D01*
X134306494Y-92090000D02*
X163480000Y-92090000D01*
X163480000Y-92090000D02*
X163950000Y-92560000D01*
X163950000Y-92560000D02*
X163950000Y-129675000D01*
X163950000Y-129675000D02*
X165310000Y-131035000D01*
%TO.N,/A9*%
X130725000Y-96100000D02*
X133575000Y-93250000D01*
X133575000Y-93250000D02*
X160700000Y-93250000D01*
%TO.N,/~{OE}*%
X117700000Y-103050000D02*
X116490000Y-104260000D01*
X124050000Y-103050000D02*
X117700000Y-103050000D01*
X116490000Y-104260000D02*
X116490000Y-121435000D01*
X116490000Y-121435000D02*
X106890000Y-131035000D01*
%TO.N,/D7*%
X106020000Y-127620000D02*
X109240000Y-127620000D01*
%TO.N,/A12*%
X105770000Y-100200000D02*
X105050000Y-99480000D01*
X105050000Y-99480000D02*
X105050000Y-93525000D01*
%TO.N,/~{MREQ}*%
X113100000Y-104075000D02*
X113100000Y-117100000D01*
X122350000Y-94825000D02*
X113100000Y-104075000D01*
%TO.N,/~{RFSH}*%
X138527532Y-101624000D02*
X153040000Y-101624000D01*
X138391532Y-101760000D02*
X138527532Y-101624000D01*
X127310001Y-101760000D02*
X138391532Y-101760000D01*
X126725000Y-101174999D02*
X127310001Y-101760000D01*
X126725000Y-100375000D02*
X126725000Y-101174999D01*
%TO.N,GND*%
X132225000Y-99145000D02*
X132290000Y-99080000D01*
X132225000Y-100375000D02*
X132225000Y-99145000D01*
%TO.N,/A13*%
X128725000Y-100375000D02*
X128725000Y-94425000D01*
X106700000Y-93750000D02*
X106250000Y-94200000D01*
X128725000Y-94425000D02*
X128053000Y-93753000D01*
X128053000Y-93753000D02*
X123009848Y-93753000D01*
X123009848Y-93753000D02*
X123006847Y-93750000D01*
X123006847Y-93750000D02*
X106700000Y-93750000D01*
%TO.N,/A14*%
X128225000Y-100375000D02*
X128225000Y-94500000D01*
X108237849Y-95000000D02*
X106000000Y-95000000D01*
X128225000Y-94500000D02*
X127756000Y-94031000D01*
X127756000Y-94031000D02*
X122894697Y-94031000D01*
X122894697Y-94031000D02*
X122891696Y-94028000D01*
X109209849Y-94028000D02*
X108237849Y-95000000D01*
X122891696Y-94028000D02*
X109209849Y-94028000D01*
X106000000Y-95000000D02*
X105800000Y-95200000D01*
%TO.N,+3.3V*%
X137825000Y-98550000D02*
X137937500Y-98550000D01*
%TO.N,GND*%
X137225000Y-100375000D02*
X137225000Y-101174999D01*
X137225000Y-101174999D02*
X137501001Y-101451000D01*
X137501001Y-101451000D02*
X137947468Y-101451000D01*
X137947468Y-101451000D02*
X139662500Y-99735968D01*
X139662500Y-99735968D02*
X139662500Y-98550000D01*
%TO.N,+3.3V*%
X136725000Y-100375000D02*
X136725000Y-99575001D01*
X136725000Y-99575001D02*
X137750001Y-98550000D01*
X137750001Y-98550000D02*
X137825000Y-98550000D01*
%TO.N,/BTN2*%
X113475000Y-69325000D02*
X113475000Y-67050000D01*
X113475000Y-67050000D02*
X113550000Y-66975000D01*
D32*
%TO.N,+5V*%
X137525000Y-78625000D02*
X139025000Y-78625000D01*
X139025000Y-78625000D02*
X139850000Y-77800000D01*
%TO.N,Net-(J7-VBUS)*%
X137525000Y-75650000D02*
X137525000Y-71132500D01*
X137525000Y-71132500D02*
X137775000Y-70882500D01*
%TO.N,+5V*%
X104337500Y-119300000D02*
X104337500Y-89112500D01*
X104337500Y-89112500D02*
X114825000Y-78625000D01*
X114825000Y-78625000D02*
X137525000Y-78625000D01*
X104410000Y-121957500D02*
X101830000Y-121957500D01*
D31*
X101830000Y-121957500D02*
X101720000Y-122067500D01*
D32*
X104410000Y-121957500D02*
X104410000Y-119372500D01*
D31*
X104410000Y-119372500D02*
X104337500Y-119300000D01*
%TO.N,GND*%
X127600000Y-102325000D02*
X127125000Y-102325000D01*
X127125000Y-102325000D02*
X126225000Y-101425000D01*
X126225000Y-101425000D02*
X126225000Y-100375000D01*
%TO.N,+3.3V*%
X125875000Y-102325000D02*
X125725000Y-102175000D01*
X125725000Y-102175000D02*
X125725000Y-100375000D01*
%TO.N,/BOOT0*%
X143275000Y-116775000D02*
X142026000Y-116775000D01*
X142026000Y-116775000D02*
X139900000Y-114649000D01*
%TO.N,+3.3V*%
X137725000Y-115725000D02*
X139600000Y-117600000D01*
X139600000Y-117600000D02*
X139625000Y-117600000D01*
%TO.N,GND*%
X137225000Y-116925000D02*
X137900000Y-117600000D01*
%TO.N,/~{MREQ}*%
X126950000Y-94825000D02*
X122350000Y-94825000D01*
X127100000Y-94975000D02*
X126950000Y-94825000D01*
X127225000Y-97850000D02*
X127225000Y-95100000D01*
X127225000Y-95100000D02*
X127100000Y-94975000D01*
X127225000Y-100375000D02*
X127225000Y-97850000D01*
%TO.N,/A15*%
X127725000Y-100375000D02*
X127725000Y-95100000D01*
X127725000Y-95100000D02*
X127125000Y-94500000D01*
X127125000Y-94500000D02*
X110400000Y-94500000D01*
X110400000Y-94500000D02*
X108525000Y-96375000D01*
%TO.N,/A12*%
X129225000Y-100375000D02*
X129225000Y-94300000D01*
X123124999Y-93475000D02*
X123121999Y-93472000D01*
X129225000Y-94300000D02*
X128400000Y-93475000D01*
X128400000Y-93475000D02*
X123124999Y-93475000D01*
X123121999Y-93472000D02*
X105103000Y-93472000D01*
X105103000Y-93472000D02*
X105050000Y-93525000D01*
%TO.N,/USART_RX*%
X124050000Y-111050000D02*
X122940000Y-111050000D01*
X122940000Y-111050000D02*
X119250000Y-114740000D01*
%TO.N,/USART_TX*%
X124050000Y-110550000D02*
X122850000Y-110550000D01*
X122850000Y-110550000D02*
X121200000Y-112200000D01*
X121200000Y-112200000D02*
X119250000Y-112200000D01*
%TO.N,/LEDFLASH*%
X124050000Y-110050000D02*
X122675000Y-110050000D01*
%TO.N,/BOOT0*%
X139900000Y-114649000D02*
X134854532Y-114649000D01*
X134854532Y-114649000D02*
X134725000Y-114778532D01*
X134725000Y-114778532D02*
X134725000Y-115725000D01*
%TO.N,+3.3V*%
X138325000Y-111550000D02*
X138300000Y-111575000D01*
X139400000Y-111550000D02*
X138325000Y-111550000D01*
X138225000Y-109050000D02*
X139400000Y-109050000D01*
X138125000Y-109150000D02*
X138225000Y-109050000D01*
%TO.N,/NRST*%
X139400000Y-107550000D02*
X138366148Y-107550000D01*
%TO.N,GND*%
X139400000Y-105050000D02*
X138775000Y-105050000D01*
X138775000Y-105050000D02*
X138300000Y-104575000D01*
X138325000Y-104550000D02*
X138300000Y-104575000D01*
X139400000Y-104550000D02*
X138325000Y-104550000D01*
%TO.N,+3.3V*%
X139400000Y-103550000D02*
X138325000Y-103550000D01*
%TO.N,/~{BUSACK}*%
X133725000Y-115725000D02*
X133725000Y-121390000D01*
%TO.N,/~{RD}*%
X133225000Y-115725000D02*
X133225000Y-121400000D01*
%TO.N,/A9*%
X130725000Y-100375000D02*
X130725000Y-96100000D01*
%TO.N,/USB1_DM*%
X128972000Y-106753000D02*
X129100000Y-106625000D01*
X128972000Y-109309848D02*
X128972000Y-106753000D01*
X124050000Y-111550000D02*
X126731848Y-111550000D01*
X126731848Y-111550000D02*
X128972000Y-109309848D01*
%TO.N,/SWCLK*%
X125725000Y-115725000D02*
X125725000Y-118065000D01*
X125725000Y-118065000D02*
X124790000Y-119000000D01*
%TO.N,/SWDIO*%
X124050000Y-112550000D02*
X124849999Y-112550000D01*
X124849999Y-112550000D02*
X125126000Y-112826001D01*
X125126000Y-112826001D02*
X125126000Y-116124000D01*
X125126000Y-116124000D02*
X122250000Y-119000000D01*
%TO.N,/USB1_DP*%
X129250000Y-109425000D02*
X129250000Y-107950000D01*
X124050000Y-112050000D02*
X126625000Y-112050000D01*
X126625000Y-112050000D02*
X129250000Y-109425000D01*
%TO.N,/~{INT}*%
X124050000Y-102050000D02*
X116475000Y-102050000D01*
X116475000Y-102050000D02*
X115000000Y-103525000D01*
X115000000Y-103525000D02*
X115000000Y-115300000D01*
%TO.N,/~{RFSH}*%
X126725000Y-100375000D02*
X126725000Y-99575001D01*
%TO.N,/BTN2*%
X134725000Y-98875000D02*
X136325000Y-97275000D01*
X134725000Y-100375000D02*
X134725000Y-98875000D01*
%TO.N,/A0*%
X136225000Y-115725000D02*
X136225000Y-118225000D01*
%TO.N,/A6*%
X139400000Y-112050000D02*
X150530000Y-112050000D01*
%TO.N,/~{M1}*%
X157690000Y-131035000D02*
X148530000Y-121875000D01*
X148530000Y-121875000D02*
X138550000Y-121875000D01*
X138550000Y-121875000D02*
X135725000Y-119050000D01*
X135725000Y-119050000D02*
X135725000Y-115725000D01*
%TO.N,/A4*%
X158841000Y-118891000D02*
X152950000Y-113000000D01*
X158841000Y-131511760D02*
X158841000Y-118891000D01*
X157690000Y-132662760D02*
X158841000Y-131511760D01*
X157690000Y-133575000D02*
X157690000Y-132662760D01*
X152950000Y-113000000D02*
X152900000Y-113050000D01*
X152900000Y-113050000D02*
X139400000Y-113050000D01*
%TO.N,+5V*%
X104505000Y-141175000D02*
X105659200Y-140020800D01*
X105659200Y-134884200D02*
X104350000Y-133575000D01*
X105659200Y-140020800D02*
X105659200Y-134884200D01*
%TO.N,/A13*%
X100655800Y-132189200D02*
X101810000Y-131035000D01*
X101965000Y-138635000D02*
X101965000Y-135362286D01*
X101965000Y-135362286D02*
X100655800Y-134053086D01*
X100655800Y-134053086D02*
X100655800Y-132189200D01*
%TO.N,/A8*%
X162925000Y-138635000D02*
X162925000Y-135362286D01*
X161615800Y-132189200D02*
X162770000Y-131035000D01*
X162925000Y-135362286D02*
X161615800Y-134053086D01*
X161615800Y-134053086D02*
X161615800Y-132189200D01*
%TO.N,/~{MREQ}*%
X136215800Y-132189200D02*
X137370000Y-131035000D01*
X137525000Y-138635000D02*
X136215800Y-137325800D01*
X136215800Y-137325800D02*
X136215800Y-132189200D01*
%TO.N,/~{OE2}*%
X136139200Y-140020800D02*
X136139200Y-138156914D01*
X136139200Y-138156914D02*
X134830000Y-136847714D01*
%TO.N,/~{OE}*%
X105735800Y-134053086D02*
X105735800Y-132189200D01*
X107045000Y-138635000D02*
X107045000Y-135362286D01*
X105735800Y-132189200D02*
X106890000Y-131035000D01*
%TO.N,/~{OE2}*%
X134985000Y-141175000D02*
X136139200Y-140020800D01*
X134830000Y-136847714D02*
X134830000Y-133575000D01*
%TO.N,/~{OE}*%
X107045000Y-135362286D02*
X105735800Y-134053086D01*
%TO.N,/D1*%
X128679200Y-115725000D02*
X128725000Y-115725000D01*
X114665000Y-138635000D02*
X113355800Y-137325800D01*
X114510000Y-131035000D02*
X114500000Y-131025000D01*
X113355800Y-137325800D02*
X113355800Y-132189200D01*
X113355800Y-132189200D02*
X114510000Y-131035000D01*
%TO.N,/A14*%
X100579200Y-140020800D02*
X100579200Y-134884200D01*
X100579200Y-134884200D02*
X99270000Y-133575000D01*
X99425000Y-141175000D02*
X100579200Y-140020800D01*
%TO.N,/A7*%
X151379200Y-140020800D02*
X151379200Y-134884200D01*
X151379200Y-134884200D02*
X150070000Y-133575000D01*
X150225000Y-141175000D02*
X151379200Y-140020800D01*
%TO.N,/A10*%
X165465000Y-138635000D02*
X165465000Y-135698374D01*
X164100000Y-134333374D02*
X164100000Y-132245000D01*
X164100000Y-132245000D02*
X165310000Y-131035000D01*
X165465000Y-135698374D02*
X164100000Y-134333374D01*
%TO.N,/D4*%
X126055800Y-137325800D02*
X126055800Y-132189200D01*
X127365000Y-138635000D02*
X126055800Y-137325800D01*
X127210000Y-131035000D02*
X126725000Y-130550000D01*
X130179200Y-115770800D02*
X130225000Y-115725000D01*
X126055800Y-132189200D02*
X127210000Y-131035000D01*
%TO.N,/A6*%
X152765000Y-141175000D02*
X153919200Y-140020800D01*
X153919200Y-134884200D02*
X152610000Y-133575000D01*
X153919200Y-140020800D02*
X153919200Y-134884200D01*
%TO.N,/A2*%
X125979200Y-138156914D02*
X124670000Y-136847714D01*
X125979200Y-140020800D02*
X125979200Y-138156914D01*
X124670000Y-136847714D02*
X124670000Y-133575000D01*
X124825000Y-141175000D02*
X125979200Y-140020800D01*
%TO.N,/~{RFSH}*%
X159075800Y-134175800D02*
X159075800Y-132189200D01*
X159075800Y-132189200D02*
X160230000Y-131035000D01*
X160385000Y-138635000D02*
X160385000Y-135485000D01*
X160385000Y-135485000D02*
X159075800Y-134175800D01*
%TO.N,/D6*%
X118435800Y-137325800D02*
X118435800Y-132189200D01*
X120215000Y-131035000D02*
X119590000Y-131035000D01*
X119745000Y-138635000D02*
X118435800Y-137325800D01*
X118435800Y-132189200D02*
X119590000Y-131035000D01*
%TO.N,/D5*%
X120975800Y-132189200D02*
X122130000Y-131035000D01*
X122285000Y-138635000D02*
X120975800Y-137325800D01*
X120975800Y-137325800D02*
X120975800Y-132189200D01*
%TO.N,/~{ROMCS}*%
X161539200Y-140020800D02*
X161539200Y-134884200D01*
X161539200Y-134884200D02*
X160230000Y-133575000D01*
X160385000Y-141175000D02*
X161539200Y-140020800D01*
%TO.N,/A5*%
X156459200Y-140020800D02*
X156459200Y-134884200D01*
X155305000Y-141175000D02*
X156459200Y-140020800D01*
X156459200Y-134884200D02*
X155150000Y-133575000D01*
%TO.N,/D3*%
X124825000Y-138635000D02*
X123515800Y-137325800D01*
X123515800Y-137325800D02*
X123515800Y-132189200D01*
X123515800Y-132189200D02*
X124670000Y-131035000D01*
%TO.N,/~{RESET}*%
X147685000Y-141175000D02*
X148839200Y-140020800D01*
X148839200Y-134884200D02*
X147530000Y-133575000D01*
X148839200Y-140020800D02*
X148839200Y-134884200D01*
%TO.N,/A1*%
X122130000Y-136630000D02*
X122130000Y-133575000D01*
X123439200Y-140020800D02*
X123439200Y-137939200D01*
X122285000Y-141175000D02*
X123439200Y-140020800D01*
X123439200Y-137939200D02*
X122130000Y-136630000D01*
%TO.N,/~{INT}*%
X128364200Y-137094200D02*
X128364200Y-132420800D01*
X128364200Y-132420800D02*
X129750000Y-131035000D01*
X129905000Y-138635000D02*
X128364200Y-137094200D01*
%TO.N,/D7*%
X104505000Y-135593886D02*
X103195800Y-134284686D01*
X103195800Y-134284686D02*
X103195800Y-132189200D01*
X104505000Y-138635000D02*
X104505000Y-135593886D01*
X103195800Y-132189200D02*
X104350000Y-131035000D01*
%TO.N,/~{M1}*%
X156535800Y-132189200D02*
X157690000Y-131035000D01*
X157845000Y-135593886D02*
X156535800Y-134284686D01*
X157845000Y-138635000D02*
X157845000Y-135593886D01*
X156535800Y-134284686D02*
X156535800Y-132189200D01*
%TO.N,/~{IORQ}*%
X140065000Y-138635000D02*
X138755800Y-137325800D01*
X138755800Y-137325800D02*
X138755800Y-132189200D01*
X138755800Y-132189200D02*
X139910000Y-131035000D01*
%TO.N,/D2*%
X115895800Y-137325800D02*
X115895800Y-132189200D01*
X117050000Y-131035000D02*
X117100000Y-130985000D01*
X115895800Y-132189200D02*
X117050000Y-131035000D01*
X129179200Y-115770800D02*
X129225000Y-115725000D01*
X117205000Y-138635000D02*
X115895800Y-137325800D01*
%TO.N,/~{BUSACK}*%
X164079200Y-134884200D02*
X162770000Y-133575000D01*
X162925000Y-141175000D02*
X164079200Y-140020800D01*
X164079200Y-140020800D02*
X164079200Y-134884200D01*
%TO.N,/~{WAIT}*%
X150225000Y-138635000D02*
X150225000Y-135362286D01*
X148915800Y-134053086D02*
X148915800Y-132189200D01*
X148915800Y-132189200D02*
X150070000Y-131035000D01*
X150225000Y-135362286D02*
X148915800Y-134053086D01*
%TO.N,/~{RD}*%
X141295800Y-137325800D02*
X141295800Y-132189200D01*
X142605000Y-138635000D02*
X141295800Y-137325800D01*
X141295800Y-132189200D02*
X142450000Y-131035000D01*
%TO.N,/A11*%
X168005000Y-141175000D02*
X169159200Y-140020800D01*
X169159200Y-140020800D02*
X169159200Y-134884200D01*
X169159200Y-134884200D02*
X167850000Y-133575000D01*
%TO.N,/A3*%
X128519200Y-137820824D02*
X127210000Y-136511624D01*
X127365000Y-141175000D02*
X128519200Y-140020800D01*
X128519200Y-140020800D02*
X128519200Y-137820824D01*
X127210000Y-136511624D02*
X127210000Y-133575000D01*
%TO.N,/A9*%
X166619200Y-140020800D02*
X166619200Y-134884200D01*
X165465000Y-141175000D02*
X166619200Y-140020800D01*
X166619200Y-134884200D02*
X165310000Y-133575000D01*
%TO.N,/~{NMI}*%
X131135800Y-132189200D02*
X132290000Y-131035000D01*
X131135800Y-137325800D02*
X131135800Y-132189200D01*
X132445000Y-138635000D02*
X131135800Y-137325800D01*
%TO.N,/D0*%
X112125000Y-138635000D02*
X110815800Y-137325800D01*
X110815800Y-132189200D02*
X111970000Y-131035000D01*
X110815800Y-137325800D02*
X110815800Y-132189200D01*
%TO.N,/A12*%
X103119200Y-134884200D02*
X101810000Y-133575000D01*
X103119200Y-140020800D02*
X103119200Y-134884200D01*
X101965000Y-141175000D02*
X103119200Y-140020800D01*
%TO.N,/~{HALT}*%
X133675800Y-137325800D02*
X133675800Y-132189200D01*
X133675800Y-132189200D02*
X134830000Y-131035000D01*
X134985000Y-138635000D02*
X133675800Y-137325800D01*
%TO.N,/A4*%
X158999200Y-134884200D02*
X157690000Y-133575000D01*
X158999200Y-140020800D02*
X158999200Y-134884200D01*
X157845000Y-141175000D02*
X158999200Y-140020800D01*
%TO.N,/A15*%
X99425000Y-138635000D02*
X98115800Y-137325800D01*
X98115800Y-132189200D02*
X99270000Y-131035000D01*
X98115800Y-137325800D02*
X98115800Y-132189200D01*
%TO.N,/~{CK}*%
X118359200Y-140020800D02*
X118359200Y-137959200D01*
X118359200Y-137959200D02*
X117050000Y-136650000D01*
X117205000Y-141175000D02*
X118359200Y-140020800D01*
X117050000Y-136650000D02*
X117050000Y-133575000D01*
%TO.N,/~{WR}*%
X145145000Y-138635000D02*
X143835800Y-137325800D01*
X143835800Y-132189200D02*
X144990000Y-131035000D01*
X143835800Y-137325800D02*
X143835800Y-132189200D01*
%TO.N,/A0*%
X120899200Y-140020800D02*
X120899200Y-137820826D01*
X119745000Y-141175000D02*
X120899200Y-140020800D01*
X119590000Y-136511626D02*
X119590000Y-133575000D01*
X120899200Y-137820826D02*
X119590000Y-136511626D01*
%TO.N,/~{BUSRQ}*%
X145145000Y-141175000D02*
X146299200Y-140020800D01*
X146299200Y-140020800D02*
X146299200Y-134884200D01*
X146299200Y-134884200D02*
X144990000Y-133575000D01*
%TO.N,/A3*%
X128336000Y-128980000D02*
X128336000Y-127414000D01*
%TO.N,/~{BUSACK}*%
X133725000Y-123015000D02*
X133725000Y-121390000D01*
%TO.N,/A5*%
X150310000Y-112550000D02*
X152893151Y-112550000D01*
X139400000Y-112550000D02*
X150310000Y-112550000D01*
%TD*%
M02*
