%TF.GenerationSoftware,KiCad,Pcbnew,10.0.1*%
%TF.CreationDate,2026-05-09T19:25:55+01:00*%
%TF.ProjectId,RISKYZXSpectrum,5249534b-595a-4585-9370-65637472756d,rev?*%
%TF.SameCoordinates,Original*%
%TF.FileFunction,Copper,L4,Bot*%
%TF.FilePolarity,Positive*%
%FSLAX46Y46*%
G04 Gerber Fmt 4.6, Leading zero omitted, Abs format (unit mm)*
G04 Created by KiCad (PCBNEW 10.0.1) date 2026-05-09 19:25:55*
%MOMM*%
%LPD*%
G01*
G04 APERTURE LIST*
G04 Aperture macros list*
%AMRoundRect*
0 Rectangle with rounded corners*
0 $1 Rounding radius*
0 $2 $3 $4 $5 $6 $7 $8 $9 X,Y pos of 4 corners*
0 Add a 4 corners polygon primitive as box body*
4,1,4,$2,$3,$4,$5,$6,$7,$8,$9,$2,$3,0*
0 Add four circle primitives for the rounded corners*
1,1,$1+$1,$2,$3*
1,1,$1+$1,$4,$5*
1,1,$1+$1,$6,$7*
1,1,$1+$1,$8,$9*
0 Add four rect primitives between the rounded corners*
20,1,$1+$1,$2,$3,$4,$5,0*
20,1,$1+$1,$4,$5,$6,$7,0*
20,1,$1+$1,$6,$7,$8,$9,0*
20,1,$1+$1,$8,$9,$2,$3,0*%
G04 Aperture macros list end*
%TA.AperFunction,ComponentPad*%
%ADD10R,1.700000X1.700000*%
%TD*%
%TA.AperFunction,ComponentPad*%
%ADD11C,1.700000*%
%TD*%
%TA.AperFunction,ComponentPad*%
%ADD12RoundRect,0.250000X0.512000X0.512000X-0.512000X0.512000X-0.512000X-0.512000X0.512000X-0.512000X0*%
%TD*%
%TA.AperFunction,ComponentPad*%
%ADD13C,1.524000*%
%TD*%
%TA.AperFunction,ComponentPad*%
%ADD14C,3.500000*%
%TD*%
%TA.AperFunction,ComponentPad*%
%ADD15C,1.500000*%
%TD*%
%TA.AperFunction,ComponentPad*%
%ADD16C,2.000000*%
%TD*%
%TA.AperFunction,SMDPad,CuDef*%
%ADD17RoundRect,0.237500X0.250000X0.237500X-0.250000X0.237500X-0.250000X-0.237500X0.250000X-0.237500X0*%
%TD*%
%TA.AperFunction,SMDPad,CuDef*%
%ADD18RoundRect,0.237500X-0.300000X-0.237500X0.300000X-0.237500X0.300000X0.237500X-0.300000X0.237500X0*%
%TD*%
%TA.AperFunction,SMDPad,CuDef*%
%ADD19RoundRect,0.237500X-0.237500X0.300000X-0.237500X-0.300000X0.237500X-0.300000X0.237500X0.300000X0*%
%TD*%
%TA.AperFunction,SMDPad,CuDef*%
%ADD20RoundRect,0.237500X0.237500X-0.300000X0.237500X0.300000X-0.237500X0.300000X-0.237500X-0.300000X0*%
%TD*%
%TA.AperFunction,SMDPad,CuDef*%
%ADD21RoundRect,0.237500X0.237500X-0.250000X0.237500X0.250000X-0.237500X0.250000X-0.237500X-0.250000X0*%
%TD*%
%TA.AperFunction,ViaPad*%
%ADD22C,0.600000*%
%TD*%
%TA.AperFunction,Conductor*%
%ADD23C,0.150000*%
%TD*%
G04 APERTURE END LIST*
D10*
%TO.P,J1,1,Pin_1_1*%
%TO.N,/BOOT0*%
X143275000Y-116775000D03*
D11*
%TO.P,J1,2,Pin_2_2*%
%TO.N,+3.3V*%
X145815000Y-116775000D03*
%TD*%
D12*
%TO.P,J7,1,VBUS_1*%
%TO.N,Net-(J7-VBUS)*%
X137680000Y-88832500D03*
D13*
%TO.P,J7,2,D-_2*%
%TO.N,/USB1_DM*%
X135180000Y-88832500D03*
%TO.P,J7,3,D+_3*%
%TO.N,/USB1_DP*%
X133180000Y-88832500D03*
%TO.P,J7,4,GND_4*%
%TO.N,GND*%
X130680000Y-88832500D03*
D14*
%TO.P,J7,SH,Shield_5*%
X140750000Y-86122500D03*
X127610000Y-86122500D03*
%TD*%
D10*
%TO.P,J8,1,Pin_1_1*%
%TO.N,/SWCLK*%
X124790000Y-119000000D03*
D11*
%TO.P,J8,2,Pin_2_2*%
%TO.N,/SWDIO*%
X122250000Y-119000000D03*
%TD*%
D15*
%TO.P,J4,1,Pin_1_1*%
%TO.N,/A15*%
X99230000Y-131020000D03*
%TO.P,J4,2,Pin_2_2*%
%TO.N,/A14*%
X99230000Y-136100000D03*
%TO.P,J4,3,Pin_3_3*%
%TO.N,/A13*%
X101770000Y-131020000D03*
%TO.P,J4,4,Pin_4_4*%
%TO.N,/A12*%
X101770000Y-136100000D03*
%TO.P,J4,5,Pin_5_5*%
%TO.N,/D7*%
X104310000Y-131020000D03*
%TO.P,J4,6,Pin_6_6*%
%TO.N,+5V*%
X104310000Y-136100000D03*
%TO.P,J4,7,Pin_7_7*%
%TO.N,/~{OE}*%
X106850000Y-131020000D03*
%TO.P,J4,8,Pin_8_8*%
%TO.N,unconnected-(J4-Pin_8-Pad8)*%
X106850000Y-136100000D03*
%TO.P,J4,9,Pin_9_9*%
%TO.N,unconnected-(J4-Pin_9-Pad9)*%
X109390000Y-131020000D03*
%TO.P,J4,10,Pin_10_10*%
%TO.N,unconnected-(J4-Pin_10-Pad10)*%
X109390000Y-136100000D03*
%TO.P,J4,11,Pin_11_11*%
%TO.N,/D0*%
X111930000Y-131020000D03*
%TO.P,J4,12,Pin_12_12*%
%TO.N,GND*%
X111930000Y-136100000D03*
%TO.P,J4,13,Pin_13_13*%
%TO.N,/D1*%
X114470000Y-131020000D03*
%TO.P,J4,14,Pin_14_14*%
%TO.N,GND*%
X114470000Y-136100000D03*
%TO.P,J4,15,Pin_15_15*%
%TO.N,/D2*%
X117010000Y-131020000D03*
%TO.P,J4,16,Pin_16_16*%
%TO.N,/~{CK}*%
X117010000Y-136100000D03*
%TO.P,J4,17,Pin_17_17*%
%TO.N,/D6*%
X119550000Y-131020000D03*
%TO.P,J4,18,Pin_18_18*%
%TO.N,/A0*%
X119550000Y-136100000D03*
%TO.P,J4,19,Pin_19_19*%
%TO.N,/D5*%
X122090000Y-131020000D03*
%TO.P,J4,20,Pin_20_20*%
%TO.N,/A1*%
X122090000Y-136100000D03*
%TO.P,J4,21,Pin_21_21*%
%TO.N,/D3*%
X124630000Y-131020000D03*
%TO.P,J4,22,Pin_22_22*%
%TO.N,/A2*%
X124630000Y-136100000D03*
%TO.P,J4,23,Pin_23_23*%
%TO.N,/D4*%
X127170000Y-131020000D03*
%TO.P,J4,24,Pin_24_24*%
%TO.N,/A3*%
X127170000Y-136100000D03*
%TO.P,J4,25,Pin_25_25*%
%TO.N,/~{INT}*%
X129710000Y-131020000D03*
%TO.P,J4,26,Pin_26_26*%
%TO.N,unconnected-(J4-Pin_26-Pad26)*%
X129710000Y-136100000D03*
%TO.P,J4,27,Pin_27_27*%
%TO.N,/~{NMI}*%
X132250000Y-131020000D03*
%TO.P,J4,28,Pin_28_28*%
%TO.N,GND*%
X132250000Y-136100000D03*
%TO.P,J4,29,Pin_29_29*%
%TO.N,/~{HALT}*%
X134790000Y-131020000D03*
%TO.P,J4,30,Pin_30_30*%
%TO.N,/~{OE2}*%
X134790000Y-136100000D03*
%TO.P,J4,31,Pin_31_31*%
%TO.N,/~{MREQ}*%
X137330000Y-131020000D03*
%TO.P,J4,32,Pin_32_32*%
%TO.N,unconnected-(J4-Pin_32-Pad32)*%
X137330000Y-136100000D03*
%TO.P,J4,33,Pin_33_33*%
%TO.N,/~{IORQ}*%
X139870000Y-131020000D03*
%TO.P,J4,34,Pin_34_34*%
%TO.N,unconnected-(J4-Pin_34-Pad34)*%
X139870000Y-136100000D03*
%TO.P,J4,35,Pin_35_35*%
%TO.N,/~{RD}*%
X142410000Y-131020000D03*
%TO.P,J4,36,Pin_36_36*%
%TO.N,unconnected-(J4-Pin_36-Pad36)*%
X142410000Y-136100000D03*
%TO.P,J4,37,Pin_37_37*%
%TO.N,/~{WR}*%
X144950000Y-131020000D03*
%TO.P,J4,38,Pin_38_38*%
%TO.N,/~{BUSRQ}*%
X144950000Y-136100000D03*
%TO.P,J4,39,Pin_39_39*%
%TO.N,unconnected-(J4-Pin_39-Pad39)*%
X147490000Y-131020000D03*
%TO.P,J4,40,Pin_40_40*%
%TO.N,/~{RESET}*%
X147490000Y-136100000D03*
%TO.P,J4,41,Pin_41_41*%
%TO.N,/~{WAIT}*%
X150030000Y-131020000D03*
%TO.P,J4,42,Pin_42_42*%
%TO.N,/A7*%
X150030000Y-136100000D03*
%TO.P,J4,43,Pin_43_43*%
%TO.N,unconnected-(J4-Pin_43-Pad43)*%
X152570000Y-131020000D03*
%TO.P,J4,44,Pin_44_44*%
%TO.N,/A6*%
X152570000Y-136100000D03*
%TO.P,J4,45,Pin_45_45*%
%TO.N,unconnected-(J4-Pin_45-Pad45)*%
X155110000Y-131020000D03*
%TO.P,J4,46,Pin_46_46*%
%TO.N,/A5*%
X155110000Y-136100000D03*
%TO.P,J4,47,Pin_47_47*%
%TO.N,/~{M1}*%
X157650000Y-131020000D03*
%TO.P,J4,48,Pin_48_48*%
%TO.N,/A4*%
X157650000Y-136100000D03*
%TO.P,J4,49,Pin_49_49*%
%TO.N,/~{RFSH}*%
X160190000Y-131020000D03*
%TO.P,J4,50,Pin_50_50*%
%TO.N,/~{ROMCS}*%
X160190000Y-136100000D03*
%TO.P,J4,51,Pin_51_51*%
%TO.N,/A8*%
X162730000Y-131020000D03*
%TO.P,J4,52,Pin_52_52*%
%TO.N,/~{BUSACK}*%
X162730000Y-136100000D03*
%TO.P,J4,53,Pin_53_53*%
%TO.N,/A10*%
X165270000Y-131020000D03*
%TO.P,J4,54,Pin_54_54*%
%TO.N,/A9*%
X165270000Y-136100000D03*
%TO.P,J4,55,Pin_55_55*%
%TO.N,unconnected-(J4-Pin_55-Pad55)*%
X167810000Y-131020000D03*
%TO.P,J4,56,Pin_56_56*%
%TO.N,/A11*%
X167810000Y-136100000D03*
%TD*%
D16*
%TO.P,SW1,1,A_1*%
%TO.N,+3.3V*%
X107200000Y-87025000D03*
X113700000Y-87025000D03*
%TO.P,SW1,2,B_2*%
%TO.N,/BTN1*%
X107200000Y-91525000D03*
X113700000Y-91525000D03*
%TD*%
D10*
%TO.P,J2,1,Pin_1_1*%
%TO.N,/USART_TX*%
X119250000Y-112200000D03*
D11*
%TO.P,J2,2,Pin_2_2*%
%TO.N,/USART_RX*%
X119250000Y-114740000D03*
%TD*%
D17*
%TO.P,R1,1*%
%TO.N,GND*%
X145512500Y-118710000D03*
%TO.P,R1,2*%
%TO.N,/BOOT0*%
X143687500Y-118710000D03*
%TD*%
D18*
%TO.P,C10,1*%
%TO.N,+3.3V*%
X125875000Y-102325000D03*
%TO.P,C10,2*%
%TO.N,GND*%
X127600000Y-102325000D03*
%TD*%
D19*
%TO.P,C8,1*%
%TO.N,+3.3V*%
X136800000Y-103060000D03*
%TO.P,C8,2*%
%TO.N,GND*%
X136800000Y-104785000D03*
%TD*%
D20*
%TO.P,C4,1*%
%TO.N,+3.3V*%
X126240000Y-112972500D03*
%TO.P,C4,2*%
%TO.N,GND*%
X126240000Y-111247500D03*
%TD*%
D21*
%TO.P,R4,1*%
%TO.N,+3.3V*%
X137660000Y-109372500D03*
%TO.P,R4,2*%
%TO.N,/NRST*%
X137660000Y-107547500D03*
%TD*%
D19*
%TO.P,C11,1*%
%TO.N,+3.3V*%
X136475000Y-111737500D03*
%TO.P,C11,2*%
%TO.N,GND*%
X136475000Y-113462500D03*
%TD*%
%TO.P,C9,1*%
%TO.N,/NRST*%
X136150000Y-107587500D03*
%TO.P,C9,2*%
%TO.N,GND*%
X136150000Y-109312500D03*
%TD*%
D22*
%TO.N,/A15*%
X102500000Y-129100000D03*
%TO.N,+3.3V*%
X125875000Y-102325000D03*
X138125000Y-109150000D03*
X139625000Y-117600000D03*
X126240000Y-112972500D03*
X137825000Y-98550000D03*
X118450000Y-88550000D03*
X138300000Y-111575000D03*
X136800000Y-103060000D03*
X101850000Y-112540000D03*
X123587500Y-115275000D03*
X136475000Y-111487500D03*
X138325000Y-103550000D03*
X101850000Y-118840000D03*
X98140000Y-107362500D03*
%TO.N,GND*%
X122850000Y-113580000D03*
X104500000Y-89850000D03*
X137900000Y-117600000D03*
X126250000Y-110825000D03*
X101720000Y-125192500D03*
X97500000Y-114162500D03*
X138300000Y-104575000D03*
X136475000Y-113212500D03*
X140900000Y-109520000D03*
X104410000Y-123682500D03*
X139850000Y-92500000D03*
X127600000Y-102325000D03*
X136800000Y-104785000D03*
X136150000Y-109312500D03*
X98130000Y-101755000D03*
X132290000Y-99080000D03*
X99520000Y-120640000D03*
X139662500Y-98550000D03*
X145512500Y-118710000D03*
X121862500Y-115275000D03*
%TO.N,/USB1_DM*%
X130290000Y-102830000D03*
%TO.N,/USB1_DP*%
X129710000Y-107540000D03*
%TO.N,/A2*%
X140640000Y-114170000D03*
X129062500Y-123787500D03*
%TO.N,/A3*%
X129650000Y-124425000D03*
X141520000Y-113640000D03*
%TO.N,/A5*%
X157000000Y-127440000D03*
X159480000Y-127440000D03*
%TO.N,/A6*%
X159820000Y-126710000D03*
X155850000Y-126710000D03*
%TO.N,/NRST*%
X138366148Y-107550000D03*
%TO.N,/BTN1*%
X131700000Y-94250000D03*
X132300000Y-97975000D03*
%TO.N,/A7*%
X156550000Y-124640000D03*
X161010000Y-124570000D03*
%TO.N,/A9*%
X163325000Y-123800000D03*
X164525000Y-124100000D03*
%TO.N,/A12*%
X106660000Y-126930000D03*
%TO.N,/A13*%
X107830000Y-124710000D03*
%TO.N,/A14*%
X107310000Y-125410000D03*
X104370000Y-127360000D03*
%TO.N,/A15*%
X107450000Y-126210000D03*
%TO.N,/~{MREQ}*%
X114090000Y-122960000D03*
%TO.N,/~{INT}*%
X129650000Y-128330000D03*
X119850000Y-125600000D03*
X114210000Y-122050000D03*
X124090000Y-124210000D03*
%TO.N,/~{CK}*%
X114750000Y-121250000D03*
X119230000Y-124940000D03*
%TO.N,/~{OE2}*%
X110610000Y-132510000D03*
%TO.N,/~{RESET}*%
X127130000Y-108380000D03*
X145975000Y-124250000D03*
%TO.N,/~{WAIT}*%
X146690000Y-122910000D03*
X127328600Y-109501400D03*
%TO.N,/~{IORQ}*%
X126285984Y-109484016D03*
X138950000Y-123800000D03*
%TO.N,/~{NMI}*%
X121220000Y-123690000D03*
X118725000Y-121825000D03*
X118690000Y-123850000D03*
X117560000Y-120810000D03*
X132290000Y-128650000D03*
X123190000Y-123690000D03*
%TO.N,/LEDFLASH*%
X121500000Y-88700000D03*
X121680000Y-110170000D03*
%TO.N,/D3*%
X124740000Y-124990000D03*
X124670000Y-128340000D03*
%TO.N,/D4*%
X127210000Y-128290000D03*
X125800000Y-124920000D03*
%TO.N,/D5*%
X122130000Y-128340000D03*
X122990000Y-125580000D03*
%TO.N,/D7*%
X115750000Y-121250000D03*
X131590000Y-121540000D03*
X106020000Y-127620000D03*
%TO.N,/~{ROMCS}*%
X132350000Y-125800000D03*
X161000000Y-129000000D03*
%TO.N,/~{WR}*%
X133840000Y-125150000D03*
X142210000Y-127700000D03*
%TO.N,/~{RD}*%
X140360000Y-127660000D03*
X134690000Y-126420000D03*
%TO.N,/~{BUSACK}*%
X163330000Y-125340000D03*
X135920000Y-124780000D03*
%TO.N,/~{BUSRQ}*%
X136210000Y-121200000D03*
X134540000Y-120840000D03*
%TO.N,/~{HALT}*%
X136040000Y-128900000D03*
%TO.N,/A0*%
X138820000Y-121170000D03*
X120930000Y-128330000D03*
%TO.N,/A1*%
X129975000Y-122475000D03*
X138730000Y-120280000D03*
%TD*%
%TO.N,/USB1_DP*%
D23*
X129710000Y-107540000D02*
X129710000Y-102015000D01*
X129710000Y-102015000D02*
X130750000Y-100975000D01*
X130750000Y-100975000D02*
X130750000Y-93575000D01*
X130750000Y-93575000D02*
X133150000Y-91175000D01*
X133150000Y-91175000D02*
X133150000Y-88862500D01*
X133150000Y-88862500D02*
X133180000Y-88832500D01*
%TO.N,/USB1_DM*%
X130290000Y-102830000D02*
X130290000Y-101826738D01*
X130290000Y-101826738D02*
X131027000Y-101089738D01*
X131027000Y-101089738D02*
X131027000Y-93773000D01*
X131027000Y-93773000D02*
X135180000Y-89620000D01*
X135180000Y-89620000D02*
X135180000Y-88832500D01*
%TO.N,/~{OE2}*%
X134790000Y-133535000D02*
X133805000Y-132550000D01*
X133805000Y-132550000D02*
X110650000Y-132550000D01*
X110650000Y-132550000D02*
X110610000Y-132510000D01*
%TO.N,/A13*%
X101770000Y-131020000D02*
X101770000Y-128930000D01*
X101770000Y-128930000D02*
X105990000Y-124710000D01*
X105990000Y-124710000D02*
X107830000Y-124710000D01*
%TO.N,/A15*%
X103450000Y-129100000D02*
X106340000Y-126210000D01*
X103450000Y-129100000D02*
X102500000Y-129100000D01*
X106340000Y-126210000D02*
X107450000Y-126210000D01*
%TO.N,+3.3V*%
X138212500Y-111487500D02*
X138000000Y-111487500D01*
X137750000Y-111737500D02*
X136475000Y-111737500D01*
X138300000Y-111575000D02*
X138212500Y-111487500D01*
X138325000Y-103550000D02*
X138050000Y-103550000D01*
X137560000Y-103060000D02*
X136800000Y-103060000D01*
X138050000Y-103550000D02*
X137560000Y-103060000D01*
X137902500Y-109372500D02*
X138125000Y-109150000D01*
X138000000Y-111487500D02*
X137750000Y-111737500D01*
%TO.N,GND*%
X138300000Y-104575000D02*
X138090000Y-104785000D01*
X138090000Y-104785000D02*
X136800000Y-104785000D01*
%TO.N,/BOOT0*%
X143687500Y-118250000D02*
X143687500Y-117187500D01*
%TO.N,/A2*%
X130009000Y-123784000D02*
X137286000Y-123784000D01*
X140990000Y-120080000D02*
X140990000Y-114520000D01*
X137286000Y-123784000D02*
X140990000Y-120080000D01*
X140990000Y-114520000D02*
X140640000Y-114170000D01*
X130005500Y-123787500D02*
X130009000Y-123784000D01*
X129062500Y-123787500D02*
X130005500Y-123787500D01*
%TO.N,/A3*%
X137239152Y-124224000D02*
X141545422Y-119917730D01*
X141545422Y-113665422D02*
X141520000Y-113640000D01*
X141545422Y-119917730D02*
X141545422Y-113665422D01*
X129650000Y-124425000D02*
X129851000Y-124224000D01*
X129851000Y-124224000D02*
X137239152Y-124224000D01*
%TO.N,/A5*%
X157000000Y-127440000D02*
X159480000Y-127440000D01*
%TO.N,/A6*%
X155850000Y-126710000D02*
X159820000Y-126710000D01*
%TO.N,/NRST*%
X137412500Y-107587500D02*
X136150000Y-107587500D01*
X138366148Y-107550000D02*
X137662500Y-107550000D01*
%TO.N,/BTN1*%
X131600000Y-97275000D02*
X132300000Y-97975000D01*
X113700000Y-91525000D02*
X107200000Y-91525000D01*
X131600000Y-94350000D02*
X131600000Y-97275000D01*
X131700000Y-94250000D02*
X131600000Y-94350000D01*
%TO.N,/A7*%
X160940000Y-124640000D02*
X156550000Y-124640000D01*
X161010000Y-124570000D02*
X160940000Y-124640000D01*
%TO.N,/A9*%
X164525000Y-124100000D02*
X164190000Y-123765000D01*
X164190000Y-123765000D02*
X163360000Y-123765000D01*
X163360000Y-123765000D02*
X163325000Y-123800000D01*
%TO.N,/A12*%
X105400000Y-130270000D02*
X105400000Y-131612760D01*
X106660000Y-126930000D02*
X106660000Y-129010000D01*
X105400000Y-131612760D02*
X103600000Y-133412760D01*
X103600000Y-133412760D02*
X103600000Y-134050000D01*
X106660000Y-129010000D02*
X105400000Y-130270000D01*
X103600000Y-134050000D02*
X101820000Y-135830000D01*
%TO.N,/A14*%
X106320000Y-125410000D02*
X107310000Y-125410000D01*
X104370000Y-127360000D02*
X106320000Y-125410000D01*
%TO.N,/~{MREQ}*%
X133387500Y-131162500D02*
X133387500Y-130237500D01*
X132912500Y-129762500D02*
X133387500Y-130237500D01*
X120335000Y-129205000D02*
X131025000Y-129205000D01*
X133387500Y-131162500D02*
X134600000Y-132375000D01*
X134600000Y-132375000D02*
X135975000Y-132375000D01*
X131582500Y-129762500D02*
X132912500Y-129762500D01*
X135975000Y-132375000D02*
X137330000Y-131020000D01*
X131025000Y-129205000D02*
X131582500Y-129762500D01*
X114090000Y-122960000D02*
X120335000Y-129205000D01*
%TO.N,/~{INT}*%
X129750000Y-127725000D02*
X126235000Y-124210000D01*
X129650000Y-128330000D02*
X129750000Y-128230000D01*
X119420000Y-125600000D02*
X119414000Y-125606000D01*
X119850000Y-125600000D02*
X119420000Y-125600000D01*
X119414000Y-125606000D02*
X117926000Y-125606000D01*
X114370000Y-122050000D02*
X114210000Y-122050000D01*
X126235000Y-124210000D02*
X124090000Y-124210000D01*
X129750000Y-128230000D02*
X129750000Y-127725000D01*
X117926000Y-125606000D02*
X114370000Y-122050000D01*
%TO.N,/~{CK}*%
X118440000Y-124940000D02*
X119230000Y-124940000D01*
X114750000Y-121250000D02*
X118440000Y-124940000D01*
%TO.N,/~{OE2}*%
X134790000Y-133615000D02*
X134790000Y-136100000D01*
%TO.N,/~{RESET}*%
X148054000Y-113890526D02*
X144345976Y-110182500D01*
X144345976Y-110182500D02*
X128932500Y-110182500D01*
X128932500Y-110182500D02*
X127130000Y-108380000D01*
X146950000Y-123525000D02*
X147375000Y-123100000D01*
X146700000Y-123525000D02*
X146950000Y-123525000D01*
X145975000Y-124250000D02*
X146700000Y-123525000D01*
X147375000Y-123100000D02*
X147375000Y-122008476D01*
X148054000Y-121329476D02*
X148054000Y-113890526D01*
X147375000Y-122008476D02*
X148054000Y-121329476D01*
%TO.N,/~{WAIT}*%
X146750000Y-122560000D02*
X146690000Y-122620000D01*
X128286700Y-110459500D02*
X144231238Y-110459500D01*
X146750000Y-122241738D02*
X146750000Y-122560000D01*
X146690000Y-122620000D02*
X146690000Y-122910000D01*
X127328600Y-109501400D02*
X128286700Y-110459500D01*
X147777000Y-114005263D02*
X147777000Y-121214738D01*
X144231238Y-110459500D02*
X147777000Y-114005263D01*
X147777000Y-121214738D02*
X146750000Y-122241738D01*
%TO.N,/~{IORQ}*%
X139270000Y-123800000D02*
X139445000Y-123625000D01*
X138950000Y-123800000D02*
X139270000Y-123800000D01*
X127736500Y-110736500D02*
X126484016Y-109484016D01*
X126484016Y-109484016D02*
X126285984Y-109484016D01*
X144975000Y-123625000D02*
X147500000Y-121100000D01*
X147500000Y-114120000D02*
X144116500Y-110736500D01*
X139445000Y-123625000D02*
X144975000Y-123625000D01*
X144116500Y-110736500D02*
X127736500Y-110736500D01*
X147500000Y-121100000D02*
X147500000Y-114120000D01*
%TO.N,/~{NMI}*%
X127400000Y-123650000D02*
X123230000Y-123650000D01*
X117635000Y-120810000D02*
X117560000Y-120810000D01*
X118700000Y-123840000D02*
X121070000Y-123840000D01*
X132290000Y-128650000D02*
X132290000Y-128540000D01*
X123230000Y-123650000D02*
X123190000Y-123690000D01*
X121070000Y-123840000D02*
X121220000Y-123690000D01*
X118650000Y-121825000D02*
X117635000Y-120810000D01*
X118725000Y-121825000D02*
X118650000Y-121825000D01*
X118690000Y-123850000D02*
X118700000Y-123840000D01*
X132290000Y-128540000D02*
X127400000Y-123650000D01*
%TO.N,/LEDFLASH*%
X121680000Y-91230000D02*
X121500000Y-91050000D01*
X121680000Y-110170000D02*
X121680000Y-91230000D01*
X121500000Y-91050000D02*
X121500000Y-88700000D01*
%TO.N,/D3*%
X124670000Y-128340000D02*
X124670000Y-125060000D01*
X124670000Y-125060000D02*
X124740000Y-124990000D01*
%TO.N,/D4*%
X127210000Y-128290000D02*
X127210000Y-126330000D01*
X127210000Y-126330000D02*
X125800000Y-124920000D01*
%TO.N,/D5*%
X122130000Y-126440000D02*
X122130000Y-128340000D01*
X122990000Y-125580000D02*
X122130000Y-126440000D01*
%TO.N,/D7*%
X118350000Y-122400000D02*
X121322000Y-122400000D01*
X104350000Y-131035000D02*
X104350000Y-129290000D01*
X104350000Y-129290000D02*
X106020000Y-127620000D01*
X131340000Y-121790000D02*
X131590000Y-121540000D01*
X117200000Y-121250000D02*
X118350000Y-122400000D01*
X121932000Y-121790000D02*
X131340000Y-121790000D01*
X115750000Y-121250000D02*
X117200000Y-121250000D01*
X121322000Y-122400000D02*
X121932000Y-121790000D01*
%TO.N,/~{ROMCS}*%
X132520000Y-125800000D02*
X134990000Y-128270000D01*
X160255000Y-128255000D02*
X161000000Y-129000000D01*
X134990000Y-128270000D02*
X142326000Y-128270000D01*
X132350000Y-125800000D02*
X132520000Y-125800000D01*
X142326000Y-128270000D02*
X142341000Y-128255000D01*
X142341000Y-128255000D02*
X160255000Y-128255000D01*
%TO.N,/~{WR}*%
X133840000Y-125370000D02*
X134260000Y-125790000D01*
X141250000Y-126740000D02*
X142210000Y-127700000D01*
X139434000Y-125790000D02*
X140384000Y-126740000D01*
X134260000Y-125790000D02*
X139434000Y-125790000D01*
X133840000Y-125150000D02*
X133840000Y-125370000D01*
X140384000Y-126740000D02*
X141250000Y-126740000D01*
%TO.N,/~{RD}*%
X139200000Y-126400000D02*
X134710000Y-126400000D01*
X134710000Y-126400000D02*
X134690000Y-126420000D01*
X140360000Y-127560000D02*
X139200000Y-126400000D01*
X140360000Y-127660000D02*
X140360000Y-127560000D01*
%TO.N,/~{BUSACK}*%
X163330000Y-125340000D02*
X163210000Y-125220000D01*
X163210000Y-125220000D02*
X136360000Y-125220000D01*
X136360000Y-125220000D02*
X135920000Y-124780000D01*
%TO.N,/~{BUSRQ}*%
X134625000Y-120925000D02*
X135935000Y-120925000D01*
X135935000Y-120925000D02*
X136210000Y-121200000D01*
X134540000Y-120840000D02*
X134625000Y-120925000D01*
%TO.N,/~{HALT}*%
X136020000Y-128900000D02*
X136040000Y-128900000D01*
X134830000Y-131035000D02*
X134830000Y-130090000D01*
X134830000Y-130090000D02*
X136020000Y-128900000D01*
%TO.N,/A0*%
X136902000Y-123088000D02*
X138820000Y-121170000D01*
X120930000Y-128330000D02*
X120930000Y-124780000D01*
X122622000Y-123088000D02*
X136902000Y-123088000D01*
X120930000Y-124780000D02*
X122622000Y-123088000D01*
%TO.N,/A1*%
X130060000Y-122390000D02*
X136620000Y-122390000D01*
X129975000Y-122475000D02*
X130060000Y-122390000D01*
X136620000Y-122390000D02*
X138730000Y-120280000D01*
%TD*%
M02*
