%TF.GenerationSoftware,KiCad,Pcbnew,9.0.7*%
%TF.CreationDate,2026-03-29T07:00:42+01:00*%
%TF.ProjectId,RISKYZXSpectrum,5249534b-595a-4585-9370-65637472756d,rev?*%
%TF.SameCoordinates,Original*%
%TF.FileFunction,Copper,L4,Bot*%
%TF.FilePolarity,Positive*%
%FSLAX46Y46*%
G04 Gerber Fmt 4.6, Leading zero omitted, Abs format (unit mm)*
G04 Created by KiCad (PCBNEW 9.0.7) date 2026-03-29 07:00:42*
%MOMM*%
%LPD*%
G01*
G04 APERTURE LIST*
G04 Aperture macros list*
%AMRoundRect*
0 Rectangle with rounded corners*
0 $1 Rounding radius*
0 $2 $3 $4 $5 $6 $7 $8 $9 X,Y pos of 4 corners*
0 Add a 4 corners polygon primitive as box body*
4,1,4,$2,$3,$4,$5,$6,$7,$8,$9,$2,$3,0*
0 Add four circle primitives for the rounded corners*
1,1,$1+$1,$2,$3*
1,1,$1+$1,$4,$5*
1,1,$1+$1,$6,$7*
1,1,$1+$1,$8,$9*
0 Add four rect primitives between the rounded corners*
20,1,$1+$1,$2,$3,$4,$5,0*
20,1,$1+$1,$4,$5,$6,$7,0*
20,1,$1+$1,$6,$7,$8,$9,0*
20,1,$1+$1,$8,$9,$2,$3,0*%
G04 Aperture macros list end*
%TA.AperFunction,SMDPad,CuDef*%
%ADD10RoundRect,0.237500X0.250000X0.237500X-0.250000X0.237500X-0.250000X-0.237500X0.250000X-0.237500X0*%
%TD*%
%TA.AperFunction,SMDPad,CuDef*%
%ADD11RoundRect,0.237500X-0.237500X0.250000X-0.237500X-0.250000X0.237500X-0.250000X0.237500X0.250000X0*%
%TD*%
%TA.AperFunction,ComponentPad*%
%ADD12R,1.700000X1.700000*%
%TD*%
%TA.AperFunction,ComponentPad*%
%ADD13C,1.700000*%
%TD*%
%TA.AperFunction,ComponentPad*%
%ADD14C,2.000000*%
%TD*%
%TA.AperFunction,ComponentPad*%
%ADD15RoundRect,0.250000X0.512000X0.512000X-0.512000X0.512000X-0.512000X-0.512000X0.512000X-0.512000X0*%
%TD*%
%TA.AperFunction,ComponentPad*%
%ADD16C,1.524000*%
%TD*%
%TA.AperFunction,ComponentPad*%
%ADD17C,3.500000*%
%TD*%
%TA.AperFunction,SMDPad,CuDef*%
%ADD18RoundRect,0.237500X-0.250000X-0.237500X0.250000X-0.237500X0.250000X0.237500X-0.250000X0.237500X0*%
%TD*%
%TA.AperFunction,SMDPad,CuDef*%
%ADD19RoundRect,0.237500X0.237500X-0.300000X0.237500X0.300000X-0.237500X0.300000X-0.237500X-0.300000X0*%
%TD*%
%TA.AperFunction,SMDPad,CuDef*%
%ADD20RoundRect,0.237500X-0.300000X-0.237500X0.300000X-0.237500X0.300000X0.237500X-0.300000X0.237500X0*%
%TD*%
%TA.AperFunction,SMDPad,CuDef*%
%ADD21RoundRect,0.237500X0.300000X0.237500X-0.300000X0.237500X-0.300000X-0.237500X0.300000X-0.237500X0*%
%TD*%
%TA.AperFunction,ViaPad*%
%ADD22C,0.600000*%
%TD*%
%TA.AperFunction,Conductor*%
%ADD23C,0.150000*%
%TD*%
G04 APERTURE END LIST*
D10*
%TO.P,R4,2*%
%TO.N,/NRST*%
X137660000Y-107547500D03*
%TO.P,R4,1*%
%TO.N,+3.3V*%
X137660000Y-109372500D03*
%TD*%
D11*
%TO.P,R1,1*%
%TO.N,GND*%
X145512500Y-118710000D03*
%TO.P,R1,2*%
%TO.N,/BOOT0*%
X143687500Y-118710000D03*
%TD*%
D12*
%TO.P,J1,1,Pin_1*%
%TO.N,/BOOT0*%
X143275000Y-116775000D03*
D13*
%TO.P,J1,2,Pin_2*%
%TO.N,+3.3V*%
X145815000Y-116775000D03*
%TD*%
D14*
%TO.P,SW1,1,A*%
%TO.N,+3.3V*%
X155475000Y-63425000D03*
X161975000Y-63425000D03*
%TO.P,SW1,2,B*%
%TO.N,/BTN1*%
X155475000Y-67925000D03*
X161975000Y-67925000D03*
%TD*%
D15*
%TO.P,J7,1,VBUS*%
%TO.N,Net-(J7-VBUS)*%
X137775000Y-70882500D03*
D16*
%TO.P,J7,2,D-*%
%TO.N,/USB1_DM*%
X135275000Y-70882500D03*
%TO.P,J7,3,D+*%
%TO.N,/USB1_DP*%
X133275000Y-70882500D03*
%TO.P,J7,4,GND*%
%TO.N,GND*%
X130775000Y-70882500D03*
D17*
%TO.P,J7,5,Shield*%
X140845000Y-68172500D03*
X127705000Y-68172500D03*
%TD*%
D12*
%TO.P,J8,1,Pin_1*%
%TO.N,/SWCLK*%
X124790000Y-119000000D03*
D13*
%TO.P,J8,2,Pin_2*%
%TO.N,/SWDIO*%
X122250000Y-119000000D03*
%TD*%
D12*
%TO.P,J4,1,Pin_1*%
%TO.N,/A15*%
X99270000Y-131035000D03*
D13*
%TO.P,J4,2,Pin_2*%
%TO.N,/A14*%
X99270000Y-133575000D03*
%TO.P,J4,3,Pin_3*%
%TO.N,/A13*%
X101810000Y-131035000D03*
%TO.P,J4,4,Pin_4*%
%TO.N,/A12*%
X101810000Y-133575000D03*
%TO.P,J4,5,Pin_5*%
%TO.N,/D7*%
X104350000Y-131035000D03*
%TO.P,J4,6,Pin_6*%
%TO.N,+5V*%
X104350000Y-133575000D03*
%TO.P,J4,7,Pin_7*%
%TO.N,/~{OE}*%
X106890000Y-131035000D03*
%TO.P,J4,8,Pin_8*%
%TO.N,unconnected-(J4-Pin_8-Pad8)*%
X106890000Y-133575000D03*
%TO.P,J4,9,Pin_9*%
%TO.N,unconnected-(J4-Pin_9-Pad9)*%
X109430000Y-131035000D03*
%TO.P,J4,10,Pin_10*%
%TO.N,unconnected-(J4-Pin_10-Pad10)*%
X109430000Y-133575000D03*
%TO.P,J4,11,Pin_11*%
%TO.N,/D0*%
X111970000Y-131035000D03*
%TO.P,J4,12,Pin_12*%
%TO.N,GND*%
X111970000Y-133575000D03*
%TO.P,J4,13,Pin_13*%
%TO.N,/D1*%
X114510000Y-131035000D03*
%TO.P,J4,14,Pin_14*%
%TO.N,GND*%
X114510000Y-133575000D03*
%TO.P,J4,15,Pin_15*%
%TO.N,/D2*%
X117050000Y-131035000D03*
%TO.P,J4,16,Pin_16*%
%TO.N,/~{CK}*%
X117050000Y-133575000D03*
%TO.P,J4,17,Pin_17*%
%TO.N,/D6*%
X119590000Y-131035000D03*
%TO.P,J4,18,Pin_18*%
%TO.N,/A0*%
X119590000Y-133575000D03*
%TO.P,J4,19,Pin_19*%
%TO.N,/D5*%
X122130000Y-131035000D03*
%TO.P,J4,20,Pin_20*%
%TO.N,/A1*%
X122130000Y-133575000D03*
%TO.P,J4,21,Pin_21*%
%TO.N,/D3*%
X124670000Y-131035000D03*
%TO.P,J4,22,Pin_22*%
%TO.N,/A2*%
X124670000Y-133575000D03*
%TO.P,J4,23,Pin_23*%
%TO.N,/D4*%
X127210000Y-131035000D03*
%TO.P,J4,24,Pin_24*%
%TO.N,/A3*%
X127210000Y-133575000D03*
%TO.P,J4,25,Pin_25*%
%TO.N,/~{INT}*%
X129750000Y-131035000D03*
%TO.P,J4,26,Pin_26*%
%TO.N,unconnected-(J4-Pin_26-Pad26)*%
X129750000Y-133575000D03*
%TO.P,J4,27,Pin_27*%
%TO.N,/~{NMI}*%
X132290000Y-131035000D03*
%TO.P,J4,28,Pin_28*%
%TO.N,GND*%
X132290000Y-133575000D03*
%TO.P,J4,29,Pin_29*%
%TO.N,/~{HALT}*%
X134830000Y-131035000D03*
%TO.P,J4,30,Pin_30*%
%TO.N,/~{OE2}*%
X134830000Y-133575000D03*
%TO.P,J4,31,Pin_31*%
%TO.N,/~{MREQ}*%
X137370000Y-131035000D03*
%TO.P,J4,32,Pin_32*%
%TO.N,unconnected-(J4-Pin_32-Pad32)*%
X137370000Y-133575000D03*
%TO.P,J4,33,Pin_33*%
%TO.N,/~{IORQ}*%
X139910000Y-131035000D03*
%TO.P,J4,34,Pin_34*%
%TO.N,unconnected-(J4-Pin_34-Pad34)*%
X139910000Y-133575000D03*
%TO.P,J4,35,Pin_35*%
%TO.N,/~{RD}*%
X142450000Y-131035000D03*
%TO.P,J4,36,Pin_36*%
%TO.N,unconnected-(J4-Pin_36-Pad36)*%
X142450000Y-133575000D03*
%TO.P,J4,37,Pin_37*%
%TO.N,/~{WR}*%
X144990000Y-131035000D03*
%TO.P,J4,38,Pin_38*%
%TO.N,/~{BUSRQ}*%
X144990000Y-133575000D03*
%TO.P,J4,39,Pin_39*%
%TO.N,unconnected-(J4-Pin_39-Pad39)*%
X147530000Y-131035000D03*
%TO.P,J4,40,Pin_40*%
%TO.N,/~{RESET}*%
X147530000Y-133575000D03*
%TO.P,J4,41,Pin_41*%
%TO.N,/~{WAIT}*%
X150070000Y-131035000D03*
%TO.P,J4,42,Pin_42*%
%TO.N,/A7*%
X150070000Y-133575000D03*
%TO.P,J4,43,Pin_43*%
%TO.N,unconnected-(J4-Pin_43-Pad43)*%
X152610000Y-131035000D03*
%TO.P,J4,44,Pin_44*%
%TO.N,/A6*%
X152610000Y-133575000D03*
%TO.P,J4,45,Pin_45*%
%TO.N,unconnected-(J4-Pin_45-Pad45)*%
X155150000Y-131035000D03*
%TO.P,J4,46,Pin_46*%
%TO.N,/A5*%
X155150000Y-133575000D03*
%TO.P,J4,47,Pin_47*%
%TO.N,/~{M1}*%
X157690000Y-131035000D03*
%TO.P,J4,48,Pin_48*%
%TO.N,/A4*%
X157690000Y-133575000D03*
%TO.P,J4,49,Pin_49*%
%TO.N,/~{RFSH}*%
X160230000Y-131035000D03*
%TO.P,J4,50,Pin_50*%
%TO.N,/~{ROMCS}*%
X160230000Y-133575000D03*
%TO.P,J4,51,Pin_51*%
%TO.N,/A8*%
X162770000Y-131035000D03*
%TO.P,J4,52,Pin_52*%
%TO.N,/~{BUSACK}*%
X162770000Y-133575000D03*
%TO.P,J4,53,Pin_53*%
%TO.N,/A10*%
X165310000Y-131035000D03*
%TO.P,J4,54,Pin_54*%
%TO.N,/A9*%
X165310000Y-133575000D03*
%TO.P,J4,55,Pin_55*%
%TO.N,unconnected-(J4-Pin_55-Pad55)*%
X167850000Y-131035000D03*
%TO.P,J4,56,Pin_56*%
%TO.N,/A11*%
X167850000Y-133575000D03*
%TD*%
D14*
%TO.P,SW2,1,A*%
%TO.N,+3.3V*%
X113550000Y-62475000D03*
X120050000Y-62475000D03*
%TO.P,SW2,2,B*%
%TO.N,/BTN2*%
X113550000Y-66975000D03*
X120050000Y-66975000D03*
%TD*%
D18*
%TO.P,R2,1*%
%TO.N,/BTN1*%
X155525000Y-70337500D03*
%TO.P,R2,2*%
%TO.N,GND*%
X155525000Y-72162500D03*
%TD*%
D12*
%TO.P,J3,1,Pin_1*%
%TO.N,/A15*%
X99425000Y-138635000D03*
D13*
%TO.P,J3,2,Pin_2*%
%TO.N,/A14*%
X99425000Y-141175000D03*
%TO.P,J3,3,Pin_3*%
%TO.N,/A13*%
X101965000Y-138635000D03*
%TO.P,J3,4,Pin_4*%
%TO.N,/A12*%
X101965000Y-141175000D03*
%TO.P,J3,5,Pin_5*%
%TO.N,/D7*%
X104505000Y-138635000D03*
%TO.P,J3,6,Pin_6*%
%TO.N,+5V*%
X104505000Y-141175000D03*
%TO.P,J3,7,Pin_7*%
%TO.N,/~{OE}*%
X107045000Y-138635000D03*
%TO.P,J3,8,Pin_8*%
%TO.N,unconnected-(J3-Pin_8-Pad8)*%
X107045000Y-141175000D03*
%TO.P,J3,9,Pin_9*%
%TO.N,unconnected-(J3-Pin_9-Pad9)*%
X109585000Y-138635000D03*
%TO.P,J3,10,Pin_10*%
%TO.N,unconnected-(J3-Pin_10-Pad10)*%
X109585000Y-141175000D03*
%TO.P,J3,11,Pin_11*%
%TO.N,/D0*%
X112125000Y-138635000D03*
%TO.P,J3,12,Pin_12*%
%TO.N,GND*%
X112125000Y-141175000D03*
%TO.P,J3,13,Pin_13*%
%TO.N,/D1*%
X114665000Y-138635000D03*
%TO.P,J3,14,Pin_14*%
%TO.N,GND*%
X114665000Y-141175000D03*
%TO.P,J3,15,Pin_15*%
%TO.N,/D2*%
X117205000Y-138635000D03*
%TO.P,J3,16,Pin_16*%
%TO.N,/~{CK}*%
X117205000Y-141175000D03*
%TO.P,J3,17,Pin_17*%
%TO.N,/D6*%
X119745000Y-138635000D03*
%TO.P,J3,18,Pin_18*%
%TO.N,/A0*%
X119745000Y-141175000D03*
%TO.P,J3,19,Pin_19*%
%TO.N,/D5*%
X122285000Y-138635000D03*
%TO.P,J3,20,Pin_20*%
%TO.N,/A1*%
X122285000Y-141175000D03*
%TO.P,J3,21,Pin_21*%
%TO.N,/D3*%
X124825000Y-138635000D03*
%TO.P,J3,22,Pin_22*%
%TO.N,/A2*%
X124825000Y-141175000D03*
%TO.P,J3,23,Pin_23*%
%TO.N,/D4*%
X127365000Y-138635000D03*
%TO.P,J3,24,Pin_24*%
%TO.N,/A3*%
X127365000Y-141175000D03*
%TO.P,J3,25,Pin_25*%
%TO.N,/~{INT}*%
X129905000Y-138635000D03*
%TO.P,J3,26,Pin_26*%
%TO.N,unconnected-(J3-Pin_26-Pad26)*%
X129905000Y-141175000D03*
%TO.P,J3,27,Pin_27*%
%TO.N,/~{NMI}*%
X132445000Y-138635000D03*
%TO.P,J3,28,Pin_28*%
%TO.N,GND*%
X132445000Y-141175000D03*
%TO.P,J3,29,Pin_29*%
%TO.N,/~{HALT}*%
X134985000Y-138635000D03*
%TO.P,J3,30,Pin_30*%
%TO.N,/~{OE2}*%
X134985000Y-141175000D03*
%TO.P,J3,31,Pin_31*%
%TO.N,/~{MREQ}*%
X137525000Y-138635000D03*
%TO.P,J3,32,Pin_32*%
%TO.N,unconnected-(J3-Pin_32-Pad32)*%
X137525000Y-141175000D03*
%TO.P,J3,33,Pin_33*%
%TO.N,/~{IORQ}*%
X140065000Y-138635000D03*
%TO.P,J3,34,Pin_34*%
%TO.N,unconnected-(J3-Pin_34-Pad34)*%
X140065000Y-141175000D03*
%TO.P,J3,35,Pin_35*%
%TO.N,/~{RD}*%
X142605000Y-138635000D03*
%TO.P,J3,36,Pin_36*%
%TO.N,unconnected-(J3-Pin_36-Pad36)*%
X142605000Y-141175000D03*
%TO.P,J3,37,Pin_37*%
%TO.N,/~{WR}*%
X145145000Y-138635000D03*
%TO.P,J3,38,Pin_38*%
%TO.N,/~{BUSRQ}*%
X145145000Y-141175000D03*
%TO.P,J3,39,Pin_39*%
%TO.N,unconnected-(J3-Pin_39-Pad39)*%
X147685000Y-138635000D03*
%TO.P,J3,40,Pin_40*%
%TO.N,/~{RESET}*%
X147685000Y-141175000D03*
%TO.P,J3,41,Pin_41*%
%TO.N,/~{WAIT}*%
X150225000Y-138635000D03*
%TO.P,J3,42,Pin_42*%
%TO.N,/A7*%
X150225000Y-141175000D03*
%TO.P,J3,43,Pin_43*%
%TO.N,unconnected-(J3-Pin_43-Pad43)*%
X152765000Y-138635000D03*
%TO.P,J3,44,Pin_44*%
%TO.N,/A6*%
X152765000Y-141175000D03*
%TO.P,J3,45,Pin_45*%
%TO.N,unconnected-(J3-Pin_45-Pad45)*%
X155305000Y-138635000D03*
%TO.P,J3,46,Pin_46*%
%TO.N,/A5*%
X155305000Y-141175000D03*
%TO.P,J3,47,Pin_47*%
%TO.N,/~{M1}*%
X157845000Y-138635000D03*
%TO.P,J3,48,Pin_48*%
%TO.N,/A4*%
X157845000Y-141175000D03*
%TO.P,J3,49,Pin_49*%
%TO.N,/~{RFSH}*%
X160385000Y-138635000D03*
%TO.P,J3,50,Pin_50*%
%TO.N,/~{ROMCS}*%
X160385000Y-141175000D03*
%TO.P,J3,51,Pin_51*%
%TO.N,/A8*%
X162925000Y-138635000D03*
%TO.P,J3,52,Pin_52*%
%TO.N,/~{BUSACK}*%
X162925000Y-141175000D03*
%TO.P,J3,53,Pin_53*%
%TO.N,/A10*%
X165465000Y-138635000D03*
%TO.P,J3,54,Pin_54*%
%TO.N,/A9*%
X165465000Y-141175000D03*
%TO.P,J3,55,Pin_55*%
%TO.N,unconnected-(J3-Pin_55-Pad55)*%
X168005000Y-138635000D03*
%TO.P,J3,56,Pin_56*%
%TO.N,/A11*%
X168005000Y-141175000D03*
%TD*%
D12*
%TO.P,J2,1,Pin_1*%
%TO.N,/USART_TX*%
X119250000Y-112200000D03*
D13*
%TO.P,J2,2,Pin_2*%
%TO.N,/USART_RX*%
X119250000Y-114740000D03*
%TD*%
D19*
%TO.P,C10,1*%
%TO.N,+3.3V*%
X125875000Y-102325000D03*
%TO.P,C10,2*%
%TO.N,GND*%
X127600000Y-102325000D03*
%TD*%
D20*
%TO.P,C8,1*%
%TO.N,+3.3V*%
X136800000Y-103060000D03*
%TO.P,C8,2*%
%TO.N,GND*%
X136800000Y-104785000D03*
%TD*%
D21*
%TO.P,C4,1*%
%TO.N,+3.3V*%
X126240000Y-112972500D03*
%TO.P,C4,2*%
%TO.N,GND*%
X126240000Y-111247500D03*
%TD*%
D20*
%TO.P,C11,1*%
%TO.N,+3.3V*%
X136475000Y-111487500D03*
%TO.P,C11,2*%
%TO.N,GND*%
X136475000Y-113212500D03*
%TD*%
%TO.P,C9,1*%
%TO.N,/NRST*%
X136150000Y-107587500D03*
%TO.P,C9,2*%
%TO.N,GND*%
X136150000Y-109312500D03*
%TD*%
D22*
%TO.N,+3.3V*%
X101175000Y-72400000D03*
%TO.N,GND*%
X136475000Y-113212500D03*
X140900000Y-109520000D03*
X122850000Y-113580000D03*
X98350000Y-119030000D03*
%TO.N,+3.3V*%
X101850000Y-118840000D03*
%TO.N,GND*%
X97500000Y-114162500D03*
%TO.N,/USB1_DP*%
X129710000Y-107540000D03*
X129700000Y-77340000D03*
%TO.N,/USB1_DM*%
X130770000Y-77830000D03*
X130290000Y-102830000D03*
%TO.N,/BTN2*%
X136325000Y-97275000D03*
%TO.N,/BTN1*%
X140750000Y-97290000D03*
%TO.N,/LEDFLASH*%
X121680000Y-110170000D03*
X101200000Y-78875000D03*
%TO.N,GND*%
X114580000Y-134950000D03*
X111870000Y-134950000D03*
X133300000Y-142070000D03*
X132320000Y-135070000D03*
%TO.N,/~{MREQ}*%
X133290000Y-129080000D03*
X111350000Y-122890000D03*
%TO.N,/~{HALT}*%
X136040000Y-128900000D03*
%TO.N,/~{BUSRQ}*%
X136210000Y-121200000D03*
X134540000Y-120840000D03*
%TO.N,/~{IORQ}*%
X138460000Y-124610000D03*
%TO.N,/~{RESET}*%
X148990000Y-126140000D03*
X147750000Y-124160000D03*
X147990000Y-127440000D03*
%TO.N,/~{WAIT}*%
X146690000Y-122910000D03*
%TO.N,/A3*%
X141520000Y-113640000D03*
X131070000Y-124680000D03*
%TO.N,/A2*%
X140640000Y-114170000D03*
X131170000Y-123784000D03*
%TO.N,/A1*%
X138730000Y-120280000D03*
X131240000Y-122390000D03*
%TO.N,GND*%
X101720000Y-125192500D03*
X104410000Y-123682500D03*
%TO.N,+3.3V*%
X101850000Y-112540000D03*
%TO.N,/~{NMI}*%
X118690000Y-123850000D03*
X118810000Y-122620000D03*
X117560000Y-120810000D03*
X121220000Y-123690000D03*
X123190000Y-123690000D03*
X132290000Y-128650000D03*
%TO.N,/~{INT}*%
X129750000Y-127940000D03*
X124090000Y-124210000D03*
X113410000Y-119060000D03*
X120290000Y-125130000D03*
%TO.N,/~{CK}*%
X113410000Y-123130000D03*
X119230000Y-124940000D03*
%TO.N,/~{BUSACK}*%
X135920000Y-124780000D03*
%TO.N,/~{RD}*%
X134690000Y-126420000D03*
X140360000Y-127660000D03*
%TO.N,/~{WR}*%
X142210000Y-127700000D03*
X133840000Y-126210000D03*
%TO.N,/~{ROMCS}*%
X132560000Y-125840000D03*
%TO.N,/D5*%
X122130000Y-128340000D03*
X122990000Y-125270000D03*
%TO.N,/A0*%
X138820000Y-121170000D03*
X120930000Y-128020000D03*
%TO.N,/D4*%
X125800000Y-124920000D03*
X127210000Y-128290000D03*
%TO.N,/D3*%
X124740000Y-124990000D03*
X124670000Y-128340000D03*
%TO.N,/D7*%
X114330000Y-122810000D03*
X131590000Y-121540000D03*
%TO.N,/~{IORQ}*%
X126285984Y-109484016D03*
%TO.N,/~{WAIT}*%
X127328600Y-109501400D03*
%TO.N,/~{RESET}*%
X127130000Y-108380000D03*
%TO.N,/A6*%
X152100000Y-126730000D03*
X159820000Y-126710000D03*
%TO.N,/A5*%
X159480000Y-127440000D03*
X153220000Y-127520000D03*
%TO.N,/A7*%
X148740000Y-123400000D03*
X160810000Y-122860000D03*
%TO.N,GND*%
X121862500Y-115275000D03*
%TO.N,+3.3V*%
X123587500Y-115275000D03*
X98140000Y-107362500D03*
%TO.N,GND*%
X98130000Y-101755000D03*
%TO.N,/~{BUSACK}*%
X163330000Y-124220000D03*
%TO.N,/A9*%
X165195500Y-93514500D03*
X163360000Y-93310000D03*
%TO.N,/D7*%
X106020000Y-127620000D03*
%TO.N,/A12*%
X105770000Y-100200000D03*
%TO.N,GND*%
X132290000Y-99080000D03*
%TO.N,/A13*%
X106250000Y-94200000D03*
%TO.N,/A15*%
X108525000Y-96375000D03*
%TO.N,/A14*%
X105800000Y-95200000D03*
%TO.N,+3.3V*%
X136475000Y-111487500D03*
%TO.N,GND*%
X136150000Y-109312500D03*
X136800000Y-104785000D03*
%TO.N,+3.3V*%
X136800000Y-103060000D03*
X137825000Y-98550000D03*
%TO.N,GND*%
X139662500Y-98550000D03*
X113475000Y-71150000D03*
X155525000Y-72162500D03*
X139850000Y-76075000D03*
X127600000Y-102325000D03*
%TO.N,+3.3V*%
X125875000Y-102325000D03*
%TO.N,GND*%
X126250000Y-110825000D03*
%TO.N,+3.3V*%
X126240000Y-112972500D03*
X139625000Y-117600000D03*
%TO.N,GND*%
X137900000Y-117600000D03*
X145512500Y-118710000D03*
%TO.N,+3.3V*%
X138300000Y-111575000D03*
X138125000Y-109150000D03*
%TO.N,/NRST*%
X138366148Y-107550000D03*
%TO.N,GND*%
X138300000Y-104575000D03*
%TO.N,+3.3V*%
X138325000Y-103550000D03*
%TO.N,/~{ROMCS}*%
X161960000Y-128820000D03*
%TD*%
D23*
%TO.N,/~{NMI}*%
X117560000Y-120810000D02*
X117560000Y-121550000D01*
X117560000Y-121550000D02*
X118630000Y-122620000D01*
X118630000Y-122620000D02*
X118810000Y-122620000D01*
%TO.N,/~{IORQ}*%
X138460000Y-124610000D02*
X138670000Y-124400000D01*
X138670000Y-124400000D02*
X144200000Y-124400000D01*
X150160000Y-118440000D02*
X150160000Y-116780000D01*
X150160000Y-116780000D02*
X144116500Y-110736500D01*
X144200000Y-124400000D02*
X150160000Y-118440000D01*
X144116500Y-110736500D02*
X127538468Y-110736500D01*
X127538468Y-110736500D02*
X126285984Y-109484016D01*
%TO.N,/~{HALT}*%
X134830000Y-131035000D02*
X134830000Y-130090000D01*
X134830000Y-130090000D02*
X136020000Y-128900000D01*
X136020000Y-128900000D02*
X136040000Y-128900000D01*
%TO.N,/D7*%
X104350000Y-131035000D02*
X104350000Y-129290000D01*
X104350000Y-129290000D02*
X106020000Y-127620000D01*
%TO.N,/A2*%
X140990000Y-114520000D02*
X140640000Y-114170000D01*
X137286000Y-123784000D02*
X140990000Y-120080000D01*
X131170000Y-123784000D02*
X137286000Y-123784000D01*
X140990000Y-120080000D02*
X140990000Y-114520000D01*
%TO.N,/~{BUSRQ}*%
X134540000Y-120840000D02*
X134900000Y-121200000D01*
X134900000Y-121200000D02*
X136210000Y-121200000D01*
%TO.N,/D7*%
X120546000Y-123176000D02*
X121932000Y-121790000D01*
X114330000Y-122810000D02*
X114696000Y-123176000D01*
X114696000Y-123176000D02*
X120546000Y-123176000D01*
%TO.N,/~{CK}*%
X119230000Y-124940000D02*
X115220000Y-124940000D01*
X115220000Y-124940000D02*
X113410000Y-123130000D01*
%TO.N,/D3*%
X124670000Y-128340000D02*
X124670000Y-125060000D01*
X124670000Y-125060000D02*
X124740000Y-124990000D01*
%TO.N,/D4*%
X125800000Y-124920000D02*
X127210000Y-126330000D01*
X127210000Y-126330000D02*
X127210000Y-128290000D01*
%TO.N,/BTN1*%
X140750000Y-97290000D02*
X140750000Y-84930000D01*
X140750000Y-84930000D02*
X155342500Y-70337500D01*
X155342500Y-70337500D02*
X155525000Y-70337500D01*
%TO.N,/A7*%
X148970000Y-123170000D02*
X148740000Y-123400000D01*
X160810000Y-122860000D02*
X160500000Y-123170000D01*
X160500000Y-123170000D02*
X148970000Y-123170000D01*
%TO.N,/~{ROMCS}*%
X142340000Y-128256000D02*
X154056000Y-128256000D01*
X154056000Y-128256000D02*
X154375000Y-128575000D01*
X142326000Y-128270000D02*
X142340000Y-128256000D01*
X132560000Y-125840000D02*
X134990000Y-128270000D01*
X134990000Y-128270000D02*
X142326000Y-128270000D01*
%TO.N,/~{BUSACK}*%
X135920000Y-124780000D02*
X136360000Y-125220000D01*
X136360000Y-125220000D02*
X157010000Y-125220000D01*
X157010000Y-125220000D02*
X158010000Y-124220000D01*
X158010000Y-124220000D02*
X163330000Y-124220000D01*
%TO.N,/~{WAIT}*%
X146690000Y-122620000D02*
X146690000Y-122910000D01*
X127328600Y-109501400D02*
X127950699Y-110123500D01*
X150830000Y-116370000D02*
X150860000Y-116370000D01*
X127950699Y-110123500D02*
X144583500Y-110123500D01*
X144583500Y-110123500D02*
X150830000Y-116370000D01*
X150860000Y-116370000D02*
X150860000Y-118450000D01*
X150860000Y-118450000D02*
X146690000Y-122620000D01*
%TO.N,/USB1_DP*%
X129700000Y-77340000D02*
X129700000Y-77950000D01*
X129700000Y-77950000D02*
X129710000Y-77960000D01*
X129710000Y-77960000D02*
X129710000Y-107540000D01*
%TO.N,/USB1_DM*%
X130800000Y-77860000D02*
X130770000Y-77830000D01*
X130800000Y-79620000D02*
X130800000Y-77860000D01*
%TO.N,/BTN2*%
X120050000Y-66975000D02*
X120985000Y-66975000D01*
X120985000Y-66975000D02*
X136325000Y-82315000D01*
X136325000Y-82315000D02*
X136325000Y-97275000D01*
%TO.N,/USB1_DM*%
X130800000Y-102320000D02*
X130800000Y-79620000D01*
X130290000Y-102830000D02*
X130800000Y-102320000D01*
%TO.N,/BTN2*%
X120050000Y-66975000D02*
X113550000Y-66975000D01*
%TO.N,/LEDFLASH*%
X121680000Y-110170000D02*
X121680000Y-99355000D01*
X121680000Y-99355000D02*
X101200000Y-78875000D01*
%TO.N,GND*%
X114510000Y-134880000D02*
X114580000Y-134950000D01*
X114510000Y-133575000D02*
X114510000Y-134880000D01*
X111970000Y-134850000D02*
X111870000Y-134950000D01*
X111970000Y-133575000D02*
X111970000Y-134850000D01*
%TO.N,/~{MREQ}*%
X133164000Y-129206000D02*
X117666000Y-129206000D01*
X133290000Y-129080000D02*
X133164000Y-129206000D01*
X117666000Y-129206000D02*
X111350000Y-122890000D01*
%TO.N,/~{RESET}*%
X147990000Y-127140000D02*
X147990000Y-127440000D01*
X147750000Y-122200000D02*
X147750000Y-124160000D01*
X148990000Y-126140000D02*
X147990000Y-127140000D01*
X151350000Y-118600000D02*
X147750000Y-122200000D01*
%TO.N,/A3*%
X131070000Y-124680000D02*
X131526000Y-124224000D01*
X131526000Y-124224000D02*
X137239152Y-124224000D01*
X137239152Y-124224000D02*
X141545422Y-119917730D01*
X141545422Y-119917730D02*
X141545422Y-113665422D01*
X141545422Y-113665422D02*
X141520000Y-113640000D01*
%TO.N,/~{WR}*%
X142210000Y-127700000D02*
X141250000Y-126740000D01*
X141250000Y-126740000D02*
X140384000Y-126740000D01*
X140384000Y-126740000D02*
X139434000Y-125790000D01*
X139434000Y-125790000D02*
X134260000Y-125790000D01*
X134260000Y-125790000D02*
X133840000Y-126210000D01*
%TO.N,/~{RD}*%
X140360000Y-127660000D02*
X140360000Y-127560000D01*
X140360000Y-127560000D02*
X139200000Y-126400000D01*
X139200000Y-126400000D02*
X134710000Y-126400000D01*
X134710000Y-126400000D02*
X134690000Y-126420000D01*
%TO.N,/~{NMI}*%
X132290000Y-128650000D02*
X132290000Y-127020000D01*
X132290000Y-127020000D02*
X128924000Y-123654000D01*
X128924000Y-123654000D02*
X123226000Y-123654000D01*
X123226000Y-123654000D02*
X123190000Y-123690000D01*
%TO.N,/A1*%
X136620000Y-122390000D02*
X138730000Y-120280000D01*
X131240000Y-122390000D02*
X136620000Y-122390000D01*
%TO.N,/~{INT}*%
X129750000Y-127940000D02*
X129750000Y-124910000D01*
X129750000Y-124910000D02*
X129050000Y-124210000D01*
X129050000Y-124210000D02*
X124090000Y-124210000D01*
%TO.N,/A15*%
X99270000Y-131035000D02*
X98119000Y-132186000D01*
X98119000Y-132186000D02*
X98119000Y-134051760D01*
X102286760Y-132186000D02*
X103199000Y-131273760D01*
X98119000Y-134051760D02*
X98793240Y-134726000D01*
X103440000Y-101460000D02*
X108525000Y-96375000D01*
X98793240Y-134726000D02*
X99746760Y-134726000D01*
X99746760Y-134726000D02*
X100421000Y-134051760D01*
X100421000Y-134051760D02*
X100421000Y-133098240D01*
X100421000Y-133098240D02*
X101333240Y-132186000D01*
X103440000Y-127290000D02*
X103440000Y-101460000D01*
X101333240Y-132186000D02*
X102286760Y-132186000D01*
X103199000Y-131273760D02*
X103199000Y-127531000D01*
X103199000Y-127531000D02*
X103440000Y-127290000D01*
%TO.N,/A14*%
X99270000Y-133575000D02*
X99300000Y-133545000D01*
X99300000Y-101700000D02*
X105800000Y-95200000D01*
X99300000Y-133545000D02*
X99300000Y-132161000D01*
X99300000Y-132161000D02*
X100396000Y-132161000D01*
X100396000Y-132161000D02*
X100396000Y-129909000D01*
X100396000Y-129909000D02*
X99300000Y-129909000D01*
X99300000Y-129909000D02*
X99300000Y-101700000D01*
%TO.N,/~{NMI}*%
X118690000Y-123850000D02*
X118850000Y-123690000D01*
X118850000Y-123690000D02*
X121220000Y-123690000D01*
%TO.N,/~{INT}*%
X119414000Y-125606000D02*
X115099697Y-125606000D01*
X112854000Y-119616000D02*
X113410000Y-119060000D01*
X120290000Y-125130000D02*
X120130000Y-125290000D01*
X120130000Y-125290000D02*
X119730000Y-125290000D01*
X119730000Y-125290000D02*
X119414000Y-125606000D01*
X115099697Y-125606000D02*
X112854000Y-123360303D01*
X112854000Y-123360303D02*
X112854000Y-119616000D01*
%TO.N,/D7*%
X114330000Y-122810000D02*
X114532000Y-123012000D01*
X121932000Y-121790000D02*
X131340000Y-121790000D01*
X131340000Y-121790000D02*
X131590000Y-121540000D01*
%TO.N,/A0*%
X120930000Y-128020000D02*
X120930000Y-124780000D01*
X120930000Y-124780000D02*
X122622000Y-123088000D01*
X122622000Y-123088000D02*
X136902000Y-123088000D01*
X136902000Y-123088000D02*
X138820000Y-121170000D01*
%TO.N,/~{ROMCS}*%
X154625000Y-128825000D02*
X154375000Y-128575000D01*
X161960000Y-128820000D02*
X161955000Y-128825000D01*
X161955000Y-128825000D02*
X154625000Y-128825000D01*
%TO.N,/D5*%
X122130000Y-128340000D02*
X122130000Y-126440000D01*
X122130000Y-126440000D02*
X122990000Y-125580000D01*
X122990000Y-125580000D02*
X122990000Y-125270000D01*
%TO.N,/~{RESET}*%
X151350000Y-115520000D02*
X151350000Y-118600000D01*
X144210000Y-108380000D02*
X151350000Y-115520000D01*
X127130000Y-108380000D02*
X144210000Y-108380000D01*
%TO.N,/A6*%
X152120000Y-126710000D02*
X152100000Y-126730000D01*
X159820000Y-126710000D02*
X152120000Y-126710000D01*
%TO.N,/A5*%
X159480000Y-127440000D02*
X153300000Y-127440000D01*
X153300000Y-127440000D02*
X153220000Y-127520000D01*
%TO.N,/A9*%
X164991000Y-93310000D02*
X163360000Y-93310000D01*
X165195500Y-93514500D02*
X164991000Y-93310000D01*
%TO.N,GND*%
X112125000Y-141175000D02*
X114665000Y-141175000D01*
%TO.N,/A12*%
X101810000Y-133575000D02*
X103199000Y-132186000D01*
X103199000Y-132186000D02*
X104826760Y-132186000D01*
X106660000Y-101090000D02*
X105770000Y-100200000D01*
X104826760Y-132186000D02*
X105739000Y-131273760D01*
X105739000Y-131273760D02*
X105739000Y-130558240D01*
X105739000Y-130558240D02*
X106660000Y-129637240D01*
X106660000Y-129637240D02*
X106660000Y-101090000D01*
%TO.N,/BTN1*%
X155525000Y-70337500D02*
X155525000Y-67975000D01*
X155525000Y-67975000D02*
X155475000Y-67925000D01*
%TO.N,GND*%
X126240000Y-110835000D02*
X126250000Y-110825000D01*
X126240000Y-111247500D02*
X126240000Y-110835000D01*
%TO.N,/BOOT0*%
X143687500Y-118250000D02*
X143687500Y-117187500D01*
X143687500Y-117187500D02*
X143275000Y-116775000D01*
%TO.N,+3.3V*%
X138300000Y-111575000D02*
X138212500Y-111487500D01*
X138212500Y-111487500D02*
X136475000Y-111487500D01*
X137902500Y-109372500D02*
X138125000Y-109150000D01*
X137660000Y-109372500D02*
X137902500Y-109372500D01*
%TO.N,/NRST*%
X137660000Y-107547500D02*
X137452500Y-107547500D01*
X137452500Y-107547500D02*
X137412500Y-107587500D01*
X137412500Y-107587500D02*
X136150000Y-107587500D01*
X138366148Y-107550000D02*
X137662500Y-107550000D01*
X137662500Y-107550000D02*
X137660000Y-107547500D01*
%TO.N,GND*%
X138300000Y-104575000D02*
X138090000Y-104785000D01*
X138090000Y-104785000D02*
X136800000Y-104785000D01*
%TO.N,+3.3V*%
X138325000Y-103550000D02*
X138050000Y-103550000D01*
X138050000Y-103550000D02*
X137560000Y-103060000D01*
X137560000Y-103060000D02*
X136800000Y-103060000D01*
%TO.N,/A13*%
X100674000Y-129899000D02*
X101810000Y-131035000D01*
X100674000Y-129793849D02*
X100674000Y-129899000D01*
X100406000Y-129631000D02*
X100511151Y-129631000D01*
X99578000Y-128803000D02*
X100406000Y-129631000D01*
X99578000Y-102243659D02*
X99578000Y-128803000D01*
X106381000Y-95440659D02*
X99578000Y-102243659D01*
X100511151Y-129631000D02*
X100674000Y-129793849D01*
X106381000Y-94306000D02*
X106381000Y-95440659D01*
X106275000Y-94200000D02*
X106381000Y-94306000D01*
X106250000Y-94200000D02*
X106275000Y-94200000D01*
%TD*%
M02*
