%TF.GenerationSoftware,KiCad,Pcbnew,10.0.3*%
%TF.CreationDate,2026-06-03T20:17:36+01:00*%
%TF.ProjectId,RISKYZXSpectrum,5249534b-595a-4585-9370-65637472756d,rev?*%
%TF.SameCoordinates,Original*%
%TF.FileFunction,Copper,L2,Inr*%
%TF.FilePolarity,Positive*%
%FSLAX46Y46*%
G04 Gerber Fmt 4.6, Leading zero omitted, Abs format (unit mm)*
G04 Created by KiCad (PCBNEW 10.0.3) date 2026-06-03 20:17:36*
%MOMM*%
%LPD*%
G01*
G04 APERTURE LIST*
G04 Aperture macros list*
%AMRoundRect*
0 Rectangle with rounded corners*
0 $1 Rounding radius*
0 $2 $3 $4 $5 $6 $7 $8 $9 X,Y pos of 4 corners*
0 Add a 4 corners polygon primitive as box body*
4,1,4,$2,$3,$4,$5,$6,$7,$8,$9,$2,$3,0*
0 Add four circle primitives for the rounded corners*
1,1,$1+$1,$2,$3*
1,1,$1+$1,$4,$5*
1,1,$1+$1,$6,$7*
1,1,$1+$1,$8,$9*
0 Add four rect primitives between the rounded corners*
20,1,$1+$1,$2,$3,$4,$5,0*
20,1,$1+$1,$4,$5,$6,$7,0*
20,1,$1+$1,$6,$7,$8,$9,0*
20,1,$1+$1,$8,$9,$2,$3,0*%
G04 Aperture macros list end*
%TA.AperFunction,NonConductor*%
%ADD10C,0.200000*%
%TD*%
%TA.AperFunction,ComponentPad*%
%ADD11R,1.700000X1.700000*%
%TD*%
%TA.AperFunction,ComponentPad*%
%ADD12C,1.700000*%
%TD*%
%TA.AperFunction,ComponentPad*%
%ADD13C,1.500000*%
%TD*%
%TA.AperFunction,ComponentPad*%
%ADD14RoundRect,0.250000X-0.512000X-0.512000X0.512000X-0.512000X0.512000X0.512000X-0.512000X0.512000X0*%
%TD*%
%TA.AperFunction,ComponentPad*%
%ADD15C,1.524000*%
%TD*%
%TA.AperFunction,ComponentPad*%
%ADD16C,3.500000*%
%TD*%
%TA.AperFunction,ComponentPad*%
%ADD17C,2.000000*%
%TD*%
%TA.AperFunction,ViaPad*%
%ADD18C,0.600000*%
%TD*%
G04 APERTURE END LIST*
D10*
X96050000Y-73780000D02*
X171090000Y-73780000D01*
X171090000Y-138125000D01*
X96050000Y-138125000D01*
X96050000Y-73780000D01*
D11*
%TO.N,/BOOT0*%
%TO.C,J1*%
X143275000Y-116775000D03*
D12*
%TO.N,+3.3V*%
X145815000Y-116775000D03*
%TD*%
D11*
%TO.N,/SWCLK*%
%TO.C,J8*%
X122455000Y-119090000D03*
D12*
%TO.N,/SWDIO*%
X119915000Y-119090000D03*
%TD*%
D13*
%TO.N,/A15*%
%TO.C,J4*%
X99230000Y-131020000D03*
%TO.N,/A14*%
X99230000Y-136100000D03*
%TO.N,/A13*%
X101770000Y-131020000D03*
%TO.N,/A12*%
X101770000Y-136100000D03*
%TO.N,/D7*%
X104310000Y-131020000D03*
%TO.N,+5V*%
X104310000Y-136100000D03*
%TO.N,/~{OE}*%
X106850000Y-131020000D03*
%TO.N,unconnected-(J4-Pin_8-Pad8)*%
X106850000Y-136100000D03*
%TO.N,unconnected-(J4-Pin_9-Pad9)*%
X109390000Y-131020000D03*
%TO.N,unconnected-(J4-Pin_10-Pad10)*%
X109390000Y-136100000D03*
%TO.N,/D0*%
X111930000Y-131020000D03*
%TO.N,GND*%
X111930000Y-136100000D03*
%TO.N,/D1*%
X114470000Y-131020000D03*
%TO.N,GND*%
X114470000Y-136100000D03*
%TO.N,/D2*%
X117010000Y-131020000D03*
%TO.N,/~{CK}*%
X117010000Y-136100000D03*
%TO.N,/D6*%
X119550000Y-131020000D03*
%TO.N,/A0*%
X119550000Y-136100000D03*
%TO.N,/D5*%
X122090000Y-131020000D03*
%TO.N,/A1*%
X122090000Y-136100000D03*
%TO.N,/D3*%
X124630000Y-131020000D03*
%TO.N,/A2*%
X124630000Y-136100000D03*
%TO.N,/D4*%
X127170000Y-131020000D03*
%TO.N,/A3*%
X127170000Y-136100000D03*
%TO.N,/~{INT}*%
X129710000Y-131020000D03*
%TO.N,unconnected-(J4-Pin_26-Pad26)*%
X129710000Y-136100000D03*
%TO.N,/~{NMI}*%
X132250000Y-131020000D03*
%TO.N,GND*%
X132250000Y-136100000D03*
%TO.N,/~{HALT}*%
X134790000Y-131020000D03*
%TO.N,/~{OE2}*%
X134790000Y-136100000D03*
%TO.N,/~{MREQ}*%
X137330000Y-131020000D03*
%TO.N,unconnected-(J4-Pin_32-Pad32)*%
X137330000Y-136100000D03*
%TO.N,/~{IORQ}*%
X139870000Y-131020000D03*
%TO.N,unconnected-(J4-Pin_34-Pad34)*%
X139870000Y-136100000D03*
%TO.N,/~{RD}*%
X142410000Y-131020000D03*
%TO.N,unconnected-(J4-Pin_36-Pad36)*%
X142410000Y-136100000D03*
%TO.N,/~{WR}*%
X144950000Y-131020000D03*
%TO.N,/~{BUSRQ}*%
X144950000Y-136100000D03*
%TO.N,unconnected-(J4-Pin_39-Pad39)*%
X147490000Y-131020000D03*
%TO.N,/~{RESET}*%
X147490000Y-136100000D03*
%TO.N,/~{WAIT}*%
X150030000Y-131020000D03*
%TO.N,/A7*%
X150030000Y-136100000D03*
%TO.N,unconnected-(J4-Pin_43-Pad43)*%
X152570000Y-131020000D03*
%TO.N,/A6*%
X152570000Y-136100000D03*
%TO.N,unconnected-(J4-Pin_45-Pad45)*%
X155110000Y-131020000D03*
%TO.N,/A5*%
X155110000Y-136100000D03*
%TO.N,/~{M1}*%
X157650000Y-131020000D03*
%TO.N,/A4*%
X157650000Y-136100000D03*
%TO.N,/~{RFSH}*%
X160190000Y-131020000D03*
%TO.N,/~{ROMCS}*%
X160190000Y-136100000D03*
%TO.N,/A8*%
X162730000Y-131020000D03*
%TO.N,/~{BUSACK}*%
X162730000Y-136100000D03*
%TO.N,/A10*%
X165270000Y-131020000D03*
%TO.N,/A9*%
X165270000Y-136100000D03*
%TO.N,unconnected-(J4-Pin_55-Pad55)*%
X167810000Y-131020000D03*
%TO.N,/A11*%
X167810000Y-136100000D03*
%TD*%
D11*
%TO.N,/USART_TX*%
%TO.C,J2*%
X119250000Y-112200000D03*
D12*
%TO.N,/USART_RX*%
X119250000Y-114740000D03*
%TD*%
D14*
%TO.N,Net-(J7-VBUS)*%
%TO.C,J7*%
X128420000Y-79300000D03*
D15*
%TO.N,/USB1_DM*%
X130920000Y-79300000D03*
%TO.N,/USB1_DP*%
X132920000Y-79300000D03*
%TO.N,GND*%
X135420000Y-79300000D03*
D16*
X125350000Y-76590000D03*
X138490000Y-76590000D03*
%TD*%
D17*
%TO.N,+3.3V*%
%TO.C,SW1*%
X111920000Y-78480000D03*
X105420000Y-78480000D03*
%TO.N,/BTN1*%
X111920000Y-82980000D03*
X105420000Y-82980000D03*
%TD*%
D18*
%TO.N,+5V*%
X127050000Y-86920000D03*
%TO.N,+3.3V*%
X125875000Y-102325000D03*
X138125000Y-109150000D03*
X139625000Y-117600000D03*
X126240000Y-112972500D03*
X137825000Y-98550000D03*
X148120000Y-80330000D03*
X138300000Y-111575000D03*
X136800000Y-103060000D03*
X101850000Y-112540000D03*
X123587500Y-115275000D03*
X136475000Y-111487500D03*
X138325000Y-103550000D03*
X101850000Y-118840000D03*
X116930000Y-81065000D03*
%TO.N,GND*%
X122850000Y-113580000D03*
X102070000Y-79250000D03*
X137900000Y-117600000D03*
X126250000Y-110825000D03*
X101720000Y-125192500D03*
X97500000Y-114162500D03*
X138300000Y-104575000D03*
X136475000Y-113212500D03*
X140900000Y-109520000D03*
X104410000Y-123682500D03*
X127600000Y-102325000D03*
X136800000Y-104785000D03*
X136150000Y-109312500D03*
X125690000Y-82780000D03*
X119040000Y-81070000D03*
X132290000Y-99080000D03*
X99520000Y-120640000D03*
X139662500Y-98550000D03*
X145512500Y-118710000D03*
X121862500Y-115275000D03*
%TO.N,Net-(D1-A)*%
X119070000Y-76875000D03*
%TO.N,/USB1_DM*%
X130930000Y-92850000D03*
X130290000Y-102830000D03*
%TO.N,/USB1_DP*%
X129710000Y-107540000D03*
X130460000Y-95080000D03*
%TO.N,/A2*%
X140640000Y-114170000D03*
X129062500Y-123787500D03*
%TO.N,/A3*%
X129650000Y-124425000D03*
X141520000Y-113640000D03*
%TO.N,/A5*%
X157000000Y-127440000D03*
X159480000Y-127440000D03*
%TO.N,/A6*%
X159820000Y-126710000D03*
X155850000Y-126710000D03*
%TO.N,/NRST*%
X138366148Y-107550000D03*
%TO.N,/BTN1*%
X102150000Y-82890000D03*
X134720000Y-97860000D03*
%TO.N,/A7*%
X156550000Y-124640000D03*
X161010000Y-124570000D03*
%TO.N,/A9*%
X163325000Y-123800000D03*
X164525000Y-124100000D03*
%TO.N,/A12*%
X106660000Y-126930000D03*
%TO.N,/A13*%
X107830000Y-124710000D03*
%TO.N,/A14*%
X107310000Y-125410000D03*
X104370000Y-127360000D03*
%TO.N,/A15*%
X107450000Y-126210000D03*
X102500000Y-129100000D03*
%TO.N,/~{MREQ}*%
X114090000Y-122960000D03*
%TO.N,/~{INT}*%
X129650000Y-128330000D03*
X119850000Y-125600000D03*
X114210000Y-122050000D03*
X124090000Y-124210000D03*
%TO.N,/~{CK}*%
X114750000Y-121250000D03*
X119230000Y-124940000D03*
%TO.N,/~{OE2}*%
X110610000Y-132510000D03*
%TO.N,/~{RESET}*%
X127130000Y-108380000D03*
X145975000Y-124250000D03*
%TO.N,/~{WAIT}*%
X146690000Y-122910000D03*
X127328600Y-109501400D03*
%TO.N,/~{IORQ}*%
X126285984Y-109484016D03*
X138950000Y-123800000D03*
%TO.N,/~{NMI}*%
X121220000Y-123690000D03*
X118725000Y-121825000D03*
X118690000Y-123850000D03*
X117560000Y-120810000D03*
X132290000Y-128650000D03*
X123190000Y-123690000D03*
%TO.N,/LEDFLASH*%
X132650000Y-102390000D03*
X146280000Y-81160000D03*
%TO.N,/D3*%
X124740000Y-124990000D03*
X124670000Y-128340000D03*
%TO.N,/D4*%
X127210000Y-128290000D03*
X125800000Y-124920000D03*
%TO.N,/D5*%
X122130000Y-128340000D03*
X122990000Y-125580000D03*
%TO.N,/D7*%
X115750000Y-121250000D03*
X131590000Y-121540000D03*
X106020000Y-127620000D03*
%TO.N,/~{ROMCS}*%
X132350000Y-125800000D03*
X161000000Y-129000000D03*
%TO.N,/~{WR}*%
X133840000Y-125150000D03*
X142210000Y-127700000D03*
%TO.N,/~{RD}*%
X140360000Y-127660000D03*
X134690000Y-126420000D03*
%TO.N,/~{BUSACK}*%
X163330000Y-125340000D03*
X135920000Y-124780000D03*
%TO.N,/~{BUSRQ}*%
X136210000Y-121200000D03*
X134540000Y-120840000D03*
%TO.N,/~{HALT}*%
X136040000Y-128900000D03*
%TO.N,/A0*%
X138820000Y-121170000D03*
X120930000Y-128330000D03*
%TO.N,/A1*%
X129975000Y-122475000D03*
X138730000Y-120280000D03*
%TO.N,Net-(D2-A)*%
X146320000Y-76680000D03*
%TD*%
%TA.AperFunction,Conductor*%
%TO.N,GND*%
G36*
X170732539Y-74100185D02*
G01*
X170778294Y-74152989D01*
X170789500Y-74204500D01*
X170789500Y-137700500D01*
X170769815Y-137767539D01*
X170717011Y-137813294D01*
X170665500Y-137824500D01*
X96474500Y-137824500D01*
X96407461Y-137804815D01*
X96361706Y-137752011D01*
X96350500Y-137700500D01*
X96350500Y-136006379D01*
X98279500Y-136006379D01*
X98279500Y-136193620D01*
X98316025Y-136377243D01*
X98316027Y-136377251D01*
X98387676Y-136550228D01*
X98387681Y-136550237D01*
X98491697Y-136705907D01*
X98491700Y-136705911D01*
X98624088Y-136838299D01*
X98624092Y-136838302D01*
X98779762Y-136942318D01*
X98779768Y-136942321D01*
X98779769Y-136942322D01*
X98952749Y-137013973D01*
X99136379Y-137050499D01*
X99136383Y-137050500D01*
X99136384Y-137050500D01*
X99323617Y-137050500D01*
X99323618Y-137050499D01*
X99507251Y-137013973D01*
X99680231Y-136942322D01*
X99835908Y-136838302D01*
X99968302Y-136705908D01*
X100072322Y-136550231D01*
X100143973Y-136377251D01*
X100180500Y-136193616D01*
X100180500Y-136006384D01*
X100180499Y-136006381D01*
X100180499Y-136006379D01*
X100819500Y-136006379D01*
X100819500Y-136193620D01*
X100856025Y-136377243D01*
X100856027Y-136377251D01*
X100927676Y-136550228D01*
X100927681Y-136550237D01*
X101031697Y-136705907D01*
X101031700Y-136705911D01*
X101164088Y-136838299D01*
X101164092Y-136838302D01*
X101319762Y-136942318D01*
X101319768Y-136942321D01*
X101319769Y-136942322D01*
X101492749Y-137013973D01*
X101676379Y-137050499D01*
X101676383Y-137050500D01*
X101676384Y-137050500D01*
X101863617Y-137050500D01*
X101863618Y-137050499D01*
X102047251Y-137013973D01*
X102220231Y-136942322D01*
X102375908Y-136838302D01*
X102508302Y-136705908D01*
X102612322Y-136550231D01*
X102683973Y-136377251D01*
X102720500Y-136193616D01*
X102720500Y-136006384D01*
X102720499Y-136006381D01*
X102720499Y-136006379D01*
X103359500Y-136006379D01*
X103359500Y-136193620D01*
X103396025Y-136377243D01*
X103396027Y-136377251D01*
X103467676Y-136550228D01*
X103467681Y-136550237D01*
X103571697Y-136705907D01*
X103571700Y-136705911D01*
X103704088Y-136838299D01*
X103704092Y-136838302D01*
X103859762Y-136942318D01*
X103859768Y-136942321D01*
X103859769Y-136942322D01*
X104032749Y-137013973D01*
X104216379Y-137050499D01*
X104216383Y-137050500D01*
X104216384Y-137050500D01*
X104403617Y-137050500D01*
X104403618Y-137050499D01*
X104587251Y-137013973D01*
X104760231Y-136942322D01*
X104915908Y-136838302D01*
X105048302Y-136705908D01*
X105152322Y-136550231D01*
X105223973Y-136377251D01*
X105260500Y-136193616D01*
X105260500Y-136006384D01*
X105260499Y-136006381D01*
X105260499Y-136006379D01*
X105899500Y-136006379D01*
X105899500Y-136193620D01*
X105936025Y-136377243D01*
X105936027Y-136377251D01*
X106007676Y-136550228D01*
X106007681Y-136550237D01*
X106111697Y-136705907D01*
X106111700Y-136705911D01*
X106244088Y-136838299D01*
X106244092Y-136838302D01*
X106399762Y-136942318D01*
X106399768Y-136942321D01*
X106399769Y-136942322D01*
X106572749Y-137013973D01*
X106756379Y-137050499D01*
X106756383Y-137050500D01*
X106756384Y-137050500D01*
X106943617Y-137050500D01*
X106943618Y-137050499D01*
X107127251Y-137013973D01*
X107300231Y-136942322D01*
X107455908Y-136838302D01*
X107588302Y-136705908D01*
X107692322Y-136550231D01*
X107763973Y-136377251D01*
X107800500Y-136193616D01*
X107800500Y-136006384D01*
X107800499Y-136006381D01*
X107800499Y-136006379D01*
X108439500Y-136006379D01*
X108439500Y-136193620D01*
X108476025Y-136377243D01*
X108476027Y-136377251D01*
X108547676Y-136550228D01*
X108547681Y-136550237D01*
X108651697Y-136705907D01*
X108651700Y-136705911D01*
X108784088Y-136838299D01*
X108784092Y-136838302D01*
X108939762Y-136942318D01*
X108939768Y-136942321D01*
X108939769Y-136942322D01*
X109112749Y-137013973D01*
X109296379Y-137050499D01*
X109296383Y-137050500D01*
X109296384Y-137050500D01*
X109483617Y-137050500D01*
X109483618Y-137050499D01*
X109667251Y-137013973D01*
X109840231Y-136942322D01*
X109995908Y-136838302D01*
X109995911Y-136838299D01*
X110026127Y-136808084D01*
X110128299Y-136705911D01*
X110128302Y-136705908D01*
X110232322Y-136550231D01*
X110303973Y-136377251D01*
X110340500Y-136193616D01*
X110340500Y-136006384D01*
X110340500Y-136006383D01*
X110340500Y-136006381D01*
X110338550Y-135996579D01*
X110880000Y-135996579D01*
X110880000Y-136203420D01*
X110920348Y-136406266D01*
X110920350Y-136406274D01*
X110999502Y-136597363D01*
X110999502Y-136597364D01*
X111088021Y-136729843D01*
X111088023Y-136729843D01*
X111559533Y-136258333D01*
X111609920Y-136345606D01*
X111684394Y-136420080D01*
X111771665Y-136470465D01*
X111300155Y-136941975D01*
X111432631Y-137030494D01*
X111432641Y-137030499D01*
X111623725Y-137109649D01*
X111623733Y-137109651D01*
X111826579Y-137149999D01*
X111826583Y-137150000D01*
X112033417Y-137150000D01*
X112033420Y-137149999D01*
X112236266Y-137109651D01*
X112236274Y-137109649D01*
X112427359Y-137030499D01*
X112559844Y-136941976D01*
X112088334Y-136470465D01*
X112175606Y-136420080D01*
X112250080Y-136345606D01*
X112300466Y-136258334D01*
X112771976Y-136729844D01*
X112860499Y-136597359D01*
X112939649Y-136406274D01*
X112939651Y-136406266D01*
X112979999Y-136203420D01*
X112980000Y-136203417D01*
X112980000Y-135996583D01*
X112979999Y-135996579D01*
X113420000Y-135996579D01*
X113420000Y-136203420D01*
X113460348Y-136406266D01*
X113460350Y-136406274D01*
X113539502Y-136597363D01*
X113539502Y-136597364D01*
X113628021Y-136729843D01*
X113628023Y-136729843D01*
X114099533Y-136258333D01*
X114149920Y-136345606D01*
X114224394Y-136420080D01*
X114311665Y-136470465D01*
X113840155Y-136941975D01*
X113972631Y-137030494D01*
X113972641Y-137030499D01*
X114163725Y-137109649D01*
X114163733Y-137109651D01*
X114366579Y-137149999D01*
X114366583Y-137150000D01*
X114573417Y-137150000D01*
X114573420Y-137149999D01*
X114776266Y-137109651D01*
X114776274Y-137109649D01*
X114967359Y-137030499D01*
X115099844Y-136941976D01*
X114628334Y-136470465D01*
X114715606Y-136420080D01*
X114790080Y-136345606D01*
X114840466Y-136258334D01*
X115311976Y-136729844D01*
X115400499Y-136597359D01*
X115479649Y-136406274D01*
X115479651Y-136406266D01*
X115519999Y-136203420D01*
X115520000Y-136203417D01*
X115520000Y-136006379D01*
X116059500Y-136006379D01*
X116059500Y-136193620D01*
X116096025Y-136377243D01*
X116096027Y-136377251D01*
X116167676Y-136550228D01*
X116167681Y-136550237D01*
X116271697Y-136705907D01*
X116271700Y-136705911D01*
X116404088Y-136838299D01*
X116404092Y-136838302D01*
X116559762Y-136942318D01*
X116559768Y-136942321D01*
X116559769Y-136942322D01*
X116732749Y-137013973D01*
X116916379Y-137050499D01*
X116916383Y-137050500D01*
X116916384Y-137050500D01*
X117103617Y-137050500D01*
X117103618Y-137050499D01*
X117287251Y-137013973D01*
X117460231Y-136942322D01*
X117615908Y-136838302D01*
X117748302Y-136705908D01*
X117852322Y-136550231D01*
X117923973Y-136377251D01*
X117960500Y-136193616D01*
X117960500Y-136006384D01*
X117960499Y-136006381D01*
X117960499Y-136006379D01*
X118599500Y-136006379D01*
X118599500Y-136193620D01*
X118636025Y-136377243D01*
X118636027Y-136377251D01*
X118707676Y-136550228D01*
X118707681Y-136550237D01*
X118811697Y-136705907D01*
X118811700Y-136705911D01*
X118944088Y-136838299D01*
X118944092Y-136838302D01*
X119099762Y-136942318D01*
X119099768Y-136942321D01*
X119099769Y-136942322D01*
X119272749Y-137013973D01*
X119456379Y-137050499D01*
X119456383Y-137050500D01*
X119456384Y-137050500D01*
X119643617Y-137050500D01*
X119643618Y-137050499D01*
X119827251Y-137013973D01*
X120000231Y-136942322D01*
X120155908Y-136838302D01*
X120288302Y-136705908D01*
X120392322Y-136550231D01*
X120463973Y-136377251D01*
X120500500Y-136193616D01*
X120500500Y-136006384D01*
X120500499Y-136006381D01*
X120500499Y-136006379D01*
X121139500Y-136006379D01*
X121139500Y-136193620D01*
X121176025Y-136377243D01*
X121176027Y-136377251D01*
X121247676Y-136550228D01*
X121247681Y-136550237D01*
X121351697Y-136705907D01*
X121351700Y-136705911D01*
X121484088Y-136838299D01*
X121484092Y-136838302D01*
X121639762Y-136942318D01*
X121639768Y-136942321D01*
X121639769Y-136942322D01*
X121812749Y-137013973D01*
X121996379Y-137050499D01*
X121996383Y-137050500D01*
X121996384Y-137050500D01*
X122183617Y-137050500D01*
X122183618Y-137050499D01*
X122367251Y-137013973D01*
X122540231Y-136942322D01*
X122695908Y-136838302D01*
X122828302Y-136705908D01*
X122932322Y-136550231D01*
X123003973Y-136377251D01*
X123040500Y-136193616D01*
X123040500Y-136006384D01*
X123040499Y-136006381D01*
X123040499Y-136006379D01*
X123679500Y-136006379D01*
X123679500Y-136193620D01*
X123716025Y-136377243D01*
X123716027Y-136377251D01*
X123787676Y-136550228D01*
X123787681Y-136550237D01*
X123891697Y-136705907D01*
X123891700Y-136705911D01*
X124024088Y-136838299D01*
X124024092Y-136838302D01*
X124179762Y-136942318D01*
X124179768Y-136942321D01*
X124179769Y-136942322D01*
X124352749Y-137013973D01*
X124536379Y-137050499D01*
X124536383Y-137050500D01*
X124536384Y-137050500D01*
X124723617Y-137050500D01*
X124723618Y-137050499D01*
X124907251Y-137013973D01*
X125080231Y-136942322D01*
X125235908Y-136838302D01*
X125368302Y-136705908D01*
X125472322Y-136550231D01*
X125543973Y-136377251D01*
X125580500Y-136193616D01*
X125580500Y-136006384D01*
X125580499Y-136006381D01*
X125580499Y-136006379D01*
X126219500Y-136006379D01*
X126219500Y-136193620D01*
X126256025Y-136377243D01*
X126256027Y-136377251D01*
X126327676Y-136550228D01*
X126327681Y-136550237D01*
X126431697Y-136705907D01*
X126431700Y-136705911D01*
X126564088Y-136838299D01*
X126564092Y-136838302D01*
X126719762Y-136942318D01*
X126719768Y-136942321D01*
X126719769Y-136942322D01*
X126892749Y-137013973D01*
X127076379Y-137050499D01*
X127076383Y-137050500D01*
X127076384Y-137050500D01*
X127263617Y-137050500D01*
X127263618Y-137050499D01*
X127447251Y-137013973D01*
X127620231Y-136942322D01*
X127775908Y-136838302D01*
X127908302Y-136705908D01*
X128012322Y-136550231D01*
X128083973Y-136377251D01*
X128120500Y-136193616D01*
X128120500Y-136006384D01*
X128120499Y-136006381D01*
X128120499Y-136006379D01*
X128759500Y-136006379D01*
X128759500Y-136193620D01*
X128796025Y-136377243D01*
X128796027Y-136377251D01*
X128867676Y-136550228D01*
X128867681Y-136550237D01*
X128971697Y-136705907D01*
X128971700Y-136705911D01*
X129104088Y-136838299D01*
X129104092Y-136838302D01*
X129259762Y-136942318D01*
X129259768Y-136942321D01*
X129259769Y-136942322D01*
X129432749Y-137013973D01*
X129616379Y-137050499D01*
X129616383Y-137050500D01*
X129616384Y-137050500D01*
X129803617Y-137050500D01*
X129803618Y-137050499D01*
X129987251Y-137013973D01*
X130160231Y-136942322D01*
X130315908Y-136838302D01*
X130315911Y-136838299D01*
X130346127Y-136808084D01*
X130448299Y-136705911D01*
X130448302Y-136705908D01*
X130552322Y-136550231D01*
X130623973Y-136377251D01*
X130660500Y-136193616D01*
X130660500Y-136006384D01*
X130660500Y-136006383D01*
X130660500Y-136006381D01*
X130658550Y-135996579D01*
X131200000Y-135996579D01*
X131200000Y-136203420D01*
X131240348Y-136406266D01*
X131240350Y-136406274D01*
X131319502Y-136597363D01*
X131319502Y-136597364D01*
X131408021Y-136729843D01*
X131408023Y-136729843D01*
X131879533Y-136258333D01*
X131929920Y-136345606D01*
X132004394Y-136420080D01*
X132091665Y-136470465D01*
X131620155Y-136941975D01*
X131752631Y-137030494D01*
X131752641Y-137030499D01*
X131943725Y-137109649D01*
X131943733Y-137109651D01*
X132146579Y-137149999D01*
X132146583Y-137150000D01*
X132353417Y-137150000D01*
X132353420Y-137149999D01*
X132556266Y-137109651D01*
X132556274Y-137109649D01*
X132747359Y-137030499D01*
X132879844Y-136941976D01*
X132408334Y-136470465D01*
X132495606Y-136420080D01*
X132570080Y-136345606D01*
X132620466Y-136258334D01*
X133091976Y-136729844D01*
X133180499Y-136597359D01*
X133259649Y-136406274D01*
X133259651Y-136406266D01*
X133299999Y-136203420D01*
X133300000Y-136203417D01*
X133300000Y-136006379D01*
X133839500Y-136006379D01*
X133839500Y-136193620D01*
X133876025Y-136377243D01*
X133876027Y-136377251D01*
X133947676Y-136550228D01*
X133947681Y-136550237D01*
X134051697Y-136705907D01*
X134051700Y-136705911D01*
X134184088Y-136838299D01*
X134184092Y-136838302D01*
X134339762Y-136942318D01*
X134339768Y-136942321D01*
X134339769Y-136942322D01*
X134512749Y-137013973D01*
X134696379Y-137050499D01*
X134696383Y-137050500D01*
X134696384Y-137050500D01*
X134883617Y-137050500D01*
X134883618Y-137050499D01*
X135067251Y-137013973D01*
X135240231Y-136942322D01*
X135395908Y-136838302D01*
X135528302Y-136705908D01*
X135632322Y-136550231D01*
X135703973Y-136377251D01*
X135740500Y-136193616D01*
X135740500Y-136006384D01*
X135740499Y-136006381D01*
X135740499Y-136006379D01*
X136379500Y-136006379D01*
X136379500Y-136193620D01*
X136416025Y-136377243D01*
X136416027Y-136377251D01*
X136487676Y-136550228D01*
X136487681Y-136550237D01*
X136591697Y-136705907D01*
X136591700Y-136705911D01*
X136724088Y-136838299D01*
X136724092Y-136838302D01*
X136879762Y-136942318D01*
X136879768Y-136942321D01*
X136879769Y-136942322D01*
X137052749Y-137013973D01*
X137236379Y-137050499D01*
X137236383Y-137050500D01*
X137236384Y-137050500D01*
X137423617Y-137050500D01*
X137423618Y-137050499D01*
X137607251Y-137013973D01*
X137780231Y-136942322D01*
X137935908Y-136838302D01*
X138068302Y-136705908D01*
X138172322Y-136550231D01*
X138243973Y-136377251D01*
X138280500Y-136193616D01*
X138280500Y-136006384D01*
X138280499Y-136006381D01*
X138280499Y-136006379D01*
X138919500Y-136006379D01*
X138919500Y-136193620D01*
X138956025Y-136377243D01*
X138956027Y-136377251D01*
X139027676Y-136550228D01*
X139027681Y-136550237D01*
X139131697Y-136705907D01*
X139131700Y-136705911D01*
X139264088Y-136838299D01*
X139264092Y-136838302D01*
X139419762Y-136942318D01*
X139419768Y-136942321D01*
X139419769Y-136942322D01*
X139592749Y-137013973D01*
X139776379Y-137050499D01*
X139776383Y-137050500D01*
X139776384Y-137050500D01*
X139963617Y-137050500D01*
X139963618Y-137050499D01*
X140147251Y-137013973D01*
X140320231Y-136942322D01*
X140475908Y-136838302D01*
X140608302Y-136705908D01*
X140712322Y-136550231D01*
X140783973Y-136377251D01*
X140820500Y-136193616D01*
X140820500Y-136006384D01*
X140820499Y-136006381D01*
X140820499Y-136006379D01*
X141459500Y-136006379D01*
X141459500Y-136193620D01*
X141496025Y-136377243D01*
X141496027Y-136377251D01*
X141567676Y-136550228D01*
X141567681Y-136550237D01*
X141671697Y-136705907D01*
X141671700Y-136705911D01*
X141804088Y-136838299D01*
X141804092Y-136838302D01*
X141959762Y-136942318D01*
X141959768Y-136942321D01*
X141959769Y-136942322D01*
X142132749Y-137013973D01*
X142316379Y-137050499D01*
X142316383Y-137050500D01*
X142316384Y-137050500D01*
X142503617Y-137050500D01*
X142503618Y-137050499D01*
X142687251Y-137013973D01*
X142860231Y-136942322D01*
X143015908Y-136838302D01*
X143148302Y-136705908D01*
X143252322Y-136550231D01*
X143323973Y-136377251D01*
X143360500Y-136193616D01*
X143360500Y-136006384D01*
X143360499Y-136006381D01*
X143360499Y-136006379D01*
X143999500Y-136006379D01*
X143999500Y-136193620D01*
X144036025Y-136377243D01*
X144036027Y-136377251D01*
X144107676Y-136550228D01*
X144107681Y-136550237D01*
X144211697Y-136705907D01*
X144211700Y-136705911D01*
X144344088Y-136838299D01*
X144344092Y-136838302D01*
X144499762Y-136942318D01*
X144499768Y-136942321D01*
X144499769Y-136942322D01*
X144672749Y-137013973D01*
X144856379Y-137050499D01*
X144856383Y-137050500D01*
X144856384Y-137050500D01*
X145043617Y-137050500D01*
X145043618Y-137050499D01*
X145227251Y-137013973D01*
X145400231Y-136942322D01*
X145555908Y-136838302D01*
X145688302Y-136705908D01*
X145792322Y-136550231D01*
X145863973Y-136377251D01*
X145900500Y-136193616D01*
X145900500Y-136006384D01*
X145900499Y-136006381D01*
X145900499Y-136006379D01*
X146539500Y-136006379D01*
X146539500Y-136193620D01*
X146576025Y-136377243D01*
X146576027Y-136377251D01*
X146647676Y-136550228D01*
X146647681Y-136550237D01*
X146751697Y-136705907D01*
X146751700Y-136705911D01*
X146884088Y-136838299D01*
X146884092Y-136838302D01*
X147039762Y-136942318D01*
X147039768Y-136942321D01*
X147039769Y-136942322D01*
X147212749Y-137013973D01*
X147396379Y-137050499D01*
X147396383Y-137050500D01*
X147396384Y-137050500D01*
X147583617Y-137050500D01*
X147583618Y-137050499D01*
X147767251Y-137013973D01*
X147940231Y-136942322D01*
X148095908Y-136838302D01*
X148228302Y-136705908D01*
X148332322Y-136550231D01*
X148403973Y-136377251D01*
X148440500Y-136193616D01*
X148440500Y-136006384D01*
X148440499Y-136006381D01*
X148440499Y-136006379D01*
X149079500Y-136006379D01*
X149079500Y-136193620D01*
X149116025Y-136377243D01*
X149116027Y-136377251D01*
X149187676Y-136550228D01*
X149187681Y-136550237D01*
X149291697Y-136705907D01*
X149291700Y-136705911D01*
X149424088Y-136838299D01*
X149424092Y-136838302D01*
X149579762Y-136942318D01*
X149579768Y-136942321D01*
X149579769Y-136942322D01*
X149752749Y-137013973D01*
X149936379Y-137050499D01*
X149936383Y-137050500D01*
X149936384Y-137050500D01*
X150123617Y-137050500D01*
X150123618Y-137050499D01*
X150307251Y-137013973D01*
X150480231Y-136942322D01*
X150635908Y-136838302D01*
X150768302Y-136705908D01*
X150872322Y-136550231D01*
X150943973Y-136377251D01*
X150980500Y-136193616D01*
X150980500Y-136006384D01*
X150980499Y-136006381D01*
X150980499Y-136006379D01*
X151619500Y-136006379D01*
X151619500Y-136193620D01*
X151656025Y-136377243D01*
X151656027Y-136377251D01*
X151727676Y-136550228D01*
X151727681Y-136550237D01*
X151831697Y-136705907D01*
X151831700Y-136705911D01*
X151964088Y-136838299D01*
X151964092Y-136838302D01*
X152119762Y-136942318D01*
X152119768Y-136942321D01*
X152119769Y-136942322D01*
X152292749Y-137013973D01*
X152476379Y-137050499D01*
X152476383Y-137050500D01*
X152476384Y-137050500D01*
X152663617Y-137050500D01*
X152663618Y-137050499D01*
X152847251Y-137013973D01*
X153020231Y-136942322D01*
X153175908Y-136838302D01*
X153308302Y-136705908D01*
X153412322Y-136550231D01*
X153483973Y-136377251D01*
X153520500Y-136193616D01*
X153520500Y-136006384D01*
X153520499Y-136006381D01*
X153520499Y-136006379D01*
X154159500Y-136006379D01*
X154159500Y-136193620D01*
X154196025Y-136377243D01*
X154196027Y-136377251D01*
X154267676Y-136550228D01*
X154267681Y-136550237D01*
X154371697Y-136705907D01*
X154371700Y-136705911D01*
X154504088Y-136838299D01*
X154504092Y-136838302D01*
X154659762Y-136942318D01*
X154659768Y-136942321D01*
X154659769Y-136942322D01*
X154832749Y-137013973D01*
X155016379Y-137050499D01*
X155016383Y-137050500D01*
X155016384Y-137050500D01*
X155203617Y-137050500D01*
X155203618Y-137050499D01*
X155387251Y-137013973D01*
X155560231Y-136942322D01*
X155715908Y-136838302D01*
X155848302Y-136705908D01*
X155952322Y-136550231D01*
X156023973Y-136377251D01*
X156060500Y-136193616D01*
X156060500Y-136006384D01*
X156060499Y-136006381D01*
X156060499Y-136006379D01*
X156699500Y-136006379D01*
X156699500Y-136193620D01*
X156736025Y-136377243D01*
X156736027Y-136377251D01*
X156807676Y-136550228D01*
X156807681Y-136550237D01*
X156911697Y-136705907D01*
X156911700Y-136705911D01*
X157044088Y-136838299D01*
X157044092Y-136838302D01*
X157199762Y-136942318D01*
X157199768Y-136942321D01*
X157199769Y-136942322D01*
X157372749Y-137013973D01*
X157556379Y-137050499D01*
X157556383Y-137050500D01*
X157556384Y-137050500D01*
X157743617Y-137050500D01*
X157743618Y-137050499D01*
X157927251Y-137013973D01*
X158100231Y-136942322D01*
X158255908Y-136838302D01*
X158388302Y-136705908D01*
X158492322Y-136550231D01*
X158563973Y-136377251D01*
X158600500Y-136193616D01*
X158600500Y-136006384D01*
X158600499Y-136006381D01*
X158600499Y-136006379D01*
X159239500Y-136006379D01*
X159239500Y-136193620D01*
X159276025Y-136377243D01*
X159276027Y-136377251D01*
X159347676Y-136550228D01*
X159347681Y-136550237D01*
X159451697Y-136705907D01*
X159451700Y-136705911D01*
X159584088Y-136838299D01*
X159584092Y-136838302D01*
X159739762Y-136942318D01*
X159739768Y-136942321D01*
X159739769Y-136942322D01*
X159912749Y-137013973D01*
X160096379Y-137050499D01*
X160096383Y-137050500D01*
X160096384Y-137050500D01*
X160283617Y-137050500D01*
X160283618Y-137050499D01*
X160467251Y-137013973D01*
X160640231Y-136942322D01*
X160795908Y-136838302D01*
X160928302Y-136705908D01*
X161032322Y-136550231D01*
X161103973Y-136377251D01*
X161140500Y-136193616D01*
X161140500Y-136006384D01*
X161140499Y-136006381D01*
X161140499Y-136006379D01*
X161779500Y-136006379D01*
X161779500Y-136193620D01*
X161816025Y-136377243D01*
X161816027Y-136377251D01*
X161887676Y-136550228D01*
X161887681Y-136550237D01*
X161991697Y-136705907D01*
X161991700Y-136705911D01*
X162124088Y-136838299D01*
X162124092Y-136838302D01*
X162279762Y-136942318D01*
X162279768Y-136942321D01*
X162279769Y-136942322D01*
X162452749Y-137013973D01*
X162636379Y-137050499D01*
X162636383Y-137050500D01*
X162636384Y-137050500D01*
X162823617Y-137050500D01*
X162823618Y-137050499D01*
X163007251Y-137013973D01*
X163180231Y-136942322D01*
X163335908Y-136838302D01*
X163468302Y-136705908D01*
X163572322Y-136550231D01*
X163643973Y-136377251D01*
X163680500Y-136193616D01*
X163680500Y-136006384D01*
X163680499Y-136006381D01*
X163680499Y-136006379D01*
X164319500Y-136006379D01*
X164319500Y-136193620D01*
X164356025Y-136377243D01*
X164356027Y-136377251D01*
X164427676Y-136550228D01*
X164427681Y-136550237D01*
X164531697Y-136705907D01*
X164531700Y-136705911D01*
X164664088Y-136838299D01*
X164664092Y-136838302D01*
X164819762Y-136942318D01*
X164819768Y-136942321D01*
X164819769Y-136942322D01*
X164992749Y-137013973D01*
X165176379Y-137050499D01*
X165176383Y-137050500D01*
X165176384Y-137050500D01*
X165363617Y-137050500D01*
X165363618Y-137050499D01*
X165547251Y-137013973D01*
X165720231Y-136942322D01*
X165875908Y-136838302D01*
X166008302Y-136705908D01*
X166112322Y-136550231D01*
X166183973Y-136377251D01*
X166220500Y-136193616D01*
X166220500Y-136006384D01*
X166220499Y-136006381D01*
X166220499Y-136006379D01*
X166859500Y-136006379D01*
X166859500Y-136193620D01*
X166896025Y-136377243D01*
X166896027Y-136377251D01*
X166967676Y-136550228D01*
X166967681Y-136550237D01*
X167071697Y-136705907D01*
X167071700Y-136705911D01*
X167204088Y-136838299D01*
X167204092Y-136838302D01*
X167359762Y-136942318D01*
X167359768Y-136942321D01*
X167359769Y-136942322D01*
X167532749Y-137013973D01*
X167716379Y-137050499D01*
X167716383Y-137050500D01*
X167716384Y-137050500D01*
X167903617Y-137050500D01*
X167903618Y-137050499D01*
X168087251Y-137013973D01*
X168260231Y-136942322D01*
X168415908Y-136838302D01*
X168548302Y-136705908D01*
X168652322Y-136550231D01*
X168723973Y-136377251D01*
X168760500Y-136193616D01*
X168760500Y-136006384D01*
X168760499Y-136006381D01*
X168760499Y-136006379D01*
X168758550Y-135996579D01*
X168723973Y-135822749D01*
X168652322Y-135649769D01*
X168652321Y-135649768D01*
X168652318Y-135649762D01*
X168548302Y-135494092D01*
X168548299Y-135494088D01*
X168415911Y-135361700D01*
X168415907Y-135361697D01*
X168260237Y-135257681D01*
X168260228Y-135257676D01*
X168087251Y-135186027D01*
X168087243Y-135186025D01*
X167903620Y-135149500D01*
X167903616Y-135149500D01*
X167716384Y-135149500D01*
X167716379Y-135149500D01*
X167532756Y-135186025D01*
X167532748Y-135186027D01*
X167359771Y-135257676D01*
X167359762Y-135257681D01*
X167204092Y-135361697D01*
X167204088Y-135361700D01*
X167071700Y-135494088D01*
X167071697Y-135494092D01*
X166967681Y-135649762D01*
X166967676Y-135649771D01*
X166896027Y-135822748D01*
X166896025Y-135822756D01*
X166859500Y-136006379D01*
X166220499Y-136006379D01*
X166218550Y-135996579D01*
X166183973Y-135822749D01*
X166112322Y-135649769D01*
X166112321Y-135649768D01*
X166112318Y-135649762D01*
X166008302Y-135494092D01*
X166008299Y-135494088D01*
X165875911Y-135361700D01*
X165875907Y-135361697D01*
X165720237Y-135257681D01*
X165720228Y-135257676D01*
X165547251Y-135186027D01*
X165547243Y-135186025D01*
X165363620Y-135149500D01*
X165363616Y-135149500D01*
X165176384Y-135149500D01*
X165176379Y-135149500D01*
X164992756Y-135186025D01*
X164992748Y-135186027D01*
X164819771Y-135257676D01*
X164819762Y-135257681D01*
X164664092Y-135361697D01*
X164664088Y-135361700D01*
X164531700Y-135494088D01*
X164531697Y-135494092D01*
X164427681Y-135649762D01*
X164427676Y-135649771D01*
X164356027Y-135822748D01*
X164356025Y-135822756D01*
X164319500Y-136006379D01*
X163680499Y-136006379D01*
X163678550Y-135996579D01*
X163643973Y-135822749D01*
X163572322Y-135649769D01*
X163572321Y-135649768D01*
X163572318Y-135649762D01*
X163468302Y-135494092D01*
X163468299Y-135494088D01*
X163335911Y-135361700D01*
X163335907Y-135361697D01*
X163180237Y-135257681D01*
X163180228Y-135257676D01*
X163007251Y-135186027D01*
X163007243Y-135186025D01*
X162823620Y-135149500D01*
X162823616Y-135149500D01*
X162636384Y-135149500D01*
X162636379Y-135149500D01*
X162452756Y-135186025D01*
X162452748Y-135186027D01*
X162279771Y-135257676D01*
X162279762Y-135257681D01*
X162124092Y-135361697D01*
X162124088Y-135361700D01*
X161991700Y-135494088D01*
X161991697Y-135494092D01*
X161887681Y-135649762D01*
X161887676Y-135649771D01*
X161816027Y-135822748D01*
X161816025Y-135822756D01*
X161779500Y-136006379D01*
X161140499Y-136006379D01*
X161138550Y-135996579D01*
X161103973Y-135822749D01*
X161032322Y-135649769D01*
X161032321Y-135649768D01*
X161032318Y-135649762D01*
X160928302Y-135494092D01*
X160928299Y-135494088D01*
X160795911Y-135361700D01*
X160795907Y-135361697D01*
X160640237Y-135257681D01*
X160640228Y-135257676D01*
X160467251Y-135186027D01*
X160467243Y-135186025D01*
X160283620Y-135149500D01*
X160283616Y-135149500D01*
X160096384Y-135149500D01*
X160096379Y-135149500D01*
X159912756Y-135186025D01*
X159912748Y-135186027D01*
X159739771Y-135257676D01*
X159739762Y-135257681D01*
X159584092Y-135361697D01*
X159584088Y-135361700D01*
X159451700Y-135494088D01*
X159451697Y-135494092D01*
X159347681Y-135649762D01*
X159347676Y-135649771D01*
X159276027Y-135822748D01*
X159276025Y-135822756D01*
X159239500Y-136006379D01*
X158600499Y-136006379D01*
X158598550Y-135996579D01*
X158563973Y-135822749D01*
X158492322Y-135649769D01*
X158492321Y-135649768D01*
X158492318Y-135649762D01*
X158388302Y-135494092D01*
X158388299Y-135494088D01*
X158255911Y-135361700D01*
X158255907Y-135361697D01*
X158100237Y-135257681D01*
X158100228Y-135257676D01*
X157927251Y-135186027D01*
X157927243Y-135186025D01*
X157743620Y-135149500D01*
X157743616Y-135149500D01*
X157556384Y-135149500D01*
X157556379Y-135149500D01*
X157372756Y-135186025D01*
X157372748Y-135186027D01*
X157199771Y-135257676D01*
X157199762Y-135257681D01*
X157044092Y-135361697D01*
X157044088Y-135361700D01*
X156911700Y-135494088D01*
X156911697Y-135494092D01*
X156807681Y-135649762D01*
X156807676Y-135649771D01*
X156736027Y-135822748D01*
X156736025Y-135822756D01*
X156699500Y-136006379D01*
X156060499Y-136006379D01*
X156058550Y-135996579D01*
X156023973Y-135822749D01*
X155952322Y-135649769D01*
X155952321Y-135649768D01*
X155952318Y-135649762D01*
X155848302Y-135494092D01*
X155848299Y-135494088D01*
X155715911Y-135361700D01*
X155715907Y-135361697D01*
X155560237Y-135257681D01*
X155560228Y-135257676D01*
X155387251Y-135186027D01*
X155387243Y-135186025D01*
X155203620Y-135149500D01*
X155203616Y-135149500D01*
X155016384Y-135149500D01*
X155016379Y-135149500D01*
X154832756Y-135186025D01*
X154832748Y-135186027D01*
X154659771Y-135257676D01*
X154659762Y-135257681D01*
X154504092Y-135361697D01*
X154504088Y-135361700D01*
X154371700Y-135494088D01*
X154371697Y-135494092D01*
X154267681Y-135649762D01*
X154267676Y-135649771D01*
X154196027Y-135822748D01*
X154196025Y-135822756D01*
X154159500Y-136006379D01*
X153520499Y-136006379D01*
X153518550Y-135996579D01*
X153483973Y-135822749D01*
X153412322Y-135649769D01*
X153412321Y-135649768D01*
X153412318Y-135649762D01*
X153308302Y-135494092D01*
X153308299Y-135494088D01*
X153175911Y-135361700D01*
X153175907Y-135361697D01*
X153020237Y-135257681D01*
X153020228Y-135257676D01*
X152847251Y-135186027D01*
X152847243Y-135186025D01*
X152663620Y-135149500D01*
X152663616Y-135149500D01*
X152476384Y-135149500D01*
X152476379Y-135149500D01*
X152292756Y-135186025D01*
X152292748Y-135186027D01*
X152119771Y-135257676D01*
X152119762Y-135257681D01*
X151964092Y-135361697D01*
X151964088Y-135361700D01*
X151831700Y-135494088D01*
X151831697Y-135494092D01*
X151727681Y-135649762D01*
X151727676Y-135649771D01*
X151656027Y-135822748D01*
X151656025Y-135822756D01*
X151619500Y-136006379D01*
X150980499Y-136006379D01*
X150978550Y-135996579D01*
X150943973Y-135822749D01*
X150872322Y-135649769D01*
X150872321Y-135649768D01*
X150872318Y-135649762D01*
X150768302Y-135494092D01*
X150768299Y-135494088D01*
X150635911Y-135361700D01*
X150635907Y-135361697D01*
X150480237Y-135257681D01*
X150480228Y-135257676D01*
X150307251Y-135186027D01*
X150307243Y-135186025D01*
X150123620Y-135149500D01*
X150123616Y-135149500D01*
X149936384Y-135149500D01*
X149936379Y-135149500D01*
X149752756Y-135186025D01*
X149752748Y-135186027D01*
X149579771Y-135257676D01*
X149579762Y-135257681D01*
X149424092Y-135361697D01*
X149424088Y-135361700D01*
X149291700Y-135494088D01*
X149291697Y-135494092D01*
X149187681Y-135649762D01*
X149187676Y-135649771D01*
X149116027Y-135822748D01*
X149116025Y-135822756D01*
X149079500Y-136006379D01*
X148440499Y-136006379D01*
X148438550Y-135996579D01*
X148403973Y-135822749D01*
X148332322Y-135649769D01*
X148332321Y-135649768D01*
X148332318Y-135649762D01*
X148228302Y-135494092D01*
X148228299Y-135494088D01*
X148095911Y-135361700D01*
X148095907Y-135361697D01*
X147940237Y-135257681D01*
X147940228Y-135257676D01*
X147767251Y-135186027D01*
X147767243Y-135186025D01*
X147583620Y-135149500D01*
X147583616Y-135149500D01*
X147396384Y-135149500D01*
X147396379Y-135149500D01*
X147212756Y-135186025D01*
X147212748Y-135186027D01*
X147039771Y-135257676D01*
X147039762Y-135257681D01*
X146884092Y-135361697D01*
X146884088Y-135361700D01*
X146751700Y-135494088D01*
X146751697Y-135494092D01*
X146647681Y-135649762D01*
X146647676Y-135649771D01*
X146576027Y-135822748D01*
X146576025Y-135822756D01*
X146539500Y-136006379D01*
X145900499Y-136006379D01*
X145898550Y-135996579D01*
X145863973Y-135822749D01*
X145792322Y-135649769D01*
X145792321Y-135649768D01*
X145792318Y-135649762D01*
X145688302Y-135494092D01*
X145688299Y-135494088D01*
X145555911Y-135361700D01*
X145555907Y-135361697D01*
X145400237Y-135257681D01*
X145400228Y-135257676D01*
X145227251Y-135186027D01*
X145227243Y-135186025D01*
X145043620Y-135149500D01*
X145043616Y-135149500D01*
X144856384Y-135149500D01*
X144856379Y-135149500D01*
X144672756Y-135186025D01*
X144672748Y-135186027D01*
X144499771Y-135257676D01*
X144499762Y-135257681D01*
X144344092Y-135361697D01*
X144344088Y-135361700D01*
X144211700Y-135494088D01*
X144211697Y-135494092D01*
X144107681Y-135649762D01*
X144107676Y-135649771D01*
X144036027Y-135822748D01*
X144036025Y-135822756D01*
X143999500Y-136006379D01*
X143360499Y-136006379D01*
X143358550Y-135996579D01*
X143323973Y-135822749D01*
X143252322Y-135649769D01*
X143252321Y-135649768D01*
X143252318Y-135649762D01*
X143148302Y-135494092D01*
X143148299Y-135494088D01*
X143015911Y-135361700D01*
X143015907Y-135361697D01*
X142860237Y-135257681D01*
X142860228Y-135257676D01*
X142687251Y-135186027D01*
X142687243Y-135186025D01*
X142503620Y-135149500D01*
X142503616Y-135149500D01*
X142316384Y-135149500D01*
X142316379Y-135149500D01*
X142132756Y-135186025D01*
X142132748Y-135186027D01*
X141959771Y-135257676D01*
X141959762Y-135257681D01*
X141804092Y-135361697D01*
X141804088Y-135361700D01*
X141671700Y-135494088D01*
X141671697Y-135494092D01*
X141567681Y-135649762D01*
X141567676Y-135649771D01*
X141496027Y-135822748D01*
X141496025Y-135822756D01*
X141459500Y-136006379D01*
X140820499Y-136006379D01*
X140818550Y-135996579D01*
X140783973Y-135822749D01*
X140712322Y-135649769D01*
X140712321Y-135649768D01*
X140712318Y-135649762D01*
X140608302Y-135494092D01*
X140608299Y-135494088D01*
X140475911Y-135361700D01*
X140475907Y-135361697D01*
X140320237Y-135257681D01*
X140320228Y-135257676D01*
X140147251Y-135186027D01*
X140147243Y-135186025D01*
X139963620Y-135149500D01*
X139963616Y-135149500D01*
X139776384Y-135149500D01*
X139776379Y-135149500D01*
X139592756Y-135186025D01*
X139592748Y-135186027D01*
X139419771Y-135257676D01*
X139419762Y-135257681D01*
X139264092Y-135361697D01*
X139264088Y-135361700D01*
X139131700Y-135494088D01*
X139131697Y-135494092D01*
X139027681Y-135649762D01*
X139027676Y-135649771D01*
X138956027Y-135822748D01*
X138956025Y-135822756D01*
X138919500Y-136006379D01*
X138280499Y-136006379D01*
X138278550Y-135996579D01*
X138243973Y-135822749D01*
X138172322Y-135649769D01*
X138172321Y-135649768D01*
X138172318Y-135649762D01*
X138068302Y-135494092D01*
X138068299Y-135494088D01*
X137935911Y-135361700D01*
X137935907Y-135361697D01*
X137780237Y-135257681D01*
X137780228Y-135257676D01*
X137607251Y-135186027D01*
X137607243Y-135186025D01*
X137423620Y-135149500D01*
X137423616Y-135149500D01*
X137236384Y-135149500D01*
X137236379Y-135149500D01*
X137052756Y-135186025D01*
X137052748Y-135186027D01*
X136879771Y-135257676D01*
X136879762Y-135257681D01*
X136724092Y-135361697D01*
X136724088Y-135361700D01*
X136591700Y-135494088D01*
X136591697Y-135494092D01*
X136487681Y-135649762D01*
X136487676Y-135649771D01*
X136416027Y-135822748D01*
X136416025Y-135822756D01*
X136379500Y-136006379D01*
X135740499Y-136006379D01*
X135738550Y-135996579D01*
X135703973Y-135822749D01*
X135632322Y-135649769D01*
X135632321Y-135649768D01*
X135632318Y-135649762D01*
X135528302Y-135494092D01*
X135528299Y-135494088D01*
X135395911Y-135361700D01*
X135395907Y-135361697D01*
X135240237Y-135257681D01*
X135240228Y-135257676D01*
X135067251Y-135186027D01*
X135067243Y-135186025D01*
X134883620Y-135149500D01*
X134883616Y-135149500D01*
X134696384Y-135149500D01*
X134696379Y-135149500D01*
X134512756Y-135186025D01*
X134512748Y-135186027D01*
X134339771Y-135257676D01*
X134339762Y-135257681D01*
X134184092Y-135361697D01*
X134184088Y-135361700D01*
X134051700Y-135494088D01*
X134051697Y-135494092D01*
X133947681Y-135649762D01*
X133947676Y-135649771D01*
X133876027Y-135822748D01*
X133876025Y-135822756D01*
X133839500Y-136006379D01*
X133300000Y-136006379D01*
X133300000Y-135996583D01*
X133299999Y-135996579D01*
X133259651Y-135793733D01*
X133259649Y-135793725D01*
X133180499Y-135602641D01*
X133180494Y-135602631D01*
X133091975Y-135470155D01*
X132620465Y-135941665D01*
X132570080Y-135854394D01*
X132495606Y-135779920D01*
X132408334Y-135729533D01*
X132879843Y-135258023D01*
X132879843Y-135258021D01*
X132747363Y-135169502D01*
X132556274Y-135090350D01*
X132556266Y-135090348D01*
X132353420Y-135050000D01*
X132146579Y-135050000D01*
X131943733Y-135090348D01*
X131943725Y-135090350D01*
X131752639Y-135169501D01*
X131620155Y-135258023D01*
X131620154Y-135258023D01*
X132091665Y-135729533D01*
X132004394Y-135779920D01*
X131929920Y-135854394D01*
X131879534Y-135941665D01*
X131408023Y-135470154D01*
X131408023Y-135470155D01*
X131319501Y-135602639D01*
X131240350Y-135793725D01*
X131240348Y-135793733D01*
X131200000Y-135996579D01*
X130658550Y-135996579D01*
X130636926Y-135887868D01*
X130623973Y-135822749D01*
X130552322Y-135649769D01*
X130552321Y-135649768D01*
X130552318Y-135649762D01*
X130448302Y-135494092D01*
X130448299Y-135494088D01*
X130315911Y-135361700D01*
X130315907Y-135361697D01*
X130160237Y-135257681D01*
X130160228Y-135257676D01*
X129987251Y-135186027D01*
X129987243Y-135186025D01*
X129803620Y-135149500D01*
X129803616Y-135149500D01*
X129616384Y-135149500D01*
X129616379Y-135149500D01*
X129432756Y-135186025D01*
X129432748Y-135186027D01*
X129259771Y-135257676D01*
X129259762Y-135257681D01*
X129104092Y-135361697D01*
X129104088Y-135361700D01*
X128971700Y-135494088D01*
X128971697Y-135494092D01*
X128867681Y-135649762D01*
X128867676Y-135649771D01*
X128796027Y-135822748D01*
X128796025Y-135822756D01*
X128759500Y-136006379D01*
X128120499Y-136006379D01*
X128118550Y-135996579D01*
X128083973Y-135822749D01*
X128012322Y-135649769D01*
X128012321Y-135649768D01*
X128012318Y-135649762D01*
X127908302Y-135494092D01*
X127908299Y-135494088D01*
X127775911Y-135361700D01*
X127775907Y-135361697D01*
X127620237Y-135257681D01*
X127620228Y-135257676D01*
X127447251Y-135186027D01*
X127447243Y-135186025D01*
X127263620Y-135149500D01*
X127263616Y-135149500D01*
X127076384Y-135149500D01*
X127076379Y-135149500D01*
X126892756Y-135186025D01*
X126892748Y-135186027D01*
X126719771Y-135257676D01*
X126719762Y-135257681D01*
X126564092Y-135361697D01*
X126564088Y-135361700D01*
X126431700Y-135494088D01*
X126431697Y-135494092D01*
X126327681Y-135649762D01*
X126327676Y-135649771D01*
X126256027Y-135822748D01*
X126256025Y-135822756D01*
X126219500Y-136006379D01*
X125580499Y-136006379D01*
X125578550Y-135996579D01*
X125543973Y-135822749D01*
X125472322Y-135649769D01*
X125472321Y-135649768D01*
X125472318Y-135649762D01*
X125368302Y-135494092D01*
X125368299Y-135494088D01*
X125235911Y-135361700D01*
X125235907Y-135361697D01*
X125080237Y-135257681D01*
X125080228Y-135257676D01*
X124907251Y-135186027D01*
X124907243Y-135186025D01*
X124723620Y-135149500D01*
X124723616Y-135149500D01*
X124536384Y-135149500D01*
X124536379Y-135149500D01*
X124352756Y-135186025D01*
X124352748Y-135186027D01*
X124179771Y-135257676D01*
X124179762Y-135257681D01*
X124024092Y-135361697D01*
X124024088Y-135361700D01*
X123891700Y-135494088D01*
X123891697Y-135494092D01*
X123787681Y-135649762D01*
X123787676Y-135649771D01*
X123716027Y-135822748D01*
X123716025Y-135822756D01*
X123679500Y-136006379D01*
X123040499Y-136006379D01*
X123038550Y-135996579D01*
X123003973Y-135822749D01*
X122932322Y-135649769D01*
X122932321Y-135649768D01*
X122932318Y-135649762D01*
X122828302Y-135494092D01*
X122828299Y-135494088D01*
X122695911Y-135361700D01*
X122695907Y-135361697D01*
X122540237Y-135257681D01*
X122540228Y-135257676D01*
X122367251Y-135186027D01*
X122367243Y-135186025D01*
X122183620Y-135149500D01*
X122183616Y-135149500D01*
X121996384Y-135149500D01*
X121996379Y-135149500D01*
X121812756Y-135186025D01*
X121812748Y-135186027D01*
X121639771Y-135257676D01*
X121639762Y-135257681D01*
X121484092Y-135361697D01*
X121484088Y-135361700D01*
X121351700Y-135494088D01*
X121351697Y-135494092D01*
X121247681Y-135649762D01*
X121247676Y-135649771D01*
X121176027Y-135822748D01*
X121176025Y-135822756D01*
X121139500Y-136006379D01*
X120500499Y-136006379D01*
X120498550Y-135996579D01*
X120463973Y-135822749D01*
X120392322Y-135649769D01*
X120392321Y-135649768D01*
X120392318Y-135649762D01*
X120288302Y-135494092D01*
X120288299Y-135494088D01*
X120155911Y-135361700D01*
X120155907Y-135361697D01*
X120000237Y-135257681D01*
X120000228Y-135257676D01*
X119827251Y-135186027D01*
X119827243Y-135186025D01*
X119643620Y-135149500D01*
X119643616Y-135149500D01*
X119456384Y-135149500D01*
X119456379Y-135149500D01*
X119272756Y-135186025D01*
X119272748Y-135186027D01*
X119099771Y-135257676D01*
X119099762Y-135257681D01*
X118944092Y-135361697D01*
X118944088Y-135361700D01*
X118811700Y-135494088D01*
X118811697Y-135494092D01*
X118707681Y-135649762D01*
X118707676Y-135649771D01*
X118636027Y-135822748D01*
X118636025Y-135822756D01*
X118599500Y-136006379D01*
X117960499Y-136006379D01*
X117958550Y-135996579D01*
X117923973Y-135822749D01*
X117852322Y-135649769D01*
X117852321Y-135649768D01*
X117852318Y-135649762D01*
X117748302Y-135494092D01*
X117748299Y-135494088D01*
X117615911Y-135361700D01*
X117615907Y-135361697D01*
X117460237Y-135257681D01*
X117460228Y-135257676D01*
X117287251Y-135186027D01*
X117287243Y-135186025D01*
X117103620Y-135149500D01*
X117103616Y-135149500D01*
X116916384Y-135149500D01*
X116916379Y-135149500D01*
X116732756Y-135186025D01*
X116732748Y-135186027D01*
X116559771Y-135257676D01*
X116559762Y-135257681D01*
X116404092Y-135361697D01*
X116404088Y-135361700D01*
X116271700Y-135494088D01*
X116271697Y-135494092D01*
X116167681Y-135649762D01*
X116167676Y-135649771D01*
X116096027Y-135822748D01*
X116096025Y-135822756D01*
X116059500Y-136006379D01*
X115520000Y-136006379D01*
X115520000Y-135996583D01*
X115519999Y-135996579D01*
X115479651Y-135793733D01*
X115479649Y-135793725D01*
X115400499Y-135602641D01*
X115400494Y-135602631D01*
X115311975Y-135470155D01*
X114840465Y-135941665D01*
X114790080Y-135854394D01*
X114715606Y-135779920D01*
X114628334Y-135729533D01*
X115099843Y-135258023D01*
X115099843Y-135258021D01*
X114967363Y-135169502D01*
X114776274Y-135090350D01*
X114776266Y-135090348D01*
X114573420Y-135050000D01*
X114366579Y-135050000D01*
X114163733Y-135090348D01*
X114163725Y-135090350D01*
X113972639Y-135169501D01*
X113840155Y-135258023D01*
X113840154Y-135258023D01*
X114311665Y-135729533D01*
X114224394Y-135779920D01*
X114149920Y-135854394D01*
X114099534Y-135941665D01*
X113628023Y-135470154D01*
X113628023Y-135470155D01*
X113539501Y-135602639D01*
X113460350Y-135793725D01*
X113460348Y-135793733D01*
X113420000Y-135996579D01*
X112979999Y-135996579D01*
X112939651Y-135793733D01*
X112939649Y-135793725D01*
X112860499Y-135602641D01*
X112860494Y-135602631D01*
X112771975Y-135470155D01*
X112300465Y-135941665D01*
X112250080Y-135854394D01*
X112175606Y-135779920D01*
X112088334Y-135729533D01*
X112559843Y-135258023D01*
X112559843Y-135258021D01*
X112427363Y-135169502D01*
X112236274Y-135090350D01*
X112236266Y-135090348D01*
X112033420Y-135050000D01*
X111826579Y-135050000D01*
X111623733Y-135090348D01*
X111623725Y-135090350D01*
X111432639Y-135169501D01*
X111300155Y-135258023D01*
X111300154Y-135258023D01*
X111771665Y-135729533D01*
X111684394Y-135779920D01*
X111609920Y-135854394D01*
X111559534Y-135941665D01*
X111088023Y-135470154D01*
X111088023Y-135470155D01*
X110999501Y-135602639D01*
X110920350Y-135793725D01*
X110920348Y-135793733D01*
X110880000Y-135996579D01*
X110338550Y-135996579D01*
X110316926Y-135887868D01*
X110303973Y-135822749D01*
X110232322Y-135649769D01*
X110232321Y-135649768D01*
X110232318Y-135649762D01*
X110128302Y-135494092D01*
X110128299Y-135494088D01*
X109995911Y-135361700D01*
X109995907Y-135361697D01*
X109840237Y-135257681D01*
X109840228Y-135257676D01*
X109667251Y-135186027D01*
X109667243Y-135186025D01*
X109483620Y-135149500D01*
X109483616Y-135149500D01*
X109296384Y-135149500D01*
X109296379Y-135149500D01*
X109112756Y-135186025D01*
X109112748Y-135186027D01*
X108939771Y-135257676D01*
X108939762Y-135257681D01*
X108784092Y-135361697D01*
X108784088Y-135361700D01*
X108651700Y-135494088D01*
X108651697Y-135494092D01*
X108547681Y-135649762D01*
X108547676Y-135649771D01*
X108476027Y-135822748D01*
X108476025Y-135822756D01*
X108439500Y-136006379D01*
X107800499Y-136006379D01*
X107798550Y-135996579D01*
X107763973Y-135822749D01*
X107692322Y-135649769D01*
X107692321Y-135649768D01*
X107692318Y-135649762D01*
X107588302Y-135494092D01*
X107588299Y-135494088D01*
X107455911Y-135361700D01*
X107455907Y-135361697D01*
X107300237Y-135257681D01*
X107300228Y-135257676D01*
X107127251Y-135186027D01*
X107127243Y-135186025D01*
X106943620Y-135149500D01*
X106943616Y-135149500D01*
X106756384Y-135149500D01*
X106756379Y-135149500D01*
X106572756Y-135186025D01*
X106572748Y-135186027D01*
X106399771Y-135257676D01*
X106399762Y-135257681D01*
X106244092Y-135361697D01*
X106244088Y-135361700D01*
X106111700Y-135494088D01*
X106111697Y-135494092D01*
X106007681Y-135649762D01*
X106007676Y-135649771D01*
X105936027Y-135822748D01*
X105936025Y-135822756D01*
X105899500Y-136006379D01*
X105260499Y-136006379D01*
X105258550Y-135996579D01*
X105223973Y-135822749D01*
X105152322Y-135649769D01*
X105152321Y-135649768D01*
X105152318Y-135649762D01*
X105048302Y-135494092D01*
X105048299Y-135494088D01*
X104915911Y-135361700D01*
X104915907Y-135361697D01*
X104760237Y-135257681D01*
X104760228Y-135257676D01*
X104587251Y-135186027D01*
X104587243Y-135186025D01*
X104403620Y-135149500D01*
X104403616Y-135149500D01*
X104216384Y-135149500D01*
X104216379Y-135149500D01*
X104032756Y-135186025D01*
X104032748Y-135186027D01*
X103859771Y-135257676D01*
X103859762Y-135257681D01*
X103704092Y-135361697D01*
X103704088Y-135361700D01*
X103571700Y-135494088D01*
X103571697Y-135494092D01*
X103467681Y-135649762D01*
X103467676Y-135649771D01*
X103396027Y-135822748D01*
X103396025Y-135822756D01*
X103359500Y-136006379D01*
X102720499Y-136006379D01*
X102718550Y-135996579D01*
X102683973Y-135822749D01*
X102612322Y-135649769D01*
X102612321Y-135649768D01*
X102612318Y-135649762D01*
X102508302Y-135494092D01*
X102508299Y-135494088D01*
X102375911Y-135361700D01*
X102375907Y-135361697D01*
X102220237Y-135257681D01*
X102220228Y-135257676D01*
X102047251Y-135186027D01*
X102047243Y-135186025D01*
X101863620Y-135149500D01*
X101863616Y-135149500D01*
X101676384Y-135149500D01*
X101676379Y-135149500D01*
X101492756Y-135186025D01*
X101492748Y-135186027D01*
X101319771Y-135257676D01*
X101319762Y-135257681D01*
X101164092Y-135361697D01*
X101164088Y-135361700D01*
X101031700Y-135494088D01*
X101031697Y-135494092D01*
X100927681Y-135649762D01*
X100927676Y-135649771D01*
X100856027Y-135822748D01*
X100856025Y-135822756D01*
X100819500Y-136006379D01*
X100180499Y-136006379D01*
X100178550Y-135996579D01*
X100143973Y-135822749D01*
X100072322Y-135649769D01*
X100072321Y-135649768D01*
X100072318Y-135649762D01*
X99968302Y-135494092D01*
X99968299Y-135494088D01*
X99835911Y-135361700D01*
X99835907Y-135361697D01*
X99680237Y-135257681D01*
X99680228Y-135257676D01*
X99507251Y-135186027D01*
X99507243Y-135186025D01*
X99323620Y-135149500D01*
X99323616Y-135149500D01*
X99136384Y-135149500D01*
X99136379Y-135149500D01*
X98952756Y-135186025D01*
X98952748Y-135186027D01*
X98779771Y-135257676D01*
X98779762Y-135257681D01*
X98624092Y-135361697D01*
X98624088Y-135361700D01*
X98491700Y-135494088D01*
X98491697Y-135494092D01*
X98387681Y-135649762D01*
X98387676Y-135649771D01*
X98316027Y-135822748D01*
X98316025Y-135822756D01*
X98279500Y-136006379D01*
X96350500Y-136006379D01*
X96350500Y-132444108D01*
X110109500Y-132444108D01*
X110109500Y-132575891D01*
X110143608Y-132703187D01*
X110176554Y-132760250D01*
X110209500Y-132817314D01*
X110302686Y-132910500D01*
X110416814Y-132976392D01*
X110544108Y-133010500D01*
X110544110Y-133010500D01*
X110675890Y-133010500D01*
X110675892Y-133010500D01*
X110803186Y-132976392D01*
X110917314Y-132910500D01*
X111010500Y-132817314D01*
X111076392Y-132703186D01*
X111110500Y-132575892D01*
X111110500Y-132444108D01*
X111076392Y-132316814D01*
X111010500Y-132202686D01*
X110917314Y-132109500D01*
X110860250Y-132076554D01*
X110803187Y-132043608D01*
X110739539Y-132026554D01*
X110675892Y-132009500D01*
X110544108Y-132009500D01*
X110416812Y-132043608D01*
X110302686Y-132109500D01*
X110302683Y-132109502D01*
X110209502Y-132202683D01*
X110209500Y-132202686D01*
X110143608Y-132316812D01*
X110109500Y-132444108D01*
X96350500Y-132444108D01*
X96350500Y-130926379D01*
X98279500Y-130926379D01*
X98279500Y-131113620D01*
X98316025Y-131297243D01*
X98316027Y-131297251D01*
X98387676Y-131470228D01*
X98387681Y-131470237D01*
X98491697Y-131625907D01*
X98491700Y-131625911D01*
X98624088Y-131758299D01*
X98624092Y-131758302D01*
X98779762Y-131862318D01*
X98779768Y-131862321D01*
X98779769Y-131862322D01*
X98952749Y-131933973D01*
X99136379Y-131970499D01*
X99136383Y-131970500D01*
X99136384Y-131970500D01*
X99323617Y-131970500D01*
X99323618Y-131970499D01*
X99507251Y-131933973D01*
X99680231Y-131862322D01*
X99835908Y-131758302D01*
X99968302Y-131625908D01*
X100072322Y-131470231D01*
X100143973Y-131297251D01*
X100180500Y-131113616D01*
X100180500Y-130926384D01*
X100180499Y-130926379D01*
X100819500Y-130926379D01*
X100819500Y-131113620D01*
X100856025Y-131297243D01*
X100856027Y-131297251D01*
X100927676Y-131470228D01*
X100927681Y-131470237D01*
X101031697Y-131625907D01*
X101031700Y-131625911D01*
X101164088Y-131758299D01*
X101164092Y-131758302D01*
X101319762Y-131862318D01*
X101319768Y-131862321D01*
X101319769Y-131862322D01*
X101492749Y-131933973D01*
X101676379Y-131970499D01*
X101676383Y-131970500D01*
X101676384Y-131970500D01*
X101863617Y-131970500D01*
X101863618Y-131970499D01*
X102047251Y-131933973D01*
X102220231Y-131862322D01*
X102375908Y-131758302D01*
X102508302Y-131625908D01*
X102612322Y-131470231D01*
X102683973Y-131297251D01*
X102720500Y-131113616D01*
X102720500Y-130926384D01*
X102720499Y-130926379D01*
X103359500Y-130926379D01*
X103359500Y-131113620D01*
X103396025Y-131297243D01*
X103396027Y-131297251D01*
X103467676Y-131470228D01*
X103467681Y-131470237D01*
X103571697Y-131625907D01*
X103571700Y-131625911D01*
X103704088Y-131758299D01*
X103704092Y-131758302D01*
X103859762Y-131862318D01*
X103859768Y-131862321D01*
X103859769Y-131862322D01*
X104032749Y-131933973D01*
X104216379Y-131970499D01*
X104216383Y-131970500D01*
X104216384Y-131970500D01*
X104403617Y-131970500D01*
X104403618Y-131970499D01*
X104587251Y-131933973D01*
X104760231Y-131862322D01*
X104915908Y-131758302D01*
X105048302Y-131625908D01*
X105152322Y-131470231D01*
X105223973Y-131297251D01*
X105260500Y-131113616D01*
X105260500Y-130926384D01*
X105260499Y-130926379D01*
X105899500Y-130926379D01*
X105899500Y-131113620D01*
X105936025Y-131297243D01*
X105936027Y-131297251D01*
X106007676Y-131470228D01*
X106007681Y-131470237D01*
X106111697Y-131625907D01*
X106111700Y-131625911D01*
X106244088Y-131758299D01*
X106244092Y-131758302D01*
X106399762Y-131862318D01*
X106399768Y-131862321D01*
X106399769Y-131862322D01*
X106572749Y-131933973D01*
X106756379Y-131970499D01*
X106756383Y-131970500D01*
X106756384Y-131970500D01*
X106943617Y-131970500D01*
X106943618Y-131970499D01*
X107127251Y-131933973D01*
X107300231Y-131862322D01*
X107455908Y-131758302D01*
X107588302Y-131625908D01*
X107692322Y-131470231D01*
X107763973Y-131297251D01*
X107800500Y-131113616D01*
X107800500Y-130926384D01*
X107800499Y-130926379D01*
X108439500Y-130926379D01*
X108439500Y-131113620D01*
X108476025Y-131297243D01*
X108476027Y-131297251D01*
X108547676Y-131470228D01*
X108547681Y-131470237D01*
X108651697Y-131625907D01*
X108651700Y-131625911D01*
X108784088Y-131758299D01*
X108784092Y-131758302D01*
X108939762Y-131862318D01*
X108939768Y-131862321D01*
X108939769Y-131862322D01*
X109112749Y-131933973D01*
X109296379Y-131970499D01*
X109296383Y-131970500D01*
X109296384Y-131970500D01*
X109483617Y-131970500D01*
X109483618Y-131970499D01*
X109667251Y-131933973D01*
X109840231Y-131862322D01*
X109995908Y-131758302D01*
X110128302Y-131625908D01*
X110232322Y-131470231D01*
X110303973Y-131297251D01*
X110340500Y-131113616D01*
X110340500Y-130926384D01*
X110340499Y-130926379D01*
X110979500Y-130926379D01*
X110979500Y-131113620D01*
X111016025Y-131297243D01*
X111016027Y-131297251D01*
X111087676Y-131470228D01*
X111087681Y-131470237D01*
X111191697Y-131625907D01*
X111191700Y-131625911D01*
X111324088Y-131758299D01*
X111324092Y-131758302D01*
X111479762Y-131862318D01*
X111479768Y-131862321D01*
X111479769Y-131862322D01*
X111652749Y-131933973D01*
X111836379Y-131970499D01*
X111836383Y-131970500D01*
X111836384Y-131970500D01*
X112023617Y-131970500D01*
X112023618Y-131970499D01*
X112207251Y-131933973D01*
X112380231Y-131862322D01*
X112535908Y-131758302D01*
X112668302Y-131625908D01*
X112772322Y-131470231D01*
X112843973Y-131297251D01*
X112880500Y-131113616D01*
X112880500Y-130926384D01*
X112880499Y-130926379D01*
X113519500Y-130926379D01*
X113519500Y-131113620D01*
X113556025Y-131297243D01*
X113556027Y-131297251D01*
X113627676Y-131470228D01*
X113627681Y-131470237D01*
X113731697Y-131625907D01*
X113731700Y-131625911D01*
X113864088Y-131758299D01*
X113864092Y-131758302D01*
X114019762Y-131862318D01*
X114019768Y-131862321D01*
X114019769Y-131862322D01*
X114192749Y-131933973D01*
X114376379Y-131970499D01*
X114376383Y-131970500D01*
X114376384Y-131970500D01*
X114563617Y-131970500D01*
X114563618Y-131970499D01*
X114747251Y-131933973D01*
X114920231Y-131862322D01*
X115075908Y-131758302D01*
X115208302Y-131625908D01*
X115312322Y-131470231D01*
X115383973Y-131297251D01*
X115420500Y-131113616D01*
X115420500Y-130926384D01*
X115420499Y-130926379D01*
X116059500Y-130926379D01*
X116059500Y-131113620D01*
X116096025Y-131297243D01*
X116096027Y-131297251D01*
X116167676Y-131470228D01*
X116167681Y-131470237D01*
X116271697Y-131625907D01*
X116271700Y-131625911D01*
X116404088Y-131758299D01*
X116404092Y-131758302D01*
X116559762Y-131862318D01*
X116559768Y-131862321D01*
X116559769Y-131862322D01*
X116732749Y-131933973D01*
X116916379Y-131970499D01*
X116916383Y-131970500D01*
X116916384Y-131970500D01*
X117103617Y-131970500D01*
X117103618Y-131970499D01*
X117287251Y-131933973D01*
X117460231Y-131862322D01*
X117615908Y-131758302D01*
X117748302Y-131625908D01*
X117852322Y-131470231D01*
X117923973Y-131297251D01*
X117960500Y-131113616D01*
X117960500Y-130926384D01*
X117960499Y-130926379D01*
X118599500Y-130926379D01*
X118599500Y-131113620D01*
X118636025Y-131297243D01*
X118636027Y-131297251D01*
X118707676Y-131470228D01*
X118707681Y-131470237D01*
X118811697Y-131625907D01*
X118811700Y-131625911D01*
X118944088Y-131758299D01*
X118944092Y-131758302D01*
X119099762Y-131862318D01*
X119099768Y-131862321D01*
X119099769Y-131862322D01*
X119272749Y-131933973D01*
X119456379Y-131970499D01*
X119456383Y-131970500D01*
X119456384Y-131970500D01*
X119643617Y-131970500D01*
X119643618Y-131970499D01*
X119827251Y-131933973D01*
X120000231Y-131862322D01*
X120155908Y-131758302D01*
X120288302Y-131625908D01*
X120392322Y-131470231D01*
X120463973Y-131297251D01*
X120500500Y-131113616D01*
X120500500Y-130926384D01*
X120500499Y-130926379D01*
X121139500Y-130926379D01*
X121139500Y-131113620D01*
X121176025Y-131297243D01*
X121176027Y-131297251D01*
X121247676Y-131470228D01*
X121247681Y-131470237D01*
X121351697Y-131625907D01*
X121351700Y-131625911D01*
X121484088Y-131758299D01*
X121484092Y-131758302D01*
X121639762Y-131862318D01*
X121639768Y-131862321D01*
X121639769Y-131862322D01*
X121812749Y-131933973D01*
X121996379Y-131970499D01*
X121996383Y-131970500D01*
X121996384Y-131970500D01*
X122183617Y-131970500D01*
X122183618Y-131970499D01*
X122367251Y-131933973D01*
X122540231Y-131862322D01*
X122695908Y-131758302D01*
X122828302Y-131625908D01*
X122932322Y-131470231D01*
X123003973Y-131297251D01*
X123040500Y-131113616D01*
X123040500Y-130926384D01*
X123040499Y-130926379D01*
X123679500Y-130926379D01*
X123679500Y-131113620D01*
X123716025Y-131297243D01*
X123716027Y-131297251D01*
X123787676Y-131470228D01*
X123787681Y-131470237D01*
X123891697Y-131625907D01*
X123891700Y-131625911D01*
X124024088Y-131758299D01*
X124024092Y-131758302D01*
X124179762Y-131862318D01*
X124179768Y-131862321D01*
X124179769Y-131862322D01*
X124352749Y-131933973D01*
X124536379Y-131970499D01*
X124536383Y-131970500D01*
X124536384Y-131970500D01*
X124723617Y-131970500D01*
X124723618Y-131970499D01*
X124907251Y-131933973D01*
X125080231Y-131862322D01*
X125235908Y-131758302D01*
X125368302Y-131625908D01*
X125472322Y-131470231D01*
X125543973Y-131297251D01*
X125580500Y-131113616D01*
X125580500Y-130926384D01*
X125580499Y-130926379D01*
X126219500Y-130926379D01*
X126219500Y-131113620D01*
X126256025Y-131297243D01*
X126256027Y-131297251D01*
X126327676Y-131470228D01*
X126327681Y-131470237D01*
X126431697Y-131625907D01*
X126431700Y-131625911D01*
X126564088Y-131758299D01*
X126564092Y-131758302D01*
X126719762Y-131862318D01*
X126719768Y-131862321D01*
X126719769Y-131862322D01*
X126892749Y-131933973D01*
X127076379Y-131970499D01*
X127076383Y-131970500D01*
X127076384Y-131970500D01*
X127263617Y-131970500D01*
X127263618Y-131970499D01*
X127447251Y-131933973D01*
X127620231Y-131862322D01*
X127775908Y-131758302D01*
X127908302Y-131625908D01*
X128012322Y-131470231D01*
X128083973Y-131297251D01*
X128120500Y-131113616D01*
X128120500Y-130926384D01*
X128120499Y-130926379D01*
X128759500Y-130926379D01*
X128759500Y-131113620D01*
X128796025Y-131297243D01*
X128796027Y-131297251D01*
X128867676Y-131470228D01*
X128867681Y-131470237D01*
X128971697Y-131625907D01*
X128971700Y-131625911D01*
X129104088Y-131758299D01*
X129104092Y-131758302D01*
X129259762Y-131862318D01*
X129259768Y-131862321D01*
X129259769Y-131862322D01*
X129432749Y-131933973D01*
X129616379Y-131970499D01*
X129616383Y-131970500D01*
X129616384Y-131970500D01*
X129803617Y-131970500D01*
X129803618Y-131970499D01*
X129987251Y-131933973D01*
X130160231Y-131862322D01*
X130315908Y-131758302D01*
X130448302Y-131625908D01*
X130552322Y-131470231D01*
X130623973Y-131297251D01*
X130660500Y-131113616D01*
X130660500Y-130926384D01*
X130660499Y-130926379D01*
X131299500Y-130926379D01*
X131299500Y-131113620D01*
X131336025Y-131297243D01*
X131336027Y-131297251D01*
X131407676Y-131470228D01*
X131407681Y-131470237D01*
X131511697Y-131625907D01*
X131511700Y-131625911D01*
X131644088Y-131758299D01*
X131644092Y-131758302D01*
X131799762Y-131862318D01*
X131799768Y-131862321D01*
X131799769Y-131862322D01*
X131972749Y-131933973D01*
X132156379Y-131970499D01*
X132156383Y-131970500D01*
X132156384Y-131970500D01*
X132343617Y-131970500D01*
X132343618Y-131970499D01*
X132527251Y-131933973D01*
X132700231Y-131862322D01*
X132855908Y-131758302D01*
X132988302Y-131625908D01*
X133092322Y-131470231D01*
X133163973Y-131297251D01*
X133200500Y-131113616D01*
X133200500Y-130926384D01*
X133200499Y-130926379D01*
X133839500Y-130926379D01*
X133839500Y-131113620D01*
X133876025Y-131297243D01*
X133876027Y-131297251D01*
X133947676Y-131470228D01*
X133947681Y-131470237D01*
X134051697Y-131625907D01*
X134051700Y-131625911D01*
X134184088Y-131758299D01*
X134184092Y-131758302D01*
X134339762Y-131862318D01*
X134339768Y-131862321D01*
X134339769Y-131862322D01*
X134512749Y-131933973D01*
X134696379Y-131970499D01*
X134696383Y-131970500D01*
X134696384Y-131970500D01*
X134883617Y-131970500D01*
X134883618Y-131970499D01*
X135067251Y-131933973D01*
X135240231Y-131862322D01*
X135395908Y-131758302D01*
X135528302Y-131625908D01*
X135632322Y-131470231D01*
X135703973Y-131297251D01*
X135740500Y-131113616D01*
X135740500Y-130926384D01*
X135740499Y-130926379D01*
X136379500Y-130926379D01*
X136379500Y-131113620D01*
X136416025Y-131297243D01*
X136416027Y-131297251D01*
X136487676Y-131470228D01*
X136487681Y-131470237D01*
X136591697Y-131625907D01*
X136591700Y-131625911D01*
X136724088Y-131758299D01*
X136724092Y-131758302D01*
X136879762Y-131862318D01*
X136879768Y-131862321D01*
X136879769Y-131862322D01*
X137052749Y-131933973D01*
X137236379Y-131970499D01*
X137236383Y-131970500D01*
X137236384Y-131970500D01*
X137423617Y-131970500D01*
X137423618Y-131970499D01*
X137607251Y-131933973D01*
X137780231Y-131862322D01*
X137935908Y-131758302D01*
X138068302Y-131625908D01*
X138172322Y-131470231D01*
X138243973Y-131297251D01*
X138280500Y-131113616D01*
X138280500Y-130926384D01*
X138280499Y-130926379D01*
X138919500Y-130926379D01*
X138919500Y-131113620D01*
X138956025Y-131297243D01*
X138956027Y-131297251D01*
X139027676Y-131470228D01*
X139027681Y-131470237D01*
X139131697Y-131625907D01*
X139131700Y-131625911D01*
X139264088Y-131758299D01*
X139264092Y-131758302D01*
X139419762Y-131862318D01*
X139419768Y-131862321D01*
X139419769Y-131862322D01*
X139592749Y-131933973D01*
X139776379Y-131970499D01*
X139776383Y-131970500D01*
X139776384Y-131970500D01*
X139963617Y-131970500D01*
X139963618Y-131970499D01*
X140147251Y-131933973D01*
X140320231Y-131862322D01*
X140475908Y-131758302D01*
X140608302Y-131625908D01*
X140712322Y-131470231D01*
X140783973Y-131297251D01*
X140820500Y-131113616D01*
X140820500Y-130926384D01*
X140820499Y-130926379D01*
X141459500Y-130926379D01*
X141459500Y-131113620D01*
X141496025Y-131297243D01*
X141496027Y-131297251D01*
X141567676Y-131470228D01*
X141567681Y-131470237D01*
X141671697Y-131625907D01*
X141671700Y-131625911D01*
X141804088Y-131758299D01*
X141804092Y-131758302D01*
X141959762Y-131862318D01*
X141959768Y-131862321D01*
X141959769Y-131862322D01*
X142132749Y-131933973D01*
X142316379Y-131970499D01*
X142316383Y-131970500D01*
X142316384Y-131970500D01*
X142503617Y-131970500D01*
X142503618Y-131970499D01*
X142687251Y-131933973D01*
X142860231Y-131862322D01*
X143015908Y-131758302D01*
X143148302Y-131625908D01*
X143252322Y-131470231D01*
X143323973Y-131297251D01*
X143360500Y-131113616D01*
X143360500Y-130926384D01*
X143360499Y-130926379D01*
X143999500Y-130926379D01*
X143999500Y-131113620D01*
X144036025Y-131297243D01*
X144036027Y-131297251D01*
X144107676Y-131470228D01*
X144107681Y-131470237D01*
X144211697Y-131625907D01*
X144211700Y-131625911D01*
X144344088Y-131758299D01*
X144344092Y-131758302D01*
X144499762Y-131862318D01*
X144499768Y-131862321D01*
X144499769Y-131862322D01*
X144672749Y-131933973D01*
X144856379Y-131970499D01*
X144856383Y-131970500D01*
X144856384Y-131970500D01*
X145043617Y-131970500D01*
X145043618Y-131970499D01*
X145227251Y-131933973D01*
X145400231Y-131862322D01*
X145555908Y-131758302D01*
X145688302Y-131625908D01*
X145792322Y-131470231D01*
X145863973Y-131297251D01*
X145900500Y-131113616D01*
X145900500Y-130926384D01*
X145900499Y-130926379D01*
X146539500Y-130926379D01*
X146539500Y-131113620D01*
X146576025Y-131297243D01*
X146576027Y-131297251D01*
X146647676Y-131470228D01*
X146647681Y-131470237D01*
X146751697Y-131625907D01*
X146751700Y-131625911D01*
X146884088Y-131758299D01*
X146884092Y-131758302D01*
X147039762Y-131862318D01*
X147039768Y-131862321D01*
X147039769Y-131862322D01*
X147212749Y-131933973D01*
X147396379Y-131970499D01*
X147396383Y-131970500D01*
X147396384Y-131970500D01*
X147583617Y-131970500D01*
X147583618Y-131970499D01*
X147767251Y-131933973D01*
X147940231Y-131862322D01*
X148095908Y-131758302D01*
X148228302Y-131625908D01*
X148332322Y-131470231D01*
X148403973Y-131297251D01*
X148440500Y-131113616D01*
X148440500Y-130926384D01*
X148440499Y-130926379D01*
X149079500Y-130926379D01*
X149079500Y-131113620D01*
X149116025Y-131297243D01*
X149116027Y-131297251D01*
X149187676Y-131470228D01*
X149187681Y-131470237D01*
X149291697Y-131625907D01*
X149291700Y-131625911D01*
X149424088Y-131758299D01*
X149424092Y-131758302D01*
X149579762Y-131862318D01*
X149579768Y-131862321D01*
X149579769Y-131862322D01*
X149752749Y-131933973D01*
X149936379Y-131970499D01*
X149936383Y-131970500D01*
X149936384Y-131970500D01*
X150123617Y-131970500D01*
X150123618Y-131970499D01*
X150307251Y-131933973D01*
X150480231Y-131862322D01*
X150635908Y-131758302D01*
X150768302Y-131625908D01*
X150872322Y-131470231D01*
X150943973Y-131297251D01*
X150980500Y-131113616D01*
X150980500Y-130926384D01*
X150980499Y-130926379D01*
X151619500Y-130926379D01*
X151619500Y-131113620D01*
X151656025Y-131297243D01*
X151656027Y-131297251D01*
X151727676Y-131470228D01*
X151727681Y-131470237D01*
X151831697Y-131625907D01*
X151831700Y-131625911D01*
X151964088Y-131758299D01*
X151964092Y-131758302D01*
X152119762Y-131862318D01*
X152119768Y-131862321D01*
X152119769Y-131862322D01*
X152292749Y-131933973D01*
X152476379Y-131970499D01*
X152476383Y-131970500D01*
X152476384Y-131970500D01*
X152663617Y-131970500D01*
X152663618Y-131970499D01*
X152847251Y-131933973D01*
X153020231Y-131862322D01*
X153175908Y-131758302D01*
X153308302Y-131625908D01*
X153412322Y-131470231D01*
X153483973Y-131297251D01*
X153520500Y-131113616D01*
X153520500Y-130926384D01*
X153520499Y-130926379D01*
X154159500Y-130926379D01*
X154159500Y-131113620D01*
X154196025Y-131297243D01*
X154196027Y-131297251D01*
X154267676Y-131470228D01*
X154267681Y-131470237D01*
X154371697Y-131625907D01*
X154371700Y-131625911D01*
X154504088Y-131758299D01*
X154504092Y-131758302D01*
X154659762Y-131862318D01*
X154659768Y-131862321D01*
X154659769Y-131862322D01*
X154832749Y-131933973D01*
X155016379Y-131970499D01*
X155016383Y-131970500D01*
X155016384Y-131970500D01*
X155203617Y-131970500D01*
X155203618Y-131970499D01*
X155387251Y-131933973D01*
X155560231Y-131862322D01*
X155715908Y-131758302D01*
X155848302Y-131625908D01*
X155952322Y-131470231D01*
X156023973Y-131297251D01*
X156060500Y-131113616D01*
X156060500Y-130926384D01*
X156060499Y-130926379D01*
X156699500Y-130926379D01*
X156699500Y-131113620D01*
X156736025Y-131297243D01*
X156736027Y-131297251D01*
X156807676Y-131470228D01*
X156807681Y-131470237D01*
X156911697Y-131625907D01*
X156911700Y-131625911D01*
X157044088Y-131758299D01*
X157044092Y-131758302D01*
X157199762Y-131862318D01*
X157199768Y-131862321D01*
X157199769Y-131862322D01*
X157372749Y-131933973D01*
X157556379Y-131970499D01*
X157556383Y-131970500D01*
X157556384Y-131970500D01*
X157743617Y-131970500D01*
X157743618Y-131970499D01*
X157927251Y-131933973D01*
X158100231Y-131862322D01*
X158255908Y-131758302D01*
X158388302Y-131625908D01*
X158492322Y-131470231D01*
X158563973Y-131297251D01*
X158600500Y-131113616D01*
X158600500Y-130926384D01*
X158600499Y-130926379D01*
X159239500Y-130926379D01*
X159239500Y-131113620D01*
X159276025Y-131297243D01*
X159276027Y-131297251D01*
X159347676Y-131470228D01*
X159347681Y-131470237D01*
X159451697Y-131625907D01*
X159451700Y-131625911D01*
X159584088Y-131758299D01*
X159584092Y-131758302D01*
X159739762Y-131862318D01*
X159739768Y-131862321D01*
X159739769Y-131862322D01*
X159912749Y-131933973D01*
X160096379Y-131970499D01*
X160096383Y-131970500D01*
X160096384Y-131970500D01*
X160283617Y-131970500D01*
X160283618Y-131970499D01*
X160467251Y-131933973D01*
X160640231Y-131862322D01*
X160795908Y-131758302D01*
X160928302Y-131625908D01*
X161032322Y-131470231D01*
X161103973Y-131297251D01*
X161140500Y-131113616D01*
X161140500Y-130926384D01*
X161140499Y-130926379D01*
X161779500Y-130926379D01*
X161779500Y-131113620D01*
X161816025Y-131297243D01*
X161816027Y-131297251D01*
X161887676Y-131470228D01*
X161887681Y-131470237D01*
X161991697Y-131625907D01*
X161991700Y-131625911D01*
X162124088Y-131758299D01*
X162124092Y-131758302D01*
X162279762Y-131862318D01*
X162279768Y-131862321D01*
X162279769Y-131862322D01*
X162452749Y-131933973D01*
X162636379Y-131970499D01*
X162636383Y-131970500D01*
X162636384Y-131970500D01*
X162823617Y-131970500D01*
X162823618Y-131970499D01*
X163007251Y-131933973D01*
X163180231Y-131862322D01*
X163335908Y-131758302D01*
X163468302Y-131625908D01*
X163572322Y-131470231D01*
X163643973Y-131297251D01*
X163680500Y-131113616D01*
X163680500Y-130926384D01*
X163680499Y-130926379D01*
X164319500Y-130926379D01*
X164319500Y-131113620D01*
X164356025Y-131297243D01*
X164356027Y-131297251D01*
X164427676Y-131470228D01*
X164427681Y-131470237D01*
X164531697Y-131625907D01*
X164531700Y-131625911D01*
X164664088Y-131758299D01*
X164664092Y-131758302D01*
X164819762Y-131862318D01*
X164819768Y-131862321D01*
X164819769Y-131862322D01*
X164992749Y-131933973D01*
X165176379Y-131970499D01*
X165176383Y-131970500D01*
X165176384Y-131970500D01*
X165363617Y-131970500D01*
X165363618Y-131970499D01*
X165547251Y-131933973D01*
X165720231Y-131862322D01*
X165875908Y-131758302D01*
X166008302Y-131625908D01*
X166112322Y-131470231D01*
X166183973Y-131297251D01*
X166220500Y-131113616D01*
X166220500Y-130926384D01*
X166220499Y-130926379D01*
X166859500Y-130926379D01*
X166859500Y-131113620D01*
X166896025Y-131297243D01*
X166896027Y-131297251D01*
X166967676Y-131470228D01*
X166967681Y-131470237D01*
X167071697Y-131625907D01*
X167071700Y-131625911D01*
X167204088Y-131758299D01*
X167204092Y-131758302D01*
X167359762Y-131862318D01*
X167359768Y-131862321D01*
X167359769Y-131862322D01*
X167532749Y-131933973D01*
X167716379Y-131970499D01*
X167716383Y-131970500D01*
X167716384Y-131970500D01*
X167903617Y-131970500D01*
X167903618Y-131970499D01*
X168087251Y-131933973D01*
X168260231Y-131862322D01*
X168415908Y-131758302D01*
X168548302Y-131625908D01*
X168652322Y-131470231D01*
X168723973Y-131297251D01*
X168760500Y-131113616D01*
X168760500Y-130926384D01*
X168723973Y-130742749D01*
X168652322Y-130569769D01*
X168652321Y-130569768D01*
X168652318Y-130569762D01*
X168548302Y-130414092D01*
X168548299Y-130414088D01*
X168415911Y-130281700D01*
X168415907Y-130281697D01*
X168260237Y-130177681D01*
X168260228Y-130177676D01*
X168087251Y-130106027D01*
X168087243Y-130106025D01*
X167903620Y-130069500D01*
X167903616Y-130069500D01*
X167716384Y-130069500D01*
X167716379Y-130069500D01*
X167532756Y-130106025D01*
X167532748Y-130106027D01*
X167359771Y-130177676D01*
X167359762Y-130177681D01*
X167204092Y-130281697D01*
X167204088Y-130281700D01*
X167071700Y-130414088D01*
X167071697Y-130414092D01*
X166967681Y-130569762D01*
X166967676Y-130569771D01*
X166896027Y-130742748D01*
X166896025Y-130742756D01*
X166859500Y-130926379D01*
X166220499Y-130926379D01*
X166183973Y-130742749D01*
X166112322Y-130569769D01*
X166112321Y-130569768D01*
X166112318Y-130569762D01*
X166008302Y-130414092D01*
X166008299Y-130414088D01*
X165875911Y-130281700D01*
X165875907Y-130281697D01*
X165720237Y-130177681D01*
X165720228Y-130177676D01*
X165547251Y-130106027D01*
X165547243Y-130106025D01*
X165363620Y-130069500D01*
X165363616Y-130069500D01*
X165176384Y-130069500D01*
X165176379Y-130069500D01*
X164992756Y-130106025D01*
X164992748Y-130106027D01*
X164819771Y-130177676D01*
X164819762Y-130177681D01*
X164664092Y-130281697D01*
X164664088Y-130281700D01*
X164531700Y-130414088D01*
X164531697Y-130414092D01*
X164427681Y-130569762D01*
X164427676Y-130569771D01*
X164356027Y-130742748D01*
X164356025Y-130742756D01*
X164319500Y-130926379D01*
X163680499Y-130926379D01*
X163643973Y-130742749D01*
X163572322Y-130569769D01*
X163572321Y-130569768D01*
X163572318Y-130569762D01*
X163468302Y-130414092D01*
X163468299Y-130414088D01*
X163335911Y-130281700D01*
X163335907Y-130281697D01*
X163180237Y-130177681D01*
X163180228Y-130177676D01*
X163007251Y-130106027D01*
X163007243Y-130106025D01*
X162823620Y-130069500D01*
X162823616Y-130069500D01*
X162636384Y-130069500D01*
X162636379Y-130069500D01*
X162452756Y-130106025D01*
X162452748Y-130106027D01*
X162279771Y-130177676D01*
X162279762Y-130177681D01*
X162124092Y-130281697D01*
X162124088Y-130281700D01*
X161991700Y-130414088D01*
X161991697Y-130414092D01*
X161887681Y-130569762D01*
X161887676Y-130569771D01*
X161816027Y-130742748D01*
X161816025Y-130742756D01*
X161779500Y-130926379D01*
X161140499Y-130926379D01*
X161103973Y-130742749D01*
X161032322Y-130569769D01*
X161032321Y-130569768D01*
X161032318Y-130569762D01*
X160928302Y-130414092D01*
X160928299Y-130414088D01*
X160795911Y-130281700D01*
X160795907Y-130281697D01*
X160640237Y-130177681D01*
X160640228Y-130177676D01*
X160467251Y-130106027D01*
X160467243Y-130106025D01*
X160283620Y-130069500D01*
X160283616Y-130069500D01*
X160096384Y-130069500D01*
X160096379Y-130069500D01*
X159912756Y-130106025D01*
X159912748Y-130106027D01*
X159739771Y-130177676D01*
X159739762Y-130177681D01*
X159584092Y-130281697D01*
X159584088Y-130281700D01*
X159451700Y-130414088D01*
X159451697Y-130414092D01*
X159347681Y-130569762D01*
X159347676Y-130569771D01*
X159276027Y-130742748D01*
X159276025Y-130742756D01*
X159239500Y-130926379D01*
X158600499Y-130926379D01*
X158563973Y-130742749D01*
X158492322Y-130569769D01*
X158492321Y-130569768D01*
X158492318Y-130569762D01*
X158388302Y-130414092D01*
X158388299Y-130414088D01*
X158255911Y-130281700D01*
X158255907Y-130281697D01*
X158100237Y-130177681D01*
X158100228Y-130177676D01*
X157927251Y-130106027D01*
X157927243Y-130106025D01*
X157743620Y-130069500D01*
X157743616Y-130069500D01*
X157556384Y-130069500D01*
X157556379Y-130069500D01*
X157372756Y-130106025D01*
X157372748Y-130106027D01*
X157199771Y-130177676D01*
X157199762Y-130177681D01*
X157044092Y-130281697D01*
X157044088Y-130281700D01*
X156911700Y-130414088D01*
X156911697Y-130414092D01*
X156807681Y-130569762D01*
X156807676Y-130569771D01*
X156736027Y-130742748D01*
X156736025Y-130742756D01*
X156699500Y-130926379D01*
X156060499Y-130926379D01*
X156023973Y-130742749D01*
X155952322Y-130569769D01*
X155952321Y-130569768D01*
X155952318Y-130569762D01*
X155848302Y-130414092D01*
X155848299Y-130414088D01*
X155715911Y-130281700D01*
X155715907Y-130281697D01*
X155560237Y-130177681D01*
X155560228Y-130177676D01*
X155387251Y-130106027D01*
X155387243Y-130106025D01*
X155203620Y-130069500D01*
X155203616Y-130069500D01*
X155016384Y-130069500D01*
X155016379Y-130069500D01*
X154832756Y-130106025D01*
X154832748Y-130106027D01*
X154659771Y-130177676D01*
X154659762Y-130177681D01*
X154504092Y-130281697D01*
X154504088Y-130281700D01*
X154371700Y-130414088D01*
X154371697Y-130414092D01*
X154267681Y-130569762D01*
X154267676Y-130569771D01*
X154196027Y-130742748D01*
X154196025Y-130742756D01*
X154159500Y-130926379D01*
X153520499Y-130926379D01*
X153483973Y-130742749D01*
X153412322Y-130569769D01*
X153412321Y-130569768D01*
X153412318Y-130569762D01*
X153308302Y-130414092D01*
X153308299Y-130414088D01*
X153175911Y-130281700D01*
X153175907Y-130281697D01*
X153020237Y-130177681D01*
X153020228Y-130177676D01*
X152847251Y-130106027D01*
X152847243Y-130106025D01*
X152663620Y-130069500D01*
X152663616Y-130069500D01*
X152476384Y-130069500D01*
X152476379Y-130069500D01*
X152292756Y-130106025D01*
X152292748Y-130106027D01*
X152119771Y-130177676D01*
X152119762Y-130177681D01*
X151964092Y-130281697D01*
X151964088Y-130281700D01*
X151831700Y-130414088D01*
X151831697Y-130414092D01*
X151727681Y-130569762D01*
X151727676Y-130569771D01*
X151656027Y-130742748D01*
X151656025Y-130742756D01*
X151619500Y-130926379D01*
X150980499Y-130926379D01*
X150943973Y-130742749D01*
X150872322Y-130569769D01*
X150872321Y-130569768D01*
X150872318Y-130569762D01*
X150768302Y-130414092D01*
X150768299Y-130414088D01*
X150635911Y-130281700D01*
X150635907Y-130281697D01*
X150480237Y-130177681D01*
X150480228Y-130177676D01*
X150307251Y-130106027D01*
X150307243Y-130106025D01*
X150123620Y-130069500D01*
X150123616Y-130069500D01*
X149936384Y-130069500D01*
X149936379Y-130069500D01*
X149752756Y-130106025D01*
X149752748Y-130106027D01*
X149579771Y-130177676D01*
X149579762Y-130177681D01*
X149424092Y-130281697D01*
X149424088Y-130281700D01*
X149291700Y-130414088D01*
X149291697Y-130414092D01*
X149187681Y-130569762D01*
X149187676Y-130569771D01*
X149116027Y-130742748D01*
X149116025Y-130742756D01*
X149079500Y-130926379D01*
X148440499Y-130926379D01*
X148403973Y-130742749D01*
X148332322Y-130569769D01*
X148332321Y-130569768D01*
X148332318Y-130569762D01*
X148228302Y-130414092D01*
X148228299Y-130414088D01*
X148095911Y-130281700D01*
X148095907Y-130281697D01*
X147940237Y-130177681D01*
X147940228Y-130177676D01*
X147767251Y-130106027D01*
X147767243Y-130106025D01*
X147583620Y-130069500D01*
X147583616Y-130069500D01*
X147396384Y-130069500D01*
X147396379Y-130069500D01*
X147212756Y-130106025D01*
X147212748Y-130106027D01*
X147039771Y-130177676D01*
X147039762Y-130177681D01*
X146884092Y-130281697D01*
X146884088Y-130281700D01*
X146751700Y-130414088D01*
X146751697Y-130414092D01*
X146647681Y-130569762D01*
X146647676Y-130569771D01*
X146576027Y-130742748D01*
X146576025Y-130742756D01*
X146539500Y-130926379D01*
X145900499Y-130926379D01*
X145863973Y-130742749D01*
X145792322Y-130569769D01*
X145792321Y-130569768D01*
X145792318Y-130569762D01*
X145688302Y-130414092D01*
X145688299Y-130414088D01*
X145555911Y-130281700D01*
X145555907Y-130281697D01*
X145400237Y-130177681D01*
X145400228Y-130177676D01*
X145227251Y-130106027D01*
X145227243Y-130106025D01*
X145043620Y-130069500D01*
X145043616Y-130069500D01*
X144856384Y-130069500D01*
X144856379Y-130069500D01*
X144672756Y-130106025D01*
X144672748Y-130106027D01*
X144499771Y-130177676D01*
X144499762Y-130177681D01*
X144344092Y-130281697D01*
X144344088Y-130281700D01*
X144211700Y-130414088D01*
X144211697Y-130414092D01*
X144107681Y-130569762D01*
X144107676Y-130569771D01*
X144036027Y-130742748D01*
X144036025Y-130742756D01*
X143999500Y-130926379D01*
X143360499Y-130926379D01*
X143323973Y-130742749D01*
X143252322Y-130569769D01*
X143252321Y-130569768D01*
X143252318Y-130569762D01*
X143148302Y-130414092D01*
X143148299Y-130414088D01*
X143015911Y-130281700D01*
X143015907Y-130281697D01*
X142860237Y-130177681D01*
X142860228Y-130177676D01*
X142687251Y-130106027D01*
X142687243Y-130106025D01*
X142503620Y-130069500D01*
X142503616Y-130069500D01*
X142316384Y-130069500D01*
X142316379Y-130069500D01*
X142132756Y-130106025D01*
X142132748Y-130106027D01*
X141959771Y-130177676D01*
X141959762Y-130177681D01*
X141804092Y-130281697D01*
X141804088Y-130281700D01*
X141671700Y-130414088D01*
X141671697Y-130414092D01*
X141567681Y-130569762D01*
X141567676Y-130569771D01*
X141496027Y-130742748D01*
X141496025Y-130742756D01*
X141459500Y-130926379D01*
X140820499Y-130926379D01*
X140783973Y-130742749D01*
X140712322Y-130569769D01*
X140712321Y-130569768D01*
X140712318Y-130569762D01*
X140608302Y-130414092D01*
X140608299Y-130414088D01*
X140475911Y-130281700D01*
X140475907Y-130281697D01*
X140320237Y-130177681D01*
X140320228Y-130177676D01*
X140147251Y-130106027D01*
X140147243Y-130106025D01*
X139963620Y-130069500D01*
X139963616Y-130069500D01*
X139776384Y-130069500D01*
X139776379Y-130069500D01*
X139592756Y-130106025D01*
X139592748Y-130106027D01*
X139419771Y-130177676D01*
X139419762Y-130177681D01*
X139264092Y-130281697D01*
X139264088Y-130281700D01*
X139131700Y-130414088D01*
X139131697Y-130414092D01*
X139027681Y-130569762D01*
X139027676Y-130569771D01*
X138956027Y-130742748D01*
X138956025Y-130742756D01*
X138919500Y-130926379D01*
X138280499Y-130926379D01*
X138243973Y-130742749D01*
X138172322Y-130569769D01*
X138172321Y-130569768D01*
X138172318Y-130569762D01*
X138068302Y-130414092D01*
X138068299Y-130414088D01*
X137935911Y-130281700D01*
X137935907Y-130281697D01*
X137780237Y-130177681D01*
X137780228Y-130177676D01*
X137607251Y-130106027D01*
X137607243Y-130106025D01*
X137423620Y-130069500D01*
X137423616Y-130069500D01*
X137236384Y-130069500D01*
X137236379Y-130069500D01*
X137052756Y-130106025D01*
X137052748Y-130106027D01*
X136879771Y-130177676D01*
X136879762Y-130177681D01*
X136724092Y-130281697D01*
X136724088Y-130281700D01*
X136591700Y-130414088D01*
X136591697Y-130414092D01*
X136487681Y-130569762D01*
X136487676Y-130569771D01*
X136416027Y-130742748D01*
X136416025Y-130742756D01*
X136379500Y-130926379D01*
X135740499Y-130926379D01*
X135703973Y-130742749D01*
X135632322Y-130569769D01*
X135632321Y-130569768D01*
X135632318Y-130569762D01*
X135528302Y-130414092D01*
X135528299Y-130414088D01*
X135395911Y-130281700D01*
X135395907Y-130281697D01*
X135240237Y-130177681D01*
X135240228Y-130177676D01*
X135067251Y-130106027D01*
X135067243Y-130106025D01*
X134883620Y-130069500D01*
X134883616Y-130069500D01*
X134696384Y-130069500D01*
X134696379Y-130069500D01*
X134512756Y-130106025D01*
X134512748Y-130106027D01*
X134339771Y-130177676D01*
X134339762Y-130177681D01*
X134184092Y-130281697D01*
X134184088Y-130281700D01*
X134051700Y-130414088D01*
X134051697Y-130414092D01*
X133947681Y-130569762D01*
X133947676Y-130569771D01*
X133876027Y-130742748D01*
X133876025Y-130742756D01*
X133839500Y-130926379D01*
X133200499Y-130926379D01*
X133163973Y-130742749D01*
X133092322Y-130569769D01*
X133092321Y-130569768D01*
X133092318Y-130569762D01*
X132988302Y-130414092D01*
X132988299Y-130414088D01*
X132855911Y-130281700D01*
X132855907Y-130281697D01*
X132700237Y-130177681D01*
X132700228Y-130177676D01*
X132527251Y-130106027D01*
X132527243Y-130106025D01*
X132343620Y-130069500D01*
X132343616Y-130069500D01*
X132156384Y-130069500D01*
X132156379Y-130069500D01*
X131972756Y-130106025D01*
X131972748Y-130106027D01*
X131799771Y-130177676D01*
X131799762Y-130177681D01*
X131644092Y-130281697D01*
X131644088Y-130281700D01*
X131511700Y-130414088D01*
X131511697Y-130414092D01*
X131407681Y-130569762D01*
X131407676Y-130569771D01*
X131336027Y-130742748D01*
X131336025Y-130742756D01*
X131299500Y-130926379D01*
X130660499Y-130926379D01*
X130623973Y-130742749D01*
X130552322Y-130569769D01*
X130552321Y-130569768D01*
X130552318Y-130569762D01*
X130448302Y-130414092D01*
X130448299Y-130414088D01*
X130315911Y-130281700D01*
X130315907Y-130281697D01*
X130160237Y-130177681D01*
X130160228Y-130177676D01*
X129987251Y-130106027D01*
X129987243Y-130106025D01*
X129803620Y-130069500D01*
X129803616Y-130069500D01*
X129616384Y-130069500D01*
X129616379Y-130069500D01*
X129432756Y-130106025D01*
X129432748Y-130106027D01*
X129259771Y-130177676D01*
X129259762Y-130177681D01*
X129104092Y-130281697D01*
X129104088Y-130281700D01*
X128971700Y-130414088D01*
X128971697Y-130414092D01*
X128867681Y-130569762D01*
X128867676Y-130569771D01*
X128796027Y-130742748D01*
X128796025Y-130742756D01*
X128759500Y-130926379D01*
X128120499Y-130926379D01*
X128083973Y-130742749D01*
X128012322Y-130569769D01*
X128012321Y-130569768D01*
X128012318Y-130569762D01*
X127908302Y-130414092D01*
X127908299Y-130414088D01*
X127775911Y-130281700D01*
X127775907Y-130281697D01*
X127620237Y-130177681D01*
X127620228Y-130177676D01*
X127447251Y-130106027D01*
X127447243Y-130106025D01*
X127263620Y-130069500D01*
X127263616Y-130069500D01*
X127076384Y-130069500D01*
X127076379Y-130069500D01*
X126892756Y-130106025D01*
X126892748Y-130106027D01*
X126719771Y-130177676D01*
X126719762Y-130177681D01*
X126564092Y-130281697D01*
X126564088Y-130281700D01*
X126431700Y-130414088D01*
X126431697Y-130414092D01*
X126327681Y-130569762D01*
X126327676Y-130569771D01*
X126256027Y-130742748D01*
X126256025Y-130742756D01*
X126219500Y-130926379D01*
X125580499Y-130926379D01*
X125543973Y-130742749D01*
X125472322Y-130569769D01*
X125472321Y-130569768D01*
X125472318Y-130569762D01*
X125368302Y-130414092D01*
X125368299Y-130414088D01*
X125235911Y-130281700D01*
X125235907Y-130281697D01*
X125080237Y-130177681D01*
X125080228Y-130177676D01*
X124907251Y-130106027D01*
X124907243Y-130106025D01*
X124723620Y-130069500D01*
X124723616Y-130069500D01*
X124536384Y-130069500D01*
X124536379Y-130069500D01*
X124352756Y-130106025D01*
X124352748Y-130106027D01*
X124179771Y-130177676D01*
X124179762Y-130177681D01*
X124024092Y-130281697D01*
X124024088Y-130281700D01*
X123891700Y-130414088D01*
X123891697Y-130414092D01*
X123787681Y-130569762D01*
X123787676Y-130569771D01*
X123716027Y-130742748D01*
X123716025Y-130742756D01*
X123679500Y-130926379D01*
X123040499Y-130926379D01*
X123003973Y-130742749D01*
X122932322Y-130569769D01*
X122932321Y-130569768D01*
X122932318Y-130569762D01*
X122828302Y-130414092D01*
X122828299Y-130414088D01*
X122695911Y-130281700D01*
X122695907Y-130281697D01*
X122540237Y-130177681D01*
X122540228Y-130177676D01*
X122367251Y-130106027D01*
X122367243Y-130106025D01*
X122183620Y-130069500D01*
X122183616Y-130069500D01*
X121996384Y-130069500D01*
X121996379Y-130069500D01*
X121812756Y-130106025D01*
X121812748Y-130106027D01*
X121639771Y-130177676D01*
X121639762Y-130177681D01*
X121484092Y-130281697D01*
X121484088Y-130281700D01*
X121351700Y-130414088D01*
X121351697Y-130414092D01*
X121247681Y-130569762D01*
X121247676Y-130569771D01*
X121176027Y-130742748D01*
X121176025Y-130742756D01*
X121139500Y-130926379D01*
X120500499Y-130926379D01*
X120463973Y-130742749D01*
X120392322Y-130569769D01*
X120392321Y-130569768D01*
X120392318Y-130569762D01*
X120288302Y-130414092D01*
X120288299Y-130414088D01*
X120155911Y-130281700D01*
X120155907Y-130281697D01*
X120000237Y-130177681D01*
X120000228Y-130177676D01*
X119827251Y-130106027D01*
X119827243Y-130106025D01*
X119643620Y-130069500D01*
X119643616Y-130069500D01*
X119456384Y-130069500D01*
X119456379Y-130069500D01*
X119272756Y-130106025D01*
X119272748Y-130106027D01*
X119099771Y-130177676D01*
X119099762Y-130177681D01*
X118944092Y-130281697D01*
X118944088Y-130281700D01*
X118811700Y-130414088D01*
X118811697Y-130414092D01*
X118707681Y-130569762D01*
X118707676Y-130569771D01*
X118636027Y-130742748D01*
X118636025Y-130742756D01*
X118599500Y-130926379D01*
X117960499Y-130926379D01*
X117923973Y-130742749D01*
X117852322Y-130569769D01*
X117852321Y-130569768D01*
X117852318Y-130569762D01*
X117748302Y-130414092D01*
X117748299Y-130414088D01*
X117615911Y-130281700D01*
X117615907Y-130281697D01*
X117460237Y-130177681D01*
X117460228Y-130177676D01*
X117287251Y-130106027D01*
X117287243Y-130106025D01*
X117103620Y-130069500D01*
X117103616Y-130069500D01*
X116916384Y-130069500D01*
X116916379Y-130069500D01*
X116732756Y-130106025D01*
X116732748Y-130106027D01*
X116559771Y-130177676D01*
X116559762Y-130177681D01*
X116404092Y-130281697D01*
X116404088Y-130281700D01*
X116271700Y-130414088D01*
X116271697Y-130414092D01*
X116167681Y-130569762D01*
X116167676Y-130569771D01*
X116096027Y-130742748D01*
X116096025Y-130742756D01*
X116059500Y-130926379D01*
X115420499Y-130926379D01*
X115383973Y-130742749D01*
X115312322Y-130569769D01*
X115312321Y-130569768D01*
X115312318Y-130569762D01*
X115208302Y-130414092D01*
X115208299Y-130414088D01*
X115075911Y-130281700D01*
X115075907Y-130281697D01*
X114920237Y-130177681D01*
X114920228Y-130177676D01*
X114747251Y-130106027D01*
X114747243Y-130106025D01*
X114563620Y-130069500D01*
X114563616Y-130069500D01*
X114376384Y-130069500D01*
X114376379Y-130069500D01*
X114192756Y-130106025D01*
X114192748Y-130106027D01*
X114019771Y-130177676D01*
X114019762Y-130177681D01*
X113864092Y-130281697D01*
X113864088Y-130281700D01*
X113731700Y-130414088D01*
X113731697Y-130414092D01*
X113627681Y-130569762D01*
X113627676Y-130569771D01*
X113556027Y-130742748D01*
X113556025Y-130742756D01*
X113519500Y-130926379D01*
X112880499Y-130926379D01*
X112843973Y-130742749D01*
X112772322Y-130569769D01*
X112772321Y-130569768D01*
X112772318Y-130569762D01*
X112668302Y-130414092D01*
X112668299Y-130414088D01*
X112535911Y-130281700D01*
X112535907Y-130281697D01*
X112380237Y-130177681D01*
X112380228Y-130177676D01*
X112207251Y-130106027D01*
X112207243Y-130106025D01*
X112023620Y-130069500D01*
X112023616Y-130069500D01*
X111836384Y-130069500D01*
X111836379Y-130069500D01*
X111652756Y-130106025D01*
X111652748Y-130106027D01*
X111479771Y-130177676D01*
X111479762Y-130177681D01*
X111324092Y-130281697D01*
X111324088Y-130281700D01*
X111191700Y-130414088D01*
X111191697Y-130414092D01*
X111087681Y-130569762D01*
X111087676Y-130569771D01*
X111016027Y-130742748D01*
X111016025Y-130742756D01*
X110979500Y-130926379D01*
X110340499Y-130926379D01*
X110303973Y-130742749D01*
X110232322Y-130569769D01*
X110232321Y-130569768D01*
X110232318Y-130569762D01*
X110128302Y-130414092D01*
X110128299Y-130414088D01*
X109995911Y-130281700D01*
X109995907Y-130281697D01*
X109840237Y-130177681D01*
X109840228Y-130177676D01*
X109667251Y-130106027D01*
X109667243Y-130106025D01*
X109483620Y-130069500D01*
X109483616Y-130069500D01*
X109296384Y-130069500D01*
X109296379Y-130069500D01*
X109112756Y-130106025D01*
X109112748Y-130106027D01*
X108939771Y-130177676D01*
X108939762Y-130177681D01*
X108784092Y-130281697D01*
X108784088Y-130281700D01*
X108651700Y-130414088D01*
X108651697Y-130414092D01*
X108547681Y-130569762D01*
X108547676Y-130569771D01*
X108476027Y-130742748D01*
X108476025Y-130742756D01*
X108439500Y-130926379D01*
X107800499Y-130926379D01*
X107763973Y-130742749D01*
X107692322Y-130569769D01*
X107692321Y-130569768D01*
X107692318Y-130569762D01*
X107588302Y-130414092D01*
X107588299Y-130414088D01*
X107455911Y-130281700D01*
X107455907Y-130281697D01*
X107300237Y-130177681D01*
X107300228Y-130177676D01*
X107127251Y-130106027D01*
X107127243Y-130106025D01*
X106943620Y-130069500D01*
X106943616Y-130069500D01*
X106756384Y-130069500D01*
X106756379Y-130069500D01*
X106572756Y-130106025D01*
X106572748Y-130106027D01*
X106399771Y-130177676D01*
X106399762Y-130177681D01*
X106244092Y-130281697D01*
X106244088Y-130281700D01*
X106111700Y-130414088D01*
X106111697Y-130414092D01*
X106007681Y-130569762D01*
X106007676Y-130569771D01*
X105936027Y-130742748D01*
X105936025Y-130742756D01*
X105899500Y-130926379D01*
X105260499Y-130926379D01*
X105223973Y-130742749D01*
X105152322Y-130569769D01*
X105152321Y-130569768D01*
X105152318Y-130569762D01*
X105048302Y-130414092D01*
X105048299Y-130414088D01*
X104915911Y-130281700D01*
X104915907Y-130281697D01*
X104760237Y-130177681D01*
X104760228Y-130177676D01*
X104587251Y-130106027D01*
X104587243Y-130106025D01*
X104403620Y-130069500D01*
X104403616Y-130069500D01*
X104216384Y-130069500D01*
X104216379Y-130069500D01*
X104032756Y-130106025D01*
X104032748Y-130106027D01*
X103859771Y-130177676D01*
X103859762Y-130177681D01*
X103704092Y-130281697D01*
X103704088Y-130281700D01*
X103571700Y-130414088D01*
X103571697Y-130414092D01*
X103467681Y-130569762D01*
X103467676Y-130569771D01*
X103396027Y-130742748D01*
X103396025Y-130742756D01*
X103359500Y-130926379D01*
X102720499Y-130926379D01*
X102683973Y-130742749D01*
X102612322Y-130569769D01*
X102612321Y-130569768D01*
X102612318Y-130569762D01*
X102508302Y-130414092D01*
X102508299Y-130414088D01*
X102375911Y-130281700D01*
X102375907Y-130281697D01*
X102220237Y-130177681D01*
X102220228Y-130177676D01*
X102047251Y-130106027D01*
X102047243Y-130106025D01*
X101863620Y-130069500D01*
X101863616Y-130069500D01*
X101676384Y-130069500D01*
X101676379Y-130069500D01*
X101492756Y-130106025D01*
X101492748Y-130106027D01*
X101319771Y-130177676D01*
X101319762Y-130177681D01*
X101164092Y-130281697D01*
X101164088Y-130281700D01*
X101031700Y-130414088D01*
X101031697Y-130414092D01*
X100927681Y-130569762D01*
X100927676Y-130569771D01*
X100856027Y-130742748D01*
X100856025Y-130742756D01*
X100819500Y-130926379D01*
X100180499Y-130926379D01*
X100143973Y-130742749D01*
X100072322Y-130569769D01*
X100072321Y-130569768D01*
X100072318Y-130569762D01*
X99968302Y-130414092D01*
X99968299Y-130414088D01*
X99835911Y-130281700D01*
X99835907Y-130281697D01*
X99680237Y-130177681D01*
X99680228Y-130177676D01*
X99507251Y-130106027D01*
X99507243Y-130106025D01*
X99323620Y-130069500D01*
X99323616Y-130069500D01*
X99136384Y-130069500D01*
X99136379Y-130069500D01*
X98952756Y-130106025D01*
X98952748Y-130106027D01*
X98779771Y-130177676D01*
X98779762Y-130177681D01*
X98624092Y-130281697D01*
X98624088Y-130281700D01*
X98491700Y-130414088D01*
X98491697Y-130414092D01*
X98387681Y-130569762D01*
X98387676Y-130569771D01*
X98316027Y-130742748D01*
X98316025Y-130742756D01*
X98279500Y-130926379D01*
X96350500Y-130926379D01*
X96350500Y-129034108D01*
X101999500Y-129034108D01*
X101999500Y-129165892D01*
X102016554Y-129229539D01*
X102033608Y-129293187D01*
X102041766Y-129307316D01*
X102099500Y-129407314D01*
X102192686Y-129500500D01*
X102306814Y-129566392D01*
X102434108Y-129600500D01*
X102434110Y-129600500D01*
X102565890Y-129600500D01*
X102565892Y-129600500D01*
X102693186Y-129566392D01*
X102807314Y-129500500D01*
X102900500Y-129407314D01*
X102966392Y-129293186D01*
X103000500Y-129165892D01*
X103000500Y-129034108D01*
X102966392Y-128906814D01*
X102900500Y-128792686D01*
X102807314Y-128699500D01*
X102716929Y-128647316D01*
X102693187Y-128633608D01*
X102629539Y-128616554D01*
X102565892Y-128599500D01*
X102434108Y-128599500D01*
X102306812Y-128633608D01*
X102192686Y-128699500D01*
X102192683Y-128699502D01*
X102099502Y-128792683D01*
X102099500Y-128792686D01*
X102033608Y-128906812D01*
X102017778Y-128965892D01*
X101999500Y-129034108D01*
X96350500Y-129034108D01*
X96350500Y-128264108D01*
X120429500Y-128264108D01*
X120429500Y-128395892D01*
X120439606Y-128433608D01*
X120463608Y-128523187D01*
X120469382Y-128533187D01*
X120529500Y-128637314D01*
X120622686Y-128730500D01*
X120736814Y-128796392D01*
X120864108Y-128830500D01*
X120864110Y-128830500D01*
X120995890Y-128830500D01*
X120995892Y-128830500D01*
X121123186Y-128796392D01*
X121237314Y-128730500D01*
X121330500Y-128637314D01*
X121396392Y-128523186D01*
X121408885Y-128476557D01*
X121445249Y-128416898D01*
X121508096Y-128386368D01*
X121577471Y-128394662D01*
X121631350Y-128439147D01*
X121648434Y-128476556D01*
X121656222Y-128505621D01*
X121663608Y-128533187D01*
X121693008Y-128584108D01*
X121729500Y-128647314D01*
X121822686Y-128740500D01*
X121936814Y-128806392D01*
X122064108Y-128840500D01*
X122064110Y-128840500D01*
X122195890Y-128840500D01*
X122195892Y-128840500D01*
X122323186Y-128806392D01*
X122437314Y-128740500D01*
X122530500Y-128647314D01*
X122596392Y-128533186D01*
X122630500Y-128405892D01*
X122630500Y-128274108D01*
X124169500Y-128274108D01*
X124169500Y-128405892D01*
X124178411Y-128439147D01*
X124203608Y-128533187D01*
X124233008Y-128584108D01*
X124269500Y-128647314D01*
X124362686Y-128740500D01*
X124476814Y-128806392D01*
X124604108Y-128840500D01*
X124604110Y-128840500D01*
X124735890Y-128840500D01*
X124735892Y-128840500D01*
X124863186Y-128806392D01*
X124977314Y-128740500D01*
X125070500Y-128647314D01*
X125136392Y-128533186D01*
X125170500Y-128405892D01*
X125170500Y-128274108D01*
X125157103Y-128224108D01*
X126709500Y-128224108D01*
X126709500Y-128355891D01*
X126743608Y-128483187D01*
X126772476Y-128533186D01*
X126809500Y-128597314D01*
X126902686Y-128690500D01*
X127016814Y-128756392D01*
X127144108Y-128790500D01*
X127144110Y-128790500D01*
X127275890Y-128790500D01*
X127275892Y-128790500D01*
X127403186Y-128756392D01*
X127517314Y-128690500D01*
X127610500Y-128597314D01*
X127676392Y-128483186D01*
X127710500Y-128355892D01*
X127710500Y-128264108D01*
X129149500Y-128264108D01*
X129149500Y-128395892D01*
X129159606Y-128433608D01*
X129183608Y-128523187D01*
X129189382Y-128533187D01*
X129249500Y-128637314D01*
X129342686Y-128730500D01*
X129456814Y-128796392D01*
X129584108Y-128830500D01*
X129584110Y-128830500D01*
X129715890Y-128830500D01*
X129715892Y-128830500D01*
X129843186Y-128796392D01*
X129957314Y-128730500D01*
X130050500Y-128637314D01*
X130081219Y-128584108D01*
X131789500Y-128584108D01*
X131789500Y-128715892D01*
X131796094Y-128740500D01*
X131823608Y-128843187D01*
X131856554Y-128900250D01*
X131889500Y-128957314D01*
X131982686Y-129050500D01*
X132096814Y-129116392D01*
X132224108Y-129150500D01*
X132224110Y-129150500D01*
X132355890Y-129150500D01*
X132355892Y-129150500D01*
X132483186Y-129116392D01*
X132597314Y-129050500D01*
X132690500Y-128957314D01*
X132756392Y-128843186D01*
X132758824Y-128834108D01*
X135539500Y-128834108D01*
X135539500Y-128965891D01*
X135573608Y-129093187D01*
X135587005Y-129116391D01*
X135639500Y-129207314D01*
X135732686Y-129300500D01*
X135846814Y-129366392D01*
X135974108Y-129400500D01*
X135974110Y-129400500D01*
X136105890Y-129400500D01*
X136105892Y-129400500D01*
X136233186Y-129366392D01*
X136347314Y-129300500D01*
X136440500Y-129207314D01*
X136506392Y-129093186D01*
X136540500Y-128965892D01*
X136540500Y-128934108D01*
X160499500Y-128934108D01*
X160499500Y-129065891D01*
X160533608Y-129193187D01*
X160541766Y-129207316D01*
X160599500Y-129307314D01*
X160692686Y-129400500D01*
X160806814Y-129466392D01*
X160934108Y-129500500D01*
X160934110Y-129500500D01*
X161065890Y-129500500D01*
X161065892Y-129500500D01*
X161193186Y-129466392D01*
X161307314Y-129400500D01*
X161400500Y-129307314D01*
X161466392Y-129193186D01*
X161500500Y-129065892D01*
X161500500Y-128934108D01*
X161466392Y-128806814D01*
X161466148Y-128806392D01*
X161456973Y-128790500D01*
X161400500Y-128692686D01*
X161307314Y-128599500D01*
X161250250Y-128566554D01*
X161193187Y-128533608D01*
X161129539Y-128516554D01*
X161065892Y-128499500D01*
X160934108Y-128499500D01*
X160806812Y-128533608D01*
X160692686Y-128599500D01*
X160692683Y-128599502D01*
X160599502Y-128692683D01*
X160599500Y-128692686D01*
X160533608Y-128806812D01*
X160499500Y-128934108D01*
X136540500Y-128934108D01*
X136540500Y-128834108D01*
X136506392Y-128706814D01*
X136440500Y-128592686D01*
X136347314Y-128499500D01*
X136273380Y-128456814D01*
X136233187Y-128433608D01*
X136129747Y-128405892D01*
X136105892Y-128399500D01*
X135974108Y-128399500D01*
X135846812Y-128433608D01*
X135732686Y-128499500D01*
X135732683Y-128499502D01*
X135639502Y-128592683D01*
X135639500Y-128592686D01*
X135573608Y-128706812D01*
X135539500Y-128834108D01*
X132758824Y-128834108D01*
X132790500Y-128715892D01*
X132790500Y-128584108D01*
X132756392Y-128456814D01*
X132690500Y-128342686D01*
X132597314Y-128249500D01*
X132500221Y-128193443D01*
X132483187Y-128183608D01*
X132396941Y-128160499D01*
X132355892Y-128149500D01*
X132224108Y-128149500D01*
X132096812Y-128183608D01*
X131982686Y-128249500D01*
X131982683Y-128249502D01*
X131889502Y-128342683D01*
X131889500Y-128342686D01*
X131823608Y-128456812D01*
X131803144Y-128533186D01*
X131789500Y-128584108D01*
X130081219Y-128584108D01*
X130116392Y-128523186D01*
X130150500Y-128395892D01*
X130150500Y-128264108D01*
X130116392Y-128136814D01*
X130050500Y-128022686D01*
X129957314Y-127929500D01*
X129894418Y-127893187D01*
X129843187Y-127863608D01*
X129756941Y-127840499D01*
X129715892Y-127829500D01*
X129584108Y-127829500D01*
X129456812Y-127863608D01*
X129342686Y-127929500D01*
X129342683Y-127929502D01*
X129249502Y-128022683D01*
X129249500Y-128022686D01*
X129183608Y-128136812D01*
X129160218Y-128224108D01*
X129149500Y-128264108D01*
X127710500Y-128264108D01*
X127710500Y-128224108D01*
X127676392Y-128096814D01*
X127610500Y-127982686D01*
X127517314Y-127889500D01*
X127454418Y-127853187D01*
X127403187Y-127823608D01*
X127339539Y-127806554D01*
X127275892Y-127789500D01*
X127144108Y-127789500D01*
X127016812Y-127823608D01*
X126902686Y-127889500D01*
X126902683Y-127889502D01*
X126809502Y-127982683D01*
X126809500Y-127982686D01*
X126743608Y-128096812D01*
X126709500Y-128224108D01*
X125157103Y-128224108D01*
X125136392Y-128146814D01*
X125130618Y-128136814D01*
X125124601Y-128126391D01*
X125070500Y-128032686D01*
X124977314Y-127939500D01*
X124897096Y-127893186D01*
X124863187Y-127873608D01*
X124786969Y-127853186D01*
X124735892Y-127839500D01*
X124604108Y-127839500D01*
X124476812Y-127873608D01*
X124362686Y-127939500D01*
X124362683Y-127939502D01*
X124269502Y-128032683D01*
X124269500Y-128032686D01*
X124203608Y-128146812D01*
X124191114Y-128193443D01*
X124169500Y-128274108D01*
X122630500Y-128274108D01*
X122596392Y-128146814D01*
X122590618Y-128136814D01*
X122584601Y-128126391D01*
X122530500Y-128032686D01*
X122437314Y-127939500D01*
X122357096Y-127893186D01*
X122323187Y-127873608D01*
X122246969Y-127853186D01*
X122195892Y-127839500D01*
X122064108Y-127839500D01*
X121936812Y-127873608D01*
X121822686Y-127939500D01*
X121822683Y-127939502D01*
X121729502Y-128032683D01*
X121729500Y-128032686D01*
X121663607Y-128146814D01*
X121663607Y-128146815D01*
X121651113Y-128193443D01*
X121614748Y-128253103D01*
X121551901Y-128283631D01*
X121482525Y-128275336D01*
X121428648Y-128230850D01*
X121411565Y-128193443D01*
X121396392Y-128136814D01*
X121330500Y-128022686D01*
X121237314Y-127929500D01*
X121174418Y-127893187D01*
X121123187Y-127863608D01*
X121036941Y-127840499D01*
X120995892Y-127829500D01*
X120864108Y-127829500D01*
X120736812Y-127863608D01*
X120622686Y-127929500D01*
X120622683Y-127929502D01*
X120529502Y-128022683D01*
X120529500Y-128022686D01*
X120463608Y-128136812D01*
X120440218Y-128224108D01*
X120429500Y-128264108D01*
X96350500Y-128264108D01*
X96350500Y-127294108D01*
X103869500Y-127294108D01*
X103869500Y-127425892D01*
X103880464Y-127466812D01*
X103903608Y-127553187D01*
X103936554Y-127610250D01*
X103969500Y-127667314D01*
X104062686Y-127760500D01*
X104176814Y-127826392D01*
X104304108Y-127860500D01*
X104304110Y-127860500D01*
X104435890Y-127860500D01*
X104435892Y-127860500D01*
X104563186Y-127826392D01*
X104677314Y-127760500D01*
X104770500Y-127667314D01*
X104835860Y-127554108D01*
X105519500Y-127554108D01*
X105519500Y-127685891D01*
X105553608Y-127813187D01*
X105580924Y-127860499D01*
X105619500Y-127927314D01*
X105712686Y-128020500D01*
X105826814Y-128086392D01*
X105954108Y-128120500D01*
X105954110Y-128120500D01*
X106085890Y-128120500D01*
X106085892Y-128120500D01*
X106213186Y-128086392D01*
X106327314Y-128020500D01*
X106420500Y-127927314D01*
X106486392Y-127813186D01*
X106520500Y-127685892D01*
X106520500Y-127594108D01*
X139859500Y-127594108D01*
X139859500Y-127725892D01*
X139868772Y-127760497D01*
X139893608Y-127853187D01*
X139924326Y-127906391D01*
X139959500Y-127967314D01*
X140052686Y-128060500D01*
X140166814Y-128126392D01*
X140294108Y-128160500D01*
X140294110Y-128160500D01*
X140425890Y-128160500D01*
X140425892Y-128160500D01*
X140553186Y-128126392D01*
X140667314Y-128060500D01*
X140760500Y-127967314D01*
X140826392Y-127853186D01*
X140860500Y-127725892D01*
X140860500Y-127634108D01*
X141709500Y-127634108D01*
X141709500Y-127765891D01*
X141743608Y-127893187D01*
X141763311Y-127927313D01*
X141809500Y-128007314D01*
X141902686Y-128100500D01*
X142016814Y-128166392D01*
X142144108Y-128200500D01*
X142144110Y-128200500D01*
X142275890Y-128200500D01*
X142275892Y-128200500D01*
X142403186Y-128166392D01*
X142517314Y-128100500D01*
X142610500Y-128007314D01*
X142676392Y-127893186D01*
X142710500Y-127765892D01*
X142710500Y-127634108D01*
X142676392Y-127506814D01*
X142632331Y-127430499D01*
X142630879Y-127427983D01*
X142630878Y-127427982D01*
X142630204Y-127426814D01*
X142610500Y-127392686D01*
X142591922Y-127374108D01*
X156499500Y-127374108D01*
X156499500Y-127505892D01*
X156499747Y-127506812D01*
X156533608Y-127633187D01*
X156534140Y-127634108D01*
X156599500Y-127747314D01*
X156692686Y-127840500D01*
X156806814Y-127906392D01*
X156934108Y-127940500D01*
X156934110Y-127940500D01*
X157065890Y-127940500D01*
X157065892Y-127940500D01*
X157193186Y-127906392D01*
X157307314Y-127840500D01*
X157400500Y-127747314D01*
X157466392Y-127633186D01*
X157500500Y-127505892D01*
X157500500Y-127374108D01*
X158979500Y-127374108D01*
X158979500Y-127505892D01*
X158979747Y-127506812D01*
X159013608Y-127633187D01*
X159014140Y-127634108D01*
X159079500Y-127747314D01*
X159172686Y-127840500D01*
X159286814Y-127906392D01*
X159414108Y-127940500D01*
X159414110Y-127940500D01*
X159545890Y-127940500D01*
X159545892Y-127940500D01*
X159673186Y-127906392D01*
X159787314Y-127840500D01*
X159880500Y-127747314D01*
X159946392Y-127633186D01*
X159980500Y-127505892D01*
X159980500Y-127374108D01*
X159963624Y-127311125D01*
X159965287Y-127241280D01*
X160004449Y-127183418D01*
X160021386Y-127171657D01*
X160127314Y-127110500D01*
X160220500Y-127017314D01*
X160286392Y-126903186D01*
X160320500Y-126775892D01*
X160320500Y-126644108D01*
X160286392Y-126516814D01*
X160220500Y-126402686D01*
X160127314Y-126309500D01*
X160052649Y-126266392D01*
X160013187Y-126243608D01*
X159949539Y-126226554D01*
X159885892Y-126209500D01*
X159754108Y-126209500D01*
X159626812Y-126243608D01*
X159512686Y-126309500D01*
X159512683Y-126309502D01*
X159419502Y-126402683D01*
X159419500Y-126402686D01*
X159353608Y-126516812D01*
X159350208Y-126529502D01*
X159319500Y-126644108D01*
X159319500Y-126775892D01*
X159336374Y-126838870D01*
X159334712Y-126908718D01*
X159295550Y-126966581D01*
X159278601Y-126978349D01*
X159172686Y-127039500D01*
X159172683Y-127039502D01*
X159079502Y-127132683D01*
X159079500Y-127132686D01*
X159013608Y-127246812D01*
X158985241Y-127352683D01*
X158979500Y-127374108D01*
X157500500Y-127374108D01*
X157466392Y-127246814D01*
X157458767Y-127233608D01*
X157429790Y-127183418D01*
X157400500Y-127132686D01*
X157307314Y-127039500D01*
X157231783Y-126995892D01*
X157193187Y-126973608D01*
X157100126Y-126948673D01*
X157065892Y-126939500D01*
X156934108Y-126939500D01*
X156806812Y-126973608D01*
X156692686Y-127039500D01*
X156692683Y-127039502D01*
X156599502Y-127132683D01*
X156599500Y-127132686D01*
X156533608Y-127246812D01*
X156505241Y-127352683D01*
X156499500Y-127374108D01*
X142591922Y-127374108D01*
X142517314Y-127299500D01*
X142448032Y-127259500D01*
X142403187Y-127233608D01*
X142316941Y-127210499D01*
X142275892Y-127199500D01*
X142144108Y-127199500D01*
X142016812Y-127233608D01*
X141902686Y-127299500D01*
X141902683Y-127299502D01*
X141809502Y-127392683D01*
X141809500Y-127392686D01*
X141743608Y-127506812D01*
X141709500Y-127634108D01*
X140860500Y-127634108D01*
X140860500Y-127594108D01*
X140826392Y-127466814D01*
X140760500Y-127352686D01*
X140667314Y-127259500D01*
X140582442Y-127210499D01*
X140553187Y-127193608D01*
X140453188Y-127166814D01*
X140425892Y-127159500D01*
X140294108Y-127159500D01*
X140166812Y-127193608D01*
X140052686Y-127259500D01*
X140052683Y-127259502D01*
X139959502Y-127352683D01*
X139959500Y-127352686D01*
X139893608Y-127466812D01*
X139870218Y-127554108D01*
X139859500Y-127594108D01*
X106520500Y-127594108D01*
X106520500Y-127554500D01*
X106540185Y-127487461D01*
X106592989Y-127441706D01*
X106644500Y-127430500D01*
X106725890Y-127430500D01*
X106725892Y-127430500D01*
X106853186Y-127396392D01*
X106967314Y-127330500D01*
X107060500Y-127237314D01*
X107126392Y-127123186D01*
X107160500Y-126995892D01*
X107160500Y-126864108D01*
X107154448Y-126841521D01*
X107156111Y-126771674D01*
X107195274Y-126713811D01*
X107259502Y-126686307D01*
X107306311Y-126689654D01*
X107384108Y-126710500D01*
X107384111Y-126710500D01*
X107515890Y-126710500D01*
X107515892Y-126710500D01*
X107643186Y-126676392D01*
X107757314Y-126610500D01*
X107850500Y-126517314D01*
X107916392Y-126403186D01*
X107929542Y-126354108D01*
X134189500Y-126354108D01*
X134189500Y-126485892D01*
X134197920Y-126517316D01*
X134223608Y-126613187D01*
X134241461Y-126644108D01*
X134289500Y-126727314D01*
X134382686Y-126820500D01*
X134496814Y-126886392D01*
X134624108Y-126920500D01*
X134624110Y-126920500D01*
X134755890Y-126920500D01*
X134755892Y-126920500D01*
X134883186Y-126886392D01*
X134997314Y-126820500D01*
X135090500Y-126727314D01*
X135138539Y-126644108D01*
X155349500Y-126644108D01*
X155349500Y-126775891D01*
X155383608Y-126903187D01*
X155393604Y-126920500D01*
X155449500Y-127017314D01*
X155542686Y-127110500D01*
X155656814Y-127176392D01*
X155784108Y-127210500D01*
X155784110Y-127210500D01*
X155915890Y-127210500D01*
X155915892Y-127210500D01*
X156043186Y-127176392D01*
X156157314Y-127110500D01*
X156250500Y-127017314D01*
X156316392Y-126903186D01*
X156350500Y-126775892D01*
X156350500Y-126644108D01*
X156316392Y-126516814D01*
X156250500Y-126402686D01*
X156157314Y-126309500D01*
X156082649Y-126266392D01*
X156043187Y-126243608D01*
X155979539Y-126226554D01*
X155915892Y-126209500D01*
X155784108Y-126209500D01*
X155656812Y-126243608D01*
X155542686Y-126309500D01*
X155542683Y-126309502D01*
X155449502Y-126402683D01*
X155449500Y-126402686D01*
X155383608Y-126516812D01*
X155349500Y-126644108D01*
X135138539Y-126644108D01*
X135156392Y-126613186D01*
X135190500Y-126485892D01*
X135190500Y-126354108D01*
X135156392Y-126226814D01*
X135090500Y-126112686D01*
X134997314Y-126019500D01*
X134929764Y-125980500D01*
X134883187Y-125953608D01*
X134819539Y-125936554D01*
X134755892Y-125919500D01*
X134624108Y-125919500D01*
X134496812Y-125953608D01*
X134382686Y-126019500D01*
X134382683Y-126019502D01*
X134289502Y-126112683D01*
X134289500Y-126112686D01*
X134223608Y-126226812D01*
X134201452Y-126309502D01*
X134189500Y-126354108D01*
X107929542Y-126354108D01*
X107950500Y-126275892D01*
X107950500Y-126144108D01*
X107916392Y-126016814D01*
X107850500Y-125902686D01*
X107761173Y-125813359D01*
X107727688Y-125752036D01*
X107732672Y-125682344D01*
X107741467Y-125663677D01*
X107749075Y-125650500D01*
X107776392Y-125603186D01*
X107810500Y-125475892D01*
X107810500Y-125344108D01*
X107810500Y-125335981D01*
X107812015Y-125335981D01*
X107821377Y-125275936D01*
X107867755Y-125223678D01*
X107901453Y-125209009D01*
X108023186Y-125176392D01*
X108137314Y-125110500D01*
X108230500Y-125017314D01*
X108296392Y-124903186D01*
X108330500Y-124775892D01*
X108330500Y-124644108D01*
X108296392Y-124516814D01*
X108230500Y-124402686D01*
X108137314Y-124309500D01*
X108062649Y-124266392D01*
X108023187Y-124243608D01*
X107959539Y-124226554D01*
X107895892Y-124209500D01*
X107764108Y-124209500D01*
X107636812Y-124243608D01*
X107522686Y-124309500D01*
X107522683Y-124309502D01*
X107429502Y-124402683D01*
X107429500Y-124402686D01*
X107363608Y-124516812D01*
X107329500Y-124644108D01*
X107329500Y-124784019D01*
X107327987Y-124784019D01*
X107318616Y-124844077D01*
X107272231Y-124896329D01*
X107238543Y-124910991D01*
X107116814Y-124943608D01*
X107116812Y-124943608D01*
X107116812Y-124943609D01*
X107002686Y-125009500D01*
X107002683Y-125009502D01*
X106909502Y-125102683D01*
X106909500Y-125102686D01*
X106843608Y-125216812D01*
X106809500Y-125344108D01*
X106809500Y-125475891D01*
X106843608Y-125603187D01*
X106870924Y-125650499D01*
X106909500Y-125717314D01*
X106909502Y-125717316D01*
X106998826Y-125806640D01*
X107032311Y-125867963D01*
X107027327Y-125937655D01*
X107018533Y-125956320D01*
X106983608Y-126016811D01*
X106959359Y-126107313D01*
X106949500Y-126144108D01*
X106949500Y-126275892D01*
X106955552Y-126298478D01*
X106953887Y-126368328D01*
X106914723Y-126426190D01*
X106850494Y-126453692D01*
X106803683Y-126450344D01*
X106725892Y-126429500D01*
X106594108Y-126429500D01*
X106466812Y-126463608D01*
X106352686Y-126529500D01*
X106352683Y-126529502D01*
X106259502Y-126622683D01*
X106259500Y-126622686D01*
X106193608Y-126736812D01*
X106159500Y-126864108D01*
X106159500Y-126995500D01*
X106139815Y-127062539D01*
X106087011Y-127108294D01*
X106035500Y-127119500D01*
X105954108Y-127119500D01*
X105826812Y-127153608D01*
X105712686Y-127219500D01*
X105712683Y-127219502D01*
X105619502Y-127312683D01*
X105619500Y-127312686D01*
X105553608Y-127426812D01*
X105519500Y-127554108D01*
X104835860Y-127554108D01*
X104836392Y-127553186D01*
X104870500Y-127425892D01*
X104870500Y-127294108D01*
X104836392Y-127166814D01*
X104828767Y-127153608D01*
X104802605Y-127108294D01*
X104770500Y-127052686D01*
X104677314Y-126959500D01*
X104609764Y-126920500D01*
X104563187Y-126893608D01*
X104499539Y-126876554D01*
X104435892Y-126859500D01*
X104304108Y-126859500D01*
X104176812Y-126893608D01*
X104062686Y-126959500D01*
X104062683Y-126959502D01*
X103969502Y-127052683D01*
X103969500Y-127052686D01*
X103903608Y-127166812D01*
X103869500Y-127294108D01*
X96350500Y-127294108D01*
X96350500Y-123784108D01*
X118189500Y-123784108D01*
X118189500Y-123915892D01*
X118200946Y-123958608D01*
X118223608Y-124043187D01*
X118253417Y-124094816D01*
X118289500Y-124157314D01*
X118382686Y-124250500D01*
X118481521Y-124307563D01*
X118495944Y-124315890D01*
X118496814Y-124316392D01*
X118624108Y-124350500D01*
X118624110Y-124350500D01*
X118755890Y-124350500D01*
X118755892Y-124350500D01*
X118794910Y-124340045D01*
X118864759Y-124341707D01*
X118922622Y-124380868D01*
X118950127Y-124445097D01*
X118938541Y-124513999D01*
X118914686Y-124547500D01*
X118829500Y-124632686D01*
X118763608Y-124746812D01*
X118738773Y-124839500D01*
X118729500Y-124874108D01*
X118729500Y-125005892D01*
X118738772Y-125040497D01*
X118763608Y-125133187D01*
X118771475Y-125146812D01*
X118829500Y-125247314D01*
X118922686Y-125340500D01*
X119021521Y-125397563D01*
X119035944Y-125405890D01*
X119036814Y-125406392D01*
X119164108Y-125440500D01*
X119164110Y-125440500D01*
X119225500Y-125440500D01*
X119292539Y-125460185D01*
X119338294Y-125512989D01*
X119349500Y-125564500D01*
X119349500Y-125665892D01*
X119363278Y-125717313D01*
X119383608Y-125793187D01*
X119393027Y-125809500D01*
X119449500Y-125907314D01*
X119542686Y-126000500D01*
X119656814Y-126066392D01*
X119784108Y-126100500D01*
X119784110Y-126100500D01*
X119915890Y-126100500D01*
X119915892Y-126100500D01*
X120043186Y-126066392D01*
X120157314Y-126000500D01*
X120250500Y-125907314D01*
X120316392Y-125793186D01*
X120350500Y-125665892D01*
X120350500Y-125534108D01*
X120345141Y-125514108D01*
X122489500Y-125514108D01*
X122489500Y-125645892D01*
X122494859Y-125665891D01*
X122523608Y-125773187D01*
X122544574Y-125809500D01*
X122589500Y-125887314D01*
X122682686Y-125980500D01*
X122796814Y-126046392D01*
X122924108Y-126080500D01*
X122924110Y-126080500D01*
X123055890Y-126080500D01*
X123055892Y-126080500D01*
X123183186Y-126046392D01*
X123297314Y-125980500D01*
X123390500Y-125887314D01*
X123456392Y-125773186D01*
X123466863Y-125734108D01*
X131849500Y-125734108D01*
X131849500Y-125865892D01*
X131863864Y-125919500D01*
X131883608Y-125993187D01*
X131914326Y-126046391D01*
X131949500Y-126107314D01*
X132042686Y-126200500D01*
X132156814Y-126266392D01*
X132284108Y-126300500D01*
X132284110Y-126300500D01*
X132415890Y-126300500D01*
X132415892Y-126300500D01*
X132543186Y-126266392D01*
X132657314Y-126200500D01*
X132750500Y-126107314D01*
X132816392Y-125993186D01*
X132850500Y-125865892D01*
X132850500Y-125734108D01*
X132816392Y-125606814D01*
X132750500Y-125492686D01*
X132657314Y-125399500D01*
X132600250Y-125366554D01*
X132543187Y-125333608D01*
X132479539Y-125316554D01*
X132415892Y-125299500D01*
X132284108Y-125299500D01*
X132156812Y-125333608D01*
X132042686Y-125399500D01*
X132042683Y-125399502D01*
X131949502Y-125492683D01*
X131949500Y-125492686D01*
X131883608Y-125606812D01*
X131867778Y-125665892D01*
X131849500Y-125734108D01*
X123466863Y-125734108D01*
X123490500Y-125645892D01*
X123490500Y-125514108D01*
X123456392Y-125386814D01*
X123456148Y-125386392D01*
X123447563Y-125371521D01*
X123390500Y-125272686D01*
X123297314Y-125179500D01*
X123229764Y-125140500D01*
X123183187Y-125113608D01*
X123119539Y-125096554D01*
X123055892Y-125079500D01*
X122924108Y-125079500D01*
X122796812Y-125113608D01*
X122682686Y-125179500D01*
X122682683Y-125179502D01*
X122589502Y-125272683D01*
X122589500Y-125272686D01*
X122523608Y-125386812D01*
X122514582Y-125420499D01*
X122489500Y-125514108D01*
X120345141Y-125514108D01*
X120316392Y-125406814D01*
X120316148Y-125406392D01*
X120306973Y-125390500D01*
X120250500Y-125292686D01*
X120157314Y-125199500D01*
X120100250Y-125166554D01*
X120043187Y-125133608D01*
X119956941Y-125110499D01*
X119915892Y-125099500D01*
X119854500Y-125099500D01*
X119787461Y-125079815D01*
X119741706Y-125027011D01*
X119730500Y-124975500D01*
X119730500Y-124874110D01*
X119730500Y-124874108D01*
X119696392Y-124746814D01*
X119630500Y-124632686D01*
X119537314Y-124539500D01*
X119476013Y-124504108D01*
X119423187Y-124473608D01*
X119334911Y-124449955D01*
X119295892Y-124439500D01*
X119164108Y-124439500D01*
X119164106Y-124439500D01*
X119125087Y-124449955D01*
X119055237Y-124448291D01*
X118997375Y-124409128D01*
X118969872Y-124344899D01*
X118981459Y-124275997D01*
X119005309Y-124242504D01*
X119090500Y-124157314D01*
X119156392Y-124043186D01*
X119190500Y-123915892D01*
X119190500Y-123784108D01*
X119156392Y-123656814D01*
X119137509Y-123624108D01*
X120719500Y-123624108D01*
X120719500Y-123755892D01*
X120727061Y-123784110D01*
X120753608Y-123883187D01*
X120772490Y-123915891D01*
X120819500Y-123997314D01*
X120912686Y-124090500D01*
X121026814Y-124156392D01*
X121154108Y-124190500D01*
X121154110Y-124190500D01*
X121285890Y-124190500D01*
X121285892Y-124190500D01*
X121413186Y-124156392D01*
X121527314Y-124090500D01*
X121620500Y-123997314D01*
X121686392Y-123883186D01*
X121720500Y-123755892D01*
X121720500Y-123624108D01*
X122689500Y-123624108D01*
X122689500Y-123755892D01*
X122697061Y-123784110D01*
X122723608Y-123883187D01*
X122742490Y-123915891D01*
X122789500Y-123997314D01*
X122882686Y-124090500D01*
X122996814Y-124156392D01*
X123124108Y-124190500D01*
X123124110Y-124190500D01*
X123255890Y-124190500D01*
X123255892Y-124190500D01*
X123383186Y-124156392D01*
X123403499Y-124144663D01*
X123471399Y-124128191D01*
X123537426Y-124151043D01*
X123580617Y-124205964D01*
X123589500Y-124252051D01*
X123589500Y-124275892D01*
X123596094Y-124300500D01*
X123623608Y-124403187D01*
X123648797Y-124446814D01*
X123689500Y-124517314D01*
X123782686Y-124610500D01*
X123896814Y-124676392D01*
X124024108Y-124710500D01*
X124024110Y-124710500D01*
X124135136Y-124710500D01*
X124202175Y-124730185D01*
X124247930Y-124782989D01*
X124257874Y-124852147D01*
X124254911Y-124866592D01*
X124239500Y-124924108D01*
X124239500Y-125055892D01*
X124252038Y-125102686D01*
X124273608Y-125183187D01*
X124306554Y-125240250D01*
X124339500Y-125297314D01*
X124432686Y-125390500D01*
X124546814Y-125456392D01*
X124674108Y-125490500D01*
X124674110Y-125490500D01*
X124805890Y-125490500D01*
X124805892Y-125490500D01*
X124933186Y-125456392D01*
X125047314Y-125390500D01*
X125140500Y-125297314D01*
X125182822Y-125224011D01*
X125233387Y-125175798D01*
X125301994Y-125162574D01*
X125366858Y-125188542D01*
X125397593Y-125224011D01*
X125399500Y-125227314D01*
X125492686Y-125320500D01*
X125606814Y-125386392D01*
X125734108Y-125420500D01*
X125734110Y-125420500D01*
X125865890Y-125420500D01*
X125865892Y-125420500D01*
X125993186Y-125386392D01*
X126107314Y-125320500D01*
X126200500Y-125227314D01*
X126266392Y-125113186D01*
X126274183Y-125084108D01*
X133339500Y-125084108D01*
X133339500Y-125215892D01*
X133347920Y-125247316D01*
X133373608Y-125343187D01*
X133398797Y-125386814D01*
X133439500Y-125457314D01*
X133532686Y-125550500D01*
X133646814Y-125616392D01*
X133774108Y-125650500D01*
X133774110Y-125650500D01*
X133905890Y-125650500D01*
X133905892Y-125650500D01*
X134033186Y-125616392D01*
X134147314Y-125550500D01*
X134240500Y-125457314D01*
X134306392Y-125343186D01*
X134340500Y-125215892D01*
X134340500Y-125084108D01*
X134306392Y-124956814D01*
X134298767Y-124943608D01*
X134287509Y-124924108D01*
X134240500Y-124842686D01*
X134147314Y-124749500D01*
X134086013Y-124714108D01*
X135419500Y-124714108D01*
X135419500Y-124845892D01*
X135427920Y-124877316D01*
X135453608Y-124973187D01*
X135484684Y-125027011D01*
X135519500Y-125087314D01*
X135612686Y-125180500D01*
X135726814Y-125246392D01*
X135854108Y-125280500D01*
X135854110Y-125280500D01*
X135985890Y-125280500D01*
X135985892Y-125280500D01*
X136009747Y-125274108D01*
X162829500Y-125274108D01*
X162829500Y-125405892D01*
X162833414Y-125420499D01*
X162863608Y-125533187D01*
X162873604Y-125550500D01*
X162929500Y-125647314D01*
X163022686Y-125740500D01*
X163136814Y-125806392D01*
X163264108Y-125840500D01*
X163264110Y-125840500D01*
X163395890Y-125840500D01*
X163395892Y-125840500D01*
X163523186Y-125806392D01*
X163637314Y-125740500D01*
X163730500Y-125647314D01*
X163796392Y-125533186D01*
X163830500Y-125405892D01*
X163830500Y-125274108D01*
X163796392Y-125146814D01*
X163788767Y-125133608D01*
X163773054Y-125106392D01*
X163730500Y-125032686D01*
X163637314Y-124939500D01*
X163574418Y-124903187D01*
X163523187Y-124873608D01*
X163450410Y-124854108D01*
X163395892Y-124839500D01*
X163264108Y-124839500D01*
X163136812Y-124873608D01*
X163022686Y-124939500D01*
X163022683Y-124939502D01*
X162929502Y-125032683D01*
X162929500Y-125032686D01*
X162863608Y-125146812D01*
X162842038Y-125227314D01*
X162829500Y-125274108D01*
X136009747Y-125274108D01*
X136113186Y-125246392D01*
X136227314Y-125180500D01*
X136320500Y-125087314D01*
X136386392Y-124973186D01*
X136420500Y-124845892D01*
X136420500Y-124714108D01*
X136386392Y-124586814D01*
X136320500Y-124472686D01*
X136227314Y-124379500D01*
X136170250Y-124346554D01*
X136113187Y-124313608D01*
X136036969Y-124293186D01*
X135985892Y-124279500D01*
X135854108Y-124279500D01*
X135726812Y-124313608D01*
X135612686Y-124379500D01*
X135612683Y-124379502D01*
X135519502Y-124472683D01*
X135519500Y-124472686D01*
X135453608Y-124586812D01*
X135427672Y-124683608D01*
X135419500Y-124714108D01*
X134086013Y-124714108D01*
X134079764Y-124710500D01*
X134033187Y-124683608D01*
X133969539Y-124666554D01*
X133905892Y-124649500D01*
X133774108Y-124649500D01*
X133646812Y-124683608D01*
X133532686Y-124749500D01*
X133532683Y-124749502D01*
X133439502Y-124842683D01*
X133439500Y-124842686D01*
X133373608Y-124956812D01*
X133350277Y-125043886D01*
X133339500Y-125084108D01*
X126274183Y-125084108D01*
X126300500Y-124985892D01*
X126300500Y-124854108D01*
X126266392Y-124726814D01*
X126200500Y-124612686D01*
X126107314Y-124519500D01*
X126026225Y-124472683D01*
X125993187Y-124453608D01*
X125929539Y-124436554D01*
X125865892Y-124419500D01*
X125734108Y-124419500D01*
X125606812Y-124453608D01*
X125492686Y-124519500D01*
X125492683Y-124519502D01*
X125399502Y-124612683D01*
X125399495Y-124612692D01*
X125357178Y-124685987D01*
X125306611Y-124734202D01*
X125238004Y-124747424D01*
X125173139Y-124721456D01*
X125142404Y-124685984D01*
X125141032Y-124683608D01*
X125140500Y-124682686D01*
X125047314Y-124589500D01*
X124974568Y-124547500D01*
X124933187Y-124523608D01*
X124859936Y-124503981D01*
X124805892Y-124489500D01*
X124694864Y-124489500D01*
X124627825Y-124469815D01*
X124582070Y-124417011D01*
X124572126Y-124347853D01*
X124575089Y-124333407D01*
X124579782Y-124315891D01*
X124590500Y-124275892D01*
X124590500Y-124144108D01*
X124556392Y-124016814D01*
X124490500Y-123902686D01*
X124397314Y-123809500D01*
X124332028Y-123771807D01*
X124283187Y-123743608D01*
X124219539Y-123726554D01*
X124201080Y-123721608D01*
X128562000Y-123721608D01*
X128562000Y-123853392D01*
X128572936Y-123894205D01*
X128596108Y-123980687D01*
X128621404Y-124024500D01*
X128662000Y-124094814D01*
X128755186Y-124188000D01*
X128869314Y-124253892D01*
X128996608Y-124288000D01*
X128996610Y-124288000D01*
X129025500Y-124288000D01*
X129092539Y-124307685D01*
X129138294Y-124360489D01*
X129149500Y-124412000D01*
X129149500Y-124490892D01*
X129157166Y-124519502D01*
X129183608Y-124618187D01*
X129216554Y-124675250D01*
X129249500Y-124732314D01*
X129342686Y-124825500D01*
X129456814Y-124891392D01*
X129584108Y-124925500D01*
X129584110Y-124925500D01*
X129715890Y-124925500D01*
X129715892Y-124925500D01*
X129843186Y-124891392D01*
X129957314Y-124825500D01*
X130050500Y-124732314D01*
X130116392Y-124618186D01*
X130150500Y-124490892D01*
X130150500Y-124359108D01*
X130116392Y-124231814D01*
X130050500Y-124117686D01*
X129957314Y-124024500D01*
X129881426Y-123980686D01*
X129843187Y-123958608D01*
X129759158Y-123936093D01*
X129715892Y-123924500D01*
X129687000Y-123924500D01*
X129678314Y-123921949D01*
X129669353Y-123923238D01*
X129645312Y-123912259D01*
X129619961Y-123904815D01*
X129614033Y-123897974D01*
X129605797Y-123894213D01*
X129591507Y-123871978D01*
X129574206Y-123852011D01*
X129571918Y-123841496D01*
X129568023Y-123835435D01*
X129563000Y-123800500D01*
X129563000Y-123734108D01*
X138449500Y-123734108D01*
X138449500Y-123865892D01*
X138457089Y-123894213D01*
X138483608Y-123993187D01*
X138512476Y-124043186D01*
X138549500Y-124107314D01*
X138642686Y-124200500D01*
X138756814Y-124266392D01*
X138884108Y-124300500D01*
X138884110Y-124300500D01*
X139015890Y-124300500D01*
X139015892Y-124300500D01*
X139143186Y-124266392D01*
X139257314Y-124200500D01*
X139273706Y-124184108D01*
X145474500Y-124184108D01*
X145474500Y-124315891D01*
X145508608Y-124443187D01*
X145536151Y-124490892D01*
X145574500Y-124557314D01*
X145667686Y-124650500D01*
X145781814Y-124716392D01*
X145909108Y-124750500D01*
X145909110Y-124750500D01*
X146040890Y-124750500D01*
X146040892Y-124750500D01*
X146168186Y-124716392D01*
X146282314Y-124650500D01*
X146358706Y-124574108D01*
X156049500Y-124574108D01*
X156049500Y-124705892D01*
X156056580Y-124732314D01*
X156083608Y-124833187D01*
X156116554Y-124890250D01*
X156149500Y-124947314D01*
X156242686Y-125040500D01*
X156356814Y-125106392D01*
X156484108Y-125140500D01*
X156484110Y-125140500D01*
X156615890Y-125140500D01*
X156615892Y-125140500D01*
X156743186Y-125106392D01*
X156857314Y-125040500D01*
X156950500Y-124947314D01*
X157016392Y-124833186D01*
X157050500Y-124705892D01*
X157050500Y-124574108D01*
X157031744Y-124504108D01*
X160509500Y-124504108D01*
X160509500Y-124635892D01*
X160522038Y-124682686D01*
X160543608Y-124763187D01*
X160555041Y-124782989D01*
X160609500Y-124877314D01*
X160702686Y-124970500D01*
X160816814Y-125036392D01*
X160944108Y-125070500D01*
X160944110Y-125070500D01*
X161075890Y-125070500D01*
X161075892Y-125070500D01*
X161203186Y-125036392D01*
X161317314Y-124970500D01*
X161410500Y-124877314D01*
X161476392Y-124763186D01*
X161510500Y-124635892D01*
X161510500Y-124504108D01*
X161476392Y-124376814D01*
X161410500Y-124262686D01*
X161317314Y-124169500D01*
X161227565Y-124117683D01*
X161203187Y-124103608D01*
X161139539Y-124086554D01*
X161075892Y-124069500D01*
X160944108Y-124069500D01*
X160816812Y-124103608D01*
X160702686Y-124169500D01*
X160702683Y-124169502D01*
X160609502Y-124262683D01*
X160609500Y-124262686D01*
X160543608Y-124376812D01*
X160524456Y-124448291D01*
X160509500Y-124504108D01*
X157031744Y-124504108D01*
X157016392Y-124446814D01*
X156950500Y-124332686D01*
X156857314Y-124239500D01*
X156789764Y-124200500D01*
X156743187Y-124173608D01*
X156635164Y-124144664D01*
X156615892Y-124139500D01*
X156484108Y-124139500D01*
X156356812Y-124173608D01*
X156242686Y-124239500D01*
X156242683Y-124239502D01*
X156149502Y-124332683D01*
X156149500Y-124332686D01*
X156083608Y-124446812D01*
X156054001Y-124557310D01*
X156049500Y-124574108D01*
X146358706Y-124574108D01*
X146375500Y-124557314D01*
X146404120Y-124507742D01*
X146406292Y-124503981D01*
X146406292Y-124503980D01*
X146408302Y-124500500D01*
X146441392Y-124443186D01*
X146475500Y-124315892D01*
X146475500Y-124184108D01*
X146441392Y-124056814D01*
X146375500Y-123942686D01*
X146282314Y-123849500D01*
X146254371Y-123833367D01*
X146254370Y-123833366D01*
X146168188Y-123783609D01*
X146168187Y-123783608D01*
X146168186Y-123783608D01*
X146040892Y-123749500D01*
X145909108Y-123749500D01*
X145781812Y-123783608D01*
X145667686Y-123849500D01*
X145667683Y-123849502D01*
X145574502Y-123942683D01*
X145574500Y-123942686D01*
X145508608Y-124056812D01*
X145474500Y-124184108D01*
X139273706Y-124184108D01*
X139350500Y-124107314D01*
X139416392Y-123993186D01*
X139450500Y-123865892D01*
X139450500Y-123734108D01*
X162824500Y-123734108D01*
X162824500Y-123865892D01*
X162832089Y-123894213D01*
X162858608Y-123993187D01*
X162887476Y-124043186D01*
X162924500Y-124107314D01*
X163017686Y-124200500D01*
X163131814Y-124266392D01*
X163259108Y-124300500D01*
X163259110Y-124300500D01*
X163390890Y-124300500D01*
X163390892Y-124300500D01*
X163518186Y-124266392D01*
X163632314Y-124200500D01*
X163725500Y-124107314D01*
X163767766Y-124034108D01*
X164024500Y-124034108D01*
X164024500Y-124165892D01*
X164031094Y-124190500D01*
X164058608Y-124293187D01*
X164085662Y-124340045D01*
X164124500Y-124407314D01*
X164217686Y-124500500D01*
X164331814Y-124566392D01*
X164459108Y-124600500D01*
X164459110Y-124600500D01*
X164590890Y-124600500D01*
X164590892Y-124600500D01*
X164718186Y-124566392D01*
X164832314Y-124500500D01*
X164925500Y-124407314D01*
X164991392Y-124293186D01*
X165025500Y-124165892D01*
X165025500Y-124034108D01*
X164991392Y-123906814D01*
X164925500Y-123792686D01*
X164832314Y-123699500D01*
X164758380Y-123656814D01*
X164718187Y-123633608D01*
X164618188Y-123606814D01*
X164590892Y-123599500D01*
X164459108Y-123599500D01*
X164331812Y-123633608D01*
X164217686Y-123699500D01*
X164217683Y-123699502D01*
X164124502Y-123792683D01*
X164124500Y-123792686D01*
X164065887Y-123894205D01*
X164065886Y-123894207D01*
X164058608Y-123906814D01*
X164024500Y-124034108D01*
X163767766Y-124034108D01*
X163791392Y-123993186D01*
X163825500Y-123865892D01*
X163825500Y-123734108D01*
X163791392Y-123606814D01*
X163725500Y-123492686D01*
X163632314Y-123399500D01*
X163564764Y-123360500D01*
X163518187Y-123333608D01*
X163431941Y-123310499D01*
X163390892Y-123299500D01*
X163259108Y-123299500D01*
X163131812Y-123333608D01*
X163017686Y-123399500D01*
X163017683Y-123399502D01*
X162924502Y-123492683D01*
X162924500Y-123492686D01*
X162858608Y-123606812D01*
X162831094Y-123709500D01*
X162824500Y-123734108D01*
X139450500Y-123734108D01*
X139416392Y-123606814D01*
X139350500Y-123492686D01*
X139257314Y-123399500D01*
X139189764Y-123360500D01*
X139143187Y-123333608D01*
X139056941Y-123310499D01*
X139015892Y-123299500D01*
X138884108Y-123299500D01*
X138756812Y-123333608D01*
X138642686Y-123399500D01*
X138642683Y-123399502D01*
X138549502Y-123492683D01*
X138549500Y-123492686D01*
X138483608Y-123606812D01*
X138456094Y-123709500D01*
X138449500Y-123734108D01*
X129563000Y-123734108D01*
X129563000Y-123721610D01*
X129563000Y-123721608D01*
X129528892Y-123594314D01*
X129463000Y-123480186D01*
X129369814Y-123387000D01*
X129277337Y-123333608D01*
X129255687Y-123321108D01*
X129175043Y-123299500D01*
X129128392Y-123287000D01*
X128996608Y-123287000D01*
X128869312Y-123321108D01*
X128755186Y-123387000D01*
X128755183Y-123387002D01*
X128662002Y-123480183D01*
X128662000Y-123480186D01*
X128596108Y-123594312D01*
X128588124Y-123624110D01*
X128562000Y-123721608D01*
X124201080Y-123721608D01*
X124155892Y-123709500D01*
X124024108Y-123709500D01*
X123896814Y-123743608D01*
X123896813Y-123743608D01*
X123896811Y-123743609D01*
X123896808Y-123743610D01*
X123876498Y-123755336D01*
X123808598Y-123771807D01*
X123742571Y-123748954D01*
X123699382Y-123694032D01*
X123690500Y-123647948D01*
X123690500Y-123624110D01*
X123690500Y-123624108D01*
X123656392Y-123496814D01*
X123590500Y-123382686D01*
X123497314Y-123289500D01*
X123440250Y-123256554D01*
X123383187Y-123223608D01*
X123319539Y-123206554D01*
X123255892Y-123189500D01*
X123124108Y-123189500D01*
X122996812Y-123223608D01*
X122882686Y-123289500D01*
X122882683Y-123289502D01*
X122789502Y-123382683D01*
X122789500Y-123382686D01*
X122723608Y-123496812D01*
X122697484Y-123594312D01*
X122689500Y-123624108D01*
X121720500Y-123624108D01*
X121686392Y-123496814D01*
X121620500Y-123382686D01*
X121527314Y-123289500D01*
X121470250Y-123256554D01*
X121413187Y-123223608D01*
X121349539Y-123206554D01*
X121285892Y-123189500D01*
X121154108Y-123189500D01*
X121026812Y-123223608D01*
X120912686Y-123289500D01*
X120912683Y-123289502D01*
X120819502Y-123382683D01*
X120819500Y-123382686D01*
X120753608Y-123496812D01*
X120727484Y-123594312D01*
X120719500Y-123624108D01*
X119137509Y-123624108D01*
X119090500Y-123542686D01*
X118997314Y-123449500D01*
X118929764Y-123410500D01*
X118883187Y-123383608D01*
X118796941Y-123360499D01*
X118755892Y-123349500D01*
X118624108Y-123349500D01*
X118496812Y-123383608D01*
X118382686Y-123449500D01*
X118382683Y-123449502D01*
X118289502Y-123542683D01*
X118289500Y-123542686D01*
X118223608Y-123656812D01*
X118200351Y-123743610D01*
X118189500Y-123784108D01*
X96350500Y-123784108D01*
X96350500Y-122894108D01*
X113589500Y-122894108D01*
X113589500Y-123025891D01*
X113623608Y-123153187D01*
X113644574Y-123189500D01*
X113689500Y-123267314D01*
X113782686Y-123360500D01*
X113896814Y-123426392D01*
X114024108Y-123460500D01*
X114024110Y-123460500D01*
X114155890Y-123460500D01*
X114155892Y-123460500D01*
X114283186Y-123426392D01*
X114397314Y-123360500D01*
X114490500Y-123267314D01*
X114556392Y-123153186D01*
X114590500Y-123025892D01*
X114590500Y-122894108D01*
X114556392Y-122766814D01*
X114490500Y-122652686D01*
X114486402Y-122648588D01*
X114452917Y-122587265D01*
X114457901Y-122517573D01*
X114499773Y-122461640D01*
X114512084Y-122453520D01*
X114513660Y-122452609D01*
X114517314Y-122450500D01*
X114558706Y-122409108D01*
X129474500Y-122409108D01*
X129474500Y-122540892D01*
X129491554Y-122604539D01*
X129508608Y-122668187D01*
X129536682Y-122716812D01*
X129574500Y-122782314D01*
X129667686Y-122875500D01*
X129781814Y-122941392D01*
X129909108Y-122975500D01*
X129909110Y-122975500D01*
X130040890Y-122975500D01*
X130040892Y-122975500D01*
X130168186Y-122941392D01*
X130282314Y-122875500D01*
X130313706Y-122844108D01*
X146189500Y-122844108D01*
X146189500Y-122975891D01*
X146223608Y-123103187D01*
X146252476Y-123153186D01*
X146289500Y-123217314D01*
X146382686Y-123310500D01*
X146496814Y-123376392D01*
X146624108Y-123410500D01*
X146624110Y-123410500D01*
X146755890Y-123410500D01*
X146755892Y-123410500D01*
X146883186Y-123376392D01*
X146997314Y-123310500D01*
X147090500Y-123217314D01*
X147156392Y-123103186D01*
X147190500Y-122975892D01*
X147190500Y-122844108D01*
X147156392Y-122716814D01*
X147090500Y-122602686D01*
X146997314Y-122509500D01*
X146940250Y-122476554D01*
X146883187Y-122443608D01*
X146805282Y-122422734D01*
X146755892Y-122409500D01*
X146624108Y-122409500D01*
X146496812Y-122443608D01*
X146382686Y-122509500D01*
X146382683Y-122509502D01*
X146289502Y-122602683D01*
X146289500Y-122602686D01*
X146223608Y-122716812D01*
X146189500Y-122844108D01*
X130313706Y-122844108D01*
X130375500Y-122782314D01*
X130441392Y-122668186D01*
X130475500Y-122540892D01*
X130475500Y-122409108D01*
X130441392Y-122281814D01*
X130375500Y-122167686D01*
X130282314Y-122074500D01*
X130223423Y-122040499D01*
X130168187Y-122008608D01*
X130076757Y-121984110D01*
X130040892Y-121974500D01*
X129909108Y-121974500D01*
X129781812Y-122008608D01*
X129667686Y-122074500D01*
X129667683Y-122074502D01*
X129574502Y-122167683D01*
X129574500Y-122167686D01*
X129508608Y-122281812D01*
X129496902Y-122325500D01*
X129474500Y-122409108D01*
X114558706Y-122409108D01*
X114610500Y-122357314D01*
X114676392Y-122243186D01*
X114710500Y-122115892D01*
X114710500Y-121984108D01*
X114689730Y-121906592D01*
X114691393Y-121836743D01*
X114730556Y-121778881D01*
X114776730Y-121759108D01*
X118224500Y-121759108D01*
X118224500Y-121890892D01*
X118237792Y-121940499D01*
X118258608Y-122018187D01*
X118271490Y-122040499D01*
X118324500Y-122132314D01*
X118417686Y-122225500D01*
X118515221Y-122281812D01*
X118531810Y-122291390D01*
X118531814Y-122291392D01*
X118659108Y-122325500D01*
X118659110Y-122325500D01*
X118790890Y-122325500D01*
X118790892Y-122325500D01*
X118918186Y-122291392D01*
X119032314Y-122225500D01*
X119125500Y-122132314D01*
X119191392Y-122018186D01*
X119225500Y-121890892D01*
X119225500Y-121759108D01*
X119191392Y-121631814D01*
X119176425Y-121605891D01*
X119131445Y-121527983D01*
X119131444Y-121527982D01*
X119125500Y-121517686D01*
X119081922Y-121474108D01*
X131089500Y-121474108D01*
X131089500Y-121605892D01*
X131101185Y-121649500D01*
X131123608Y-121733187D01*
X131138574Y-121759108D01*
X131189500Y-121847314D01*
X131282686Y-121940500D01*
X131396814Y-122006392D01*
X131524108Y-122040500D01*
X131524110Y-122040500D01*
X131655890Y-122040500D01*
X131655892Y-122040500D01*
X131783186Y-122006392D01*
X131897314Y-121940500D01*
X131990500Y-121847314D01*
X132056392Y-121733186D01*
X132090500Y-121605892D01*
X132090500Y-121474108D01*
X132056392Y-121346814D01*
X131990500Y-121232686D01*
X131897314Y-121139500D01*
X131836013Y-121104108D01*
X131783187Y-121073608D01*
X131719539Y-121056554D01*
X131655892Y-121039500D01*
X131524108Y-121039500D01*
X131396812Y-121073608D01*
X131282686Y-121139500D01*
X131282683Y-121139502D01*
X131189502Y-121232683D01*
X131189500Y-121232686D01*
X131123608Y-121346812D01*
X131102792Y-121424500D01*
X131089500Y-121474108D01*
X119081922Y-121474108D01*
X119032314Y-121424500D01*
X118975250Y-121391554D01*
X118918187Y-121358608D01*
X118850602Y-121340499D01*
X118790892Y-121324500D01*
X118659108Y-121324500D01*
X118531812Y-121358608D01*
X118417686Y-121424500D01*
X118417683Y-121424502D01*
X118324502Y-121517683D01*
X118324500Y-121517686D01*
X118258608Y-121631812D01*
X118233259Y-121726418D01*
X118224500Y-121759108D01*
X114776730Y-121759108D01*
X114794784Y-121751377D01*
X114809505Y-121750500D01*
X114815890Y-121750500D01*
X114815892Y-121750500D01*
X114943186Y-121716392D01*
X115057314Y-121650500D01*
X115150500Y-121557314D01*
X115150504Y-121557306D01*
X115151625Y-121555847D01*
X115152892Y-121554921D01*
X115156247Y-121551567D01*
X115156770Y-121552090D01*
X115208053Y-121514645D01*
X115277799Y-121510491D01*
X115338719Y-121544704D01*
X115348375Y-121555847D01*
X115349498Y-121557311D01*
X115349500Y-121557314D01*
X115442686Y-121650500D01*
X115556814Y-121716392D01*
X115684108Y-121750500D01*
X115684110Y-121750500D01*
X115815890Y-121750500D01*
X115815892Y-121750500D01*
X115943186Y-121716392D01*
X116057314Y-121650500D01*
X116150500Y-121557314D01*
X116216392Y-121443186D01*
X116250500Y-121315892D01*
X116250500Y-121184108D01*
X116216392Y-121056814D01*
X116150500Y-120942686D01*
X116057314Y-120849500D01*
X115992672Y-120812179D01*
X115943187Y-120783608D01*
X115879539Y-120766554D01*
X115815892Y-120749500D01*
X115684108Y-120749500D01*
X115556812Y-120783608D01*
X115442686Y-120849500D01*
X115442683Y-120849502D01*
X115349498Y-120942687D01*
X115348370Y-120944158D01*
X115347102Y-120945083D01*
X115343753Y-120948433D01*
X115343230Y-120947910D01*
X115291940Y-120985356D01*
X115222193Y-120989506D01*
X115161275Y-120955289D01*
X115151630Y-120944158D01*
X115150501Y-120942687D01*
X115057316Y-120849502D01*
X115057314Y-120849500D01*
X114994673Y-120813334D01*
X114943187Y-120783608D01*
X114879539Y-120766554D01*
X114815892Y-120749500D01*
X114684108Y-120749500D01*
X114556812Y-120783608D01*
X114442686Y-120849500D01*
X114442683Y-120849502D01*
X114349502Y-120942683D01*
X114349500Y-120942686D01*
X114283608Y-121056812D01*
X114261452Y-121139502D01*
X114249500Y-121184108D01*
X114249500Y-121315892D01*
X114260946Y-121358608D01*
X114270270Y-121393407D01*
X114268607Y-121463257D01*
X114229444Y-121521119D01*
X114165216Y-121548623D01*
X114150495Y-121549500D01*
X114144108Y-121549500D01*
X114016812Y-121583608D01*
X113902686Y-121649500D01*
X113902683Y-121649502D01*
X113809502Y-121742683D01*
X113809500Y-121742686D01*
X113743608Y-121856812D01*
X113709500Y-121984108D01*
X113709500Y-122115891D01*
X113743608Y-122243187D01*
X113765909Y-122281812D01*
X113809500Y-122357314D01*
X113809502Y-122357316D01*
X113813597Y-122361411D01*
X113847082Y-122422734D01*
X113842098Y-122492426D01*
X113800226Y-122548359D01*
X113787926Y-122556474D01*
X113782689Y-122559497D01*
X113782683Y-122559502D01*
X113689502Y-122652683D01*
X113689500Y-122652686D01*
X113623608Y-122766812D01*
X113589500Y-122894108D01*
X96350500Y-122894108D01*
X96350500Y-120744108D01*
X117059500Y-120744108D01*
X117059500Y-120875892D01*
X117076554Y-120939539D01*
X117093608Y-121003187D01*
X117110930Y-121033189D01*
X117159500Y-121117314D01*
X117252686Y-121210500D01*
X117366814Y-121276392D01*
X117494108Y-121310500D01*
X117494110Y-121310500D01*
X117625890Y-121310500D01*
X117625892Y-121310500D01*
X117753186Y-121276392D01*
X117867314Y-121210500D01*
X117960500Y-121117314D01*
X118026392Y-121003186D01*
X118060500Y-120875892D01*
X118060500Y-120774108D01*
X134039500Y-120774108D01*
X134039500Y-120905891D01*
X134073608Y-121033187D01*
X134091386Y-121063978D01*
X134139500Y-121147314D01*
X134232686Y-121240500D01*
X134346814Y-121306392D01*
X134474108Y-121340500D01*
X134474110Y-121340500D01*
X134605890Y-121340500D01*
X134605892Y-121340500D01*
X134733186Y-121306392D01*
X134847314Y-121240500D01*
X134940500Y-121147314D01*
X134948125Y-121134108D01*
X135709500Y-121134108D01*
X135709500Y-121265892D01*
X135720352Y-121306391D01*
X135743608Y-121393187D01*
X135761687Y-121424500D01*
X135809500Y-121507314D01*
X135902686Y-121600500D01*
X136016814Y-121666392D01*
X136144108Y-121700500D01*
X136144110Y-121700500D01*
X136275890Y-121700500D01*
X136275892Y-121700500D01*
X136403186Y-121666392D01*
X136517314Y-121600500D01*
X136610500Y-121507314D01*
X136676392Y-121393186D01*
X136710500Y-121265892D01*
X136710500Y-121134108D01*
X136676392Y-121006814D01*
X136610500Y-120892686D01*
X136517314Y-120799500D01*
X136430712Y-120749500D01*
X136403187Y-120733608D01*
X136339539Y-120716554D01*
X136275892Y-120699500D01*
X136144108Y-120699500D01*
X136016812Y-120733608D01*
X135902686Y-120799500D01*
X135902683Y-120799502D01*
X135809502Y-120892683D01*
X135809500Y-120892686D01*
X135743608Y-121006812D01*
X135725711Y-121073608D01*
X135709500Y-121134108D01*
X134948125Y-121134108D01*
X135006392Y-121033186D01*
X135040500Y-120905892D01*
X135040500Y-120774108D01*
X135006392Y-120646814D01*
X134940500Y-120532686D01*
X134847314Y-120439500D01*
X134790250Y-120406554D01*
X134733187Y-120373608D01*
X134629747Y-120345892D01*
X134605892Y-120339500D01*
X134474108Y-120339500D01*
X134346812Y-120373608D01*
X134232686Y-120439500D01*
X134232683Y-120439502D01*
X134139502Y-120532683D01*
X134139500Y-120532686D01*
X134073608Y-120646812D01*
X134039500Y-120774108D01*
X118060500Y-120774108D01*
X118060500Y-120744108D01*
X118026392Y-120616814D01*
X117960500Y-120502686D01*
X117867314Y-120409500D01*
X117805147Y-120373608D01*
X117753187Y-120343608D01*
X117689539Y-120326554D01*
X117625892Y-120309500D01*
X117494108Y-120309500D01*
X117366812Y-120343608D01*
X117252686Y-120409500D01*
X117252683Y-120409502D01*
X117159502Y-120502683D01*
X117159500Y-120502686D01*
X117093608Y-120616812D01*
X117070352Y-120703608D01*
X117059500Y-120744108D01*
X96350500Y-120744108D01*
X96350500Y-120214108D01*
X138229500Y-120214108D01*
X138229500Y-120345892D01*
X138246544Y-120409500D01*
X138263608Y-120473187D01*
X138280638Y-120502683D01*
X138329500Y-120587314D01*
X138329502Y-120587316D01*
X138424505Y-120682319D01*
X138457990Y-120743642D01*
X138453006Y-120813334D01*
X138424505Y-120857681D01*
X138419502Y-120862683D01*
X138419500Y-120862686D01*
X138353608Y-120976812D01*
X138336811Y-121039500D01*
X138319500Y-121104108D01*
X138319500Y-121235892D01*
X138330352Y-121276391D01*
X138353608Y-121363187D01*
X138370929Y-121393187D01*
X138419500Y-121477314D01*
X138512686Y-121570500D01*
X138626814Y-121636392D01*
X138754108Y-121670500D01*
X138754110Y-121670500D01*
X138885890Y-121670500D01*
X138885892Y-121670500D01*
X139013186Y-121636392D01*
X139127314Y-121570500D01*
X139220500Y-121477314D01*
X139286392Y-121363186D01*
X139320500Y-121235892D01*
X139320500Y-121104108D01*
X139286392Y-120976814D01*
X139220500Y-120862686D01*
X139127314Y-120769500D01*
X139125495Y-120767681D01*
X139092010Y-120706358D01*
X139096994Y-120636666D01*
X139125495Y-120592319D01*
X139130500Y-120587314D01*
X139196392Y-120473186D01*
X139230500Y-120345892D01*
X139230500Y-120214108D01*
X139196392Y-120086814D01*
X139195085Y-120084551D01*
X139156795Y-120018231D01*
X139130500Y-119972686D01*
X139037314Y-119879500D01*
X138980250Y-119846554D01*
X138923187Y-119813608D01*
X138859539Y-119796554D01*
X138795892Y-119779500D01*
X138664108Y-119779500D01*
X138536812Y-119813608D01*
X138422686Y-119879500D01*
X138422683Y-119879502D01*
X138329502Y-119972683D01*
X138329500Y-119972686D01*
X138263608Y-120086812D01*
X138249223Y-120140499D01*
X138229500Y-120214108D01*
X96350500Y-120214108D01*
X96350500Y-118774108D01*
X101349500Y-118774108D01*
X101349500Y-118905892D01*
X101366554Y-118969539D01*
X101383608Y-119033187D01*
X101416554Y-119090250D01*
X101449500Y-119147314D01*
X101542686Y-119240500D01*
X101656814Y-119306392D01*
X101784108Y-119340500D01*
X101784110Y-119340500D01*
X101915890Y-119340500D01*
X101915892Y-119340500D01*
X102043186Y-119306392D01*
X102157314Y-119240500D01*
X102250500Y-119147314D01*
X102316392Y-119033186D01*
X102328893Y-118986530D01*
X118864500Y-118986530D01*
X118864500Y-119193469D01*
X118904868Y-119396412D01*
X118904870Y-119396420D01*
X118984058Y-119587596D01*
X119099024Y-119759657D01*
X119245342Y-119905975D01*
X119245345Y-119905977D01*
X119417402Y-120020941D01*
X119608580Y-120100130D01*
X119753052Y-120128867D01*
X119811530Y-120140499D01*
X119811534Y-120140500D01*
X119811535Y-120140500D01*
X120018466Y-120140500D01*
X120018467Y-120140499D01*
X120221420Y-120100130D01*
X120412598Y-120020941D01*
X120584655Y-119905977D01*
X120730977Y-119759655D01*
X120845941Y-119587598D01*
X120925130Y-119396420D01*
X120965500Y-119193465D01*
X120965500Y-118986535D01*
X120925130Y-118783580D01*
X120845941Y-118592402D01*
X120730977Y-118420345D01*
X120730975Y-118420342D01*
X120584657Y-118274024D01*
X120504173Y-118220247D01*
X121404500Y-118220247D01*
X121404500Y-119959752D01*
X121416131Y-120018229D01*
X121416132Y-120018230D01*
X121460447Y-120084552D01*
X121526769Y-120128867D01*
X121526770Y-120128868D01*
X121585247Y-120140499D01*
X121585250Y-120140500D01*
X121585252Y-120140500D01*
X123324750Y-120140500D01*
X123324751Y-120140499D01*
X123339568Y-120137552D01*
X123383229Y-120128868D01*
X123383229Y-120128867D01*
X123383231Y-120128867D01*
X123449552Y-120084552D01*
X123493867Y-120018231D01*
X123493867Y-120018229D01*
X123493868Y-120018229D01*
X123505499Y-119959752D01*
X123505500Y-119959750D01*
X123505500Y-118220249D01*
X123505499Y-118220247D01*
X123493868Y-118161770D01*
X123493867Y-118161769D01*
X123449552Y-118095447D01*
X123383230Y-118051132D01*
X123383229Y-118051131D01*
X123324752Y-118039500D01*
X123324748Y-118039500D01*
X121585252Y-118039500D01*
X121585247Y-118039500D01*
X121526770Y-118051131D01*
X121526769Y-118051132D01*
X121460447Y-118095447D01*
X121416132Y-118161769D01*
X121416131Y-118161770D01*
X121404500Y-118220247D01*
X120504173Y-118220247D01*
X120416655Y-118161770D01*
X120412598Y-118159059D01*
X120221420Y-118079870D01*
X120221412Y-118079868D01*
X120018469Y-118039500D01*
X120018465Y-118039500D01*
X119811535Y-118039500D01*
X119811530Y-118039500D01*
X119608587Y-118079868D01*
X119608579Y-118079870D01*
X119417403Y-118159058D01*
X119245342Y-118274024D01*
X119099024Y-118420342D01*
X118984058Y-118592403D01*
X118904870Y-118783579D01*
X118904868Y-118783587D01*
X118864500Y-118986530D01*
X102328893Y-118986530D01*
X102350500Y-118905892D01*
X102350500Y-118774108D01*
X102316392Y-118646814D01*
X102250500Y-118532686D01*
X102157314Y-118439500D01*
X102100250Y-118406554D01*
X102043187Y-118373608D01*
X101979539Y-118356554D01*
X101915892Y-118339500D01*
X101784108Y-118339500D01*
X101656812Y-118373608D01*
X101542686Y-118439500D01*
X101542683Y-118439502D01*
X101449502Y-118532683D01*
X101449500Y-118532686D01*
X101383608Y-118646812D01*
X101349500Y-118774108D01*
X96350500Y-118774108D01*
X96350500Y-117534108D01*
X139124500Y-117534108D01*
X139124500Y-117665891D01*
X139158608Y-117793187D01*
X139191554Y-117850250D01*
X139224500Y-117907314D01*
X139317686Y-118000500D01*
X139431814Y-118066392D01*
X139559108Y-118100500D01*
X139559110Y-118100500D01*
X139690890Y-118100500D01*
X139690892Y-118100500D01*
X139818186Y-118066392D01*
X139932314Y-118000500D01*
X140025500Y-117907314D01*
X140091392Y-117793186D01*
X140125500Y-117665892D01*
X140125500Y-117534108D01*
X140091392Y-117406814D01*
X140025500Y-117292686D01*
X139932314Y-117199500D01*
X139875250Y-117166554D01*
X139818187Y-117133608D01*
X139754539Y-117116554D01*
X139690892Y-117099500D01*
X139559108Y-117099500D01*
X139431812Y-117133608D01*
X139317686Y-117199500D01*
X139317683Y-117199502D01*
X139224502Y-117292683D01*
X139224500Y-117292686D01*
X139158608Y-117406812D01*
X139124500Y-117534108D01*
X96350500Y-117534108D01*
X96350500Y-115905247D01*
X142224500Y-115905247D01*
X142224500Y-117644752D01*
X142236131Y-117703229D01*
X142236132Y-117703230D01*
X142280447Y-117769552D01*
X142346769Y-117813867D01*
X142346770Y-117813868D01*
X142405247Y-117825499D01*
X142405250Y-117825500D01*
X142405252Y-117825500D01*
X144144750Y-117825500D01*
X144144751Y-117825499D01*
X144159568Y-117822552D01*
X144203229Y-117813868D01*
X144203229Y-117813867D01*
X144203231Y-117813867D01*
X144269552Y-117769552D01*
X144313867Y-117703231D01*
X144313867Y-117703229D01*
X144313868Y-117703229D01*
X144325499Y-117644752D01*
X144325500Y-117644750D01*
X144325500Y-116671530D01*
X144764500Y-116671530D01*
X144764500Y-116878469D01*
X144804868Y-117081412D01*
X144804870Y-117081420D01*
X144884059Y-117272598D01*
X144941541Y-117358626D01*
X144999024Y-117444657D01*
X145145342Y-117590975D01*
X145145345Y-117590977D01*
X145317402Y-117705941D01*
X145508580Y-117785130D01*
X145653052Y-117813867D01*
X145711530Y-117825499D01*
X145711534Y-117825500D01*
X145711535Y-117825500D01*
X145918466Y-117825500D01*
X145918467Y-117825499D01*
X146121420Y-117785130D01*
X146312598Y-117705941D01*
X146484655Y-117590977D01*
X146630977Y-117444655D01*
X146745941Y-117272598D01*
X146825130Y-117081420D01*
X146865500Y-116878465D01*
X146865500Y-116671535D01*
X146825130Y-116468580D01*
X146745941Y-116277402D01*
X146630977Y-116105345D01*
X146630975Y-116105342D01*
X146484657Y-115959024D01*
X146316655Y-115846770D01*
X146312598Y-115844059D01*
X146121420Y-115764870D01*
X146121412Y-115764868D01*
X145918469Y-115724500D01*
X145918465Y-115724500D01*
X145711535Y-115724500D01*
X145711530Y-115724500D01*
X145508587Y-115764868D01*
X145508579Y-115764870D01*
X145317403Y-115844058D01*
X145145342Y-115959024D01*
X144999024Y-116105342D01*
X144884058Y-116277403D01*
X144804870Y-116468579D01*
X144804868Y-116468587D01*
X144764500Y-116671530D01*
X144325500Y-116671530D01*
X144325500Y-115905249D01*
X144325499Y-115905247D01*
X144313868Y-115846770D01*
X144313867Y-115846769D01*
X144269552Y-115780447D01*
X144203230Y-115736132D01*
X144203229Y-115736131D01*
X144144752Y-115724500D01*
X144144748Y-115724500D01*
X142405252Y-115724500D01*
X142405247Y-115724500D01*
X142346770Y-115736131D01*
X142346769Y-115736132D01*
X142280447Y-115780447D01*
X142236132Y-115846769D01*
X142236131Y-115846770D01*
X142224500Y-115905247D01*
X96350500Y-115905247D01*
X96350500Y-114636530D01*
X118199500Y-114636530D01*
X118199500Y-114843469D01*
X118239868Y-115046412D01*
X118239870Y-115046420D01*
X118319058Y-115237596D01*
X118434024Y-115409657D01*
X118580342Y-115555975D01*
X118580345Y-115555977D01*
X118752402Y-115670941D01*
X118943580Y-115750130D01*
X119095995Y-115780447D01*
X119146530Y-115790499D01*
X119146534Y-115790500D01*
X119146535Y-115790500D01*
X119353466Y-115790500D01*
X119353467Y-115790499D01*
X119556420Y-115750130D01*
X119747598Y-115670941D01*
X119919655Y-115555977D01*
X120065977Y-115409655D01*
X120180941Y-115237598D01*
X120192742Y-115209108D01*
X123087000Y-115209108D01*
X123087000Y-115340891D01*
X123121108Y-115468187D01*
X123154054Y-115525250D01*
X123187000Y-115582314D01*
X123280186Y-115675500D01*
X123394314Y-115741392D01*
X123521608Y-115775500D01*
X123521610Y-115775500D01*
X123653390Y-115775500D01*
X123653392Y-115775500D01*
X123780686Y-115741392D01*
X123894814Y-115675500D01*
X123988000Y-115582314D01*
X124053892Y-115468186D01*
X124088000Y-115340892D01*
X124088000Y-115209108D01*
X124053892Y-115081814D01*
X123988000Y-114967686D01*
X123894814Y-114874500D01*
X123837750Y-114841554D01*
X123780687Y-114808608D01*
X123717039Y-114791554D01*
X123653392Y-114774500D01*
X123521608Y-114774500D01*
X123394312Y-114808608D01*
X123280186Y-114874500D01*
X123280183Y-114874502D01*
X123187002Y-114967683D01*
X123187000Y-114967686D01*
X123121108Y-115081812D01*
X123087000Y-115209108D01*
X120192742Y-115209108D01*
X120260130Y-115046420D01*
X120300500Y-114843465D01*
X120300500Y-114636535D01*
X120260130Y-114433580D01*
X120180941Y-114242402D01*
X120088537Y-114104108D01*
X140139500Y-114104108D01*
X140139500Y-114235892D01*
X140141245Y-114242403D01*
X140173608Y-114363187D01*
X140206554Y-114420250D01*
X140239500Y-114477314D01*
X140332686Y-114570500D01*
X140446814Y-114636392D01*
X140574108Y-114670500D01*
X140574110Y-114670500D01*
X140705890Y-114670500D01*
X140705892Y-114670500D01*
X140833186Y-114636392D01*
X140947314Y-114570500D01*
X141040500Y-114477314D01*
X141106392Y-114363186D01*
X141140500Y-114235892D01*
X141140500Y-114213598D01*
X141160185Y-114146559D01*
X141212989Y-114100804D01*
X141282147Y-114090860D01*
X141319140Y-114103664D01*
X141319300Y-114103280D01*
X141325759Y-114105955D01*
X141326503Y-114106212D01*
X141326814Y-114106392D01*
X141454108Y-114140500D01*
X141454110Y-114140500D01*
X141585890Y-114140500D01*
X141585892Y-114140500D01*
X141713186Y-114106392D01*
X141827314Y-114040500D01*
X141920500Y-113947314D01*
X141986392Y-113833186D01*
X142020500Y-113705892D01*
X142020500Y-113574108D01*
X141986392Y-113446814D01*
X141920500Y-113332686D01*
X141827314Y-113239500D01*
X141749462Y-113194552D01*
X141713187Y-113173608D01*
X141649539Y-113156554D01*
X141585892Y-113139500D01*
X141454108Y-113139500D01*
X141326812Y-113173608D01*
X141212686Y-113239500D01*
X141212683Y-113239502D01*
X141119502Y-113332683D01*
X141119500Y-113332686D01*
X141053608Y-113446812D01*
X141019500Y-113574108D01*
X141019500Y-113596401D01*
X140999815Y-113663440D01*
X140947011Y-113709195D01*
X140877853Y-113719139D01*
X140840858Y-113706336D01*
X140840700Y-113706720D01*
X140834257Y-113704051D01*
X140833507Y-113703792D01*
X140833193Y-113703611D01*
X140833188Y-113703609D01*
X140833187Y-113703608D01*
X140833186Y-113703608D01*
X140705892Y-113669500D01*
X140574108Y-113669500D01*
X140446812Y-113703608D01*
X140332686Y-113769500D01*
X140332683Y-113769502D01*
X140239502Y-113862683D01*
X140239500Y-113862686D01*
X140173608Y-113976812D01*
X140148547Y-114070342D01*
X140139500Y-114104108D01*
X120088537Y-114104108D01*
X120088240Y-114103664D01*
X120065977Y-114070344D01*
X119919657Y-113924024D01*
X119783707Y-113833186D01*
X119747598Y-113809059D01*
X119556420Y-113729870D01*
X119556412Y-113729868D01*
X119353469Y-113689500D01*
X119353465Y-113689500D01*
X119146535Y-113689500D01*
X119146530Y-113689500D01*
X118943587Y-113729868D01*
X118943579Y-113729870D01*
X118752403Y-113809058D01*
X118580342Y-113924024D01*
X118434024Y-114070342D01*
X118319058Y-114242403D01*
X118239870Y-114433579D01*
X118239868Y-114433587D01*
X118199500Y-114636530D01*
X96350500Y-114636530D01*
X96350500Y-112474108D01*
X101349500Y-112474108D01*
X101349500Y-112605891D01*
X101383608Y-112733187D01*
X101410239Y-112779312D01*
X101449500Y-112847314D01*
X101542686Y-112940500D01*
X101656814Y-113006392D01*
X101784108Y-113040500D01*
X101784110Y-113040500D01*
X101915890Y-113040500D01*
X101915892Y-113040500D01*
X102043186Y-113006392D01*
X102157314Y-112940500D01*
X102250500Y-112847314D01*
X102316392Y-112733186D01*
X102350500Y-112605892D01*
X102350500Y-112474108D01*
X102316392Y-112346814D01*
X102250500Y-112232686D01*
X102157314Y-112139500D01*
X102100250Y-112106554D01*
X102043187Y-112073608D01*
X101979539Y-112056554D01*
X101915892Y-112039500D01*
X101784108Y-112039500D01*
X101656812Y-112073608D01*
X101542686Y-112139500D01*
X101542683Y-112139502D01*
X101449502Y-112232683D01*
X101449500Y-112232686D01*
X101383608Y-112346812D01*
X101349500Y-112474108D01*
X96350500Y-112474108D01*
X96350500Y-111330247D01*
X118199500Y-111330247D01*
X118199500Y-113069752D01*
X118211131Y-113128229D01*
X118211132Y-113128230D01*
X118255447Y-113194552D01*
X118321769Y-113238867D01*
X118321770Y-113238868D01*
X118380247Y-113250499D01*
X118380250Y-113250500D01*
X118380252Y-113250500D01*
X120119750Y-113250500D01*
X120119751Y-113250499D01*
X120134568Y-113247552D01*
X120178229Y-113238868D01*
X120178229Y-113238867D01*
X120178231Y-113238867D01*
X120244552Y-113194552D01*
X120288867Y-113128231D01*
X120288867Y-113128229D01*
X120288868Y-113128229D01*
X120300499Y-113069752D01*
X120300500Y-113069750D01*
X120300500Y-112906608D01*
X125739500Y-112906608D01*
X125739500Y-113038391D01*
X125773608Y-113165687D01*
X125790274Y-113194552D01*
X125839500Y-113279814D01*
X125932686Y-113373000D01*
X126046814Y-113438892D01*
X126174108Y-113473000D01*
X126174110Y-113473000D01*
X126305890Y-113473000D01*
X126305892Y-113473000D01*
X126433186Y-113438892D01*
X126547314Y-113373000D01*
X126640500Y-113279814D01*
X126706392Y-113165686D01*
X126740500Y-113038392D01*
X126740500Y-112906608D01*
X126706392Y-112779314D01*
X126640500Y-112665186D01*
X126547314Y-112572000D01*
X126490250Y-112539054D01*
X126433187Y-112506108D01*
X126369539Y-112489054D01*
X126305892Y-112472000D01*
X126174108Y-112472000D01*
X126046812Y-112506108D01*
X125932686Y-112572000D01*
X125932683Y-112572002D01*
X125839502Y-112665183D01*
X125839500Y-112665186D01*
X125773608Y-112779312D01*
X125739500Y-112906608D01*
X120300500Y-112906608D01*
X120300500Y-111421608D01*
X135974500Y-111421608D01*
X135974500Y-111553391D01*
X136008608Y-111680687D01*
X136041554Y-111737750D01*
X136074500Y-111794814D01*
X136167686Y-111888000D01*
X136281814Y-111953892D01*
X136409108Y-111988000D01*
X136409110Y-111988000D01*
X136540890Y-111988000D01*
X136540892Y-111988000D01*
X136668186Y-111953892D01*
X136782314Y-111888000D01*
X136875500Y-111794814D01*
X136941392Y-111680686D01*
X136975500Y-111553392D01*
X136975500Y-111509108D01*
X137799500Y-111509108D01*
X137799500Y-111640891D01*
X137833608Y-111768187D01*
X137848983Y-111794816D01*
X137899500Y-111882314D01*
X137992686Y-111975500D01*
X138106814Y-112041392D01*
X138234108Y-112075500D01*
X138234110Y-112075500D01*
X138365890Y-112075500D01*
X138365892Y-112075500D01*
X138493186Y-112041392D01*
X138607314Y-111975500D01*
X138700500Y-111882314D01*
X138766392Y-111768186D01*
X138800500Y-111640892D01*
X138800500Y-111509108D01*
X138766392Y-111381814D01*
X138700500Y-111267686D01*
X138607314Y-111174500D01*
X138550250Y-111141554D01*
X138493187Y-111108608D01*
X138429539Y-111091554D01*
X138365892Y-111074500D01*
X138234108Y-111074500D01*
X138106812Y-111108608D01*
X137992686Y-111174500D01*
X137992683Y-111174502D01*
X137899502Y-111267683D01*
X137899500Y-111267686D01*
X137833608Y-111381812D01*
X137799500Y-111509108D01*
X136975500Y-111509108D01*
X136975500Y-111421608D01*
X136941392Y-111294314D01*
X136875500Y-111180186D01*
X136782314Y-111087000D01*
X136725250Y-111054054D01*
X136668187Y-111021108D01*
X136604539Y-111004054D01*
X136540892Y-110987000D01*
X136409108Y-110987000D01*
X136281812Y-111021108D01*
X136167686Y-111087000D01*
X136167683Y-111087002D01*
X136074502Y-111180183D01*
X136074500Y-111180186D01*
X136008608Y-111294312D01*
X135974500Y-111421608D01*
X120300500Y-111421608D01*
X120300500Y-111330249D01*
X120300499Y-111330247D01*
X120288868Y-111271770D01*
X120288867Y-111271769D01*
X120244552Y-111205447D01*
X120178230Y-111161132D01*
X120178229Y-111161131D01*
X120119752Y-111149500D01*
X120119748Y-111149500D01*
X118380252Y-111149500D01*
X118380247Y-111149500D01*
X118321770Y-111161131D01*
X118321769Y-111161132D01*
X118255447Y-111205447D01*
X118211132Y-111271769D01*
X118211131Y-111271770D01*
X118199500Y-111330247D01*
X96350500Y-111330247D01*
X96350500Y-109418124D01*
X125785484Y-109418124D01*
X125785484Y-109549908D01*
X125790142Y-109567291D01*
X125819592Y-109677203D01*
X125829629Y-109694587D01*
X125885484Y-109791330D01*
X125978670Y-109884516D01*
X126092798Y-109950408D01*
X126220092Y-109984516D01*
X126220094Y-109984516D01*
X126351874Y-109984516D01*
X126351876Y-109984516D01*
X126479170Y-109950408D01*
X126593298Y-109884516D01*
X126686484Y-109791330D01*
X126694886Y-109776776D01*
X126745450Y-109728562D01*
X126814057Y-109715337D01*
X126878922Y-109741303D01*
X126909659Y-109776775D01*
X126928095Y-109808707D01*
X126928098Y-109808711D01*
X126928100Y-109808714D01*
X127021286Y-109901900D01*
X127135414Y-109967792D01*
X127262708Y-110001900D01*
X127262710Y-110001900D01*
X127394490Y-110001900D01*
X127394492Y-110001900D01*
X127521786Y-109967792D01*
X127635914Y-109901900D01*
X127729100Y-109808714D01*
X127794992Y-109694586D01*
X127829100Y-109567292D01*
X127829100Y-109435508D01*
X127794992Y-109308214D01*
X127729100Y-109194086D01*
X127635914Y-109100900D01*
X127606829Y-109084108D01*
X137624500Y-109084108D01*
X137624500Y-109215892D01*
X137639019Y-109270077D01*
X137658608Y-109343187D01*
X137691554Y-109400250D01*
X137724500Y-109457314D01*
X137817686Y-109550500D01*
X137931814Y-109616392D01*
X138059108Y-109650500D01*
X138059110Y-109650500D01*
X138190890Y-109650500D01*
X138190892Y-109650500D01*
X138318186Y-109616392D01*
X138432314Y-109550500D01*
X138525500Y-109457314D01*
X138591392Y-109343186D01*
X138625500Y-109215892D01*
X138625500Y-109084108D01*
X138591392Y-108956814D01*
X138525500Y-108842686D01*
X138432314Y-108749500D01*
X138375250Y-108716554D01*
X138318187Y-108683608D01*
X138254539Y-108666554D01*
X138190892Y-108649500D01*
X138059108Y-108649500D01*
X137931812Y-108683608D01*
X137817686Y-108749500D01*
X137817683Y-108749502D01*
X137724502Y-108842683D01*
X137724500Y-108842686D01*
X137658608Y-108956812D01*
X137642314Y-109017624D01*
X137624500Y-109084108D01*
X127606829Y-109084108D01*
X127521786Y-109035008D01*
X127452164Y-109016353D01*
X127392504Y-108979987D01*
X127361976Y-108917140D01*
X127370271Y-108847764D01*
X127414757Y-108793887D01*
X127422248Y-108789198D01*
X127437314Y-108780500D01*
X127530500Y-108687314D01*
X127596392Y-108573186D01*
X127630500Y-108445892D01*
X127630500Y-108314108D01*
X127596392Y-108186814D01*
X127530500Y-108072686D01*
X127437314Y-107979500D01*
X127369764Y-107940500D01*
X127323187Y-107913608D01*
X127259539Y-107896554D01*
X127195892Y-107879500D01*
X127064108Y-107879500D01*
X126936812Y-107913608D01*
X126822686Y-107979500D01*
X126822683Y-107979502D01*
X126729502Y-108072683D01*
X126729500Y-108072686D01*
X126663608Y-108186812D01*
X126629500Y-108314108D01*
X126629500Y-108445891D01*
X126663608Y-108573187D01*
X126696554Y-108630250D01*
X126729500Y-108687314D01*
X126822686Y-108780500D01*
X126936814Y-108846392D01*
X127006435Y-108865046D01*
X127066094Y-108901411D01*
X127096623Y-108964258D01*
X127088328Y-109033634D01*
X127061964Y-109072560D01*
X127050442Y-109084066D01*
X127021286Y-109100900D01*
X126928100Y-109194086D01*
X126911514Y-109222812D01*
X126899934Y-109234378D01*
X126883045Y-109243585D01*
X126869127Y-109256856D01*
X126853004Y-109259962D01*
X126838589Y-109267822D01*
X126819405Y-109266437D01*
X126800519Y-109270077D01*
X126785275Y-109263973D01*
X126768900Y-109262792D01*
X126753510Y-109251256D01*
X126735655Y-109244107D01*
X126720238Y-109226314D01*
X126712994Y-109220884D01*
X126711081Y-109215746D01*
X126704923Y-109208639D01*
X126702376Y-109204228D01*
X126686484Y-109176702D01*
X126593298Y-109083516D01*
X126509280Y-109035008D01*
X126479171Y-109017624D01*
X126415523Y-109000570D01*
X126351876Y-108983516D01*
X126220092Y-108983516D01*
X126092796Y-109017624D01*
X125978670Y-109083516D01*
X125978667Y-109083518D01*
X125885486Y-109176699D01*
X125885484Y-109176702D01*
X125819592Y-109290828D01*
X125814934Y-109308214D01*
X125785484Y-109418124D01*
X96350500Y-109418124D01*
X96350500Y-107474108D01*
X129209500Y-107474108D01*
X129209500Y-107605892D01*
X129226554Y-107669539D01*
X129243608Y-107733187D01*
X129249382Y-107743187D01*
X129309500Y-107847314D01*
X129402686Y-107940500D01*
X129516814Y-108006392D01*
X129644108Y-108040500D01*
X129644110Y-108040500D01*
X129775890Y-108040500D01*
X129775892Y-108040500D01*
X129903186Y-108006392D01*
X130017314Y-107940500D01*
X130110500Y-107847314D01*
X130176392Y-107733186D01*
X130210500Y-107605892D01*
X130210500Y-107484108D01*
X137865648Y-107484108D01*
X137865648Y-107615891D01*
X137899756Y-107743187D01*
X137932702Y-107800250D01*
X137965648Y-107857314D01*
X138058834Y-107950500D01*
X138172962Y-108016392D01*
X138300256Y-108050500D01*
X138300258Y-108050500D01*
X138432038Y-108050500D01*
X138432040Y-108050500D01*
X138559334Y-108016392D01*
X138673462Y-107950500D01*
X138766648Y-107857314D01*
X138832540Y-107743186D01*
X138866648Y-107615892D01*
X138866648Y-107484108D01*
X138832540Y-107356814D01*
X138826766Y-107346814D01*
X138823711Y-107341521D01*
X138766648Y-107242686D01*
X138673462Y-107149500D01*
X138616398Y-107116554D01*
X138559335Y-107083608D01*
X138495687Y-107066554D01*
X138432040Y-107049500D01*
X138300256Y-107049500D01*
X138172960Y-107083608D01*
X138058834Y-107149500D01*
X138058831Y-107149502D01*
X137965650Y-107242683D01*
X137965648Y-107242686D01*
X137899756Y-107356812D01*
X137865648Y-107484108D01*
X130210500Y-107484108D01*
X130210500Y-107474108D01*
X130176392Y-107346814D01*
X130110500Y-107232686D01*
X130017314Y-107139500D01*
X129960250Y-107106554D01*
X129903187Y-107073608D01*
X129839539Y-107056554D01*
X129775892Y-107039500D01*
X129644108Y-107039500D01*
X129516812Y-107073608D01*
X129402686Y-107139500D01*
X129402683Y-107139502D01*
X129309502Y-107232683D01*
X129309500Y-107232686D01*
X129243608Y-107346812D01*
X129209500Y-107474108D01*
X96350500Y-107474108D01*
X96350500Y-102259108D01*
X125374500Y-102259108D01*
X125374500Y-102390892D01*
X125391554Y-102454539D01*
X125408608Y-102518187D01*
X125411204Y-102522683D01*
X125474500Y-102632314D01*
X125567686Y-102725500D01*
X125681814Y-102791392D01*
X125809108Y-102825500D01*
X125809110Y-102825500D01*
X125940890Y-102825500D01*
X125940892Y-102825500D01*
X126068186Y-102791392D01*
X126115443Y-102764108D01*
X129789500Y-102764108D01*
X129789500Y-102895891D01*
X129823608Y-103023187D01*
X129838800Y-103049500D01*
X129889500Y-103137314D01*
X129982686Y-103230500D01*
X130096814Y-103296392D01*
X130224108Y-103330500D01*
X130224110Y-103330500D01*
X130355890Y-103330500D01*
X130355892Y-103330500D01*
X130483186Y-103296392D01*
X130597314Y-103230500D01*
X130690500Y-103137314D01*
X130756392Y-103023186D01*
X130764183Y-102994108D01*
X136299500Y-102994108D01*
X136299500Y-103125892D01*
X136302561Y-103137316D01*
X136333608Y-103253187D01*
X136358552Y-103296391D01*
X136399500Y-103367314D01*
X136492686Y-103460500D01*
X136606814Y-103526392D01*
X136734108Y-103560500D01*
X136734110Y-103560500D01*
X136865890Y-103560500D01*
X136865892Y-103560500D01*
X136993186Y-103526392D01*
X137066424Y-103484108D01*
X137824500Y-103484108D01*
X137824500Y-103615891D01*
X137858608Y-103743187D01*
X137891554Y-103800250D01*
X137924500Y-103857314D01*
X138017686Y-103950500D01*
X138131814Y-104016392D01*
X138259108Y-104050500D01*
X138259110Y-104050500D01*
X138390890Y-104050500D01*
X138390892Y-104050500D01*
X138518186Y-104016392D01*
X138632314Y-103950500D01*
X138725500Y-103857314D01*
X138791392Y-103743186D01*
X138825500Y-103615892D01*
X138825500Y-103484108D01*
X138791392Y-103356814D01*
X138725500Y-103242686D01*
X138632314Y-103149500D01*
X138575250Y-103116554D01*
X138518187Y-103083608D01*
X138454539Y-103066554D01*
X138390892Y-103049500D01*
X138259108Y-103049500D01*
X138131812Y-103083608D01*
X138017686Y-103149500D01*
X138017683Y-103149502D01*
X137924502Y-103242683D01*
X137924500Y-103242686D01*
X137858608Y-103356812D01*
X137824500Y-103484108D01*
X137066424Y-103484108D01*
X137107314Y-103460500D01*
X137200500Y-103367314D01*
X137266392Y-103253186D01*
X137300500Y-103125892D01*
X137300500Y-102994108D01*
X137266392Y-102866814D01*
X137200500Y-102752686D01*
X137107314Y-102659500D01*
X137050250Y-102626554D01*
X136993187Y-102593608D01*
X136929539Y-102576554D01*
X136865892Y-102559500D01*
X136734108Y-102559500D01*
X136606812Y-102593608D01*
X136492686Y-102659500D01*
X136492683Y-102659502D01*
X136399502Y-102752683D01*
X136399500Y-102752686D01*
X136333608Y-102866812D01*
X136299500Y-102994108D01*
X130764183Y-102994108D01*
X130790500Y-102895892D01*
X130790500Y-102764108D01*
X130756392Y-102636814D01*
X130690500Y-102522686D01*
X130597314Y-102429500D01*
X130530440Y-102390890D01*
X130483187Y-102363608D01*
X130419539Y-102346554D01*
X130355892Y-102329500D01*
X130224108Y-102329500D01*
X130096812Y-102363608D01*
X129982686Y-102429500D01*
X129982683Y-102429502D01*
X129889502Y-102522683D01*
X129889500Y-102522686D01*
X129823608Y-102636812D01*
X129789500Y-102764108D01*
X126115443Y-102764108D01*
X126182314Y-102725500D01*
X126275500Y-102632314D01*
X126341392Y-102518186D01*
X126375500Y-102390892D01*
X126375500Y-102324108D01*
X132149500Y-102324108D01*
X132149500Y-102455891D01*
X132183608Y-102583187D01*
X132211972Y-102632314D01*
X132249500Y-102697314D01*
X132342686Y-102790500D01*
X132456814Y-102856392D01*
X132584108Y-102890500D01*
X132584110Y-102890500D01*
X132715890Y-102890500D01*
X132715892Y-102890500D01*
X132843186Y-102856392D01*
X132957314Y-102790500D01*
X133050500Y-102697314D01*
X133116392Y-102583186D01*
X133150500Y-102455892D01*
X133150500Y-102324108D01*
X133116392Y-102196814D01*
X133050500Y-102082686D01*
X132957314Y-101989500D01*
X132900250Y-101956554D01*
X132843187Y-101923608D01*
X132779539Y-101906554D01*
X132715892Y-101889500D01*
X132584108Y-101889500D01*
X132456812Y-101923608D01*
X132342686Y-101989500D01*
X132342683Y-101989502D01*
X132249502Y-102082683D01*
X132249500Y-102082686D01*
X132183608Y-102196812D01*
X132149500Y-102324108D01*
X126375500Y-102324108D01*
X126375500Y-102259108D01*
X126341392Y-102131814D01*
X126275500Y-102017686D01*
X126182314Y-101924500D01*
X126121692Y-101889500D01*
X126068187Y-101858608D01*
X126004539Y-101841554D01*
X125940892Y-101824500D01*
X125809108Y-101824500D01*
X125681812Y-101858608D01*
X125567686Y-101924500D01*
X125567683Y-101924502D01*
X125474502Y-102017683D01*
X125474500Y-102017686D01*
X125408608Y-102131812D01*
X125391192Y-102196812D01*
X125374500Y-102259108D01*
X96350500Y-102259108D01*
X96350500Y-98484108D01*
X137324500Y-98484108D01*
X137324500Y-98615891D01*
X137358608Y-98743187D01*
X137391554Y-98800250D01*
X137424500Y-98857314D01*
X137517686Y-98950500D01*
X137631814Y-99016392D01*
X137759108Y-99050500D01*
X137759110Y-99050500D01*
X137890890Y-99050500D01*
X137890892Y-99050500D01*
X138018186Y-99016392D01*
X138132314Y-98950500D01*
X138225500Y-98857314D01*
X138291392Y-98743186D01*
X138325500Y-98615892D01*
X138325500Y-98484108D01*
X138291392Y-98356814D01*
X138225500Y-98242686D01*
X138132314Y-98149500D01*
X138075250Y-98116554D01*
X138018187Y-98083608D01*
X137954539Y-98066554D01*
X137890892Y-98049500D01*
X137759108Y-98049500D01*
X137631812Y-98083608D01*
X137517686Y-98149500D01*
X137517683Y-98149502D01*
X137424502Y-98242683D01*
X137424500Y-98242686D01*
X137358608Y-98356812D01*
X137324500Y-98484108D01*
X96350500Y-98484108D01*
X96350500Y-97794108D01*
X134219500Y-97794108D01*
X134219500Y-97925891D01*
X134253608Y-98053187D01*
X134271172Y-98083608D01*
X134319500Y-98167314D01*
X134412686Y-98260500D01*
X134526814Y-98326392D01*
X134654108Y-98360500D01*
X134654110Y-98360500D01*
X134785890Y-98360500D01*
X134785892Y-98360500D01*
X134913186Y-98326392D01*
X135027314Y-98260500D01*
X135120500Y-98167314D01*
X135186392Y-98053186D01*
X135220500Y-97925892D01*
X135220500Y-97794108D01*
X135186392Y-97666814D01*
X135120500Y-97552686D01*
X135027314Y-97459500D01*
X134970250Y-97426554D01*
X134913187Y-97393608D01*
X134849539Y-97376554D01*
X134785892Y-97359500D01*
X134654108Y-97359500D01*
X134526812Y-97393608D01*
X134412686Y-97459500D01*
X134412683Y-97459502D01*
X134319502Y-97552683D01*
X134319500Y-97552686D01*
X134253608Y-97666812D01*
X134219500Y-97794108D01*
X96350500Y-97794108D01*
X96350500Y-95014108D01*
X129959500Y-95014108D01*
X129959500Y-95145891D01*
X129993608Y-95273187D01*
X130026554Y-95330250D01*
X130059500Y-95387314D01*
X130152686Y-95480500D01*
X130266814Y-95546392D01*
X130394108Y-95580500D01*
X130394110Y-95580500D01*
X130525890Y-95580500D01*
X130525892Y-95580500D01*
X130653186Y-95546392D01*
X130767314Y-95480500D01*
X130860500Y-95387314D01*
X130926392Y-95273186D01*
X130960500Y-95145892D01*
X130960500Y-95014108D01*
X130926392Y-94886814D01*
X130860500Y-94772686D01*
X130767314Y-94679500D01*
X130710250Y-94646554D01*
X130653187Y-94613608D01*
X130589539Y-94596554D01*
X130525892Y-94579500D01*
X130394108Y-94579500D01*
X130266812Y-94613608D01*
X130152686Y-94679500D01*
X130152683Y-94679502D01*
X130059502Y-94772683D01*
X130059500Y-94772686D01*
X129993608Y-94886812D01*
X129959500Y-95014108D01*
X96350500Y-95014108D01*
X96350500Y-92784108D01*
X130429500Y-92784108D01*
X130429500Y-92915891D01*
X130463608Y-93043187D01*
X130496554Y-93100250D01*
X130529500Y-93157314D01*
X130622686Y-93250500D01*
X130736814Y-93316392D01*
X130864108Y-93350500D01*
X130864110Y-93350500D01*
X130995890Y-93350500D01*
X130995892Y-93350500D01*
X131123186Y-93316392D01*
X131237314Y-93250500D01*
X131330500Y-93157314D01*
X131396392Y-93043186D01*
X131430500Y-92915892D01*
X131430500Y-92784108D01*
X131396392Y-92656814D01*
X131330500Y-92542686D01*
X131237314Y-92449500D01*
X131180250Y-92416554D01*
X131123187Y-92383608D01*
X131059539Y-92366554D01*
X130995892Y-92349500D01*
X130864108Y-92349500D01*
X130736812Y-92383608D01*
X130622686Y-92449500D01*
X130622683Y-92449502D01*
X130529502Y-92542683D01*
X130529500Y-92542686D01*
X130463608Y-92656812D01*
X130429500Y-92784108D01*
X96350500Y-92784108D01*
X96350500Y-86854108D01*
X126549500Y-86854108D01*
X126549500Y-86985891D01*
X126583608Y-87113187D01*
X126616554Y-87170250D01*
X126649500Y-87227314D01*
X126742686Y-87320500D01*
X126856814Y-87386392D01*
X126984108Y-87420500D01*
X126984110Y-87420500D01*
X127115890Y-87420500D01*
X127115892Y-87420500D01*
X127243186Y-87386392D01*
X127357314Y-87320500D01*
X127450500Y-87227314D01*
X127516392Y-87113186D01*
X127550500Y-86985892D01*
X127550500Y-86854108D01*
X127516392Y-86726814D01*
X127450500Y-86612686D01*
X127357314Y-86519500D01*
X127300250Y-86486554D01*
X127243187Y-86453608D01*
X127179539Y-86436554D01*
X127115892Y-86419500D01*
X126984108Y-86419500D01*
X126856812Y-86453608D01*
X126742686Y-86519500D01*
X126742683Y-86519502D01*
X126649502Y-86612683D01*
X126649500Y-86612686D01*
X126583608Y-86726812D01*
X126549500Y-86854108D01*
X96350500Y-86854108D01*
X96350500Y-82824108D01*
X101649500Y-82824108D01*
X101649500Y-82955891D01*
X101683608Y-83083187D01*
X101716554Y-83140250D01*
X101749500Y-83197314D01*
X101842686Y-83290500D01*
X101956814Y-83356392D01*
X102084108Y-83390500D01*
X102084110Y-83390500D01*
X102215890Y-83390500D01*
X102215892Y-83390500D01*
X102343186Y-83356392D01*
X102457314Y-83290500D01*
X102550500Y-83197314D01*
X102616392Y-83083186D01*
X102650500Y-82955892D01*
X102650500Y-82885513D01*
X104219500Y-82885513D01*
X104219500Y-83074486D01*
X104249059Y-83261118D01*
X104307454Y-83440836D01*
X104393240Y-83609199D01*
X104504310Y-83762073D01*
X104637927Y-83895690D01*
X104790801Y-84006760D01*
X104870347Y-84047290D01*
X104959163Y-84092545D01*
X104959165Y-84092545D01*
X104959168Y-84092547D01*
X105055497Y-84123846D01*
X105138881Y-84150940D01*
X105325514Y-84180500D01*
X105325519Y-84180500D01*
X105514486Y-84180500D01*
X105701118Y-84150940D01*
X105880832Y-84092547D01*
X106049199Y-84006760D01*
X106202073Y-83895690D01*
X106335690Y-83762073D01*
X106446760Y-83609199D01*
X106532547Y-83440832D01*
X106590940Y-83261118D01*
X106601045Y-83197316D01*
X106620500Y-83074486D01*
X106620500Y-82885513D01*
X110719500Y-82885513D01*
X110719500Y-83074486D01*
X110749059Y-83261118D01*
X110807454Y-83440836D01*
X110893240Y-83609199D01*
X111004310Y-83762073D01*
X111137927Y-83895690D01*
X111290801Y-84006760D01*
X111370347Y-84047290D01*
X111459163Y-84092545D01*
X111459165Y-84092545D01*
X111459168Y-84092547D01*
X111555497Y-84123846D01*
X111638881Y-84150940D01*
X111825514Y-84180500D01*
X111825519Y-84180500D01*
X112014486Y-84180500D01*
X112201118Y-84150940D01*
X112380832Y-84092547D01*
X112549199Y-84006760D01*
X112702073Y-83895690D01*
X112835690Y-83762073D01*
X112946760Y-83609199D01*
X113032547Y-83440832D01*
X113090940Y-83261118D01*
X113101045Y-83197316D01*
X113120500Y-83074486D01*
X113120500Y-82885513D01*
X113090940Y-82698881D01*
X113032545Y-82519163D01*
X112946759Y-82350800D01*
X112835690Y-82197927D01*
X112702073Y-82064310D01*
X112549199Y-81953240D01*
X112380836Y-81867454D01*
X112201118Y-81809059D01*
X112014486Y-81779500D01*
X112014481Y-81779500D01*
X111825519Y-81779500D01*
X111825514Y-81779500D01*
X111638881Y-81809059D01*
X111459163Y-81867454D01*
X111290800Y-81953240D01*
X111203579Y-82016610D01*
X111137927Y-82064310D01*
X111137925Y-82064312D01*
X111137924Y-82064312D01*
X111004312Y-82197924D01*
X111004312Y-82197925D01*
X111004310Y-82197927D01*
X110956610Y-82263579D01*
X110893240Y-82350800D01*
X110807454Y-82519163D01*
X110749059Y-82698881D01*
X110719500Y-82885513D01*
X106620500Y-82885513D01*
X106590940Y-82698881D01*
X106532545Y-82519163D01*
X106446759Y-82350800D01*
X106335690Y-82197927D01*
X106202073Y-82064310D01*
X106049199Y-81953240D01*
X105880836Y-81867454D01*
X105701118Y-81809059D01*
X105514486Y-81779500D01*
X105514481Y-81779500D01*
X105325519Y-81779500D01*
X105325514Y-81779500D01*
X105138881Y-81809059D01*
X104959163Y-81867454D01*
X104790800Y-81953240D01*
X104703579Y-82016610D01*
X104637927Y-82064310D01*
X104637925Y-82064312D01*
X104637924Y-82064312D01*
X104504312Y-82197924D01*
X104504312Y-82197925D01*
X104504310Y-82197927D01*
X104456610Y-82263579D01*
X104393240Y-82350800D01*
X104307454Y-82519163D01*
X104249059Y-82698881D01*
X104219500Y-82885513D01*
X102650500Y-82885513D01*
X102650500Y-82824108D01*
X102616392Y-82696814D01*
X102550500Y-82582686D01*
X102457314Y-82489500D01*
X102400250Y-82456554D01*
X102343187Y-82423608D01*
X102279539Y-82406554D01*
X102215892Y-82389500D01*
X102084108Y-82389500D01*
X101956812Y-82423608D01*
X101842686Y-82489500D01*
X101842683Y-82489502D01*
X101749502Y-82582683D01*
X101749500Y-82582686D01*
X101683608Y-82696812D01*
X101649500Y-82824108D01*
X96350500Y-82824108D01*
X96350500Y-80999108D01*
X116429500Y-80999108D01*
X116429500Y-81130891D01*
X116463608Y-81258187D01*
X116496554Y-81315250D01*
X116529500Y-81372314D01*
X116622686Y-81465500D01*
X116736814Y-81531392D01*
X116864108Y-81565500D01*
X116864110Y-81565500D01*
X116995890Y-81565500D01*
X116995892Y-81565500D01*
X117123186Y-81531392D01*
X117237314Y-81465500D01*
X117330500Y-81372314D01*
X117396392Y-81258186D01*
X117430500Y-81130892D01*
X117430500Y-81094108D01*
X145779500Y-81094108D01*
X145779500Y-81225891D01*
X145813608Y-81353187D01*
X145846554Y-81410250D01*
X145879500Y-81467314D01*
X145972686Y-81560500D01*
X146086814Y-81626392D01*
X146214108Y-81660500D01*
X146214110Y-81660500D01*
X146345890Y-81660500D01*
X146345892Y-81660500D01*
X146473186Y-81626392D01*
X146587314Y-81560500D01*
X146680500Y-81467314D01*
X146746392Y-81353186D01*
X146780500Y-81225892D01*
X146780500Y-81094108D01*
X146746392Y-80966814D01*
X146680500Y-80852686D01*
X146587314Y-80759500D01*
X146530250Y-80726554D01*
X146473187Y-80693608D01*
X146409539Y-80676554D01*
X146345892Y-80659500D01*
X146214108Y-80659500D01*
X146086812Y-80693608D01*
X145972686Y-80759500D01*
X145972683Y-80759502D01*
X145879502Y-80852683D01*
X145879500Y-80852686D01*
X145813608Y-80966812D01*
X145779500Y-81094108D01*
X117430500Y-81094108D01*
X117430500Y-80999108D01*
X117396392Y-80871814D01*
X117330500Y-80757686D01*
X117237314Y-80664500D01*
X117180250Y-80631554D01*
X117123187Y-80598608D01*
X117059539Y-80581554D01*
X116995892Y-80564500D01*
X116864108Y-80564500D01*
X116736812Y-80598608D01*
X116622686Y-80664500D01*
X116622683Y-80664502D01*
X116529502Y-80757683D01*
X116529500Y-80757686D01*
X116463608Y-80871812D01*
X116429500Y-80999108D01*
X96350500Y-80999108D01*
X96350500Y-78385513D01*
X104219500Y-78385513D01*
X104219500Y-78574486D01*
X104249059Y-78761118D01*
X104307454Y-78940836D01*
X104382371Y-79087868D01*
X104393240Y-79109199D01*
X104504310Y-79262073D01*
X104637927Y-79395690D01*
X104790801Y-79506760D01*
X104870347Y-79547290D01*
X104959163Y-79592545D01*
X104959165Y-79592545D01*
X104959168Y-79592547D01*
X105053172Y-79623091D01*
X105138881Y-79650940D01*
X105325514Y-79680500D01*
X105325519Y-79680500D01*
X105514486Y-79680500D01*
X105701118Y-79650940D01*
X105880832Y-79592547D01*
X106049199Y-79506760D01*
X106202073Y-79395690D01*
X106335690Y-79262073D01*
X106446760Y-79109199D01*
X106532547Y-78940832D01*
X106590940Y-78761118D01*
X106600097Y-78703301D01*
X106620500Y-78574486D01*
X106620500Y-78385513D01*
X110719500Y-78385513D01*
X110719500Y-78574486D01*
X110749059Y-78761118D01*
X110807454Y-78940836D01*
X110882371Y-79087868D01*
X110893240Y-79109199D01*
X111004310Y-79262073D01*
X111137927Y-79395690D01*
X111290801Y-79506760D01*
X111370347Y-79547290D01*
X111459163Y-79592545D01*
X111459165Y-79592545D01*
X111459168Y-79592547D01*
X111553172Y-79623091D01*
X111638881Y-79650940D01*
X111825514Y-79680500D01*
X111825519Y-79680500D01*
X112014486Y-79680500D01*
X112201118Y-79650940D01*
X112380832Y-79592547D01*
X112549199Y-79506760D01*
X112702073Y-79395690D01*
X112835690Y-79262073D01*
X112946760Y-79109199D01*
X113032547Y-78940832D01*
X113090940Y-78761118D01*
X113095278Y-78733730D01*
X127457500Y-78733730D01*
X127457500Y-79866269D01*
X127460353Y-79896699D01*
X127460353Y-79896701D01*
X127505206Y-80024880D01*
X127505207Y-80024882D01*
X127585850Y-80134150D01*
X127695118Y-80214793D01*
X127725754Y-80225513D01*
X127823299Y-80259646D01*
X127853730Y-80262500D01*
X127853734Y-80262500D01*
X128986270Y-80262500D01*
X129016699Y-80259646D01*
X129016701Y-80259646D01*
X129080790Y-80237219D01*
X129144882Y-80214793D01*
X129254150Y-80134150D01*
X129334793Y-80024882D01*
X129368168Y-79929502D01*
X129379646Y-79896701D01*
X129379646Y-79896699D01*
X129382500Y-79866269D01*
X129382500Y-79205197D01*
X129957500Y-79205197D01*
X129957500Y-79394802D01*
X129994486Y-79580743D01*
X129994488Y-79580751D01*
X130067042Y-79755912D01*
X130172377Y-79913558D01*
X130306441Y-80047622D01*
X130411300Y-80117686D01*
X130464085Y-80152956D01*
X130639249Y-80225512D01*
X130810854Y-80259646D01*
X130825197Y-80262499D01*
X130825201Y-80262500D01*
X130825202Y-80262500D01*
X131014799Y-80262500D01*
X131014800Y-80262499D01*
X131200751Y-80225512D01*
X131375915Y-80152956D01*
X131533558Y-80047622D01*
X131667622Y-79913558D01*
X131772956Y-79755915D01*
X131805439Y-79677495D01*
X131849280Y-79623091D01*
X131915574Y-79601026D01*
X131983273Y-79618305D01*
X132030884Y-79669442D01*
X132034561Y-79677495D01*
X132067041Y-79755910D01*
X132067042Y-79755912D01*
X132172377Y-79913558D01*
X132306441Y-80047622D01*
X132411300Y-80117686D01*
X132464085Y-80152956D01*
X132639249Y-80225512D01*
X132810854Y-80259646D01*
X132825197Y-80262499D01*
X132825201Y-80262500D01*
X132825202Y-80262500D01*
X133014799Y-80262500D01*
X133014800Y-80262499D01*
X133200751Y-80225512D01*
X133375915Y-80152956D01*
X133533558Y-80047622D01*
X133533561Y-80047619D01*
X133564445Y-80016736D01*
X133667619Y-79913561D01*
X133667622Y-79913558D01*
X133772956Y-79755915D01*
X133845512Y-79580751D01*
X133882500Y-79394798D01*
X133882500Y-79205202D01*
X133882500Y-79205199D01*
X133880550Y-79195397D01*
X134358000Y-79195397D01*
X134358000Y-79404602D01*
X134398809Y-79609766D01*
X134398812Y-79609775D01*
X134478863Y-79803038D01*
X134478869Y-79803049D01*
X134569371Y-79938495D01*
X134569372Y-79938496D01*
X135005611Y-79502256D01*
X135051909Y-79582446D01*
X135137554Y-79668091D01*
X135217743Y-79714388D01*
X134781503Y-80150627D01*
X134781503Y-80150629D01*
X134916943Y-80241126D01*
X134916961Y-80241136D01*
X135110224Y-80321187D01*
X135110233Y-80321190D01*
X135315397Y-80361999D01*
X135315400Y-80362000D01*
X135524600Y-80362000D01*
X135524602Y-80361999D01*
X135729766Y-80321190D01*
X135729775Y-80321187D01*
X135867577Y-80264108D01*
X147619500Y-80264108D01*
X147619500Y-80395891D01*
X147653608Y-80523187D01*
X147677461Y-80564500D01*
X147719500Y-80637314D01*
X147812686Y-80730500D01*
X147926814Y-80796392D01*
X148054108Y-80830500D01*
X148054110Y-80830500D01*
X148185890Y-80830500D01*
X148185892Y-80830500D01*
X148313186Y-80796392D01*
X148427314Y-80730500D01*
X148520500Y-80637314D01*
X148586392Y-80523186D01*
X148620500Y-80395892D01*
X148620500Y-80264108D01*
X148586392Y-80136814D01*
X148520500Y-80022686D01*
X148427314Y-79929500D01*
X148370250Y-79896554D01*
X148313187Y-79863608D01*
X148249539Y-79846554D01*
X148185892Y-79829500D01*
X148054108Y-79829500D01*
X147926812Y-79863608D01*
X147812686Y-79929500D01*
X147812683Y-79929502D01*
X147719502Y-80022683D01*
X147719500Y-80022686D01*
X147653608Y-80136812D01*
X147619500Y-80264108D01*
X135867577Y-80264108D01*
X135923046Y-80241132D01*
X135923048Y-80241131D01*
X136055127Y-80152879D01*
X136058495Y-80150628D01*
X136058495Y-80150627D01*
X135622256Y-79714388D01*
X135702446Y-79668091D01*
X135788091Y-79582446D01*
X135834388Y-79502256D01*
X136270627Y-79938495D01*
X136270628Y-79938495D01*
X136361131Y-79803048D01*
X136361132Y-79803046D01*
X136441187Y-79609775D01*
X136441190Y-79609766D01*
X136481999Y-79404602D01*
X136482000Y-79404600D01*
X136482000Y-79195399D01*
X136481999Y-79195397D01*
X136441190Y-78990233D01*
X136441187Y-78990224D01*
X136361136Y-78796961D01*
X136361126Y-78796943D01*
X136270629Y-78661503D01*
X136270627Y-78661503D01*
X135834387Y-79097742D01*
X135788091Y-79017554D01*
X135702446Y-78931909D01*
X135622256Y-78885611D01*
X136058496Y-78449372D01*
X136058495Y-78449371D01*
X135923049Y-78358869D01*
X135923038Y-78358863D01*
X135729775Y-78278812D01*
X135729766Y-78278809D01*
X135524601Y-78238000D01*
X135315399Y-78238000D01*
X135110233Y-78278809D01*
X135110224Y-78278812D01*
X134916961Y-78358863D01*
X134916950Y-78358869D01*
X134781503Y-78449371D01*
X134781502Y-78449371D01*
X135217743Y-78885611D01*
X135137554Y-78931909D01*
X135051909Y-79017554D01*
X135005611Y-79097742D01*
X134569371Y-78661502D01*
X134569371Y-78661503D01*
X134478869Y-78796950D01*
X134478863Y-78796961D01*
X134398812Y-78990224D01*
X134398809Y-78990233D01*
X134358000Y-79195397D01*
X133880550Y-79195397D01*
X133845513Y-79019256D01*
X133845512Y-79019249D01*
X133772956Y-78844085D01*
X133678887Y-78703301D01*
X133667622Y-78686441D01*
X133533558Y-78552377D01*
X133375912Y-78447042D01*
X133200751Y-78374488D01*
X133200743Y-78374486D01*
X133014802Y-78337500D01*
X133014798Y-78337500D01*
X132825202Y-78337500D01*
X132825197Y-78337500D01*
X132639256Y-78374486D01*
X132639248Y-78374488D01*
X132464087Y-78447042D01*
X132306441Y-78552377D01*
X132172377Y-78686441D01*
X132067042Y-78844087D01*
X132034561Y-78922505D01*
X131990720Y-78976908D01*
X131924426Y-78998973D01*
X131856726Y-78981694D01*
X131809116Y-78930556D01*
X131805439Y-78922505D01*
X131772957Y-78844087D01*
X131667622Y-78686441D01*
X131533558Y-78552377D01*
X131375912Y-78447042D01*
X131200751Y-78374488D01*
X131200743Y-78374486D01*
X131014802Y-78337500D01*
X131014798Y-78337500D01*
X130825202Y-78337500D01*
X130825197Y-78337500D01*
X130639256Y-78374486D01*
X130639248Y-78374488D01*
X130464087Y-78447042D01*
X130306441Y-78552377D01*
X130172377Y-78686441D01*
X130067042Y-78844087D01*
X129994488Y-79019248D01*
X129994486Y-79019256D01*
X129957500Y-79205197D01*
X129382500Y-79205197D01*
X129382500Y-78733730D01*
X129379646Y-78703300D01*
X129379646Y-78703298D01*
X129334793Y-78575119D01*
X129334792Y-78575117D01*
X129254150Y-78465850D01*
X129144882Y-78385207D01*
X129144880Y-78385206D01*
X129016700Y-78340353D01*
X128986270Y-78337500D01*
X128986266Y-78337500D01*
X127853734Y-78337500D01*
X127853730Y-78337500D01*
X127823300Y-78340353D01*
X127823298Y-78340353D01*
X127695119Y-78385206D01*
X127695117Y-78385207D01*
X127585850Y-78465850D01*
X127505207Y-78575117D01*
X127505206Y-78575119D01*
X127460353Y-78703298D01*
X127460353Y-78703300D01*
X127457500Y-78733730D01*
X113095278Y-78733730D01*
X113100097Y-78703301D01*
X113120500Y-78574486D01*
X113120500Y-78385513D01*
X113090940Y-78198883D01*
X113090940Y-78198882D01*
X113032547Y-78019168D01*
X112946760Y-77850801D01*
X112835690Y-77697927D01*
X112702073Y-77564310D01*
X112549199Y-77453240D01*
X112380836Y-77367454D01*
X112201118Y-77309059D01*
X112014486Y-77279500D01*
X112014481Y-77279500D01*
X111825519Y-77279500D01*
X111825514Y-77279500D01*
X111638881Y-77309059D01*
X111459163Y-77367454D01*
X111290800Y-77453240D01*
X111203579Y-77516610D01*
X111137927Y-77564310D01*
X111137925Y-77564312D01*
X111137924Y-77564312D01*
X111004312Y-77697924D01*
X111004312Y-77697925D01*
X111004310Y-77697927D01*
X110994316Y-77711683D01*
X110893240Y-77850800D01*
X110807454Y-78019163D01*
X110749059Y-78198881D01*
X110719500Y-78385513D01*
X106620500Y-78385513D01*
X106590940Y-78198881D01*
X106532545Y-78019163D01*
X106446759Y-77850800D01*
X106335690Y-77697927D01*
X106202073Y-77564310D01*
X106049199Y-77453240D01*
X105880836Y-77367454D01*
X105701118Y-77309059D01*
X105514486Y-77279500D01*
X105514481Y-77279500D01*
X105325519Y-77279500D01*
X105325514Y-77279500D01*
X105138881Y-77309059D01*
X104959163Y-77367454D01*
X104790800Y-77453240D01*
X104703579Y-77516610D01*
X104637927Y-77564310D01*
X104637925Y-77564312D01*
X104637924Y-77564312D01*
X104504312Y-77697924D01*
X104504312Y-77697925D01*
X104504310Y-77697927D01*
X104494316Y-77711683D01*
X104393240Y-77850800D01*
X104307454Y-78019163D01*
X104249059Y-78198881D01*
X104219500Y-78385513D01*
X96350500Y-78385513D01*
X96350500Y-76809108D01*
X118569500Y-76809108D01*
X118569500Y-76940891D01*
X118603608Y-77068187D01*
X118636554Y-77125250D01*
X118669500Y-77182314D01*
X118762686Y-77275500D01*
X118876814Y-77341392D01*
X119004108Y-77375500D01*
X119004110Y-77375500D01*
X119135890Y-77375500D01*
X119135892Y-77375500D01*
X119263186Y-77341392D01*
X119377314Y-77275500D01*
X119470500Y-77182314D01*
X119536392Y-77068186D01*
X119570500Y-76940892D01*
X119570500Y-76809108D01*
X119536392Y-76681814D01*
X119535637Y-76680507D01*
X119527563Y-76666521D01*
X119470500Y-76567686D01*
X119377314Y-76474500D01*
X119344651Y-76455642D01*
X123300000Y-76455642D01*
X123300000Y-76724357D01*
X123300001Y-76724373D01*
X123335075Y-76990791D01*
X123404627Y-77250363D01*
X123507463Y-77498630D01*
X123507467Y-77498640D01*
X123641829Y-77731362D01*
X123795820Y-77932046D01*
X124437423Y-77290443D01*
X124472829Y-77339175D01*
X124600825Y-77467171D01*
X124649555Y-77502575D01*
X124007952Y-78144178D01*
X124208641Y-78298173D01*
X124441359Y-78432532D01*
X124441369Y-78432536D01*
X124689636Y-78535372D01*
X124949208Y-78604924D01*
X125215626Y-78639998D01*
X125215643Y-78640000D01*
X125484357Y-78640000D01*
X125484373Y-78639998D01*
X125728218Y-78607896D01*
X125750791Y-78604924D01*
X126010363Y-78535372D01*
X126258630Y-78432536D01*
X126258640Y-78432532D01*
X126491358Y-78298173D01*
X126692046Y-78144178D01*
X126050443Y-77502575D01*
X126099175Y-77467171D01*
X126227171Y-77339175D01*
X126262575Y-77290443D01*
X126904178Y-77932046D01*
X127058173Y-77731358D01*
X127192532Y-77498640D01*
X127192536Y-77498630D01*
X127295372Y-77250363D01*
X127364924Y-76990791D01*
X127399998Y-76724373D01*
X127400000Y-76724357D01*
X127400000Y-76455642D01*
X136440000Y-76455642D01*
X136440000Y-76724357D01*
X136440001Y-76724373D01*
X136475075Y-76990791D01*
X136544627Y-77250363D01*
X136647463Y-77498630D01*
X136647467Y-77498640D01*
X136781829Y-77731362D01*
X136935820Y-77932046D01*
X137577423Y-77290443D01*
X137612829Y-77339175D01*
X137740825Y-77467171D01*
X137789555Y-77502575D01*
X137147952Y-78144178D01*
X137348641Y-78298173D01*
X137581359Y-78432532D01*
X137581369Y-78432536D01*
X137829636Y-78535372D01*
X138089208Y-78604924D01*
X138355626Y-78639998D01*
X138355643Y-78640000D01*
X138624357Y-78640000D01*
X138624373Y-78639998D01*
X138890791Y-78604924D01*
X139150363Y-78535372D01*
X139398630Y-78432536D01*
X139398640Y-78432532D01*
X139631358Y-78298173D01*
X139832046Y-78144178D01*
X139190443Y-77502575D01*
X139239175Y-77467171D01*
X139367171Y-77339175D01*
X139402575Y-77290443D01*
X140044178Y-77932046D01*
X140198173Y-77731358D01*
X140332532Y-77498640D01*
X140332536Y-77498630D01*
X140435372Y-77250363D01*
X140504924Y-76990791D01*
X140539998Y-76724373D01*
X140540000Y-76724357D01*
X140540000Y-76614108D01*
X145819500Y-76614108D01*
X145819500Y-76745891D01*
X145853608Y-76873187D01*
X145886554Y-76930250D01*
X145919500Y-76987314D01*
X146012686Y-77080500D01*
X146126814Y-77146392D01*
X146254108Y-77180500D01*
X146254110Y-77180500D01*
X146385890Y-77180500D01*
X146385892Y-77180500D01*
X146513186Y-77146392D01*
X146627314Y-77080500D01*
X146720500Y-76987314D01*
X146786392Y-76873186D01*
X146820500Y-76745892D01*
X146820500Y-76614108D01*
X146786392Y-76486814D01*
X146779282Y-76474500D01*
X146768395Y-76455642D01*
X146720500Y-76372686D01*
X146627314Y-76279500D01*
X146570250Y-76246554D01*
X146513187Y-76213608D01*
X146422123Y-76189208D01*
X146385892Y-76179500D01*
X146254108Y-76179500D01*
X146126812Y-76213608D01*
X146012686Y-76279500D01*
X146012683Y-76279502D01*
X145919502Y-76372683D01*
X145919500Y-76372686D01*
X145853608Y-76486812D01*
X145819500Y-76614108D01*
X140540000Y-76614108D01*
X140540000Y-76455642D01*
X140539998Y-76455626D01*
X140504924Y-76189208D01*
X140435372Y-75929636D01*
X140332536Y-75681369D01*
X140332532Y-75681359D01*
X140198173Y-75448641D01*
X140044178Y-75247952D01*
X139402575Y-75889555D01*
X139367171Y-75840825D01*
X139239175Y-75712829D01*
X139190443Y-75677423D01*
X139832046Y-75035820D01*
X139832046Y-75035819D01*
X139631362Y-74881829D01*
X139398640Y-74747467D01*
X139398630Y-74747463D01*
X139150363Y-74644627D01*
X138890791Y-74575075D01*
X138624373Y-74540001D01*
X138624357Y-74540000D01*
X138355643Y-74540000D01*
X138355626Y-74540001D01*
X138089208Y-74575075D01*
X137829636Y-74644627D01*
X137581369Y-74747463D01*
X137581359Y-74747467D01*
X137348637Y-74881829D01*
X137147952Y-75035819D01*
X137147952Y-75035820D01*
X137789556Y-75677424D01*
X137740825Y-75712829D01*
X137612829Y-75840825D01*
X137577424Y-75889556D01*
X136935820Y-75247952D01*
X136935819Y-75247952D01*
X136781829Y-75448637D01*
X136647467Y-75681359D01*
X136647463Y-75681369D01*
X136544627Y-75929636D01*
X136475075Y-76189208D01*
X136440001Y-76455626D01*
X136440000Y-76455642D01*
X127400000Y-76455642D01*
X127399998Y-76455626D01*
X127364924Y-76189208D01*
X127295372Y-75929636D01*
X127192536Y-75681369D01*
X127192532Y-75681359D01*
X127058173Y-75448641D01*
X126904178Y-75247952D01*
X126262575Y-75889555D01*
X126227171Y-75840825D01*
X126099175Y-75712829D01*
X126050443Y-75677423D01*
X126692046Y-75035820D01*
X126692046Y-75035819D01*
X126491362Y-74881829D01*
X126258640Y-74747467D01*
X126258630Y-74747463D01*
X126010363Y-74644627D01*
X125750791Y-74575075D01*
X125484373Y-74540001D01*
X125484357Y-74540000D01*
X125215643Y-74540000D01*
X125215626Y-74540001D01*
X124949208Y-74575075D01*
X124689636Y-74644627D01*
X124441369Y-74747463D01*
X124441359Y-74747467D01*
X124208637Y-74881829D01*
X124007952Y-75035819D01*
X124007952Y-75035820D01*
X124649556Y-75677424D01*
X124600825Y-75712829D01*
X124472829Y-75840825D01*
X124437424Y-75889556D01*
X123795820Y-75247952D01*
X123795819Y-75247952D01*
X123641829Y-75448637D01*
X123507467Y-75681359D01*
X123507463Y-75681369D01*
X123404627Y-75929636D01*
X123335075Y-76189208D01*
X123300001Y-76455626D01*
X123300000Y-76455642D01*
X119344651Y-76455642D01*
X119320250Y-76441554D01*
X119263187Y-76408608D01*
X119199539Y-76391554D01*
X119135892Y-76374500D01*
X119004108Y-76374500D01*
X118876812Y-76408608D01*
X118762686Y-76474500D01*
X118762683Y-76474502D01*
X118669502Y-76567683D01*
X118669500Y-76567686D01*
X118603608Y-76681812D01*
X118569500Y-76809108D01*
X96350500Y-76809108D01*
X96350500Y-74204500D01*
X96370185Y-74137461D01*
X96422989Y-74091706D01*
X96474500Y-74080500D01*
X170665500Y-74080500D01*
X170732539Y-74100185D01*
G37*
%TD.AperFunction*%
%TD*%
M02*
