%TF.GenerationSoftware,KiCad,Pcbnew,9.0.7*%
%TF.CreationDate,2026-03-29T07:00:43+01:00*%
%TF.ProjectId,RISKYZXSpectrum,5249534b-595a-4585-9370-65637472756d,rev?*%
%TF.SameCoordinates,Original*%
%TF.FileFunction,Soldermask,Bot*%
%TF.FilePolarity,Negative*%
%FSLAX46Y46*%
G04 Gerber Fmt 4.6, Leading zero omitted, Abs format (unit mm)*
G04 Created by KiCad (PCBNEW 9.0.7) date 2026-03-29 07:00:43*
%MOMM*%
%LPD*%
G01*
G04 APERTURE LIST*
G04 Aperture macros list*
%AMRoundRect*
0 Rectangle with rounded corners*
0 $1 Rounding radius*
0 $2 $3 $4 $5 $6 $7 $8 $9 X,Y pos of 4 corners*
0 Add a 4 corners polygon primitive as box body*
4,1,4,$2,$3,$4,$5,$6,$7,$8,$9,$2,$3,0*
0 Add four circle primitives for the rounded corners*
1,1,$1+$1,$2,$3*
1,1,$1+$1,$4,$5*
1,1,$1+$1,$6,$7*
1,1,$1+$1,$8,$9*
0 Add four rect primitives between the rounded corners*
20,1,$1+$1,$2,$3,$4,$5,0*
20,1,$1+$1,$4,$5,$6,$7,0*
20,1,$1+$1,$6,$7,$8,$9,0*
20,1,$1+$1,$8,$9,$2,$3,0*%
G04 Aperture macros list end*
%ADD10RoundRect,0.237500X0.250000X0.237500X-0.250000X0.237500X-0.250000X-0.237500X0.250000X-0.237500X0*%
%ADD11RoundRect,0.237500X-0.237500X0.250000X-0.237500X-0.250000X0.237500X-0.250000X0.237500X0.250000X0*%
%ADD12R,1.700000X1.700000*%
%ADD13C,1.700000*%
%ADD14C,2.000000*%
%ADD15RoundRect,0.250000X0.512000X0.512000X-0.512000X0.512000X-0.512000X-0.512000X0.512000X-0.512000X0*%
%ADD16C,1.524000*%
%ADD17C,3.500000*%
%ADD18RoundRect,0.237500X-0.250000X-0.237500X0.250000X-0.237500X0.250000X0.237500X-0.250000X0.237500X0*%
%ADD19RoundRect,0.237500X0.237500X-0.300000X0.237500X0.300000X-0.237500X0.300000X-0.237500X-0.300000X0*%
%ADD20RoundRect,0.237500X-0.300000X-0.237500X0.300000X-0.237500X0.300000X0.237500X-0.300000X0.237500X0*%
%ADD21RoundRect,0.237500X0.300000X0.237500X-0.300000X0.237500X-0.300000X-0.237500X0.300000X-0.237500X0*%
G04 APERTURE END LIST*
D10*
%TO.C,R4*%
X137660000Y-107547500D03*
X137660000Y-109372500D03*
%TD*%
D11*
%TO.C,R1*%
X145512500Y-118710000D03*
X143687500Y-118710000D03*
%TD*%
D12*
%TO.C,J1*%
X143275000Y-116775000D03*
D13*
X145815000Y-116775000D03*
%TD*%
D14*
%TO.C,SW1*%
X155475000Y-63425000D03*
X161975000Y-63425000D03*
X155475000Y-67925000D03*
X161975000Y-67925000D03*
%TD*%
D15*
%TO.C,J7*%
X137775000Y-70882500D03*
D16*
X135275000Y-70882500D03*
X133275000Y-70882500D03*
X130775000Y-70882500D03*
D17*
X140845000Y-68172500D03*
X127705000Y-68172500D03*
%TD*%
D12*
%TO.C,J8*%
X124790000Y-119000000D03*
D13*
X122250000Y-119000000D03*
%TD*%
D12*
%TO.C,J4*%
X99270000Y-131035000D03*
D13*
X99270000Y-133575000D03*
X101810000Y-131035000D03*
X101810000Y-133575000D03*
X104350000Y-131035000D03*
X104350000Y-133575000D03*
X106890000Y-131035000D03*
X106890000Y-133575000D03*
X109430000Y-131035000D03*
X109430000Y-133575000D03*
X111970000Y-131035000D03*
X111970000Y-133575000D03*
X114510000Y-131035000D03*
X114510000Y-133575000D03*
X117050000Y-131035000D03*
X117050000Y-133575000D03*
X119590000Y-131035000D03*
X119590000Y-133575000D03*
X122130000Y-131035000D03*
X122130000Y-133575000D03*
X124670000Y-131035000D03*
X124670000Y-133575000D03*
X127210000Y-131035000D03*
X127210000Y-133575000D03*
X129750000Y-131035000D03*
X129750000Y-133575000D03*
X132290000Y-131035000D03*
X132290000Y-133575000D03*
X134830000Y-131035000D03*
X134830000Y-133575000D03*
X137370000Y-131035000D03*
X137370000Y-133575000D03*
X139910000Y-131035000D03*
X139910000Y-133575000D03*
X142450000Y-131035000D03*
X142450000Y-133575000D03*
X144990000Y-131035000D03*
X144990000Y-133575000D03*
X147530000Y-131035000D03*
X147530000Y-133575000D03*
X150070000Y-131035000D03*
X150070000Y-133575000D03*
X152610000Y-131035000D03*
X152610000Y-133575000D03*
X155150000Y-131035000D03*
X155150000Y-133575000D03*
X157690000Y-131035000D03*
X157690000Y-133575000D03*
X160230000Y-131035000D03*
X160230000Y-133575000D03*
X162770000Y-131035000D03*
X162770000Y-133575000D03*
X165310000Y-131035000D03*
X165310000Y-133575000D03*
X167850000Y-131035000D03*
X167850000Y-133575000D03*
%TD*%
D14*
%TO.C,SW2*%
X113550000Y-62475000D03*
X120050000Y-62475000D03*
X113550000Y-66975000D03*
X120050000Y-66975000D03*
%TD*%
D18*
%TO.C,R2*%
X155525000Y-70337500D03*
X155525000Y-72162500D03*
%TD*%
D12*
%TO.C,J3*%
X99425000Y-138635000D03*
D13*
X99425000Y-141175000D03*
X101965000Y-138635000D03*
X101965000Y-141175000D03*
X104505000Y-138635000D03*
X104505000Y-141175000D03*
X107045000Y-138635000D03*
X107045000Y-141175000D03*
X109585000Y-138635000D03*
X109585000Y-141175000D03*
X112125000Y-138635000D03*
X112125000Y-141175000D03*
X114665000Y-138635000D03*
X114665000Y-141175000D03*
X117205000Y-138635000D03*
X117205000Y-141175000D03*
X119745000Y-138635000D03*
X119745000Y-141175000D03*
X122285000Y-138635000D03*
X122285000Y-141175000D03*
X124825000Y-138635000D03*
X124825000Y-141175000D03*
X127365000Y-138635000D03*
X127365000Y-141175000D03*
X129905000Y-138635000D03*
X129905000Y-141175000D03*
X132445000Y-138635000D03*
X132445000Y-141175000D03*
X134985000Y-138635000D03*
X134985000Y-141175000D03*
X137525000Y-138635000D03*
X137525000Y-141175000D03*
X140065000Y-138635000D03*
X140065000Y-141175000D03*
X142605000Y-138635000D03*
X142605000Y-141175000D03*
X145145000Y-138635000D03*
X145145000Y-141175000D03*
X147685000Y-138635000D03*
X147685000Y-141175000D03*
X150225000Y-138635000D03*
X150225000Y-141175000D03*
X152765000Y-138635000D03*
X152765000Y-141175000D03*
X155305000Y-138635000D03*
X155305000Y-141175000D03*
X157845000Y-138635000D03*
X157845000Y-141175000D03*
X160385000Y-138635000D03*
X160385000Y-141175000D03*
X162925000Y-138635000D03*
X162925000Y-141175000D03*
X165465000Y-138635000D03*
X165465000Y-141175000D03*
X168005000Y-138635000D03*
X168005000Y-141175000D03*
%TD*%
D12*
%TO.C,J2*%
X119250000Y-112200000D03*
D13*
X119250000Y-114740000D03*
%TD*%
D19*
%TO.C,C10*%
X125875000Y-102325000D03*
X127600000Y-102325000D03*
%TD*%
D20*
%TO.C,C8*%
X136800000Y-103060000D03*
X136800000Y-104785000D03*
%TD*%
D21*
%TO.C,C4*%
X126240000Y-112972500D03*
X126240000Y-111247500D03*
%TD*%
D20*
%TO.C,C11*%
X136475000Y-111487500D03*
X136475000Y-113212500D03*
%TD*%
%TO.C,C9*%
X136150000Y-107587500D03*
X136150000Y-109312500D03*
%TD*%
M02*
