%TF.GenerationSoftware,KiCad,Pcbnew,10.0.1*%
%TF.CreationDate,2026-05-09T19:25:54+01:00*%
%TF.ProjectId,RISKYZXSpectrum,5249534b-595a-4585-9370-65637472756d,rev?*%
%TF.SameCoordinates,Original*%
%TF.FileFunction,Copper,L1,Top*%
%TF.FilePolarity,Positive*%
%FSLAX46Y46*%
G04 Gerber Fmt 4.6, Leading zero omitted, Abs format (unit mm)*
G04 Created by KiCad (PCBNEW 10.0.1) date 2026-05-09 19:25:54*
%MOMM*%
%LPD*%
G01*
G04 APERTURE LIST*
G04 Aperture macros list*
%AMRoundRect*
0 Rectangle with rounded corners*
0 $1 Rounding radius*
0 $2 $3 $4 $5 $6 $7 $8 $9 X,Y pos of 4 corners*
0 Add a 4 corners polygon primitive as box body*
4,1,4,$2,$3,$4,$5,$6,$7,$8,$9,$2,$3,0*
0 Add four circle primitives for the rounded corners*
1,1,$1+$1,$2,$3*
1,1,$1+$1,$4,$5*
1,1,$1+$1,$6,$7*
1,1,$1+$1,$8,$9*
0 Add four rect primitives between the rounded corners*
20,1,$1+$1,$2,$3,$4,$5,0*
20,1,$1+$1,$4,$5,$6,$7,0*
20,1,$1+$1,$6,$7,$8,$9,0*
20,1,$1+$1,$8,$9,$2,$3,0*%
G04 Aperture macros list end*
%TA.AperFunction,SMDPad,CuDef*%
%ADD10RoundRect,0.237500X-0.237500X0.300000X-0.237500X-0.300000X0.237500X-0.300000X0.237500X0.300000X0*%
%TD*%
%TA.AperFunction,SMDPad,CuDef*%
%ADD11RoundRect,0.250000X-0.450000X0.325000X-0.450000X-0.325000X0.450000X-0.325000X0.450000X0.325000X0*%
%TD*%
%TA.AperFunction,ComponentPad*%
%ADD12R,1.700000X1.700000*%
%TD*%
%TA.AperFunction,ComponentPad*%
%ADD13C,1.700000*%
%TD*%
%TA.AperFunction,SMDPad,CuDef*%
%ADD14RoundRect,0.237500X0.237500X-0.300000X0.237500X0.300000X-0.237500X0.300000X-0.237500X-0.300000X0*%
%TD*%
%TA.AperFunction,ComponentPad*%
%ADD15RoundRect,0.250000X0.512000X0.512000X-0.512000X0.512000X-0.512000X-0.512000X0.512000X-0.512000X0*%
%TD*%
%TA.AperFunction,ComponentPad*%
%ADD16C,1.524000*%
%TD*%
%TA.AperFunction,ComponentPad*%
%ADD17C,3.500000*%
%TD*%
%TA.AperFunction,SMDPad,CuDef*%
%ADD18RoundRect,0.075000X0.725000X0.075000X-0.725000X0.075000X-0.725000X-0.075000X0.725000X-0.075000X0*%
%TD*%
%TA.AperFunction,SMDPad,CuDef*%
%ADD19RoundRect,0.075000X0.075000X0.725000X-0.075000X0.725000X-0.075000X-0.725000X0.075000X-0.725000X0*%
%TD*%
%TA.AperFunction,SMDPad,CuDef*%
%ADD20RoundRect,0.250000X0.450000X-0.325000X0.450000X0.325000X-0.450000X0.325000X-0.450000X-0.325000X0*%
%TD*%
%TA.AperFunction,SMDPad,CuDef*%
%ADD21RoundRect,0.237500X0.237500X-0.250000X0.237500X0.250000X-0.237500X0.250000X-0.237500X-0.250000X0*%
%TD*%
%TA.AperFunction,SMDPad,CuDef*%
%ADD22RoundRect,0.250000X-0.650000X0.412500X-0.650000X-0.412500X0.650000X-0.412500X0.650000X0.412500X0*%
%TD*%
%TA.AperFunction,ComponentPad*%
%ADD23C,1.500000*%
%TD*%
%TA.AperFunction,ComponentPad*%
%ADD24C,2.000000*%
%TD*%
%TA.AperFunction,SMDPad,CuDef*%
%ADD25RoundRect,0.375000X0.375000X-0.625000X0.375000X0.625000X-0.375000X0.625000X-0.375000X-0.625000X0*%
%TD*%
%TA.AperFunction,SMDPad,CuDef*%
%ADD26RoundRect,0.500000X1.400000X-0.500000X1.400000X0.500000X-1.400000X0.500000X-1.400000X-0.500000X0*%
%TD*%
%TA.AperFunction,SMDPad,CuDef*%
%ADD27RoundRect,0.250001X-0.624999X0.462499X-0.624999X-0.462499X0.624999X-0.462499X0.624999X0.462499X0*%
%TD*%
%TA.AperFunction,SMDPad,CuDef*%
%ADD28RoundRect,0.237500X0.300000X0.237500X-0.300000X0.237500X-0.300000X-0.237500X0.300000X-0.237500X0*%
%TD*%
%TA.AperFunction,SMDPad,CuDef*%
%ADD29RoundRect,0.237500X-0.300000X-0.237500X0.300000X-0.237500X0.300000X0.237500X-0.300000X0.237500X0*%
%TD*%
%TA.AperFunction,SMDPad,CuDef*%
%ADD30RoundRect,0.237500X-0.237500X0.250000X-0.237500X-0.250000X0.237500X-0.250000X0.237500X0.250000X0*%
%TD*%
%TA.AperFunction,ViaPad*%
%ADD31C,0.600000*%
%TD*%
%TA.AperFunction,Conductor*%
%ADD32C,0.300000*%
%TD*%
%TA.AperFunction,Conductor*%
%ADD33C,0.150000*%
%TD*%
%TA.AperFunction,Conductor*%
%ADD34C,0.500000*%
%TD*%
G04 APERTURE END LIST*
D10*
%TO.P,C6,1*%
%TO.N,+3.3V*%
X97500000Y-112437500D03*
%TO.P,C6,2*%
%TO.N,GND*%
X97500000Y-114162500D03*
%TD*%
D11*
%TO.P,D1,1,K_1*%
%TO.N,GND*%
X98130000Y-101755000D03*
%TO.P,D1,2,A_2*%
%TO.N,Net-(D1-A)*%
X98130000Y-103805000D03*
%TD*%
D12*
%TO.P,J1,1,Pin_1_1*%
%TO.N,/BOOT0*%
X143275000Y-116775000D03*
D13*
%TO.P,J1,2,Pin_2_2*%
%TO.N,+3.3V*%
X145815000Y-116775000D03*
%TD*%
D14*
%TO.P,C12,1*%
%TO.N,+5V*%
X139850000Y-94225000D03*
%TO.P,C12,2*%
%TO.N,GND*%
X139850000Y-92500000D03*
%TD*%
D15*
%TO.P,J7,1,VBUS_1*%
%TO.N,Net-(J7-VBUS)*%
X137680000Y-88832500D03*
D16*
%TO.P,J7,2,D-_2*%
%TO.N,/USB1_DM*%
X135180000Y-88832500D03*
%TO.P,J7,3,D+_3*%
%TO.N,/USB1_DP*%
X133180000Y-88832500D03*
%TO.P,J7,4,GND_4*%
%TO.N,GND*%
X130680000Y-88832500D03*
D17*
%TO.P,J7,SH,Shield_5*%
X140750000Y-86122500D03*
X127610000Y-86122500D03*
%TD*%
D18*
%TO.P,U1,1,PE2(FT)_1*%
%TO.N,/A2*%
X139400000Y-114050000D03*
%TO.P,U1,2,PE3(FT)_2*%
%TO.N,/A3*%
X139400000Y-113550000D03*
%TO.P,U1,3,PE4(FT)_3*%
%TO.N,/A4*%
X139400000Y-113050000D03*
%TO.P,U1,4,PE5(FT)_4*%
%TO.N,/A5*%
X139400000Y-112550000D03*
%TO.P,U1,5,PE6(FT)_5*%
%TO.N,/A6*%
X139400000Y-112050000D03*
%TO.P,U1,6,VBAT_6*%
%TO.N,+3.3V*%
X139400000Y-111550000D03*
%TO.P,U1,7,PC13/TAMPER-RTC_7*%
%TO.N,unconnected-(U1-PC13{slash}TAMPER-RTC-Pad7)*%
X139400000Y-111050000D03*
%TO.P,U1,8,PC14/OSC32IN_8*%
%TO.N,unconnected-(U1-PC14{slash}OSC32IN-Pad8)*%
X139400000Y-110550000D03*
%TO.P,U1,9,PC15/OSC32OUT_9*%
%TO.N,unconnected-(U1-PC15{slash}OSC32OUT-Pad9)*%
X139400000Y-110050000D03*
%TO.P,U1,10,VSS_10*%
%TO.N,GND*%
X139400000Y-109550000D03*
%TO.P,U1,11,VDD_11*%
%TO.N,+3.3V*%
X139400000Y-109050000D03*
%TO.P,U1,12,OSC_IN_12*%
%TO.N,unconnected-(U1-OSC_IN-Pad12)*%
X139400000Y-108550000D03*
%TO.P,U1,13,OSC_OUT_13*%
%TO.N,unconnected-(U1-OSC_OUT-Pad13)*%
X139400000Y-108050000D03*
%TO.P,U1,14,NRST_14*%
%TO.N,/NRST*%
X139400000Y-107550000D03*
%TO.P,U1,15,PC0/ADC10_15*%
%TO.N,unconnected-(U1-PC0{slash}ADC10-Pad15)*%
X139400000Y-107050000D03*
%TO.P,U1,16,PC1/ADC11_16*%
%TO.N,unconnected-(U1-PC1{slash}ADC11-Pad16)*%
X139400000Y-106550000D03*
%TO.P,U1,17,PC2/ADC12_17*%
%TO.N,unconnected-(U1-PC2{slash}ADC12-Pad17)*%
X139400000Y-106050000D03*
%TO.P,U1,18,PC3/ADC13_18*%
%TO.N,unconnected-(U1-PC3{slash}ADC13-Pad18)*%
X139400000Y-105550000D03*
%TO.P,U1,19,VSSA_19*%
%TO.N,GND*%
X139400000Y-105050000D03*
%TO.P,U1,20,VREF-_20*%
X139400000Y-104550000D03*
%TO.P,U1,21,VREF+_21*%
%TO.N,+3.3V*%
X139400000Y-104050000D03*
%TO.P,U1,22,VDDA_22*%
X139400000Y-103550000D03*
%TO.P,U1,23,PA0/WKUP/ADC0_23*%
%TO.N,unconnected-(U1-PA0{slash}WKUP{slash}ADC0-Pad23)*%
X139400000Y-103050000D03*
%TO.P,U1,24,PA1/ADC1_24*%
%TO.N,unconnected-(U1-PA1{slash}ADC1-Pad24)*%
X139400000Y-102550000D03*
%TO.P,U1,25,PA2/ADC2_25*%
%TO.N,unconnected-(U1-PA2{slash}ADC2-Pad25)*%
X139400000Y-102050000D03*
D19*
%TO.P,U1,26,PA3/ADC3_26*%
%TO.N,unconnected-(U1-PA3{slash}ADC3-Pad26)*%
X137725000Y-100375000D03*
%TO.P,U1,27,VSS_27*%
%TO.N,GND*%
X137225000Y-100375000D03*
%TO.P,U1,28,VDD_28*%
%TO.N,+3.3V*%
X136725000Y-100375000D03*
%TO.P,U1,29,PA4/ADC4/DAC0_29*%
%TO.N,unconnected-(U1-PA4{slash}ADC4{slash}DAC0-Pad29)*%
X136225000Y-100375000D03*
%TO.P,U1,30,PA5/ADC5/DAC1_30*%
%TO.N,unconnected-(U1-PA5{slash}ADC5{slash}DAC1-Pad30)*%
X135725000Y-100375000D03*
%TO.P,U1,31,PA6/ADC6_31*%
%TO.N,unconnected-(U1-PA6{slash}ADC6-Pad31)*%
X135225000Y-100375000D03*
%TO.P,U1,32,PA7/ADC7_32*%
%TO.N,/BTN1*%
X134725000Y-100375000D03*
%TO.P,U1,33,PC4/ADC14_33*%
%TO.N,unconnected-(U1-PC4{slash}ADC14-Pad33)*%
X134225000Y-100375000D03*
%TO.P,U1,34,PC5/ADC15_34*%
%TO.N,unconnected-(U1-PC5{slash}ADC15-Pad34)*%
X133725000Y-100375000D03*
%TO.P,U1,35,PB0/ADC8_35*%
%TO.N,unconnected-(U1-PB0{slash}ADC8-Pad35)*%
X133225000Y-100375000D03*
%TO.P,U1,36,PB1/ADC9_36*%
%TO.N,unconnected-(U1-PB1{slash}ADC9-Pad36)*%
X132725000Y-100375000D03*
%TO.P,U1,37,PB2/BOOT1(FT)_37*%
%TO.N,GND*%
X132225000Y-100375000D03*
%TO.P,U1,38,PE7(FT)_38*%
%TO.N,/A7*%
X131725000Y-100375000D03*
%TO.P,U1,39,PE8(FT)_39*%
%TO.N,/A8*%
X131225000Y-100375000D03*
%TO.P,U1,40,PE9(FT)_40*%
%TO.N,/A9*%
X130725000Y-100375000D03*
%TO.P,U1,41,PE10(FT)_41*%
%TO.N,/A10*%
X130225000Y-100375000D03*
%TO.P,U1,42,PE11(FT)_42*%
%TO.N,/A11*%
X129725000Y-100375000D03*
%TO.P,U1,43,PE12(FT)_43*%
%TO.N,/A12*%
X129225000Y-100375000D03*
%TO.P,U1,44,PE13(FT)_44*%
%TO.N,/A13*%
X128725000Y-100375000D03*
%TO.P,U1,45,PE14(FT)_45*%
%TO.N,/A14*%
X128225000Y-100375000D03*
%TO.P,U1,46,PE15(FT)_46*%
%TO.N,/A15*%
X127725000Y-100375000D03*
%TO.P,U1,47,PB10(FT)_47*%
%TO.N,/~{MREQ}*%
X127225000Y-100375000D03*
%TO.P,U1,48,PB11(FT)_48*%
%TO.N,/~{RFSH}*%
X126725000Y-100375000D03*
%TO.P,U1,49,VSS_49*%
%TO.N,GND*%
X126225000Y-100375000D03*
%TO.P,U1,50,VDD_50*%
%TO.N,+3.3V*%
X125725000Y-100375000D03*
D18*
%TO.P,U1,51,PB12(FT)_51*%
%TO.N,/~{INT}*%
X124050000Y-102050000D03*
%TO.P,U1,52,PB13(FT)_52*%
%TO.N,/~{CK}*%
X124050000Y-102550000D03*
%TO.P,U1,53,PB14(FT)_53*%
%TO.N,/~{OE}*%
X124050000Y-103050000D03*
%TO.P,U1,54,PB15(FT)_54*%
%TO.N,/~{OE2}*%
X124050000Y-103550000D03*
%TO.P,U1,55,PD8(FT)_55*%
%TO.N,unconnected-(U1-PD8(FT)-Pad55)*%
X124050000Y-104050000D03*
%TO.P,U1,56,PD9(FT)_56*%
%TO.N,unconnected-(U1-PD9(FT)-Pad56)*%
X124050000Y-104550000D03*
%TO.P,U1,57,PD10(FT)_57*%
%TO.N,unconnected-(U1-PD10(FT)-Pad57)*%
X124050000Y-105050000D03*
%TO.P,U1,58,PD11(FT)_58*%
%TO.N,unconnected-(U1-PD11(FT)-Pad58)*%
X124050000Y-105550000D03*
%TO.P,U1,59,PD12(FT)_59*%
%TO.N,unconnected-(U1-PD12(FT)-Pad59)*%
X124050000Y-106050000D03*
%TO.P,U1,60,PD13(FT)_60*%
%TO.N,unconnected-(U1-PD13(FT)-Pad60)*%
X124050000Y-106550000D03*
%TO.P,U1,61,PD14(FT)_61*%
%TO.N,unconnected-(U1-PD14(FT)-Pad61)*%
X124050000Y-107050000D03*
%TO.P,U1,62,PD15(FT)_62*%
%TO.N,unconnected-(U1-PD15(FT)-Pad62)*%
X124050000Y-107550000D03*
%TO.P,U1,63,PC6/RXP(FT)_63*%
%TO.N,/~{RESET}*%
X124050000Y-108050000D03*
%TO.P,U1,64,PC7/RXN(FT)_64*%
%TO.N,/~{WAIT}*%
X124050000Y-108550000D03*
%TO.P,U1,65,PC8/TXP(FT)_65*%
%TO.N,/~{IORQ}*%
X124050000Y-109050000D03*
%TO.P,U1,66,PC9/TXN(FT)_66*%
%TO.N,/~{NMI}*%
X124050000Y-109550000D03*
%TO.P,U1,67,PA8(FT)_67*%
%TO.N,/LEDFLASH*%
X124050000Y-110050000D03*
%TO.P,U1,68,PA9(FT)_68*%
%TO.N,/USART_TX*%
X124050000Y-110550000D03*
%TO.P,U1,69,PA10(FT)_69*%
%TO.N,/USART_RX*%
X124050000Y-111050000D03*
%TO.P,U1,70,PA11/USB1DM(FT)_70*%
%TO.N,/USB1_DM*%
X124050000Y-111550000D03*
%TO.P,U1,71,PA12/USB1DP(FT)_71*%
%TO.N,/USB1_DP*%
X124050000Y-112050000D03*
%TO.P,U1,72,PA13/SWDIO(FT)_72*%
%TO.N,/SWDIO*%
X124050000Y-112550000D03*
%TO.P,U1,73,NC_73*%
%TO.N,unconnected-(U1-NC-Pad73)*%
X124050000Y-113050000D03*
%TO.P,U1,74,VSS_74*%
%TO.N,GND*%
X124050000Y-113550000D03*
%TO.P,U1,75,VDD_75*%
%TO.N,+3.3V*%
X124050000Y-114050000D03*
D19*
%TO.P,U1,76,PA14/SWCLK(FT)_76*%
%TO.N,/SWCLK*%
X125725000Y-115725000D03*
%TO.P,U1,77,PA15(FT)_77*%
%TO.N,unconnected-(U1-PA15(FT)-Pad77)*%
X126225000Y-115725000D03*
%TO.P,U1,78,PC10(FT)_78*%
%TO.N,unconnected-(U1-PC10(FT)-Pad78)*%
X126725000Y-115725000D03*
%TO.P,U1,79,PC11(FT)_79*%
%TO.N,unconnected-(U1-PC11(FT)-Pad79)*%
X127225000Y-115725000D03*
%TO.P,U1,80,PC12(FT)_80*%
%TO.N,unconnected-(U1-PC12(FT)-Pad80)*%
X127725000Y-115725000D03*
%TO.P,U1,81,PD0(FT)_81*%
%TO.N,/D0*%
X128225000Y-115725000D03*
%TO.P,U1,82,PD1(FT)_82*%
%TO.N,/D1*%
X128725000Y-115725000D03*
%TO.P,U1,83,PD2(FT)_83*%
%TO.N,/D2*%
X129225000Y-115725000D03*
%TO.P,U1,84,PD3(FT)_84*%
%TO.N,/D3*%
X129725000Y-115725000D03*
%TO.P,U1,85,PD4(FT)_85*%
%TO.N,/D4*%
X130225000Y-115725000D03*
%TO.P,U1,86,PD5(FT)_86*%
%TO.N,/D5*%
X130725000Y-115725000D03*
%TO.P,U1,87,PD6(FT)_87*%
%TO.N,/D6*%
X131225000Y-115725000D03*
%TO.P,U1,88,PD7(FT)_88*%
%TO.N,/D7*%
X131725000Y-115725000D03*
%TO.P,U1,89,PB3(FT)_89*%
%TO.N,/~{ROMCS}*%
X132225000Y-115725000D03*
%TO.P,U1,90,PB4(FT)_90*%
%TO.N,/~{WR}*%
X132725000Y-115725000D03*
%TO.P,U1,91,PB5(FT)_91*%
%TO.N,/~{RD}*%
X133225000Y-115725000D03*
%TO.P,U1,92,PB6/USB2DM(FT)_92*%
%TO.N,/~{BUSACK}*%
X133725000Y-115725000D03*
%TO.P,U1,93,PB7/USB2DP(FT)_93*%
%TO.N,/~{BUSRQ}*%
X134225000Y-115725000D03*
%TO.P,U1,94,BOOT0_94*%
%TO.N,/BOOT0*%
X134725000Y-115725000D03*
%TO.P,U1,95,PB8(FT)_95*%
%TO.N,/~{HALT}*%
X135225000Y-115725000D03*
%TO.P,U1,96,PB9(FT)_96*%
%TO.N,/~{M1}*%
X135725000Y-115725000D03*
%TO.P,U1,97,PE0(FT)_97*%
%TO.N,/A0*%
X136225000Y-115725000D03*
%TO.P,U1,98,PE1(FT)_98*%
%TO.N,/A1*%
X136725000Y-115725000D03*
%TO.P,U1,99,VSS_99*%
%TO.N,GND*%
X137225000Y-115725000D03*
%TO.P,U1,100,VDD_100*%
%TO.N,+3.3V*%
X137725000Y-115725000D03*
%TD*%
D20*
%TO.P,D2,1,K_1*%
%TO.N,/LEDFLASH*%
X121500000Y-88700000D03*
%TO.P,D2,2,A_2*%
%TO.N,Net-(D2-A)*%
X121500000Y-86650000D03*
%TD*%
D21*
%TO.P,R7,1*%
%TO.N,+3.3V*%
X98140000Y-107362500D03*
%TO.P,R7,2*%
%TO.N,Net-(D1-A)*%
X98140000Y-105537500D03*
%TD*%
D12*
%TO.P,J8,1,Pin_1_1*%
%TO.N,/SWCLK*%
X124790000Y-119000000D03*
D13*
%TO.P,J8,2,Pin_2_2*%
%TO.N,/SWDIO*%
X122250000Y-119000000D03*
%TD*%
D22*
%TO.P,C7,1*%
%TO.N,+5V*%
X101720000Y-122067500D03*
%TO.P,C7,2*%
%TO.N,GND*%
X101720000Y-125192500D03*
%TD*%
D23*
%TO.P,J4,1,Pin_1_1*%
%TO.N,/A15*%
X99230000Y-131020000D03*
%TO.P,J4,2,Pin_2_2*%
%TO.N,/A14*%
X99230000Y-136100000D03*
%TO.P,J4,3,Pin_3_3*%
%TO.N,/A13*%
X101770000Y-131020000D03*
%TO.P,J4,4,Pin_4_4*%
%TO.N,/A12*%
X101770000Y-136100000D03*
%TO.P,J4,5,Pin_5_5*%
%TO.N,/D7*%
X104310000Y-131020000D03*
%TO.P,J4,6,Pin_6_6*%
%TO.N,+5V*%
X104310000Y-136100000D03*
%TO.P,J4,7,Pin_7_7*%
%TO.N,/~{OE}*%
X106850000Y-131020000D03*
%TO.P,J4,8,Pin_8_8*%
%TO.N,unconnected-(J4-Pin_8-Pad8)*%
X106850000Y-136100000D03*
%TO.P,J4,9,Pin_9_9*%
%TO.N,unconnected-(J4-Pin_9-Pad9)*%
X109390000Y-131020000D03*
%TO.P,J4,10,Pin_10_10*%
%TO.N,unconnected-(J4-Pin_10-Pad10)*%
X109390000Y-136100000D03*
%TO.P,J4,11,Pin_11_11*%
%TO.N,/D0*%
X111930000Y-131020000D03*
%TO.P,J4,12,Pin_12_12*%
%TO.N,GND*%
X111930000Y-136100000D03*
%TO.P,J4,13,Pin_13_13*%
%TO.N,/D1*%
X114470000Y-131020000D03*
%TO.P,J4,14,Pin_14_14*%
%TO.N,GND*%
X114470000Y-136100000D03*
%TO.P,J4,15,Pin_15_15*%
%TO.N,/D2*%
X117010000Y-131020000D03*
%TO.P,J4,16,Pin_16_16*%
%TO.N,/~{CK}*%
X117010000Y-136100000D03*
%TO.P,J4,17,Pin_17_17*%
%TO.N,/D6*%
X119550000Y-131020000D03*
%TO.P,J4,18,Pin_18_18*%
%TO.N,/A0*%
X119550000Y-136100000D03*
%TO.P,J4,19,Pin_19_19*%
%TO.N,/D5*%
X122090000Y-131020000D03*
%TO.P,J4,20,Pin_20_20*%
%TO.N,/A1*%
X122090000Y-136100000D03*
%TO.P,J4,21,Pin_21_21*%
%TO.N,/D3*%
X124630000Y-131020000D03*
%TO.P,J4,22,Pin_22_22*%
%TO.N,/A2*%
X124630000Y-136100000D03*
%TO.P,J4,23,Pin_23_23*%
%TO.N,/D4*%
X127170000Y-131020000D03*
%TO.P,J4,24,Pin_24_24*%
%TO.N,/A3*%
X127170000Y-136100000D03*
%TO.P,J4,25,Pin_25_25*%
%TO.N,/~{INT}*%
X129710000Y-131020000D03*
%TO.P,J4,26,Pin_26_26*%
%TO.N,unconnected-(J4-Pin_26-Pad26)*%
X129710000Y-136100000D03*
%TO.P,J4,27,Pin_27_27*%
%TO.N,/~{NMI}*%
X132250000Y-131020000D03*
%TO.P,J4,28,Pin_28_28*%
%TO.N,GND*%
X132250000Y-136100000D03*
%TO.P,J4,29,Pin_29_29*%
%TO.N,/~{HALT}*%
X134790000Y-131020000D03*
%TO.P,J4,30,Pin_30_30*%
%TO.N,/~{OE2}*%
X134790000Y-136100000D03*
%TO.P,J4,31,Pin_31_31*%
%TO.N,/~{MREQ}*%
X137330000Y-131020000D03*
%TO.P,J4,32,Pin_32_32*%
%TO.N,unconnected-(J4-Pin_32-Pad32)*%
X137330000Y-136100000D03*
%TO.P,J4,33,Pin_33_33*%
%TO.N,/~{IORQ}*%
X139870000Y-131020000D03*
%TO.P,J4,34,Pin_34_34*%
%TO.N,unconnected-(J4-Pin_34-Pad34)*%
X139870000Y-136100000D03*
%TO.P,J4,35,Pin_35_35*%
%TO.N,/~{RD}*%
X142410000Y-131020000D03*
%TO.P,J4,36,Pin_36_36*%
%TO.N,unconnected-(J4-Pin_36-Pad36)*%
X142410000Y-136100000D03*
%TO.P,J4,37,Pin_37_37*%
%TO.N,/~{WR}*%
X144950000Y-131020000D03*
%TO.P,J4,38,Pin_38_38*%
%TO.N,/~{BUSRQ}*%
X144950000Y-136100000D03*
%TO.P,J4,39,Pin_39_39*%
%TO.N,unconnected-(J4-Pin_39-Pad39)*%
X147490000Y-131020000D03*
%TO.P,J4,40,Pin_40_40*%
%TO.N,/~{RESET}*%
X147490000Y-136100000D03*
%TO.P,J4,41,Pin_41_41*%
%TO.N,/~{WAIT}*%
X150030000Y-131020000D03*
%TO.P,J4,42,Pin_42_42*%
%TO.N,/A7*%
X150030000Y-136100000D03*
%TO.P,J4,43,Pin_43_43*%
%TO.N,unconnected-(J4-Pin_43-Pad43)*%
X152570000Y-131020000D03*
%TO.P,J4,44,Pin_44_44*%
%TO.N,/A6*%
X152570000Y-136100000D03*
%TO.P,J4,45,Pin_45_45*%
%TO.N,unconnected-(J4-Pin_45-Pad45)*%
X155110000Y-131020000D03*
%TO.P,J4,46,Pin_46_46*%
%TO.N,/A5*%
X155110000Y-136100000D03*
%TO.P,J4,47,Pin_47_47*%
%TO.N,/~{M1}*%
X157650000Y-131020000D03*
%TO.P,J4,48,Pin_48_48*%
%TO.N,/A4*%
X157650000Y-136100000D03*
%TO.P,J4,49,Pin_49_49*%
%TO.N,/~{RFSH}*%
X160190000Y-131020000D03*
%TO.P,J4,50,Pin_50_50*%
%TO.N,/~{ROMCS}*%
X160190000Y-136100000D03*
%TO.P,J4,51,Pin_51_51*%
%TO.N,/A8*%
X162730000Y-131020000D03*
%TO.P,J4,52,Pin_52_52*%
%TO.N,/~{BUSACK}*%
X162730000Y-136100000D03*
%TO.P,J4,53,Pin_53_53*%
%TO.N,/A10*%
X165270000Y-131020000D03*
%TO.P,J4,54,Pin_54_54*%
%TO.N,/A9*%
X165270000Y-136100000D03*
%TO.P,J4,55,Pin_55_55*%
%TO.N,unconnected-(J4-Pin_55-Pad55)*%
X167810000Y-131020000D03*
%TO.P,J4,56,Pin_56_56*%
%TO.N,/A11*%
X167810000Y-136100000D03*
%TD*%
D24*
%TO.P,SW1,1,A_1*%
%TO.N,+3.3V*%
X107200000Y-87025000D03*
X113700000Y-87025000D03*
%TO.P,SW1,2,B_2*%
%TO.N,/BTN1*%
X107200000Y-91525000D03*
X113700000Y-91525000D03*
%TD*%
D25*
%TO.P,U2,1,GND_1*%
%TO.N,GND*%
X99550000Y-118840000D03*
%TO.P,U2,2,VO_2*%
%TO.N,+3.3V*%
X101850000Y-118840000D03*
D26*
X101850000Y-112540000D03*
D25*
%TO.P,U2,3,VI_3*%
%TO.N,+5V*%
X104150000Y-118840000D03*
%TD*%
D21*
%TO.P,R6,1*%
%TO.N,/BTN1*%
X104500000Y-91675000D03*
%TO.P,R6,2*%
%TO.N,GND*%
X104500000Y-89850000D03*
%TD*%
D27*
%TO.P,F2,1*%
%TO.N,Net-(J7-VBUS)*%
X137525000Y-92075000D03*
%TO.P,F2,2*%
%TO.N,+5V*%
X137525000Y-95050000D03*
%TD*%
D28*
%TO.P,C3,1*%
%TO.N,+3.3V*%
X123587500Y-115275000D03*
%TO.P,C3,2*%
%TO.N,GND*%
X121862500Y-115275000D03*
%TD*%
D29*
%TO.P,C2,1*%
%TO.N,+3.3V*%
X137937500Y-98550000D03*
%TO.P,C2,2*%
%TO.N,GND*%
X139662500Y-98550000D03*
%TD*%
D10*
%TO.P,C1,1*%
%TO.N,+5V*%
X104410000Y-121957500D03*
%TO.P,C1,2*%
%TO.N,GND*%
X104410000Y-123682500D03*
%TD*%
D28*
%TO.P,C5,1*%
%TO.N,+3.3V*%
X139625000Y-117600000D03*
%TO.P,C5,2*%
%TO.N,GND*%
X137900000Y-117600000D03*
%TD*%
D12*
%TO.P,J2,1,Pin_1_1*%
%TO.N,/USART_TX*%
X119250000Y-112200000D03*
D13*
%TO.P,J2,2,Pin_2_2*%
%TO.N,/USART_RX*%
X119250000Y-114740000D03*
%TD*%
D30*
%TO.P,R5,1*%
%TO.N,Net-(D2-A)*%
X118450000Y-86725000D03*
%TO.P,R5,2*%
%TO.N,+3.3V*%
X118450000Y-88550000D03*
%TD*%
D31*
%TO.N,/A15*%
X102500000Y-129100000D03*
%TO.N,+3.3V*%
X125875000Y-102325000D03*
X138125000Y-109150000D03*
X139625000Y-117600000D03*
X126240000Y-112972500D03*
X137825000Y-98550000D03*
X118450000Y-88550000D03*
X138300000Y-111575000D03*
X136800000Y-103060000D03*
X101850000Y-112540000D03*
X123587500Y-115275000D03*
X136475000Y-111487500D03*
X138325000Y-103550000D03*
X101850000Y-118840000D03*
X98140000Y-107362500D03*
%TO.N,GND*%
X122850000Y-113580000D03*
X104500000Y-89850000D03*
X137900000Y-117600000D03*
X126250000Y-110825000D03*
X101720000Y-125192500D03*
X97500000Y-114162500D03*
X138300000Y-104575000D03*
X136475000Y-113212500D03*
X140900000Y-109520000D03*
X104410000Y-123682500D03*
X139850000Y-92500000D03*
X127600000Y-102325000D03*
X136800000Y-104785000D03*
X136150000Y-109312500D03*
X98130000Y-101755000D03*
X132290000Y-99080000D03*
X99520000Y-120640000D03*
X139662500Y-98550000D03*
X145512500Y-118710000D03*
X121862500Y-115275000D03*
%TO.N,/USB1_DM*%
X130290000Y-102830000D03*
%TO.N,/USB1_DP*%
X129710000Y-107540000D03*
%TO.N,/A2*%
X140640000Y-114170000D03*
X129062500Y-123787500D03*
%TO.N,/A3*%
X129650000Y-124425000D03*
X141520000Y-113640000D03*
%TO.N,/A5*%
X157000000Y-127440000D03*
X159480000Y-127440000D03*
%TO.N,/A6*%
X159820000Y-126710000D03*
X155850000Y-126710000D03*
%TO.N,/NRST*%
X138366148Y-107550000D03*
%TO.N,/BTN1*%
X131700000Y-94250000D03*
X132300000Y-97975000D03*
%TO.N,/A7*%
X156550000Y-124640000D03*
X161010000Y-124570000D03*
%TO.N,/A9*%
X163325000Y-123800000D03*
X164525000Y-124100000D03*
%TO.N,/A12*%
X106660000Y-126930000D03*
%TO.N,/A13*%
X107830000Y-124710000D03*
%TO.N,/A14*%
X107310000Y-125410000D03*
X104370000Y-127360000D03*
%TO.N,/A15*%
X107450000Y-126210000D03*
%TO.N,/~{MREQ}*%
X114090000Y-122960000D03*
%TO.N,/~{INT}*%
X129650000Y-128330000D03*
X119850000Y-125600000D03*
X114210000Y-122050000D03*
X124090000Y-124210000D03*
%TO.N,/~{CK}*%
X114750000Y-121250000D03*
X119230000Y-124940000D03*
%TO.N,/~{OE2}*%
X110610000Y-132510000D03*
%TO.N,/~{RESET}*%
X127130000Y-108380000D03*
X145975000Y-124250000D03*
%TO.N,/~{WAIT}*%
X146690000Y-122910000D03*
X127328600Y-109501400D03*
%TO.N,/~{IORQ}*%
X126285984Y-109484016D03*
X138950000Y-123800000D03*
%TO.N,/~{NMI}*%
X121220000Y-123690000D03*
X118725000Y-121825000D03*
X118690000Y-123850000D03*
X117560000Y-120810000D03*
X132290000Y-128650000D03*
X123190000Y-123690000D03*
%TO.N,/LEDFLASH*%
X121500000Y-88700000D03*
X121680000Y-110170000D03*
%TO.N,/D3*%
X124740000Y-124990000D03*
X124670000Y-128340000D03*
%TO.N,/D4*%
X127210000Y-128290000D03*
X125800000Y-124920000D03*
%TO.N,/D5*%
X122130000Y-128340000D03*
X122990000Y-125580000D03*
%TO.N,/D7*%
X115750000Y-121250000D03*
X131590000Y-121540000D03*
X106020000Y-127620000D03*
%TO.N,/~{ROMCS}*%
X132350000Y-125800000D03*
X161000000Y-129000000D03*
%TO.N,/~{WR}*%
X133840000Y-125150000D03*
X142210000Y-127700000D03*
%TO.N,/~{RD}*%
X140360000Y-127660000D03*
X134690000Y-126420000D03*
%TO.N,/~{BUSACK}*%
X163330000Y-125340000D03*
X135920000Y-124780000D03*
%TO.N,/~{BUSRQ}*%
X136210000Y-121200000D03*
X134540000Y-120840000D03*
%TO.N,/~{HALT}*%
X136040000Y-128900000D03*
%TO.N,/A0*%
X138820000Y-121170000D03*
X120930000Y-128330000D03*
%TO.N,/A1*%
X129975000Y-122475000D03*
X138730000Y-120280000D03*
%TD*%
%TO.N,GND*%
D32*
X99520000Y-120640000D02*
X99520000Y-118870000D01*
X99520000Y-118870000D02*
X99550000Y-118840000D01*
%TO.N,/~{CK}*%
D33*
X119230000Y-124940000D02*
X119230000Y-125700000D01*
X119230000Y-125700000D02*
X118390000Y-126540000D01*
X118390000Y-126540000D02*
X118390000Y-131287405D01*
X118390000Y-131287405D02*
X117010000Y-132667405D01*
%TO.N,/~{OE2}*%
X110610000Y-132510000D02*
X110610000Y-128348262D01*
X110610000Y-128348262D02*
X116768000Y-122190262D01*
X116768000Y-109615476D02*
X122783476Y-103600000D01*
X116768000Y-122190262D02*
X116768000Y-109615476D01*
X122783476Y-103600000D02*
X124000000Y-103600000D01*
%TO.N,/A15*%
X102500000Y-129100000D02*
X101150000Y-129100000D01*
X101150000Y-129100000D02*
X99230000Y-131020000D01*
%TO.N,/A14*%
X99230000Y-136100000D02*
X103200000Y-132130000D01*
X103200000Y-132130000D02*
X103200000Y-128530000D01*
X103200000Y-128530000D02*
X104370000Y-127360000D01*
%TO.N,+3.3V*%
X123587500Y-115275000D02*
X123587500Y-114512500D01*
D32*
X99660000Y-113000000D02*
X99680000Y-112980000D01*
X97500000Y-112437500D02*
X98062500Y-113000000D01*
D33*
X125875000Y-102325000D02*
X125725000Y-102175000D01*
D32*
X99680000Y-112980000D02*
X99870000Y-112980000D01*
D33*
X136725000Y-99575001D02*
X137750001Y-98550000D01*
D32*
X139400000Y-104050000D02*
X139400000Y-103550000D01*
D33*
X138125000Y-109150000D02*
X138225000Y-109050000D01*
X138325000Y-111550000D02*
X138300000Y-111575000D01*
X137725000Y-115725000D02*
X139600000Y-117600000D01*
X138225000Y-109050000D02*
X139400000Y-109050000D01*
X139400000Y-103550000D02*
X138325000Y-103550000D01*
X136725000Y-100375000D02*
X136725000Y-99575001D01*
D32*
X99870000Y-112980000D02*
X100310000Y-112540000D01*
D33*
X139400000Y-111550000D02*
X138325000Y-111550000D01*
D32*
X98062500Y-113000000D02*
X99660000Y-113000000D01*
D33*
X125725000Y-102175000D02*
X125725000Y-100375000D01*
X123587500Y-114512500D02*
X124050000Y-114050000D01*
%TO.N,GND*%
X137501001Y-101451000D02*
X137947468Y-101451000D01*
X137225000Y-101174999D02*
X137501001Y-101451000D01*
X132225000Y-99145000D02*
X132290000Y-99080000D01*
X137225000Y-100375000D02*
X137225000Y-101174999D01*
D32*
X124050000Y-113550000D02*
X122880000Y-113550000D01*
D33*
X127125000Y-102325000D02*
X126225000Y-101425000D01*
X127600000Y-102325000D02*
X127125000Y-102325000D01*
X137947468Y-101451000D02*
X139662500Y-99735968D01*
D32*
X122880000Y-113550000D02*
X122850000Y-113580000D01*
D33*
X138775000Y-105050000D02*
X138300000Y-104575000D01*
D32*
X139400000Y-109550000D02*
X140870000Y-109550000D01*
D33*
X139400000Y-104550000D02*
X138325000Y-104550000D01*
X138325000Y-104550000D02*
X138300000Y-104575000D01*
X137225000Y-116925000D02*
X137900000Y-117600000D01*
X126225000Y-101425000D02*
X126225000Y-100375000D01*
X137225000Y-116925000D02*
X137225000Y-115725000D01*
D32*
X140870000Y-109550000D02*
X140900000Y-109520000D01*
D33*
X139662500Y-99735968D02*
X139662500Y-98550000D01*
X132225000Y-100375000D02*
X132225000Y-99145000D01*
%TO.N,Net-(D1-A)*%
X98140000Y-105537500D02*
X98140000Y-103815000D01*
%TO.N,/BOOT0*%
X139900000Y-114649000D02*
X134854532Y-114649000D01*
X134725000Y-114778532D02*
X134725000Y-115725000D01*
X143275000Y-116775000D02*
X142026000Y-116775000D01*
X134854532Y-114649000D02*
X134725000Y-114778532D01*
X142026000Y-116775000D02*
X139900000Y-114649000D01*
%TO.N,+5V*%
D32*
X105640000Y-122830000D02*
X104767500Y-121957500D01*
X104410000Y-121957500D02*
X104410000Y-119372500D01*
X105551000Y-131532471D02*
X105551000Y-130537529D01*
X137525000Y-95050000D02*
X123150000Y-95050000D01*
X104410000Y-121957500D02*
X101830000Y-121957500D01*
X105551000Y-130537529D02*
X105220000Y-130206529D01*
X123150000Y-95050000D02*
X104150000Y-114050000D01*
X104310000Y-136100000D02*
X104310000Y-132773471D01*
X139025000Y-95050000D02*
X139850000Y-94225000D01*
X105640000Y-124541134D02*
X105640000Y-122830000D01*
X137525000Y-95050000D02*
X139025000Y-95050000D01*
X104310000Y-132773471D02*
X105551000Y-131532471D01*
X105220000Y-124961134D02*
X105640000Y-124541134D01*
X104150000Y-114050000D02*
X104150000Y-118840000D01*
X105220000Y-130206529D02*
X105220000Y-124961134D01*
%TO.N,Net-(J7-VBUS)*%
D34*
X137650000Y-89557500D02*
X137650000Y-91950000D01*
%TO.N,/USB1_DM*%
D33*
X128972000Y-109309848D02*
X128972000Y-106753000D01*
X126731848Y-111550000D02*
X128972000Y-109309848D01*
X124050000Y-111550000D02*
X126731848Y-111550000D01*
X130290000Y-105435000D02*
X130290000Y-102830000D01*
X128972000Y-106753000D02*
X130290000Y-105435000D01*
%TO.N,/USB1_DP*%
X129660000Y-107540000D02*
X129250000Y-107950000D01*
X124050000Y-112050000D02*
X126625000Y-112050000D01*
X126625000Y-112050000D02*
X129250000Y-109425000D01*
X129250000Y-109425000D02*
X129250000Y-107950000D01*
X129710000Y-107540000D02*
X129660000Y-107540000D01*
%TO.N,/A2*%
X125910000Y-126940000D02*
X125910000Y-131387405D01*
X125910000Y-131387405D02*
X124670000Y-132627405D01*
X140640000Y-114170000D02*
X140520000Y-114050000D01*
X124670000Y-132627405D02*
X124670000Y-136060000D01*
X129062500Y-123787500D02*
X125910000Y-126940000D01*
X140520000Y-114050000D02*
X139400000Y-114050000D01*
%TO.N,/A3*%
X127210000Y-132627405D02*
X127210000Y-136060000D01*
X129650000Y-124425000D02*
X129450000Y-124425000D01*
X129450000Y-124425000D02*
X128336000Y-125539000D01*
X141430000Y-113550000D02*
X141520000Y-113640000D01*
X128336000Y-131501405D02*
X127210000Y-132627405D01*
X139400000Y-113550000D02*
X141430000Y-113550000D01*
X128336000Y-125539000D02*
X128336000Y-131501405D01*
%TO.N,/A4*%
X141275111Y-113100000D02*
X139450000Y-113100000D01*
X148000000Y-113100000D02*
X158841000Y-123941000D01*
X157690000Y-136060000D02*
X157690000Y-132662760D01*
X157690000Y-132662760D02*
X158841000Y-131511760D01*
X158841000Y-131511760D02*
X158841000Y-123941000D01*
X148000000Y-113100000D02*
X141764889Y-113100000D01*
X141749889Y-113085000D02*
X141290111Y-113085000D01*
X141290111Y-113085000D02*
X141275111Y-113100000D01*
X141764889Y-113100000D02*
X141749889Y-113085000D01*
%TO.N,/A5*%
X154024000Y-132449000D02*
X155110000Y-133535000D01*
X159214000Y-124814000D02*
X159118000Y-124718000D01*
X157000000Y-127440000D02*
X155594303Y-127440000D01*
X147841738Y-112550000D02*
X139400000Y-112550000D01*
X155594303Y-127440000D02*
X154024000Y-129010303D01*
X159118000Y-123826263D02*
X147841738Y-112550000D01*
X159480000Y-127440000D02*
X159214000Y-127174000D01*
X159118000Y-124718000D02*
X159118000Y-123826263D01*
X155110000Y-133535000D02*
X155110000Y-136100000D01*
X159214000Y-127174000D02*
X159214000Y-124814000D01*
X154024000Y-129010303D02*
X154024000Y-132449000D01*
%TO.N,/A6*%
X152570000Y-133615000D02*
X152570000Y-136100000D01*
X159820000Y-126710000D02*
X159820000Y-124220000D01*
X155479565Y-127080435D02*
X155479565Y-127163000D01*
X155850000Y-126710000D02*
X155479565Y-127080435D01*
X153747000Y-128895566D02*
X153747000Y-129105000D01*
X153747000Y-129105000D02*
X153736000Y-129116000D01*
X159395000Y-123711526D02*
X147733476Y-112050000D01*
X147733476Y-112050000D02*
X139400000Y-112050000D01*
X153736000Y-129116000D02*
X153736000Y-132449000D01*
X153736000Y-132449000D02*
X152570000Y-133615000D01*
X155479565Y-127163000D02*
X153747000Y-128895566D01*
X159395000Y-123795000D02*
X159395000Y-123711526D01*
X159820000Y-124220000D02*
X159395000Y-123795000D01*
%TO.N,/NRST*%
X139400000Y-107550000D02*
X138366148Y-107550000D01*
%TO.N,/BTN1*%
X130775000Y-93325000D02*
X115500000Y-93325000D01*
X115500000Y-93325000D02*
X113700000Y-91525000D01*
X107200000Y-91525000D02*
X104650000Y-91525000D01*
X134725000Y-100375000D02*
X134725000Y-99375000D01*
X134725000Y-99375000D02*
X133325000Y-97975000D01*
X131700000Y-94250000D02*
X130775000Y-93325000D01*
X133325000Y-97975000D02*
X132300000Y-97975000D01*
%TO.N,/A7*%
X140930000Y-101498261D02*
X140930000Y-98360000D01*
X160711000Y-124271000D02*
X160711000Y-123429262D01*
X131725000Y-97610000D02*
X131725000Y-100375000D01*
X132075000Y-97260000D02*
X131725000Y-97610000D01*
X160711000Y-123429262D02*
X160375000Y-123093262D01*
X151196000Y-125856000D02*
X151196000Y-132449000D01*
X156550000Y-124640000D02*
X156520000Y-124610000D01*
X160375000Y-123093262D02*
X160375000Y-120943262D01*
X140930000Y-98360000D02*
X139830000Y-97260000D01*
X161010000Y-124570000D02*
X160711000Y-124271000D01*
X150030000Y-133615000D02*
X150030000Y-136100000D01*
X160375000Y-120943262D02*
X140930000Y-101498261D01*
X152442000Y-124610000D02*
X151196000Y-125856000D01*
X139830000Y-97260000D02*
X132075000Y-97260000D01*
X156520000Y-124610000D02*
X152442000Y-124610000D01*
X151196000Y-132449000D02*
X150030000Y-133615000D01*
%TO.N,/A8*%
X131225000Y-97718262D02*
X131225000Y-100375000D01*
X131960262Y-96983000D02*
X131225000Y-97718262D01*
X162770000Y-131035000D02*
X162770000Y-123570000D01*
X141207000Y-101383524D02*
X141207000Y-98245262D01*
X160652000Y-121452000D02*
X160652000Y-120828524D01*
X141207000Y-98245262D02*
X139944737Y-96983000D01*
X160652000Y-120828524D02*
X141207000Y-101383524D01*
X162770000Y-123570000D02*
X160652000Y-121452000D01*
X139944737Y-96983000D02*
X131960262Y-96983000D01*
%TO.N,/A9*%
X164525000Y-124100000D02*
X166461000Y-126036000D01*
X165270000Y-133615000D02*
X165270000Y-136100000D01*
X141484000Y-98130524D02*
X140059475Y-96706000D01*
X130948000Y-97520263D02*
X130948000Y-99354946D01*
X163047000Y-122827000D02*
X163047000Y-122797000D01*
X130948000Y-99354946D02*
X130800000Y-99502946D01*
X130800000Y-99502946D02*
X130800000Y-100375000D01*
X131762262Y-96706000D02*
X130948000Y-97520263D01*
X166461000Y-132424000D02*
X165270000Y-133615000D01*
X163047000Y-122797000D02*
X141484000Y-101234000D01*
X141484000Y-101234000D02*
X141484000Y-98130524D01*
X166461000Y-126036000D02*
X166461000Y-132424000D01*
X140059475Y-96706000D02*
X131762262Y-96706000D01*
X163325000Y-123800000D02*
X163325000Y-123105000D01*
X163325000Y-123105000D02*
X163047000Y-122827000D01*
%TO.N,/A10*%
X130671000Y-97405526D02*
X130671000Y-99240208D01*
X163602000Y-122990262D02*
X163324000Y-122712262D01*
X163324000Y-122712262D02*
X163324000Y-122682262D01*
X131647524Y-96429001D02*
X130671000Y-97405526D01*
X130300000Y-99502946D02*
X130300000Y-100360000D01*
X163950000Y-123350000D02*
X163602000Y-123002000D01*
X141761000Y-101119262D02*
X141761000Y-98015786D01*
X163602000Y-123002000D02*
X163602000Y-122990262D01*
X163950000Y-129675000D02*
X163950000Y-123350000D01*
X163324000Y-122682262D02*
X141761000Y-101119262D01*
X130671000Y-99240208D02*
X130611208Y-99300000D01*
X130502946Y-99300000D02*
X130300000Y-99502946D01*
X141761000Y-98015786D02*
X140174212Y-96429000D01*
X165310000Y-131035000D02*
X163950000Y-129675000D01*
X130611208Y-99300000D02*
X130502946Y-99300000D01*
X140174212Y-96429000D02*
X131647524Y-96429001D01*
%TO.N,/A11*%
X129852945Y-99450001D02*
X130002946Y-99300000D01*
X129725000Y-99575001D02*
X129850000Y-99450001D01*
X130002946Y-99300000D02*
X130111208Y-99300000D01*
X140288951Y-96152000D02*
X142038000Y-97901050D01*
X130394000Y-97290789D02*
X131532787Y-96152001D01*
X129725000Y-100375000D02*
X129725000Y-99575001D01*
X163601000Y-122301000D02*
X166738000Y-125438000D01*
X142038000Y-97901050D02*
X142038000Y-101004524D01*
X166738000Y-125438000D02*
X166738000Y-135028000D01*
X130388209Y-99023000D02*
X130394000Y-99023000D01*
X166738000Y-135028000D02*
X167810000Y-136100000D01*
X131532787Y-96152001D02*
X140288951Y-96152000D01*
X129850000Y-99450001D02*
X129852945Y-99450001D01*
X163334476Y-122301000D02*
X163601000Y-122301000D01*
X130111208Y-99300000D02*
X130388209Y-99023000D01*
X142038000Y-101004524D02*
X163334476Y-122301000D01*
X130394000Y-99023000D02*
X130394000Y-97290789D01*
%TO.N,/A12*%
X129150000Y-100300000D02*
X129150000Y-99330000D01*
X127298688Y-98190001D02*
X126151314Y-98190000D01*
X123816526Y-99316524D02*
X123816524Y-99316524D01*
X127300686Y-98192000D02*
X127298688Y-98190001D01*
X127712000Y-98192000D02*
X127300686Y-98192000D01*
X128010000Y-98190000D02*
X127714000Y-98190000D01*
X126149314Y-98192000D02*
X124941051Y-98192000D01*
X114551000Y-116862739D02*
X114551000Y-108582049D01*
X106660000Y-124750000D02*
X111530000Y-119880000D01*
X126151314Y-98190000D02*
X126149314Y-98192000D01*
X111450000Y-119963739D02*
X114551000Y-116862739D01*
X129150000Y-99330000D02*
X128010000Y-98190000D01*
X124941051Y-98192000D02*
X123816526Y-99316524D01*
X114551000Y-108582049D02*
X123816524Y-99316524D01*
X127714000Y-98190000D02*
X127712000Y-98192000D01*
X106660000Y-126930000D02*
X106660000Y-124750000D01*
%TO.N,/A13*%
X114828000Y-108696786D02*
X123993023Y-99531762D01*
X127616054Y-98469000D02*
X128650000Y-99502946D01*
X125055788Y-98469000D02*
X126264052Y-98469000D01*
X124024787Y-99500000D02*
X125055788Y-98469000D01*
X127185949Y-98469000D02*
X127616054Y-98469000D01*
X127183950Y-98467001D02*
X127185949Y-98469000D01*
X126264052Y-98469000D02*
X126266052Y-98467001D01*
X126266052Y-98467001D02*
X127183950Y-98467001D01*
X107830000Y-124710000D02*
X108380000Y-124710000D01*
X108380000Y-124710000D02*
X114828000Y-118262000D01*
X128650000Y-99502946D02*
X128650000Y-100300000D01*
X114828000Y-118262000D02*
X114828000Y-108696786D01*
%TO.N,/A14*%
X108128262Y-125410000D02*
X107310000Y-125410000D01*
X128150000Y-100300000D02*
X128150000Y-99502946D01*
X115105000Y-118433262D02*
X108128262Y-125410000D01*
X126380789Y-98744001D02*
X126378788Y-98746000D01*
X127069213Y-98744001D02*
X126380789Y-98744001D01*
X128150000Y-99502946D02*
X127393054Y-98746000D01*
X125170525Y-98746000D02*
X115105000Y-108811524D01*
X127071211Y-98746000D02*
X127069213Y-98744001D01*
X115105000Y-108811524D02*
X115105000Y-118433262D01*
X126378788Y-98746000D02*
X125170525Y-98746000D01*
X127393054Y-98746000D02*
X127071211Y-98746000D01*
%TO.N,/A15*%
X107770000Y-126160000D02*
X115382000Y-118548000D01*
X126495526Y-99021001D02*
X126954475Y-99021001D01*
X126956474Y-99023000D02*
X127170054Y-99023000D01*
X127650000Y-99502946D02*
X127650000Y-100300000D01*
X107500000Y-126160000D02*
X107770000Y-126160000D01*
X115382000Y-118548000D02*
X115382000Y-109018000D01*
X115382000Y-109018000D02*
X125377000Y-99023000D01*
X126954475Y-99021001D02*
X126956474Y-99023000D01*
X126493526Y-99023000D02*
X126495526Y-99021001D01*
X127170054Y-99023000D02*
X127650000Y-99502946D01*
X125377000Y-99023000D02*
X126493526Y-99023000D01*
X107450000Y-126210000D02*
X107500000Y-126160000D01*
%TO.N,/~{MREQ}*%
X126608264Y-99300000D02*
X126610263Y-99298001D01*
X126841736Y-99300000D02*
X126947054Y-99300000D01*
X125502946Y-99300000D02*
X126608264Y-99300000D01*
X115659000Y-119101000D02*
X115659000Y-109149262D01*
X126839737Y-99298001D02*
X126841736Y-99300000D01*
X115659000Y-109149262D02*
X122975000Y-101833263D01*
X122975000Y-101833263D02*
X122975000Y-101827946D01*
X122975000Y-101827946D02*
X125502946Y-99300000D01*
X114090000Y-122960000D02*
X113640000Y-122510000D01*
X126947054Y-99300000D02*
X127150000Y-99502946D01*
X127150000Y-99502946D02*
X127150000Y-100300000D01*
X113640000Y-122510000D02*
X113640000Y-121120000D01*
X113640000Y-121120000D02*
X115659000Y-119101000D01*
X126610263Y-99298001D02*
X126839737Y-99298001D01*
%TO.N,/~{RFSH}*%
X127310001Y-101760000D02*
X126725000Y-101174999D01*
X138527532Y-101624000D02*
X138391532Y-101760000D01*
X160098000Y-123208000D02*
X160098000Y-121058000D01*
X138391532Y-101760000D02*
X127310001Y-101760000D01*
X160375000Y-123485000D02*
X160098000Y-123208000D01*
X160098000Y-121058000D02*
X140664000Y-101624000D01*
X160375000Y-130890000D02*
X160375000Y-123485000D01*
X126725000Y-101174999D02*
X126725000Y-100375000D01*
X140664000Y-101624000D02*
X138527532Y-101624000D01*
%TO.N,/~{INT}*%
X114195000Y-121020111D02*
X115936000Y-119279111D01*
X123150000Y-102050000D02*
X124050000Y-102050000D01*
X114210000Y-121494889D02*
X114195000Y-121479889D01*
X129650000Y-128330000D02*
X129750000Y-128430000D01*
X119850000Y-125570000D02*
X121080000Y-124340000D01*
X114195000Y-121479889D02*
X114195000Y-121020111D01*
X123960000Y-124340000D02*
X124090000Y-124210000D01*
X121080000Y-124340000D02*
X123960000Y-124340000D01*
X119850000Y-125600000D02*
X119850000Y-125570000D01*
X115936000Y-119279111D02*
X115936000Y-109264000D01*
X114210000Y-122050000D02*
X114210000Y-121494889D01*
X115936000Y-109264000D02*
X123150000Y-102050000D01*
X129750000Y-128430000D02*
X129750000Y-131035000D01*
%TO.N,/~{CK}*%
X114750000Y-120890000D02*
X116213000Y-119427000D01*
X114750000Y-121250000D02*
X114750000Y-120890000D01*
X123050000Y-102550000D02*
X124050000Y-102550000D01*
X117010000Y-132667405D02*
X117010000Y-136100000D01*
X116213000Y-119427000D02*
X116213000Y-109387000D01*
X116213000Y-109387000D02*
X123050000Y-102550000D01*
%TO.N,/~{OE}*%
X116490000Y-122075110D02*
X110358924Y-128206187D01*
X106890000Y-130140000D02*
X106890000Y-131035000D01*
X116490000Y-109501738D02*
X116490000Y-122075110D01*
X124050000Y-103050000D02*
X122941738Y-103050000D01*
X110358924Y-128206187D02*
X108823813Y-128206187D01*
X108823813Y-128206187D02*
X106890000Y-130140000D01*
X122941738Y-103050000D02*
X116490000Y-109501738D01*
%TO.N,/~{RESET}*%
X148656000Y-127931000D02*
X148656000Y-131501405D01*
X148656000Y-131501405D02*
X147500000Y-132657405D01*
X145975000Y-124250000D02*
X145975000Y-125250000D01*
X145975000Y-125250000D02*
X148656000Y-127931000D01*
X147500000Y-132657405D02*
X147500000Y-136090000D01*
X127130000Y-108380000D02*
X126800000Y-108050000D01*
X126800000Y-108050000D02*
X124050000Y-108050000D01*
%TO.N,/~{WAIT}*%
X146690000Y-124930000D02*
X150070000Y-128310000D01*
X126377199Y-108550000D02*
X124050000Y-108550000D01*
X146690000Y-124930000D02*
X146690000Y-122910000D01*
X127328600Y-109501400D02*
X126377199Y-108550000D01*
X150070000Y-131035000D02*
X150070000Y-128310000D01*
%TO.N,/~{IORQ}*%
X138950000Y-123800000D02*
X138460000Y-124290000D01*
X138460000Y-129585000D02*
X139910000Y-131035000D01*
X125851968Y-109050000D02*
X124050000Y-109050000D01*
X126285984Y-109484016D02*
X125851968Y-109050000D01*
X138460000Y-124290000D02*
X138460000Y-129585000D01*
%TO.N,/~{NMI}*%
X117045000Y-120295000D02*
X117045000Y-111155000D01*
X117045000Y-111155000D02*
X118650000Y-109550000D01*
X118810000Y-123730000D02*
X118690000Y-123850000D01*
X118650000Y-109550000D02*
X124050000Y-109550000D01*
X118725000Y-121825000D02*
X118810000Y-121910000D01*
X117560000Y-120810000D02*
X117045000Y-120295000D01*
X121220000Y-123690000D02*
X123190000Y-123690000D01*
X132290000Y-128650000D02*
X132290000Y-131035000D01*
X118810000Y-121910000D02*
X118810000Y-123730000D01*
%TO.N,/LEDFLASH*%
X121800000Y-110050000D02*
X124050000Y-110050000D01*
X121800000Y-110050000D02*
X121680000Y-110170000D01*
%TO.N,/USART_TX*%
X122850000Y-110550000D02*
X121200000Y-112200000D01*
X121200000Y-112200000D02*
X119250000Y-112200000D01*
X124050000Y-110550000D02*
X122850000Y-110550000D01*
%TO.N,/USART_RX*%
X124050000Y-111050000D02*
X122940000Y-111050000D01*
X122940000Y-111050000D02*
X119250000Y-114740000D01*
%TO.N,/SWDIO*%
X124050000Y-112550000D02*
X124849999Y-112550000D01*
X124849999Y-112550000D02*
X125126000Y-112826001D01*
X125126000Y-112826001D02*
X125126000Y-116124000D01*
X125126000Y-116124000D02*
X122250000Y-119000000D01*
%TO.N,/SWCLK*%
X125725000Y-118065000D02*
X124790000Y-119000000D01*
X125725000Y-115725000D02*
X125725000Y-118065000D01*
%TO.N,/D0*%
X128225000Y-115725000D02*
X128225000Y-118575000D01*
X117840000Y-121490000D02*
X117840000Y-121510000D01*
X111950000Y-127400000D02*
X111950000Y-131015000D01*
X125830000Y-120970000D02*
X118360000Y-120970000D01*
X117840000Y-121510000D02*
X111950000Y-127400000D01*
X128225000Y-118575000D02*
X125830000Y-120970000D01*
X118360000Y-120970000D02*
X117840000Y-121490000D01*
%TO.N,/D1*%
X125945152Y-121248000D02*
X128503000Y-118690151D01*
X118475152Y-121248000D02*
X125945152Y-121248000D01*
X118118000Y-121625152D02*
X118118000Y-121605152D01*
X128651000Y-116597468D02*
X128651000Y-115725000D01*
X118118000Y-121605152D02*
X118475152Y-121248000D01*
X114510000Y-125233152D02*
X118118000Y-121625152D01*
X128503000Y-118690151D02*
X128503000Y-116745468D01*
X114510000Y-125233152D02*
X114510000Y-131035000D01*
X128503000Y-116745468D02*
X128651000Y-116597468D01*
%TO.N,/D2*%
X117050000Y-131035000D02*
X117050000Y-126280000D01*
X117050000Y-126280000D02*
X121804000Y-121526000D01*
X128781000Y-118805302D02*
X128781000Y-117099000D01*
X129225000Y-116655000D02*
X129225000Y-115725000D01*
X126060304Y-121526000D02*
X128781000Y-118805302D01*
X121804000Y-121526000D02*
X126060304Y-121526000D01*
X128781000Y-117099000D02*
X129225000Y-116655000D01*
%TO.N,/D3*%
X124740000Y-124990000D02*
X124740000Y-123238041D01*
X129502000Y-116769737D02*
X129502000Y-116745054D01*
X124670000Y-131035000D02*
X124670000Y-128340000D01*
X129650000Y-116597054D02*
X129650000Y-115800000D01*
X129502000Y-116745054D02*
X129650000Y-116597054D01*
X129058000Y-118920039D02*
X129058000Y-117213738D01*
X124740000Y-123238041D02*
X129058000Y-118920039D01*
X129058000Y-117213738D02*
X129502000Y-116769737D01*
%TO.N,/D4*%
X125800000Y-124920000D02*
X125960000Y-124920000D01*
X130225000Y-120655000D02*
X130225000Y-115725000D01*
X125960000Y-124920000D02*
X130225000Y-120655000D01*
X127210000Y-128290000D02*
X127210000Y-131035000D01*
%TO.N,/D5*%
X126662000Y-124609738D02*
X130650000Y-120621738D01*
X125980000Y-125545000D02*
X126662000Y-124863000D01*
X122130000Y-128340000D02*
X122130000Y-131035000D01*
X126662000Y-124863000D02*
X126662000Y-124609738D01*
X122990000Y-125580000D02*
X123140000Y-125580000D01*
X130650000Y-120621738D02*
X130650000Y-115800000D01*
X123140000Y-125580000D02*
X123175000Y-125545000D01*
X123175000Y-125545000D02*
X125980000Y-125545000D01*
%TO.N,/D6*%
X131003000Y-116745468D02*
X131225000Y-116523468D01*
X124410263Y-125823000D02*
X126093737Y-125823000D01*
X119590000Y-127295000D02*
X120685000Y-126200000D01*
X120685000Y-126200000D02*
X124033262Y-126200000D01*
X126939000Y-124977737D02*
X126939000Y-124724476D01*
X124033262Y-126200000D02*
X124410263Y-125823000D01*
X131003000Y-120660476D02*
X131003000Y-116745468D01*
X131225000Y-116523468D02*
X131225000Y-115725000D01*
X126939000Y-124724476D02*
X131003000Y-120660476D01*
X119590000Y-131035000D02*
X119590000Y-127295000D01*
X126093737Y-125823000D02*
X126939000Y-124977737D01*
%TO.N,/D7*%
X131590000Y-116659999D02*
X131725000Y-116524999D01*
X131590000Y-121540000D02*
X131590000Y-116659999D01*
X115750000Y-122423372D02*
X110553373Y-127620000D01*
X115750000Y-121250000D02*
X115750000Y-122423372D01*
X131725000Y-116524999D02*
X131725000Y-115725000D01*
X110553373Y-127620000D02*
X106020000Y-127620000D01*
%TO.N,/~{ROMCS}*%
X132151000Y-116597468D02*
X132151000Y-115799000D01*
X132350000Y-125800000D02*
X132350000Y-125700000D01*
X132350000Y-125700000D02*
X132200000Y-125550000D01*
X132200000Y-121310000D02*
X132000000Y-121110000D01*
X161381000Y-131511760D02*
X161381000Y-129381000D01*
X161381000Y-129381000D02*
X161000000Y-129000000D01*
X160230000Y-132662760D02*
X161381000Y-131511760D01*
X132000000Y-121110000D02*
X132000000Y-119038151D01*
X160230000Y-136060000D02*
X160230000Y-132662760D01*
X132000000Y-119038151D02*
X132003000Y-119035151D01*
X132003000Y-119035151D02*
X132003000Y-116745468D01*
X132003000Y-116745468D02*
X132151000Y-116597468D01*
X132200000Y-125550000D02*
X132200000Y-121310000D01*
%TO.N,/~{WR}*%
X142210000Y-128255000D02*
X144990000Y-131035000D01*
X142210000Y-127700000D02*
X142210000Y-128255000D01*
X132725000Y-123975000D02*
X132725000Y-115725000D01*
X133840000Y-125090000D02*
X132725000Y-123975000D01*
X133840000Y-125150000D02*
X133840000Y-125090000D01*
%TO.N,/~{RD}*%
X140360000Y-127660000D02*
X140460000Y-127760000D01*
X133225000Y-123385000D02*
X133225000Y-115725000D01*
X134640000Y-126370000D02*
X134640000Y-124800000D01*
X140460000Y-129045000D02*
X142450000Y-131035000D01*
X134640000Y-124800000D02*
X133225000Y-123385000D01*
X140460000Y-127760000D02*
X140460000Y-129045000D01*
X134690000Y-126420000D02*
X134640000Y-126370000D01*
%TO.N,/~{BUSACK}*%
X135920000Y-124780000D02*
X135490000Y-124780000D01*
X163896000Y-131501405D02*
X162770000Y-132627405D01*
X163896000Y-130014152D02*
X163896000Y-131501405D01*
X163330000Y-125340000D02*
X163330000Y-129448152D01*
X133725000Y-123015000D02*
X133725000Y-115725000D01*
X135490000Y-124780000D02*
X133725000Y-123015000D01*
X162770000Y-132627405D02*
X162770000Y-136060000D01*
X163330000Y-129448152D02*
X163896000Y-130014152D01*
%TO.N,/~{BUSRQ}*%
X137425000Y-121200000D02*
X146116000Y-129891000D01*
X134225000Y-120525000D02*
X134225000Y-115725000D01*
X146116000Y-132449000D02*
X144950000Y-133615000D01*
X136210000Y-121200000D02*
X137425000Y-121200000D01*
X134540000Y-120840000D02*
X134225000Y-120525000D01*
X144950000Y-133615000D02*
X144950000Y-136100000D01*
X146116000Y-129891000D02*
X146116000Y-132449000D01*
%TO.N,/~{HALT}*%
X135356000Y-123350000D02*
X135356000Y-123300000D01*
X136490000Y-124484000D02*
X135356000Y-123350000D01*
X136040000Y-128900000D02*
X136320000Y-128900000D01*
X136320000Y-128900000D02*
X136490000Y-128730000D01*
X136490000Y-128730000D02*
X136490000Y-124484000D01*
X135356000Y-123300000D02*
X135225000Y-123169000D01*
X135225000Y-123169000D02*
X135225000Y-115725000D01*
%TO.N,/~{M1}*%
X138675000Y-122000000D02*
X135725000Y-119050000D01*
X157650000Y-131020000D02*
X157650000Y-123400000D01*
X135725000Y-119050000D02*
X135725000Y-115725000D01*
X156250000Y-122000000D02*
X138675000Y-122000000D01*
X157650000Y-123400000D02*
X156250000Y-122000000D01*
%TO.N,/A0*%
X136225000Y-118575000D02*
X136225000Y-115725000D01*
X120930000Y-128330000D02*
X120930000Y-131310000D01*
X138820000Y-121170000D02*
X136225000Y-118575000D01*
X119550000Y-132690000D02*
X119550000Y-136100000D01*
X120930000Y-131310000D02*
X119550000Y-132690000D01*
%TO.N,/A1*%
X123256000Y-127369000D02*
X123256000Y-131501405D01*
X129580213Y-122475000D02*
X127216000Y-124839214D01*
X124525000Y-126100000D02*
X123256000Y-127369000D01*
X127216000Y-124839214D02*
X127216000Y-125092474D01*
X136725000Y-118275000D02*
X136725000Y-115725000D01*
X129975000Y-122475000D02*
X129580213Y-122475000D01*
X126208475Y-126100000D02*
X124525000Y-126100000D01*
X138730000Y-120280000D02*
X136725000Y-118275000D01*
X127216000Y-125092474D02*
X126208475Y-126100000D01*
X122130000Y-132627405D02*
X122130000Y-136060000D01*
X123256000Y-131501405D02*
X122130000Y-132627405D01*
%TO.N,Net-(D2-A)*%
D32*
X118450000Y-86725000D02*
X121425000Y-86725000D01*
%TD*%
M02*
