%TF.GenerationSoftware,KiCad,Pcbnew,10.0.1*%
%TF.CreationDate,2026-05-09T19:25:56+01:00*%
%TF.ProjectId,RISKYZXSpectrum,5249534b-595a-4585-9370-65637472756d,rev?*%
%TF.SameCoordinates,Original*%
%TF.FileFunction,Soldermask,Top*%
%TF.FilePolarity,Negative*%
%FSLAX46Y46*%
G04 Gerber Fmt 4.6, Leading zero omitted, Abs format (unit mm)*
G04 Created by KiCad (PCBNEW 10.0.1) date 2026-05-09 19:25:56*
%MOMM*%
%LPD*%
G01*
G04 APERTURE LIST*
G04 Aperture macros list*
%AMRoundRect*
0 Rectangle with rounded corners*
0 $1 Rounding radius*
0 $2 $3 $4 $5 $6 $7 $8 $9 X,Y pos of 4 corners*
0 Add a 4 corners polygon primitive as box body*
4,1,4,$2,$3,$4,$5,$6,$7,$8,$9,$2,$3,0*
0 Add four circle primitives for the rounded corners*
1,1,$1+$1,$2,$3*
1,1,$1+$1,$4,$5*
1,1,$1+$1,$6,$7*
1,1,$1+$1,$8,$9*
0 Add four rect primitives between the rounded corners*
20,1,$1+$1,$2,$3,$4,$5,0*
20,1,$1+$1,$4,$5,$6,$7,0*
20,1,$1+$1,$6,$7,$8,$9,0*
20,1,$1+$1,$8,$9,$2,$3,0*%
G04 Aperture macros list end*
%ADD10RoundRect,0.237500X-0.237500X0.300000X-0.237500X-0.300000X0.237500X-0.300000X0.237500X0.300000X0*%
%ADD11RoundRect,0.250000X-0.450000X0.325000X-0.450000X-0.325000X0.450000X-0.325000X0.450000X0.325000X0*%
%ADD12R,1.700000X1.700000*%
%ADD13C,1.700000*%
%ADD14RoundRect,0.237500X0.237500X-0.300000X0.237500X0.300000X-0.237500X0.300000X-0.237500X-0.300000X0*%
%ADD15RoundRect,0.250000X0.512000X0.512000X-0.512000X0.512000X-0.512000X-0.512000X0.512000X-0.512000X0*%
%ADD16C,1.524000*%
%ADD17C,3.500000*%
%ADD18RoundRect,0.075000X0.725000X0.075000X-0.725000X0.075000X-0.725000X-0.075000X0.725000X-0.075000X0*%
%ADD19RoundRect,0.075000X0.075000X0.725000X-0.075000X0.725000X-0.075000X-0.725000X0.075000X-0.725000X0*%
%ADD20RoundRect,0.250000X0.450000X-0.325000X0.450000X0.325000X-0.450000X0.325000X-0.450000X-0.325000X0*%
%ADD21RoundRect,0.237500X0.237500X-0.250000X0.237500X0.250000X-0.237500X0.250000X-0.237500X-0.250000X0*%
%ADD22RoundRect,0.250000X-0.650000X0.412500X-0.650000X-0.412500X0.650000X-0.412500X0.650000X0.412500X0*%
%ADD23C,1.500000*%
%ADD24C,2.000000*%
%ADD25RoundRect,0.375000X0.375000X-0.625000X0.375000X0.625000X-0.375000X0.625000X-0.375000X-0.625000X0*%
%ADD26RoundRect,0.500000X1.400000X-0.500000X1.400000X0.500000X-1.400000X0.500000X-1.400000X-0.500000X0*%
%ADD27RoundRect,0.250001X-0.624999X0.462499X-0.624999X-0.462499X0.624999X-0.462499X0.624999X0.462499X0*%
%ADD28RoundRect,0.237500X0.300000X0.237500X-0.300000X0.237500X-0.300000X-0.237500X0.300000X-0.237500X0*%
%ADD29RoundRect,0.237500X-0.300000X-0.237500X0.300000X-0.237500X0.300000X0.237500X-0.300000X0.237500X0*%
%ADD30RoundRect,0.237500X-0.237500X0.250000X-0.237500X-0.250000X0.237500X-0.250000X0.237500X0.250000X0*%
G04 APERTURE END LIST*
D10*
%TO.C,C6*%
X97500000Y-112437500D03*
X97500000Y-114162500D03*
%TD*%
D11*
%TO.C,D1*%
X98130000Y-101755000D03*
X98130000Y-103805000D03*
%TD*%
D12*
%TO.C,J1*%
X143275000Y-116775000D03*
D13*
X145815000Y-116775000D03*
%TD*%
D14*
%TO.C,C12*%
X139850000Y-94225000D03*
X139850000Y-92500000D03*
%TD*%
D15*
%TO.C,J7*%
X137680000Y-88832500D03*
D16*
X135180000Y-88832500D03*
X133180000Y-88832500D03*
X130680000Y-88832500D03*
D17*
X140750000Y-86122500D03*
X127610000Y-86122500D03*
%TD*%
D18*
%TO.C,U1*%
X139400000Y-114050000D03*
X139400000Y-113550000D03*
X139400000Y-113050000D03*
X139400000Y-112550000D03*
X139400000Y-112050000D03*
X139400000Y-111550000D03*
X139400000Y-111050000D03*
X139400000Y-110550000D03*
X139400000Y-110050000D03*
X139400000Y-109550000D03*
X139400000Y-109050000D03*
X139400000Y-108550000D03*
X139400000Y-108050000D03*
X139400000Y-107550000D03*
X139400000Y-107050000D03*
X139400000Y-106550000D03*
X139400000Y-106050000D03*
X139400000Y-105550000D03*
X139400000Y-105050000D03*
X139400000Y-104550000D03*
X139400000Y-104050000D03*
X139400000Y-103550000D03*
X139400000Y-103050000D03*
X139400000Y-102550000D03*
X139400000Y-102050000D03*
D19*
X137725000Y-100375000D03*
X137225000Y-100375000D03*
X136725000Y-100375000D03*
X136225000Y-100375000D03*
X135725000Y-100375000D03*
X135225000Y-100375000D03*
X134725000Y-100375000D03*
X134225000Y-100375000D03*
X133725000Y-100375000D03*
X133225000Y-100375000D03*
X132725000Y-100375000D03*
X132225000Y-100375000D03*
X131725000Y-100375000D03*
X131225000Y-100375000D03*
X130725000Y-100375000D03*
X130225000Y-100375000D03*
X129725000Y-100375000D03*
X129225000Y-100375000D03*
X128725000Y-100375000D03*
X128225000Y-100375000D03*
X127725000Y-100375000D03*
X127225000Y-100375000D03*
X126725000Y-100375000D03*
X126225000Y-100375000D03*
X125725000Y-100375000D03*
D18*
X124050000Y-102050000D03*
X124050000Y-102550000D03*
X124050000Y-103050000D03*
X124050000Y-103550000D03*
X124050000Y-104050000D03*
X124050000Y-104550000D03*
X124050000Y-105050000D03*
X124050000Y-105550000D03*
X124050000Y-106050000D03*
X124050000Y-106550000D03*
X124050000Y-107050000D03*
X124050000Y-107550000D03*
X124050000Y-108050000D03*
X124050000Y-108550000D03*
X124050000Y-109050000D03*
X124050000Y-109550000D03*
X124050000Y-110050000D03*
X124050000Y-110550000D03*
X124050000Y-111050000D03*
X124050000Y-111550000D03*
X124050000Y-112050000D03*
X124050000Y-112550000D03*
X124050000Y-113050000D03*
X124050000Y-113550000D03*
X124050000Y-114050000D03*
D19*
X125725000Y-115725000D03*
X126225000Y-115725000D03*
X126725000Y-115725000D03*
X127225000Y-115725000D03*
X127725000Y-115725000D03*
X128225000Y-115725000D03*
X128725000Y-115725000D03*
X129225000Y-115725000D03*
X129725000Y-115725000D03*
X130225000Y-115725000D03*
X130725000Y-115725000D03*
X131225000Y-115725000D03*
X131725000Y-115725000D03*
X132225000Y-115725000D03*
X132725000Y-115725000D03*
X133225000Y-115725000D03*
X133725000Y-115725000D03*
X134225000Y-115725000D03*
X134725000Y-115725000D03*
X135225000Y-115725000D03*
X135725000Y-115725000D03*
X136225000Y-115725000D03*
X136725000Y-115725000D03*
X137225000Y-115725000D03*
X137725000Y-115725000D03*
%TD*%
D20*
%TO.C,D2*%
X121500000Y-88700000D03*
X121500000Y-86650000D03*
%TD*%
D21*
%TO.C,R7*%
X98140000Y-107362500D03*
X98140000Y-105537500D03*
%TD*%
D12*
%TO.C,J8*%
X124790000Y-119000000D03*
D13*
X122250000Y-119000000D03*
%TD*%
D22*
%TO.C,C7*%
X101720000Y-122067500D03*
X101720000Y-125192500D03*
%TD*%
D23*
%TO.C,J4*%
X99230000Y-131020000D03*
X99230000Y-136100000D03*
X101770000Y-131020000D03*
X101770000Y-136100000D03*
X104310000Y-131020000D03*
X104310000Y-136100000D03*
X106850000Y-131020000D03*
X106850000Y-136100000D03*
X109390000Y-131020000D03*
X109390000Y-136100000D03*
X111930000Y-131020000D03*
X111930000Y-136100000D03*
X114470000Y-131020000D03*
X114470000Y-136100000D03*
X117010000Y-131020000D03*
X117010000Y-136100000D03*
X119550000Y-131020000D03*
X119550000Y-136100000D03*
X122090000Y-131020000D03*
X122090000Y-136100000D03*
X124630000Y-131020000D03*
X124630000Y-136100000D03*
X127170000Y-131020000D03*
X127170000Y-136100000D03*
X129710000Y-131020000D03*
X129710000Y-136100000D03*
X132250000Y-131020000D03*
X132250000Y-136100000D03*
X134790000Y-131020000D03*
X134790000Y-136100000D03*
X137330000Y-131020000D03*
X137330000Y-136100000D03*
X139870000Y-131020000D03*
X139870000Y-136100000D03*
X142410000Y-131020000D03*
X142410000Y-136100000D03*
X144950000Y-131020000D03*
X144950000Y-136100000D03*
X147490000Y-131020000D03*
X147490000Y-136100000D03*
X150030000Y-131020000D03*
X150030000Y-136100000D03*
X152570000Y-131020000D03*
X152570000Y-136100000D03*
X155110000Y-131020000D03*
X155110000Y-136100000D03*
X157650000Y-131020000D03*
X157650000Y-136100000D03*
X160190000Y-131020000D03*
X160190000Y-136100000D03*
X162730000Y-131020000D03*
X162730000Y-136100000D03*
X165270000Y-131020000D03*
X165270000Y-136100000D03*
X167810000Y-131020000D03*
X167810000Y-136100000D03*
%TD*%
D24*
%TO.C,SW1*%
X107200000Y-87025000D03*
X113700000Y-87025000D03*
X107200000Y-91525000D03*
X113700000Y-91525000D03*
%TD*%
D25*
%TO.C,U2*%
X99550000Y-118840000D03*
X101850000Y-118840000D03*
D26*
X101850000Y-112540000D03*
D25*
X104150000Y-118840000D03*
%TD*%
D21*
%TO.C,R6*%
X104500000Y-91675000D03*
X104500000Y-89850000D03*
%TD*%
D27*
%TO.C,F2*%
X137525000Y-92075000D03*
X137525000Y-95050000D03*
%TD*%
D28*
%TO.C,C3*%
X123587500Y-115275000D03*
X121862500Y-115275000D03*
%TD*%
D29*
%TO.C,C2*%
X137937500Y-98550000D03*
X139662500Y-98550000D03*
%TD*%
D10*
%TO.C,C1*%
X104410000Y-121957500D03*
X104410000Y-123682500D03*
%TD*%
D28*
%TO.C,C5*%
X139625000Y-117600000D03*
X137900000Y-117600000D03*
%TD*%
D12*
%TO.C,J2*%
X119250000Y-112200000D03*
D13*
X119250000Y-114740000D03*
%TD*%
D30*
%TO.C,R5*%
X118450000Y-86725000D03*
X118450000Y-88550000D03*
%TD*%
M02*
