M48
; DRILL file {KiCad 9.0.7} date 2026-03-29T07:00:39+0100
; FORMAT={-:-/ absolute / inch / decimal}
; #@! TF.CreationDate,2026-03-29T07:00:39+01:00
; #@! TF.GenerationSoftware,Kicad,Pcbnew,9.0.7
; #@! TF.FileFunction,Plated,1,4,PTH
FMAT,2
INCH
; #@! TA.AperFunction,Plated,PTH,ViaDrill
T1C0.0118
; #@! TA.AperFunction,Plated,PTH,ComponentDrill
T2C0.0362
; #@! TA.AperFunction,Plated,PTH,ComponentDrill
T3C0.0394
; #@! TA.AperFunction,Plated,PTH,ComponentDrill
T4C0.0433
; #@! TA.AperFunction,Plated,PTH,ComponentDrill
T5C0.0906
%
G90
G05
T1
X3.8386Y-4.4946
X3.8634Y-4.0061
X3.8638Y-4.2269
X3.872Y-4.6862
X3.9833Y-2.8504
X3.9843Y-3.1053
X4.0047Y-4.9288
X4.0098Y-4.4307
X4.0098Y-4.6787
X4.1106Y-4.8694
X4.1642Y-3.9449
X4.1654Y-3.748
X4.174Y-5.0244
X4.1831Y-3.7087
X4.2726Y-3.7943
X4.3839Y-4.8382
X4.4043Y-5.313
X4.465Y-4.6874
X4.465Y-4.8476
X4.4675Y-2.8012
X4.5012Y-4.835
X4.511Y-5.313
X4.6283Y-4.7563
X4.6728Y-4.876
X4.6776Y-4.8276
X4.6941Y-4.9189
X4.7358Y-4.9264
X4.761Y-5.0402
X4.7724Y-4.8697
X4.7906Y-4.3374
X4.7977Y-4.5384
X4.8083Y-5.0528
X4.8366Y-4.4717
X4.8421Y-4.9319
X4.85Y-4.8697
X4.8656Y-4.5384
X4.8854Y-4.8902
X4.9083Y-5.0528
X4.911Y-4.9209
X4.9528Y-4.9181
X4.9557Y-4.0285
X4.9701Y-4.4477
X4.9705Y-4.3632
X4.9719Y-4.3104
X5.0051Y-4.2669
X5.0083Y-5.0508
X5.0129Y-4.3111
X5.0236Y-4.0285
X5.1063Y-3.0449
X5.1067Y-4.2339
X5.1083Y-5.037
X5.1295Y-4.0484
X5.1484Y-3.0642
X5.1602Y-4.9087
X5.1642Y-4.8734
X5.1669Y-4.8185
X5.1807Y-4.785
X5.2083Y-3.9008
X5.2083Y-5.065
X5.2094Y-5.3177
X5.2189Y-4.9543
X5.2476Y-5.0819
X5.248Y-5.5933
X5.2693Y-4.9689
X5.2969Y-4.7575
X5.3028Y-4.9772
X5.3512Y-4.9126
X5.3559Y-5.0748
X5.3602Y-4.3036
X5.3626Y-4.7717
X5.3671Y-3.8297
X5.373Y-4.3893
X5.373Y-4.4572
X5.3858Y-4.0575
X5.3858Y-4.1254
X5.4262Y-3.8799
X5.4291Y-4.6299
X5.438Y-4.2972
X5.4449Y-4.1171
X5.4449Y-4.3927
X5.4459Y-4.0768
X5.4475Y-4.2343
X5.4512Y-4.9059
X5.4618Y-4.7354
X5.4654Y-4.7705
X5.497Y-4.6299
X5.4985Y-3.8799
X5.5059Y-2.9951
X5.526Y-5.026
X5.537Y-4.4949
X5.5413Y-3.8303
X5.5472Y-4.3118
X5.5717Y-4.474
X5.5988Y-5.0276
X5.7288Y-4.6736
X5.7752Y-4.839
X5.8169Y-4.8882
X5.8264Y-5.0173
X5.8559Y-4.8583
X5.8657Y-4.9661
X5.9882Y-4.9894
X6.0323Y-5.0205
X6.123Y-2.841
X6.2787Y-5.0173
X6.2921Y-4.9886
X6.3311Y-4.837
X6.3764Y-5.0717
X6.4303Y-4.8906
X6.4315Y-3.6736
X6.5038Y-3.6817
T2
X5.1486Y-2.7906
X5.247Y-2.7906
X5.3258Y-2.7906
X5.4242Y-2.7906
T3
X3.9083Y-5.1589
X3.9083Y-5.2589
X3.9144Y-5.4581
X3.9144Y-5.5581
X4.0083Y-5.1589
X4.0083Y-5.2589
X4.0144Y-5.4581
X4.0144Y-5.5581
X4.1083Y-5.1589
X4.1083Y-5.2589
X4.1144Y-5.4581
X4.1144Y-5.5581
X4.2083Y-5.1589
X4.2083Y-5.2589
X4.2144Y-5.4581
X4.2144Y-5.5581
X4.3083Y-5.1589
X4.3083Y-5.2589
X4.3144Y-5.4581
X4.3144Y-5.5581
X4.4083Y-5.1589
X4.4083Y-5.2589
X4.4144Y-5.4581
X4.4144Y-5.5581
X4.5083Y-5.1589
X4.5083Y-5.2589
X4.5144Y-5.4581
X4.5144Y-5.5581
X4.6083Y-5.1589
X4.6083Y-5.2589
X4.6144Y-5.4581
X4.6144Y-5.5581
X4.6949Y-4.4173
X4.6949Y-4.5173
X4.7083Y-5.1589
X4.7083Y-5.2589
X4.7144Y-5.4581
X4.7144Y-5.5581
X4.8083Y-5.1589
X4.8083Y-5.2589
X4.813Y-4.685
X4.8144Y-5.4581
X4.8144Y-5.5581
X4.9083Y-5.1589
X4.9083Y-5.2589
X4.913Y-4.685
X4.9144Y-5.4581
X4.9144Y-5.5581
X5.0083Y-5.1589
X5.0083Y-5.2589
X5.0144Y-5.4581
X5.0144Y-5.5581
X5.1083Y-5.1589
X5.1083Y-5.2589
X5.1144Y-5.4581
X5.1144Y-5.5581
X5.2083Y-5.1589
X5.2083Y-5.2589
X5.2144Y-5.4581
X5.2144Y-5.5581
X5.3083Y-5.1589
X5.3083Y-5.2589
X5.3144Y-5.4581
X5.3144Y-5.5581
X5.4083Y-5.1589
X5.4083Y-5.2589
X5.4144Y-5.4581
X5.4144Y-5.5581
X5.5083Y-5.1589
X5.5083Y-5.2589
X5.5144Y-5.4581
X5.5144Y-5.5581
X5.6083Y-5.1589
X5.6083Y-5.2589
X5.6144Y-5.4581
X5.6144Y-5.5581
X5.6407Y-4.5974
X5.7083Y-5.1589
X5.7083Y-5.2589
X5.7144Y-5.4581
X5.7144Y-5.5581
X5.7407Y-4.5974
X5.8083Y-5.1589
X5.8083Y-5.2589
X5.8144Y-5.4581
X5.8144Y-5.5581
X5.9083Y-5.1589
X5.9083Y-5.2589
X5.9144Y-5.4581
X5.9144Y-5.5581
X6.0083Y-5.1589
X6.0083Y-5.2589
X6.0144Y-5.4581
X6.0144Y-5.5581
X6.1083Y-5.1589
X6.1083Y-5.2589
X6.1144Y-5.4581
X6.1144Y-5.5581
X6.2083Y-5.1589
X6.2083Y-5.2589
X6.2144Y-5.4581
X6.2144Y-5.5581
X6.3083Y-5.1589
X6.3083Y-5.2589
X6.3144Y-5.4581
X6.3144Y-5.5581
X6.4083Y-5.1589
X6.4083Y-5.2589
X6.4144Y-5.4581
X6.4144Y-5.5581
X6.5083Y-5.1589
X6.5083Y-5.2589
X6.5144Y-5.4581
X6.5144Y-5.5581
X6.6083Y-5.1589
X6.6083Y-5.2589
X6.6144Y-5.4581
X6.6144Y-5.5581
T4
X4.4705Y-2.4596
X4.4705Y-2.6368
X4.7264Y-2.4596
X4.7264Y-2.6368
X6.1211Y-2.497
X6.1211Y-2.6742
X6.377Y-2.497
X6.377Y-2.6742
T5
X5.0278Y-2.684
X5.5451Y-2.684
M30
