%TF.GenerationSoftware,KiCad,Pcbnew,10.0.1*%
%TF.CreationDate,2026-05-09T19:25:56+01:00*%
%TF.ProjectId,RISKYZXSpectrum,5249534b-595a-4585-9370-65637472756d,rev?*%
%TF.SameCoordinates,Original*%
%TF.FileFunction,Legend,Bot*%
%TF.FilePolarity,Positive*%
%FSLAX46Y46*%
G04 Gerber Fmt 4.6, Leading zero omitted, Abs format (unit mm)*
G04 Created by KiCad (PCBNEW 10.0.1) date 2026-05-09 19:25:56*
%MOMM*%
%LPD*%
G01*
G04 APERTURE LIST*
%ADD10C,0.150000*%
%ADD11C,0.120000*%
G04 APERTURE END LIST*
D10*
X144726666Y-120604819D02*
X145059999Y-120128628D01*
X145298094Y-120604819D02*
X145298094Y-119604819D01*
X145298094Y-119604819D02*
X144917142Y-119604819D01*
X144917142Y-119604819D02*
X144821904Y-119652438D01*
X144821904Y-119652438D02*
X144774285Y-119700057D01*
X144774285Y-119700057D02*
X144726666Y-119795295D01*
X144726666Y-119795295D02*
X144726666Y-119938152D01*
X144726666Y-119938152D02*
X144774285Y-120033390D01*
X144774285Y-120033390D02*
X144821904Y-120081009D01*
X144821904Y-120081009D02*
X144917142Y-120128628D01*
X144917142Y-120128628D02*
X145298094Y-120128628D01*
X143774285Y-120604819D02*
X144345713Y-120604819D01*
X144059999Y-120604819D02*
X144059999Y-119604819D01*
X144059999Y-119604819D02*
X144155237Y-119747676D01*
X144155237Y-119747676D02*
X144250475Y-119842914D01*
X144250475Y-119842914D02*
X144345713Y-119890533D01*
X127380357Y-104114580D02*
X127427976Y-104162200D01*
X127427976Y-104162200D02*
X127570833Y-104209819D01*
X127570833Y-104209819D02*
X127666071Y-104209819D01*
X127666071Y-104209819D02*
X127808928Y-104162200D01*
X127808928Y-104162200D02*
X127904166Y-104066961D01*
X127904166Y-104066961D02*
X127951785Y-103971723D01*
X127951785Y-103971723D02*
X127999404Y-103781247D01*
X127999404Y-103781247D02*
X127999404Y-103638390D01*
X127999404Y-103638390D02*
X127951785Y-103447914D01*
X127951785Y-103447914D02*
X127904166Y-103352676D01*
X127904166Y-103352676D02*
X127808928Y-103257438D01*
X127808928Y-103257438D02*
X127666071Y-103209819D01*
X127666071Y-103209819D02*
X127570833Y-103209819D01*
X127570833Y-103209819D02*
X127427976Y-103257438D01*
X127427976Y-103257438D02*
X127380357Y-103305057D01*
X126427976Y-104209819D02*
X126999404Y-104209819D01*
X126713690Y-104209819D02*
X126713690Y-103209819D01*
X126713690Y-103209819D02*
X126808928Y-103352676D01*
X126808928Y-103352676D02*
X126904166Y-103447914D01*
X126904166Y-103447914D02*
X126999404Y-103495533D01*
X125808928Y-103209819D02*
X125713690Y-103209819D01*
X125713690Y-103209819D02*
X125618452Y-103257438D01*
X125618452Y-103257438D02*
X125570833Y-103305057D01*
X125570833Y-103305057D02*
X125523214Y-103400295D01*
X125523214Y-103400295D02*
X125475595Y-103590771D01*
X125475595Y-103590771D02*
X125475595Y-103828866D01*
X125475595Y-103828866D02*
X125523214Y-104019342D01*
X125523214Y-104019342D02*
X125570833Y-104114580D01*
X125570833Y-104114580D02*
X125618452Y-104162200D01*
X125618452Y-104162200D02*
X125713690Y-104209819D01*
X125713690Y-104209819D02*
X125808928Y-104209819D01*
X125808928Y-104209819D02*
X125904166Y-104162200D01*
X125904166Y-104162200D02*
X125951785Y-104114580D01*
X125951785Y-104114580D02*
X125999404Y-104019342D01*
X125999404Y-104019342D02*
X126047023Y-103828866D01*
X126047023Y-103828866D02*
X126047023Y-103590771D01*
X126047023Y-103590771D02*
X125999404Y-103400295D01*
X125999404Y-103400295D02*
X125951785Y-103305057D01*
X125951785Y-103305057D02*
X125904166Y-103257438D01*
X125904166Y-103257438D02*
X125808928Y-103209819D01*
X134776666Y-104139580D02*
X134824285Y-104187200D01*
X134824285Y-104187200D02*
X134967142Y-104234819D01*
X134967142Y-104234819D02*
X135062380Y-104234819D01*
X135062380Y-104234819D02*
X135205237Y-104187200D01*
X135205237Y-104187200D02*
X135300475Y-104091961D01*
X135300475Y-104091961D02*
X135348094Y-103996723D01*
X135348094Y-103996723D02*
X135395713Y-103806247D01*
X135395713Y-103806247D02*
X135395713Y-103663390D01*
X135395713Y-103663390D02*
X135348094Y-103472914D01*
X135348094Y-103472914D02*
X135300475Y-103377676D01*
X135300475Y-103377676D02*
X135205237Y-103282438D01*
X135205237Y-103282438D02*
X135062380Y-103234819D01*
X135062380Y-103234819D02*
X134967142Y-103234819D01*
X134967142Y-103234819D02*
X134824285Y-103282438D01*
X134824285Y-103282438D02*
X134776666Y-103330057D01*
X134205237Y-103663390D02*
X134300475Y-103615771D01*
X134300475Y-103615771D02*
X134348094Y-103568152D01*
X134348094Y-103568152D02*
X134395713Y-103472914D01*
X134395713Y-103472914D02*
X134395713Y-103425295D01*
X134395713Y-103425295D02*
X134348094Y-103330057D01*
X134348094Y-103330057D02*
X134300475Y-103282438D01*
X134300475Y-103282438D02*
X134205237Y-103234819D01*
X134205237Y-103234819D02*
X134014761Y-103234819D01*
X134014761Y-103234819D02*
X133919523Y-103282438D01*
X133919523Y-103282438D02*
X133871904Y-103330057D01*
X133871904Y-103330057D02*
X133824285Y-103425295D01*
X133824285Y-103425295D02*
X133824285Y-103472914D01*
X133824285Y-103472914D02*
X133871904Y-103568152D01*
X133871904Y-103568152D02*
X133919523Y-103615771D01*
X133919523Y-103615771D02*
X134014761Y-103663390D01*
X134014761Y-103663390D02*
X134205237Y-103663390D01*
X134205237Y-103663390D02*
X134300475Y-103711009D01*
X134300475Y-103711009D02*
X134348094Y-103758628D01*
X134348094Y-103758628D02*
X134395713Y-103853866D01*
X134395713Y-103853866D02*
X134395713Y-104044342D01*
X134395713Y-104044342D02*
X134348094Y-104139580D01*
X134348094Y-104139580D02*
X134300475Y-104187200D01*
X134300475Y-104187200D02*
X134205237Y-104234819D01*
X134205237Y-104234819D02*
X134014761Y-104234819D01*
X134014761Y-104234819D02*
X133919523Y-104187200D01*
X133919523Y-104187200D02*
X133871904Y-104139580D01*
X133871904Y-104139580D02*
X133824285Y-104044342D01*
X133824285Y-104044342D02*
X133824285Y-103853866D01*
X133824285Y-103853866D02*
X133871904Y-103758628D01*
X133871904Y-103758628D02*
X133919523Y-103711009D01*
X133919523Y-103711009D02*
X134014761Y-103663390D01*
X128349580Y-112193333D02*
X128397200Y-112145714D01*
X128397200Y-112145714D02*
X128444819Y-112002857D01*
X128444819Y-112002857D02*
X128444819Y-111907619D01*
X128444819Y-111907619D02*
X128397200Y-111764762D01*
X128397200Y-111764762D02*
X128301961Y-111669524D01*
X128301961Y-111669524D02*
X128206723Y-111621905D01*
X128206723Y-111621905D02*
X128016247Y-111574286D01*
X128016247Y-111574286D02*
X127873390Y-111574286D01*
X127873390Y-111574286D02*
X127682914Y-111621905D01*
X127682914Y-111621905D02*
X127587676Y-111669524D01*
X127587676Y-111669524D02*
X127492438Y-111764762D01*
X127492438Y-111764762D02*
X127444819Y-111907619D01*
X127444819Y-111907619D02*
X127444819Y-112002857D01*
X127444819Y-112002857D02*
X127492438Y-112145714D01*
X127492438Y-112145714D02*
X127540057Y-112193333D01*
X127778152Y-113050476D02*
X128444819Y-113050476D01*
X127397200Y-112812381D02*
X128111485Y-112574286D01*
X128111485Y-112574286D02*
X128111485Y-113193333D01*
X137906666Y-106744819D02*
X138239999Y-106268628D01*
X138478094Y-106744819D02*
X138478094Y-105744819D01*
X138478094Y-105744819D02*
X138097142Y-105744819D01*
X138097142Y-105744819D02*
X138001904Y-105792438D01*
X138001904Y-105792438D02*
X137954285Y-105840057D01*
X137954285Y-105840057D02*
X137906666Y-105935295D01*
X137906666Y-105935295D02*
X137906666Y-106078152D01*
X137906666Y-106078152D02*
X137954285Y-106173390D01*
X137954285Y-106173390D02*
X138001904Y-106221009D01*
X138001904Y-106221009D02*
X138097142Y-106268628D01*
X138097142Y-106268628D02*
X138478094Y-106268628D01*
X137049523Y-106078152D02*
X137049523Y-106744819D01*
X137287618Y-105697200D02*
X137525713Y-106411485D01*
X137525713Y-106411485D02*
X136906666Y-106411485D01*
X135404580Y-111957142D02*
X135452200Y-111909523D01*
X135452200Y-111909523D02*
X135499819Y-111766666D01*
X135499819Y-111766666D02*
X135499819Y-111671428D01*
X135499819Y-111671428D02*
X135452200Y-111528571D01*
X135452200Y-111528571D02*
X135356961Y-111433333D01*
X135356961Y-111433333D02*
X135261723Y-111385714D01*
X135261723Y-111385714D02*
X135071247Y-111338095D01*
X135071247Y-111338095D02*
X134928390Y-111338095D01*
X134928390Y-111338095D02*
X134737914Y-111385714D01*
X134737914Y-111385714D02*
X134642676Y-111433333D01*
X134642676Y-111433333D02*
X134547438Y-111528571D01*
X134547438Y-111528571D02*
X134499819Y-111671428D01*
X134499819Y-111671428D02*
X134499819Y-111766666D01*
X134499819Y-111766666D02*
X134547438Y-111909523D01*
X134547438Y-111909523D02*
X134595057Y-111957142D01*
X135499819Y-112909523D02*
X135499819Y-112338095D01*
X135499819Y-112623809D02*
X134499819Y-112623809D01*
X134499819Y-112623809D02*
X134642676Y-112528571D01*
X134642676Y-112528571D02*
X134737914Y-112433333D01*
X134737914Y-112433333D02*
X134785533Y-112338095D01*
X135499819Y-113861904D02*
X135499819Y-113290476D01*
X135499819Y-113576190D02*
X134499819Y-113576190D01*
X134499819Y-113576190D02*
X134642676Y-113480952D01*
X134642676Y-113480952D02*
X134737914Y-113385714D01*
X134737914Y-113385714D02*
X134785533Y-113290476D01*
X136006666Y-106599580D02*
X136054285Y-106647200D01*
X136054285Y-106647200D02*
X136197142Y-106694819D01*
X136197142Y-106694819D02*
X136292380Y-106694819D01*
X136292380Y-106694819D02*
X136435237Y-106647200D01*
X136435237Y-106647200D02*
X136530475Y-106551961D01*
X136530475Y-106551961D02*
X136578094Y-106456723D01*
X136578094Y-106456723D02*
X136625713Y-106266247D01*
X136625713Y-106266247D02*
X136625713Y-106123390D01*
X136625713Y-106123390D02*
X136578094Y-105932914D01*
X136578094Y-105932914D02*
X136530475Y-105837676D01*
X136530475Y-105837676D02*
X136435237Y-105742438D01*
X136435237Y-105742438D02*
X136292380Y-105694819D01*
X136292380Y-105694819D02*
X136197142Y-105694819D01*
X136197142Y-105694819D02*
X136054285Y-105742438D01*
X136054285Y-105742438D02*
X136006666Y-105790057D01*
X135530475Y-106694819D02*
X135339999Y-106694819D01*
X135339999Y-106694819D02*
X135244761Y-106647200D01*
X135244761Y-106647200D02*
X135197142Y-106599580D01*
X135197142Y-106599580D02*
X135101904Y-106456723D01*
X135101904Y-106456723D02*
X135054285Y-106266247D01*
X135054285Y-106266247D02*
X135054285Y-105885295D01*
X135054285Y-105885295D02*
X135101904Y-105790057D01*
X135101904Y-105790057D02*
X135149523Y-105742438D01*
X135149523Y-105742438D02*
X135244761Y-105694819D01*
X135244761Y-105694819D02*
X135435237Y-105694819D01*
X135435237Y-105694819D02*
X135530475Y-105742438D01*
X135530475Y-105742438D02*
X135578094Y-105790057D01*
X135578094Y-105790057D02*
X135625713Y-105885295D01*
X135625713Y-105885295D02*
X135625713Y-106123390D01*
X135625713Y-106123390D02*
X135578094Y-106218628D01*
X135578094Y-106218628D02*
X135530475Y-106266247D01*
X135530475Y-106266247D02*
X135435237Y-106313866D01*
X135435237Y-106313866D02*
X135244761Y-106313866D01*
X135244761Y-106313866D02*
X135149523Y-106266247D01*
X135149523Y-106266247D02*
X135101904Y-106218628D01*
X135101904Y-106218628D02*
X135054285Y-106123390D01*
%TO.C,R1*%
D11*
X144854724Y-118187500D02*
X144345276Y-118187500D01*
X144854724Y-119232500D02*
X144345276Y-119232500D01*
%TO.C,C10*%
X126591233Y-101815000D02*
X126883767Y-101815000D01*
X126591233Y-102835000D02*
X126883767Y-102835000D01*
%TO.C,C8*%
X136290000Y-103776233D02*
X136290000Y-104068767D01*
X137310000Y-103776233D02*
X137310000Y-104068767D01*
%TO.C,C4*%
X125730000Y-112256267D02*
X125730000Y-111963733D01*
X126750000Y-112256267D02*
X126750000Y-111963733D01*
%TO.C,R4*%
X137137500Y-108714724D02*
X137137500Y-108205276D01*
X138182500Y-108714724D02*
X138182500Y-108205276D01*
%TO.C,C11*%
X135965000Y-112453733D02*
X135965000Y-112746267D01*
X136985000Y-112453733D02*
X136985000Y-112746267D01*
%TO.C,C9*%
X135640000Y-108303733D02*
X135640000Y-108596267D01*
X136660000Y-108303733D02*
X136660000Y-108596267D01*
%TD*%
M02*
