%TF.GenerationSoftware,KiCad,Pcbnew,10.0.1*%
%TF.CreationDate,2026-05-09T19:25:56+01:00*%
%TF.ProjectId,RISKYZXSpectrum,5249534b-595a-4585-9370-65637472756d,rev?*%
%TF.SameCoordinates,Original*%
%TF.FileFunction,Soldermask,Bot*%
%TF.FilePolarity,Negative*%
%FSLAX46Y46*%
G04 Gerber Fmt 4.6, Leading zero omitted, Abs format (unit mm)*
G04 Created by KiCad (PCBNEW 10.0.1) date 2026-05-09 19:25:56*
%MOMM*%
%LPD*%
G01*
G04 APERTURE LIST*
G04 Aperture macros list*
%AMRoundRect*
0 Rectangle with rounded corners*
0 $1 Rounding radius*
0 $2 $3 $4 $5 $6 $7 $8 $9 X,Y pos of 4 corners*
0 Add a 4 corners polygon primitive as box body*
4,1,4,$2,$3,$4,$5,$6,$7,$8,$9,$2,$3,0*
0 Add four circle primitives for the rounded corners*
1,1,$1+$1,$2,$3*
1,1,$1+$1,$4,$5*
1,1,$1+$1,$6,$7*
1,1,$1+$1,$8,$9*
0 Add four rect primitives between the rounded corners*
20,1,$1+$1,$2,$3,$4,$5,0*
20,1,$1+$1,$4,$5,$6,$7,0*
20,1,$1+$1,$6,$7,$8,$9,0*
20,1,$1+$1,$8,$9,$2,$3,0*%
G04 Aperture macros list end*
%ADD10R,1.700000X1.700000*%
%ADD11C,1.700000*%
%ADD12RoundRect,0.250000X0.512000X0.512000X-0.512000X0.512000X-0.512000X-0.512000X0.512000X-0.512000X0*%
%ADD13C,1.524000*%
%ADD14C,3.500000*%
%ADD15C,1.500000*%
%ADD16C,2.000000*%
%ADD17RoundRect,0.237500X0.250000X0.237500X-0.250000X0.237500X-0.250000X-0.237500X0.250000X-0.237500X0*%
%ADD18RoundRect,0.237500X-0.300000X-0.237500X0.300000X-0.237500X0.300000X0.237500X-0.300000X0.237500X0*%
%ADD19RoundRect,0.237500X-0.237500X0.300000X-0.237500X-0.300000X0.237500X-0.300000X0.237500X0.300000X0*%
%ADD20RoundRect,0.237500X0.237500X-0.300000X0.237500X0.300000X-0.237500X0.300000X-0.237500X-0.300000X0*%
%ADD21RoundRect,0.237500X0.237500X-0.250000X0.237500X0.250000X-0.237500X0.250000X-0.237500X-0.250000X0*%
G04 APERTURE END LIST*
D10*
%TO.C,J1*%
X143275000Y-116775000D03*
D11*
X145815000Y-116775000D03*
%TD*%
D12*
%TO.C,J7*%
X137680000Y-88832500D03*
D13*
X135180000Y-88832500D03*
X133180000Y-88832500D03*
X130680000Y-88832500D03*
D14*
X140750000Y-86122500D03*
X127610000Y-86122500D03*
%TD*%
D10*
%TO.C,J8*%
X124790000Y-119000000D03*
D11*
X122250000Y-119000000D03*
%TD*%
D15*
%TO.C,J4*%
X99230000Y-131020000D03*
X99230000Y-136100000D03*
X101770000Y-131020000D03*
X101770000Y-136100000D03*
X104310000Y-131020000D03*
X104310000Y-136100000D03*
X106850000Y-131020000D03*
X106850000Y-136100000D03*
X109390000Y-131020000D03*
X109390000Y-136100000D03*
X111930000Y-131020000D03*
X111930000Y-136100000D03*
X114470000Y-131020000D03*
X114470000Y-136100000D03*
X117010000Y-131020000D03*
X117010000Y-136100000D03*
X119550000Y-131020000D03*
X119550000Y-136100000D03*
X122090000Y-131020000D03*
X122090000Y-136100000D03*
X124630000Y-131020000D03*
X124630000Y-136100000D03*
X127170000Y-131020000D03*
X127170000Y-136100000D03*
X129710000Y-131020000D03*
X129710000Y-136100000D03*
X132250000Y-131020000D03*
X132250000Y-136100000D03*
X134790000Y-131020000D03*
X134790000Y-136100000D03*
X137330000Y-131020000D03*
X137330000Y-136100000D03*
X139870000Y-131020000D03*
X139870000Y-136100000D03*
X142410000Y-131020000D03*
X142410000Y-136100000D03*
X144950000Y-131020000D03*
X144950000Y-136100000D03*
X147490000Y-131020000D03*
X147490000Y-136100000D03*
X150030000Y-131020000D03*
X150030000Y-136100000D03*
X152570000Y-131020000D03*
X152570000Y-136100000D03*
X155110000Y-131020000D03*
X155110000Y-136100000D03*
X157650000Y-131020000D03*
X157650000Y-136100000D03*
X160190000Y-131020000D03*
X160190000Y-136100000D03*
X162730000Y-131020000D03*
X162730000Y-136100000D03*
X165270000Y-131020000D03*
X165270000Y-136100000D03*
X167810000Y-131020000D03*
X167810000Y-136100000D03*
%TD*%
D16*
%TO.C,SW1*%
X107200000Y-87025000D03*
X113700000Y-87025000D03*
X107200000Y-91525000D03*
X113700000Y-91525000D03*
%TD*%
D10*
%TO.C,J2*%
X119250000Y-112200000D03*
D11*
X119250000Y-114740000D03*
%TD*%
D17*
%TO.C,R1*%
X145512500Y-118710000D03*
X143687500Y-118710000D03*
%TD*%
D18*
%TO.C,C10*%
X125875000Y-102325000D03*
X127600000Y-102325000D03*
%TD*%
D19*
%TO.C,C8*%
X136800000Y-103060000D03*
X136800000Y-104785000D03*
%TD*%
D20*
%TO.C,C4*%
X126240000Y-112972500D03*
X126240000Y-111247500D03*
%TD*%
D21*
%TO.C,R4*%
X137660000Y-109372500D03*
X137660000Y-107547500D03*
%TD*%
D19*
%TO.C,C11*%
X136475000Y-111737500D03*
X136475000Y-113462500D03*
%TD*%
%TO.C,C9*%
X136150000Y-107587500D03*
X136150000Y-109312500D03*
%TD*%
M02*
