M48
; DRILL file KiCad 10.0.3 date 2026-06-03T20:17:30
; FORMAT={-:-/ absolute / metric / decimal}
; #@! TF.CreationDate,2026-06-03T20:17:30+01:00
; #@! TF.GenerationSoftware,Kicad,Pcbnew,10.0.3
; #@! TF.FileFunction,Plated,1,4,PTH
FMAT,2
METRIC
; #@! TA.AperFunction,Plated,PTH,ViaDrill
T1C0.300
; #@! TA.AperFunction,Plated,PTH,ComponentDrill
T2C0.800
; #@! TA.AperFunction,Plated,PTH,ComponentDrill
T3C0.920
; #@! TA.AperFunction,Plated,PTH,ComponentDrill
T4C1.000
; #@! TA.AperFunction,Plated,PTH,ComponentDrill
T5C1.100
; #@! TA.AperFunction,Plated,PTH,ComponentDrill
T6C2.300
%
G90
G05
T1
X97.5Y-114.162
X99.52Y-120.64
X101.72Y-125.192
X101.85Y-112.54
X101.85Y-118.84
X102.07Y-79.25
X102.15Y-82.89
X102.5Y-129.1
X104.37Y-127.36
X104.41Y-123.682
X106.02Y-127.62
X106.66Y-126.93
X107.31Y-125.41
X107.45Y-126.21
X107.83Y-124.71
X110.61Y-132.51
X114.09Y-122.96
X114.21Y-122.05
X114.75Y-121.25
X115.75Y-121.25
X116.93Y-81.065
X117.56Y-120.81
X118.69Y-123.85
X118.725Y-121.825
X119.04Y-81.07
X119.07Y-76.875
X119.23Y-124.94
X119.85Y-125.6
X120.93Y-128.33
X121.22Y-123.69
X121.862Y-115.275
X122.13Y-128.34
X122.85Y-113.58
X122.99Y-125.58
X123.19Y-123.69
X123.587Y-115.275
X124.09Y-124.21
X124.67Y-128.34
X124.74Y-124.99
X125.69Y-82.78
X125.8Y-124.92
X125.875Y-102.325
X126.24Y-112.972
X126.25Y-110.825
X126.286Y-109.484
X127.05Y-86.92
X127.13Y-108.38
X127.21Y-128.29
X127.329Y-109.501
X127.6Y-102.325
X129.062Y-123.787
X129.65Y-124.425
X129.65Y-128.33
X129.71Y-107.54
X129.975Y-122.475
X130.29Y-102.83
X130.46Y-95.08
X130.93Y-92.85
X131.59Y-121.54
X132.29Y-99.08
X132.29Y-128.65
X132.35Y-125.8
X132.65Y-102.39
X133.84Y-125.15
X134.54Y-120.84
X134.69Y-126.42
X134.72Y-97.86
X135.92Y-124.78
X136.04Y-128.9
X136.15Y-109.312
X136.21Y-121.2
X136.475Y-111.487
X136.475Y-113.212
X136.8Y-103.06
X136.8Y-104.785
X137.825Y-98.55
X137.9Y-117.6
X138.125Y-109.15
X138.3Y-104.575
X138.3Y-111.575
X138.325Y-103.55
X138.366Y-107.55
X138.73Y-120.28
X138.82Y-121.17
X138.95Y-123.8
X139.625Y-117.6
X139.662Y-98.55
X140.36Y-127.66
X140.64Y-114.17
X140.9Y-109.52
X141.52Y-113.64
X142.21Y-127.7
X145.512Y-118.71
X145.975Y-124.25
X146.28Y-81.16
X146.32Y-76.68
X146.69Y-122.91
X148.12Y-80.33
X155.85Y-126.71
X156.55Y-124.64
X157.0Y-127.44
X159.48Y-127.44
X159.82Y-126.71
X161.0Y-129.0
X161.01Y-124.57
X163.325Y-123.8
X163.33Y-125.34
X164.525Y-124.1
T2
X99.23Y-131.02
X99.23Y-136.1
X101.77Y-131.02
X101.77Y-136.1
X104.31Y-131.02
X104.31Y-136.1
X106.85Y-131.02
X106.85Y-136.1
X109.39Y-131.02
X109.39Y-136.1
X111.93Y-131.02
X111.93Y-136.1
X114.47Y-131.02
X114.47Y-136.1
X117.01Y-131.02
X117.01Y-136.1
X119.55Y-131.02
X119.55Y-136.1
X122.09Y-131.02
X122.09Y-136.1
X124.63Y-131.02
X124.63Y-136.1
X127.17Y-131.02
X127.17Y-136.1
X129.71Y-131.02
X129.71Y-136.1
X132.25Y-131.02
X132.25Y-136.1
X134.79Y-131.02
X134.79Y-136.1
X137.33Y-131.02
X137.33Y-136.1
X139.87Y-131.02
X139.87Y-136.1
X142.41Y-131.02
X142.41Y-136.1
X144.95Y-131.02
X144.95Y-136.1
X147.49Y-131.02
X147.49Y-136.1
X150.03Y-131.02
X150.03Y-136.1
X152.57Y-131.02
X152.57Y-136.1
X155.11Y-131.02
X155.11Y-136.1
X157.65Y-131.02
X157.65Y-136.1
X160.19Y-131.02
X160.19Y-136.1
X162.73Y-131.02
X162.73Y-136.1
X165.27Y-131.02
X165.27Y-136.1
X167.81Y-131.02
X167.81Y-136.1
T3
X128.42Y-79.3
X130.92Y-79.3
X132.92Y-79.3
X135.42Y-79.3
T4
X119.25Y-112.2
X119.25Y-114.74
X119.915Y-119.09
X122.455Y-119.09
X143.275Y-116.775
X145.815Y-116.775
T5
X105.42Y-78.48
X105.42Y-82.98
X111.92Y-78.48
X111.92Y-82.98
T6
X125.35Y-76.59
X138.49Y-76.59
M30
